<svg width="20" height="20" viewBox="0 0 20 20" fill="none" xmlns="http://www.w3.org/2000/svg">
<path d="M8.96152 20C8.73131 20 8.52577 19.925 8.34494 19.775C8.16406 19.625 8.05716 19.4334 8.02431 19.2L7.65436 16.85C7.34193 16.7334 7.01311 16.575 6.66783 16.375C6.32254 16.175 6.01834 15.9666 5.75528 15.75L3.63423 16.75C3.40402 16.85 3.17383 16.8625 2.94364 16.7875C2.71345 16.7125 2.53258 16.5667 2.40105 16.35L0.970571 13.75C0.839032 13.5333 0.802036 13.3083 0.859586 13.075C0.917131 12.8416 1.04456 12.65 1.24187 12.5L3.21494 11.025C3.18205 10.875 3.1615 10.7042 3.15328 10.5125C3.14506 10.3208 3.14095 10.15 3.14095 10C3.14095 9.85 3.14506 9.67915 3.15328 9.4875C3.1615 9.29585 3.18205 9.125 3.21494 8.975L1.24187 7.5C1.04456 7.35 0.917131 7.15835 0.859586 6.925C0.802036 6.69165 0.839032 6.46665 0.970571 6.25L2.40105 3.65C2.53258 3.43335 2.71345 3.2875 2.94364 3.2125C3.17383 3.1375 3.40402 3.15 3.63423 3.25L5.75528 4.25C6.01834 4.03335 6.32254 3.825 6.66783 3.625C7.01311 3.425 7.34193 3.275 7.65436 3.175L8.02431 0.8C8.05716 0.566665 8.16406 0.375 8.34494 0.225C8.52577 0.0749999 8.73131 0 8.96152 0H11.8718C12.102 0 12.3075 0.0749999 12.4884 0.225C12.6692 0.375 12.7761 0.566665 12.809 0.8L13.179 3.15C13.4913 3.26665 13.8243 3.42085 14.1778 3.6125C14.5313 3.80415 14.8314 4.01665 15.078 4.25L17.1991 3.25C17.4293 3.15 17.6554 3.1375 17.8773 3.2125C18.0993 3.2875 18.276 3.43335 18.4076 3.65L19.8627 6.25C19.9942 6.46665 20.0312 6.69585 19.9737 6.9375C19.9162 7.17915 19.7888 7.36665 19.5914 7.5L17.6184 8.925C17.6512 9.09165 17.6718 9.27085 17.68 9.4625C17.6882 9.65415 17.6924 9.83335 17.6924 10C17.6924 10.1666 17.6882 10.3417 17.68 10.525C17.6718 10.7084 17.6512 10.8834 17.6184 11.05L19.5914 12.5C19.7888 12.6333 19.9162 12.8208 19.9737 13.0625C20.0312 13.3041 19.9942 13.5333 19.8627 13.75L18.4323 16.35C18.3007 16.5667 18.1198 16.7125 17.8897 16.7875C17.6595 16.8625 17.4293 16.85 17.1991 16.75L15.078 15.75C14.8149 15.9666 14.5149 16.1791 14.1778 16.3875C13.8407 16.5958 13.5078 16.75 13.179 16.85L12.809 19.2C12.7761 19.4334 12.6692 19.625 12.4884 19.775C12.3075 19.925 12.102 20 11.8718 20H8.96152ZM10.4167 13.25C11.3045 13.25 12.0609 12.9333 12.6857 12.3C13.3105 11.6666 13.6229 10.9 13.6229 10C13.6229 9.1 13.3105 8.33335 12.6857 7.7C12.0609 7.06665 11.3045 6.75 10.4167 6.75C9.52878 6.75 8.7724 7.06665 8.14763 7.7C7.52281 8.33335 7.21042 9.1 7.21042 10C7.21042 10.9 7.52281 11.6666 8.14763 12.3C8.7724 12.9333 9.52878 13.25 10.4167 13.25Z" fill="#1A1E27"/>
</svg>
