<svg width="54" height="54" viewBox="0 0 54 54" fill="none" xmlns="http://www.w3.org/2000/svg">
<g clip-path="url(#clip0_1907_10403)">
<path d="M30.9094 19.4932C33.8209 19.4932 36.7216 19.5149 39.6331 19.5257C42.6961 19.5257 45.7483 19.5257 48.8113 19.5257C51.2574 19.5257 52.9784 21.2151 52.9784 23.6625C53 29.0338 53 34.416 53 39.7873C53 42.343 51.3007 44.0108 48.7464 44.0108C34.6651 43.9891 20.5838 43.9566 6.50255 43.9458C5.38773 43.9458 4.34868 43.8158 3.46116 43.0794C2.49788 42.2889 2 41.2709 2 40.0581C2 34.5351 2 29.0122 2.05412 23.4892C2.07576 21.096 3.73175 19.5365 6.13455 19.5257C11.806 19.5257 17.4775 19.5257 23.149 19.5257C23.4845 19.5257 23.82 19.5799 24.1447 19.4716C25.0323 19.2766 25.9198 19.4066 26.8073 19.3958C28.0195 19.3741 29.2209 19.3958 30.4332 19.3958C30.6063 19.3958 30.7687 19.4174 30.9202 19.5041L30.9094 19.4932Z" fill="#353C49"/>
<path d="M26.331 16.3313C26.3743 16.0389 26.1903 15.8007 26.0929 15.5516C25.66 14.317 25.292 13.0608 25.3786 11.7288C25.4868 10.1044 26.1903 9.33556 27.7922 9.07566C29.1018 8.85908 30.4006 8.63166 31.6562 8.18766C32.0242 8.05771 32.3922 7.92776 32.7169 7.70034C33.0632 7.45127 33.3879 7.21302 33.3663 6.68239C33.3446 6.32502 33.5936 6.03263 33.9832 6.00014C34.3728 5.97848 34.5677 6.21673 34.6543 6.60658C34.8274 7.4621 34.4161 8.29595 33.5286 8.84825C32.3813 9.56298 31.0825 9.82288 29.7837 10.0828C29.2317 10.1911 28.6797 10.2669 28.1277 10.3535C27.0237 10.5268 26.6341 10.96 26.6882 12.0862C26.7531 13.5806 27.2727 14.956 27.9113 16.2988C27.3917 16.5154 26.8614 16.5154 26.3202 16.3313H26.331Z" fill="#8E95A2"/>
<path d="M26.331 16.3311C26.8614 16.3203 27.3917 16.3094 27.9221 16.2986C29.6755 16.2445 30.7145 17.0025 30.8877 18.4428C30.931 18.7893 30.9093 19.1467 30.9202 19.4933C28.9395 19.4933 26.9588 19.5149 24.9673 19.4933C24.6967 19.4933 24.4153 19.6124 24.1447 19.4608C24.1014 18.432 24.123 17.4249 25.108 16.7751C25.4868 16.526 25.8656 16.2878 26.3418 16.3311H26.331Z" fill="#8E95A2"/>
<path d="M11.9792 39.82C11.6978 39.5601 11.6761 39.2244 11.6761 38.8887C11.6761 38.109 11.6761 37.3184 11.6761 36.5387C11.6761 35.7482 12.2281 35.2067 13.0074 35.2067C18.0944 35.1959 23.1815 35.1742 28.2576 35.1526C28.3659 35.1526 28.4849 35.1526 28.5932 35.1526C29.9461 35.1851 30.2816 35.5424 30.2708 36.9286C30.2708 37.6217 30.2924 38.3039 30.2708 38.997C30.2383 39.8958 29.8812 40.2424 28.9828 40.2424C25.2812 40.264 21.5688 40.2748 17.8671 40.2857C16.2869 40.2857 14.6959 40.2857 13.1157 40.2857C12.6719 40.2857 12.2606 40.199 11.99 39.7984L11.9792 39.82Z" fill="#FF3030"/>
<path d="M44.179 39.939C43.8867 39.6249 43.8542 39.2675 43.8542 38.8885C43.8975 36.0187 43.93 33.149 43.9733 30.2792C43.9733 29.6186 44.3738 29.1638 45.0232 29.1421C46.1055 29.0988 47.1879 29.0772 48.2594 29.0988C49.0603 29.1097 49.5365 29.6186 49.5365 30.42C49.5582 33.1923 49.569 35.9754 49.569 38.7477C49.569 39.0293 49.5474 39.3109 49.4824 39.5816C49.3742 40.0472 49.0711 40.3505 48.5841 40.3613C47.4152 40.3938 46.2354 40.3938 45.0665 40.3938C44.6877 40.3938 44.3738 40.253 44.1681 39.9498L44.179 39.939Z" fill="#FF3030"/>
<path d="M49.0278 27.9401C48.8438 28.1459 48.5624 28.2 48.2485 28.2C45.1206 28.2108 41.9926 28.2325 38.8538 28.2433C37.9122 28.2433 37.3277 27.6261 37.3493 26.6947C37.3602 26.0017 37.3818 25.3194 37.4035 24.6263C37.4251 23.5976 37.8797 23.1536 38.9187 23.1536C41.3648 23.1536 43.8001 23.1752 46.2462 23.1861C46.9389 23.1861 47.6208 23.1861 48.3135 23.1969C49.1793 23.2294 49.5365 23.5759 49.5582 24.4314C49.5798 25.2328 49.5582 26.0342 49.5798 26.8355C49.5798 27.2795 49.3958 27.6261 49.0278 27.9293V27.9401Z" fill="white"/>
<path d="M16.9905 29.5754C17.1961 29.8028 17.2935 30.0627 17.2827 30.3551C17.2827 31.3081 17.2827 32.2502 17.2502 33.2032C17.2286 33.9721 16.8497 34.3619 16.0705 34.3944C15.0531 34.4269 14.0248 34.4378 12.9966 34.4269C12.2714 34.4269 11.871 34.0154 11.8493 33.2682C11.8169 32.3152 11.806 31.3731 11.806 30.4201C11.806 29.6187 12.1957 29.1964 12.9858 29.1855C14.1006 29.1855 15.2154 29.2072 16.3302 29.218C16.6225 29.218 16.8173 29.3696 16.9688 29.5754H16.9905Z" fill="white"/>
<path d="M23.4196 29.5537C23.636 29.7811 23.7226 30.0519 23.7226 30.3659C23.7118 31.2972 23.7226 32.2286 23.6902 33.1707C23.6685 33.9721 23.2897 34.3619 22.4671 34.3836C21.4822 34.4052 20.4864 34.4161 19.5015 34.4161C18.7438 34.4161 18.3326 34.0587 18.3001 33.3115C18.246 32.2827 18.2351 31.2539 18.2568 30.236C18.2568 29.5862 18.6897 29.1964 19.3932 29.1855C20.5297 29.1747 21.6662 29.2072 22.8026 29.218C23.0732 29.218 23.2572 29.3696 23.4087 29.5646L23.4196 29.5537Z" fill="white"/>
<path d="M29.8704 29.5536C30.0219 29.8244 30.1626 30.1168 30.1626 30.4741C30.1518 31.373 30.1626 32.261 30.1301 33.1598C30.1085 33.9395 29.7405 34.3294 28.9612 34.3619C27.9222 34.3943 26.8723 34.4052 25.8332 34.3943C25.1514 34.3943 24.7617 34.0045 24.7401 33.3114C24.7076 32.3043 24.686 31.2972 24.6968 30.29C24.6968 29.6186 25.0756 29.1963 25.7683 29.1746C26.9264 29.153 28.0845 29.1855 29.2318 29.2071C29.4807 29.2071 29.6972 29.3479 29.8704 29.5645V29.5536Z" fill="white"/>
<path d="M36.2453 23.3918C36.5159 23.6842 36.5483 24.009 36.5483 24.3556C36.5483 25.2869 36.5267 26.2182 36.5267 27.1495C36.5267 27.9292 36.202 28.2974 35.4335 28.3083C34.3404 28.3191 33.2364 28.2974 32.1432 28.2541C31.5371 28.2325 31.1475 27.8426 31.1366 27.2037C31.115 26.1857 31.1258 25.1569 31.1583 24.1282C31.1799 23.4892 31.602 23.1102 32.2406 23.0994C33.3013 23.0777 34.362 23.0777 35.4227 23.0669C35.7582 23.0669 36.0505 23.1319 36.2345 23.3918H36.2453Z" fill="white"/>
<path d="M36.148 34.1238C35.964 34.3187 35.7042 34.3512 35.4444 34.3512C34.4379 34.3512 33.4313 34.3837 32.4247 34.3837C31.548 34.3837 31.1692 33.9939 31.1692 33.1059C31.1692 32.1529 31.18 31.1999 31.1908 30.2469C31.1908 29.543 31.5155 29.1532 32.2407 29.1423C33.3772 29.1207 34.5136 29.1423 35.6501 29.1965C36.1913 29.2181 36.5701 29.6188 36.5809 30.2036C36.6026 31.2432 36.5809 32.2937 36.5593 33.3333C36.5593 33.6473 36.4186 33.9072 36.148 34.113V34.1238Z" fill="white"/>
<path d="M5.73404 29.4671C5.97216 29.2722 6.23192 29.1855 6.52416 29.1855C7.62814 29.1964 8.72131 29.2072 9.8253 29.2397C10.5072 29.2614 10.7778 29.5754 10.7886 30.2685C10.7886 31.2215 10.8211 32.1744 10.8319 33.1274C10.8427 33.9288 10.4855 34.3728 9.69542 34.4053C8.66719 34.4486 7.63897 34.4486 6.62157 34.4378C5.88557 34.4378 5.45264 33.9613 5.43099 33.2357C5.40934 32.3044 5.40934 31.3731 5.3877 30.4417C5.3877 30.0627 5.48511 29.7487 5.74487 29.4888L5.73404 29.4671Z" fill="white"/>
<path d="M36.2886 40.0148C36.0289 40.2422 35.7908 40.318 35.5202 40.3071C34.4054 40.2855 33.2797 40.2855 32.1649 40.253C31.5155 40.2313 31.1691 39.8848 31.1583 39.235C31.1583 38.1954 31.1583 37.145 31.1691 36.1054C31.18 35.5423 31.6346 35.1199 32.3056 35.1091C33.3447 35.0874 34.3945 35.1091 35.4336 35.1524C36.2129 35.1849 36.5592 35.5856 36.57 36.3653C36.5917 37.2641 36.5917 38.1521 36.6133 39.0509C36.6133 39.4408 36.5159 39.7873 36.2778 40.0148H36.2886Z" fill="white"/>
<path d="M42.6745 35.5208C42.9017 35.7807 42.9234 36.0947 42.9234 36.4088C42.9234 37.3401 42.9017 38.2714 42.9017 39.2027C42.9017 39.9825 42.577 40.3506 41.8086 40.3615C40.6938 40.3723 39.5681 40.3615 38.4533 40.3182C37.8905 40.2965 37.5009 39.7875 37.5009 39.0728C37.5009 38.1631 37.5009 37.2426 37.5225 36.333C37.5441 35.5858 37.9013 35.1851 38.659 35.1526C39.7197 35.1093 40.7804 35.1201 41.8411 35.1201C42.1658 35.1201 42.4688 35.2284 42.6745 35.4991V35.5208Z" fill="white"/>
<path d="M17.0121 23.5003C17.2286 23.706 17.2394 23.9226 17.2394 24.1501C17.2394 25.2113 17.2394 26.2726 17.2178 27.3339C17.2178 27.9511 16.9147 28.2544 16.287 28.2652C15.2046 28.2868 14.1331 28.2977 13.0508 28.2977C12.2282 28.2977 11.8277 27.8753 11.8169 27.0415C11.8169 26.1426 11.8169 25.2546 11.8385 24.3558C11.8602 23.3379 12.0983 23.1213 13.1049 23.1213C14.0682 23.1213 15.0423 23.1104 16.0056 23.0996C16.4169 23.0996 16.7848 23.1862 17.0121 23.4895V23.5003Z" fill="white"/>
<path d="M29.8054 28.0485C29.5782 28.2326 29.3184 28.2435 29.0586 28.2435C28.0196 28.2435 26.9697 28.2651 25.9307 28.2759C25.173 28.2759 24.7184 27.9186 24.6968 27.1605C24.6643 26.1534 24.686 25.1463 24.7293 24.1392C24.7509 23.5002 25.1838 23.132 25.8224 23.1104C26.8831 23.0887 27.9438 23.0779 29.0045 23.0779C29.6647 23.0779 30.076 23.4352 30.0977 24.0958C30.1193 25.1896 30.0977 26.2942 30.0652 27.3879C30.0652 27.6262 29.9786 27.8644 29.8054 28.0377V28.0485Z" fill="white"/>
<path d="M10.583 35.5315C10.767 35.7265 10.8319 35.9539 10.8211 36.203C10.8211 37.2317 10.8211 38.2497 10.7886 39.2785C10.767 40.0474 10.5072 40.2748 9.7604 40.2856C8.69971 40.2964 7.63901 40.3181 6.57831 40.3181C5.80985 40.3181 5.40938 39.9282 5.39856 39.1485C5.39856 38.1956 5.39856 37.2426 5.42021 36.3004C5.44185 35.564 5.85314 35.1742 6.57831 35.1633C7.58489 35.1417 8.59147 35.1417 9.59805 35.1309C9.98769 35.1309 10.3449 35.1958 10.5722 35.5424L10.583 35.5315Z" fill="white"/>
<path d="M18.7006 23.3594C18.8738 23.1753 19.101 23.1319 19.35 23.1211C20.4323 23.1103 21.5038 23.0886 22.5862 23.0886C23.2139 23.0886 23.6361 23.4352 23.6577 24.0633C23.6902 25.2003 23.6577 26.3374 23.6252 27.4637C23.6036 27.9943 23.2681 28.2434 22.7377 28.2434C21.6446 28.2434 20.5406 28.2759 19.4474 28.265C18.733 28.265 18.3001 27.9077 18.2785 27.1929C18.246 26.1533 18.2785 25.1029 18.3109 24.0633C18.3109 23.7709 18.4625 23.5326 18.7114 23.3377L18.7006 23.3594Z" fill="white"/>
<path d="M10.3666 28.0484C10.1934 28.2325 9.94444 28.2758 9.67385 28.2758C8.61316 28.265 7.55246 28.2542 6.48094 28.2325C5.7666 28.2109 5.38778 27.821 5.37695 27.0954C5.37695 26.1641 5.37695 25.2328 5.3986 24.3015C5.42025 23.3593 5.69083 23.1319 6.62165 23.1428C7.59576 23.1428 8.55904 23.1211 9.53315 23.1211C10.4531 23.1211 10.8103 23.4893 10.8103 24.4098C10.8103 25.3194 10.7778 26.2399 10.7995 27.1496C10.7995 27.5178 10.6696 27.7993 10.3666 28.0484Z" fill="white"/>
<path d="M37.9013 29.4237C38.1069 29.2288 38.3667 29.1963 38.6265 29.1963C39.7088 29.2071 40.7911 29.2179 41.8735 29.2396C42.6095 29.2613 42.945 29.6186 42.945 30.3659C42.945 31.3513 42.945 32.3476 42.9234 33.3331C42.9234 33.9287 42.5554 34.3077 41.9493 34.3294C40.8669 34.351 39.7846 34.3727 38.7022 34.3619C37.9554 34.3619 37.6307 34.0045 37.5874 33.2573C37.5441 32.326 37.5116 31.3946 37.4684 30.4633C37.4467 30.041 37.5874 29.6944 37.8905 29.4129L37.9013 29.4237Z" fill="white"/>
</g>
<defs>
<clipPath id="clip0_1907_10403">
<rect width="51" height="38" fill="white" transform="translate(2 6)"/>
</clipPath>
</defs>
</svg>
