<svg width="54" height="54" viewBox="0 0 54 54" fill="none" xmlns="http://www.w3.org/2000/svg">
<g clip-path="url(#clip0_1907_10787)">
<path d="M30.9094 19.4932C33.8209 19.4932 36.7216 19.5149 39.6331 19.5257C42.6961 19.5257 45.7483 19.5257 48.8113 19.5257C51.2574 19.5257 52.9784 21.2151 52.9784 23.6625C53 29.0338 53 34.416 53 39.7873C53 42.343 51.3007 44.0108 48.7464 44.0108C34.6651 43.9891 20.5838 43.9566 6.50255 43.9458C5.38773 43.9458 4.34868 43.8158 3.46116 43.0794C2.49788 42.2889 2 41.2709 2 40.0581C2 34.5351 2 29.0122 2.05412 23.4892C2.07576 21.096 3.73175 19.5365 6.13455 19.5257C11.806 19.5257 17.4775 19.5257 23.149 19.5257C23.4845 19.5257 23.82 19.5799 24.1447 19.4716C25.0323 19.2766 25.9198 19.4066 26.8073 19.3958C28.0195 19.3741 29.2209 19.3958 30.4332 19.3958C30.6063 19.3958 30.7687 19.4174 30.9202 19.5041L30.9094 19.4932Z" fill="#C4CAD4"/>
<path d="M26.3312 16.3315C26.3745 16.0391 26.1905 15.8009 26.093 15.5518C25.6601 14.3173 25.2921 13.0611 25.3787 11.7291C25.4869 10.1047 26.1905 9.33581 27.7923 9.07591C29.102 8.85932 30.4008 8.6319 31.6563 8.1879C32.0243 8.05795 32.3923 7.928 32.717 7.70058C33.0633 7.45151 33.388 7.21327 33.3664 6.68263C33.3447 6.32526 33.5937 6.03287 33.9833 6.00039C34.373 5.97873 34.5678 6.21697 34.6544 6.60683C34.8275 7.46234 34.4163 8.2962 33.5287 8.84849C32.3815 9.56322 31.0826 9.82313 29.7838 10.083C29.2318 10.1913 28.6798 10.2671 28.1278 10.3538C27.0239 10.527 26.6342 10.9602 26.6883 12.0864C26.7533 13.5809 27.2728 14.9562 27.9114 16.299C27.3919 16.5156 26.8615 16.5156 26.3203 16.3315H26.3312Z" fill="#C4CAD4"/>
<path d="M26.331 16.3311C26.8614 16.3203 27.3917 16.3094 27.9221 16.2986C29.6755 16.2445 30.7145 17.0025 30.8877 18.4428C30.931 18.7893 30.9093 19.1467 30.9202 19.4933C28.9395 19.4933 26.9588 19.5149 24.9673 19.4933C24.6967 19.4933 24.4153 19.6124 24.1447 19.4608C24.1014 18.432 24.123 17.4249 25.108 16.7751C25.4868 16.526 25.8656 16.2878 26.3418 16.3311H26.331Z" fill="#C4CAD4"/>
<path d="M11.9791 39.8198C11.6977 39.5599 11.676 39.2242 11.676 38.8885C11.676 38.1087 11.676 37.3182 11.676 36.5385C11.676 35.748 12.228 35.2065 13.0073 35.2065C18.0943 35.1957 23.1813 35.174 28.2575 35.1523C28.3658 35.1523 28.4848 35.1523 28.593 35.1523C29.946 35.1848 30.2815 35.5422 30.2707 36.9283C30.2707 37.6214 30.2923 38.3037 30.2707 38.9967C30.2382 39.8956 29.881 40.2421 28.9827 40.2421C25.2811 40.2638 21.5686 40.2746 17.867 40.2854C16.2868 40.2854 14.6958 40.2854 13.1155 40.2854C12.6718 40.2854 12.2605 40.1988 11.9899 39.7981L11.9791 39.8198Z" fill="#FF3030"/>
<path d="M44.179 39.9394C43.8867 39.6254 43.8542 39.268 43.8542 38.889C43.8975 36.0192 43.93 33.1495 43.9733 30.2797C43.9733 29.6191 44.3738 29.1643 45.0232 29.1426C46.1055 29.0993 47.1879 29.0777 48.2594 29.0993C49.0603 29.1101 49.5365 29.6191 49.5365 30.4205C49.5582 33.1928 49.569 35.9759 49.569 38.7482C49.569 39.0298 49.5474 39.3113 49.4824 39.5821C49.3742 40.0477 49.0711 40.351 48.5841 40.3618C47.4152 40.3943 46.2354 40.3943 45.0665 40.3943C44.6877 40.3943 44.3738 40.2535 44.1681 39.9503L44.179 39.9394Z" fill="#FF3030"/>
<path d="M49.0277 27.9408C48.8437 28.1466 48.5623 28.2007 48.2484 28.2007C45.1204 28.2116 41.9925 28.2332 38.8537 28.2441C37.912 28.2441 37.3276 27.6268 37.3492 26.6955C37.36 26.0024 37.3817 25.3202 37.4033 24.6271C37.425 23.5983 37.8796 23.1543 38.9186 23.1543C41.3647 23.1543 43.8 23.176 46.2461 23.1868C46.9388 23.1868 47.6207 23.1868 48.3133 23.1976C49.1792 23.2301 49.5364 23.5766 49.558 24.4322C49.5797 25.2335 49.558 26.0349 49.5797 26.8363C49.5797 27.2803 49.3957 27.6268 49.0277 27.93V27.9408Z" fill="white"/>
<path d="M16.9903 29.5754C17.196 29.8028 17.2934 30.0627 17.2826 30.3551C17.2826 31.3081 17.2826 32.2502 17.2501 33.2032C17.2284 33.9721 16.8496 34.3619 16.0703 34.3944C15.0529 34.4269 14.0247 34.4378 12.9965 34.4269C12.2713 34.4269 11.8708 34.0154 11.8492 33.2682C11.8167 32.3152 11.8059 31.3731 11.8059 30.4201C11.8059 29.6187 12.1956 29.1964 12.9857 29.1855C14.1005 29.1855 15.2153 29.2072 16.3301 29.218C16.6223 29.218 16.8172 29.3696 16.9687 29.5754H16.9903Z" fill="white"/>
<path d="M23.4196 29.554C23.636 29.7814 23.7226 30.0521 23.7226 30.3662C23.7118 31.2975 23.7226 32.2288 23.6902 33.171C23.6685 33.9723 23.2897 34.3622 22.4671 34.3838C21.4822 34.4055 20.4864 34.4163 19.5015 34.4163C18.7438 34.4163 18.3326 34.059 18.3001 33.3117C18.246 32.283 18.2351 31.2542 18.2568 30.2362C18.2568 29.5865 18.6897 29.1966 19.3932 29.1858C20.5297 29.1749 21.6662 29.2074 22.8026 29.2183C23.0732 29.2183 23.2572 29.3699 23.4087 29.5648L23.4196 29.554Z" fill="white"/>
<path d="M29.8703 29.5541C30.0218 29.8249 30.1625 30.1173 30.1625 30.4746C30.1517 31.3735 30.1625 32.2615 30.13 33.1603C30.1084 33.94 29.7404 34.3299 28.9611 34.3623C27.922 34.3948 26.8722 34.4057 25.8331 34.3948C25.1512 34.3948 24.7616 34.005 24.74 33.3119C24.7075 32.3048 24.6858 31.2977 24.6967 30.2905C24.6967 29.6191 25.0755 29.1968 25.7682 29.1751C26.9263 29.1535 28.0844 29.1859 29.2317 29.2076C29.4806 29.2076 29.6971 29.3484 29.8703 29.565V29.5541Z" fill="white"/>
<path d="M36.2454 23.3923C36.516 23.6847 36.5485 24.0095 36.5485 24.3561C36.5485 25.2874 36.5268 26.2187 36.5268 27.15C36.5268 27.9297 36.2021 28.2979 35.4337 28.3088C34.3405 28.3196 33.2365 28.2979 32.1433 28.2546C31.5372 28.233 31.1476 27.8431 31.1368 27.2042C31.1151 26.1862 31.1259 25.1574 31.1584 24.1287C31.18 23.4897 31.6022 23.1107 32.2407 23.0999C33.3014 23.0782 34.3621 23.0782 35.4228 23.0674C35.7584 23.0674 36.0506 23.1324 36.2346 23.3923H36.2454Z" fill="white"/>
<path d="M36.148 34.1236C35.964 34.3185 35.7042 34.351 35.4444 34.351C34.4379 34.351 33.4313 34.3835 32.4247 34.3835C31.548 34.3835 31.1692 33.9936 31.1692 33.1056C31.1692 32.1526 31.18 31.1997 31.1908 30.2467C31.1908 29.5428 31.5155 29.1529 32.2407 29.1421C33.3772 29.1204 34.5136 29.1421 35.6501 29.1962C36.1913 29.2179 36.5701 29.6186 36.5809 30.2034C36.6026 31.243 36.5809 32.2934 36.5593 33.333C36.5593 33.6471 36.4186 33.907 36.148 34.1127V34.1236Z" fill="white"/>
<path d="M5.73404 29.4671C5.97216 29.2722 6.23192 29.1855 6.52416 29.1855C7.62814 29.1964 8.72131 29.2072 9.8253 29.2397C10.5072 29.2614 10.7778 29.5754 10.7886 30.2685C10.7886 31.2215 10.8211 32.1744 10.8319 33.1274C10.8427 33.9288 10.4855 34.3728 9.69542 34.4053C8.66719 34.4486 7.63897 34.4486 6.62157 34.4378C5.88557 34.4378 5.45264 33.9613 5.43099 33.2357C5.40934 32.3044 5.40934 31.3731 5.3877 30.4417C5.3877 30.0627 5.48511 29.7487 5.74487 29.4888L5.73404 29.4671Z" fill="white"/>
<path d="M36.2885 40.0148C36.0287 40.2422 35.7906 40.318 35.52 40.3071C34.4052 40.2855 33.2796 40.2855 32.1648 40.253C31.5154 40.2313 31.169 39.8848 31.1582 39.235C31.1582 38.1954 31.1582 37.145 31.169 36.1054C31.1799 35.5423 31.6344 35.1199 32.3055 35.1091C33.3445 35.0874 34.3944 35.1091 35.4335 35.1524C36.2127 35.1849 36.5591 35.5856 36.5699 36.3653C36.5916 37.2641 36.5916 38.1521 36.6132 39.0509C36.6132 39.4408 36.5158 39.7873 36.2777 40.0148H36.2885Z" fill="white"/>
<path d="M42.6743 35.521C42.9016 35.7809 42.9233 36.095 42.9233 36.409C42.9233 37.3403 42.9016 38.2717 42.9016 39.203C42.9016 39.9827 42.5769 40.3509 41.8085 40.3617C40.6936 40.3726 39.568 40.3617 38.4532 40.3184C37.8904 40.2967 37.5007 39.7878 37.5007 39.073C37.5007 38.1634 37.5007 37.2429 37.5224 36.3332C37.544 35.586 37.9012 35.1853 38.6588 35.1528C39.7195 35.1095 40.7802 35.1203 41.8409 35.1203C42.1656 35.1203 42.4687 35.2286 42.6743 35.4994V35.521Z" fill="white"/>
<path d="M17.0121 23.5003C17.2286 23.706 17.2394 23.9226 17.2394 24.1501C17.2394 25.2113 17.2394 26.2726 17.2178 27.3339C17.2178 27.9511 16.9147 28.2544 16.287 28.2652C15.2046 28.2868 14.1331 28.2977 13.0508 28.2977C12.2282 28.2977 11.8277 27.8753 11.8169 27.0415C11.8169 26.1426 11.8169 25.2546 11.8385 24.3558C11.8602 23.3379 12.0983 23.1213 13.1049 23.1213C14.0682 23.1213 15.0423 23.1104 16.0056 23.0996C16.4169 23.0996 16.7848 23.1862 17.0121 23.4895V23.5003Z" fill="white"/>
<path d="M29.8054 28.0488C29.5782 28.2329 29.3184 28.2437 29.0586 28.2437C28.0196 28.2437 26.9697 28.2654 25.9307 28.2762C25.173 28.2762 24.7184 27.9188 24.6968 27.1608C24.6643 26.1536 24.686 25.1465 24.7293 24.1394C24.7509 23.5005 25.1838 23.1323 25.8224 23.1106C26.8831 23.089 27.9438 23.0781 29.0045 23.0781C29.6647 23.0781 30.076 23.4355 30.0977 24.0961C30.1193 25.1898 30.0977 26.2944 30.0652 27.3882C30.0652 27.6264 29.9786 27.8647 29.8054 28.0379V28.0488Z" fill="white"/>
<path d="M10.5829 35.5315C10.7669 35.7265 10.8318 35.9539 10.821 36.203C10.821 37.2317 10.821 38.2497 10.7885 39.2785C10.7669 40.0474 10.5071 40.2748 9.76028 40.2856C8.69958 40.2964 7.63889 40.3181 6.57819 40.3181C5.80973 40.3181 5.40926 39.9282 5.39844 39.1485C5.39844 38.1956 5.39844 37.2426 5.42008 36.3004C5.44173 35.564 5.85302 35.1742 6.57819 35.1633C7.58477 35.1417 8.59135 35.1417 9.59793 35.1309C9.98757 35.1309 10.3447 35.1958 10.572 35.5424L10.5829 35.5315Z" fill="white"/>
<path d="M18.7005 23.3596C18.8736 23.1755 19.1009 23.1322 19.3499 23.1214C20.4322 23.1105 21.5037 23.0889 22.5861 23.0889C23.2138 23.0889 23.6359 23.4354 23.6576 24.0635C23.6901 25.2006 23.6576 26.3377 23.6251 27.4639C23.6035 27.9945 23.2679 28.2436 22.7376 28.2436C21.6444 28.2436 20.5404 28.2761 19.4473 28.2653C18.7329 28.2653 18.3 27.9079 18.2783 27.1932C18.2459 26.1536 18.2783 25.1031 18.3108 24.0635C18.3108 23.7711 18.4623 23.5329 18.7113 23.3379L18.7005 23.3596Z" fill="white"/>
<path d="M10.3666 28.0484C10.1934 28.2325 9.94444 28.2758 9.67385 28.2758C8.61316 28.265 7.55246 28.2542 6.48094 28.2325C5.7666 28.2109 5.38778 27.821 5.37695 27.0954C5.37695 26.1641 5.37695 25.2328 5.3986 24.3015C5.42025 23.3593 5.69083 23.1319 6.62165 23.1428C7.59576 23.1428 8.55904 23.1211 9.53315 23.1211C10.4531 23.1211 10.8103 23.4893 10.8103 24.4098C10.8103 25.3194 10.7778 26.2399 10.7995 27.1496C10.7995 27.5178 10.6696 27.7993 10.3666 28.0484Z" fill="white"/>
<path d="M37.9014 29.4237C38.1071 29.2288 38.3668 29.1963 38.6266 29.1963C39.7089 29.2071 40.7913 29.2179 41.8736 29.2396C42.6096 29.2613 42.9451 29.6186 42.9451 30.3659C42.9451 31.3513 42.9451 32.3476 42.9235 33.3331C42.9235 33.9287 42.5555 34.3077 41.9494 34.3294C40.867 34.351 39.7847 34.3727 38.7023 34.3619C37.9555 34.3619 37.6308 34.0045 37.5875 33.2573C37.5442 32.326 37.5118 31.3946 37.4685 30.4633C37.4468 30.041 37.5875 29.6944 37.8906 29.4129L37.9014 29.4237Z" fill="white"/>
</g>
<defs>
<clipPath id="clip0_1907_10787">
<rect width="51" height="38" fill="white" transform="translate(2 6)"/>
</clipPath>
</defs>
</svg>
