<svg width="54" height="54" viewBox="0 0 54 54" fill="none" xmlns="http://www.w3.org/2000/svg">
<g clip-path="url(#clip0_2303_10995)">
<path d="M51.7573 15.7991C51.7573 15.6856 51.7612 15.5701 51.7515 15.4566C51.6869 14.6955 51.0392 14.1026 50.282 14.1065C49.5012 14.1104 48.8594 14.7287 48.8262 15.5193C48.8164 15.7423 48.8262 15.9674 48.8262 16.1885C48.6148 16.2276 48.4837 16.1141 48.3389 16.0515C42.0246 13.2945 35.7201 10.5159 29.3901 7.79414C28.5233 7.42237 27.9989 7.0232 28.2317 6.02527C28.2356 6.00962 28.2317 5.99201 28.2317 5.97636C28.1906 5.17214 27.5743 4.56556 26.7837 4.55578C25.9737 4.546 25.3299 5.16236 25.2986 5.98223C25.2888 6.22681 25.2653 6.47532 25.3025 6.71404C25.369 7.14256 25.1812 7.32845 24.7977 7.49672C18.7768 10.1148 12.7639 12.7505 6.7489 15.3803C6.08557 15.6699 5.42029 15.9556 4.72956 16.255C4.70804 15.8695 4.72956 15.5388 4.66304 15.2258C4.50454 14.4979 3.78643 14.0282 3.04874 14.1261C2.27388 14.2278 1.77101 14.8403 1.77101 15.7051C1.76905 23.2052 1.77101 30.7053 1.76514 38.2054C1.76514 39.0096 2.1467 39.5008 2.86286 39.8119C10.5156 43.152 18.1683 46.4941 25.8132 49.8538C26.4765 50.1453 27.0596 50.1473 27.721 49.8557C35.3502 46.5019 42.9854 43.1637 50.6244 39.8334C51.4012 39.4949 51.7671 38.9646 51.7652 38.1017C51.7515 30.6662 51.7573 23.2307 51.7573 15.7952V15.7991ZM4.72956 25.8155V20.773C6.63541 21.6046 8.52364 22.4304 10.5019 23.2933C8.53343 24.1523 6.65302 24.9741 4.72956 25.8155ZM25.0364 16.9359C21.4869 18.4856 17.9374 20.0373 14.3899 21.5949C14.2236 21.6673 14.0964 21.6614 13.934 21.591C11.6642 20.593 9.39242 19.601 7.12067 18.607C7.07763 18.5874 7.04045 18.5522 6.96218 18.4954C13.0828 15.8167 19.1682 13.1555 25.2966 10.4748C25.2966 12.5587 25.2927 14.5742 25.3005 16.5896C25.3005 16.797 25.1949 16.8674 25.0364 16.9359ZM39.0152 21.542C35.5596 20.0178 32.1001 18.5033 28.6367 16.9985C28.3472 16.8733 28.218 16.7461 28.2219 16.4037C28.2435 14.4529 28.2317 12.502 28.2317 10.467C34.3875 13.1595 40.4671 15.8206 46.617 18.5111C45.8226 18.8633 45.0986 19.1861 44.3746 19.5051C42.8308 20.1802 41.283 20.8474 39.7431 21.5323C39.4868 21.6457 39.2793 21.6555 39.0171 21.5401L39.0152 21.542ZM48.789 25.8096C46.8812 24.9741 44.989 24.1464 43.0421 23.2933C44.9851 22.4421 46.8655 21.6203 48.789 20.7789V25.8096Z" fill="#353C49"/>
<path d="M46.5931 28.0864C40.4803 30.7613 34.3949 33.4243 28.2352 36.1187V35.1619C28.2352 33.485 28.241 31.8101 28.2293 30.1331C28.2273 29.869 28.2958 29.7379 28.5502 29.6264C32.0586 28.1001 35.5611 26.5621 39.0656 25.0261C39.2437 24.9478 39.4021 24.8989 39.6135 24.9929C41.8813 26.0006 44.155 26.9907 46.4268 27.9886C46.4698 28.0082 46.5089 28.0375 46.5911 28.0884L46.5931 28.0864Z" fill="#FF3030"/>
<path d="M6.91895 28.0757C9.31005 27.0289 11.6425 26.0114 13.971 24.9841C14.1451 24.9078 14.2742 24.943 14.4269 25.0095C17.947 26.5514 21.4671 28.0933 24.9873 29.6332C25.1751 29.7154 25.3082 29.7859 25.3082 30.0442C25.2964 32.0459 25.3003 34.0456 25.3003 36.1198C19.1641 33.4352 13.0689 30.7681 6.91895 28.0777V28.0757Z" fill="#FF3030"/>
<path d="M17.8394 23.2928C20.7901 22.0014 23.6704 20.7412 26.5487 19.4772C26.7131 19.4048 26.85 19.4165 27.0125 19.487C29.8771 20.7452 32.7437 21.9975 35.7042 23.2908C33.1839 24.3944 30.7361 25.4648 28.2374 26.5605C28.2452 25.8815 28.2921 25.2339 27.7404 24.7701C27.4429 24.5197 27.1064 24.3866 26.7111 24.4023C25.768 24.4355 25.3571 25.0323 25.2808 26.5488C22.8172 25.4726 20.3733 24.4023 17.8394 23.2948V23.2928Z" fill="#FF3030"/>
</g>
<defs>
<clipPath id="clip0_2303_10995">
<rect width="50" height="45.5191" fill="white" transform="translate(1.76514 4.55518)"/>
</clipPath>
</defs>
</svg>
