<svg width="20" height="20" viewBox="0 0 20 20" fill="none" xmlns="http://www.w3.org/2000/svg">
<g clip-path="url(#clip0_3891_3920)">
<path d="M8.92851 11.0714H1.07137C0.767796 11.0714 0.513367 10.9681 0.308153 10.7614C0.102653 10.555 -6.10352e-05 10.2991 -6.10352e-05 9.99357C-6.10352e-05 9.68836 0.102653 9.4345 0.308153 9.23214C0.513367 9.02978 0.767796 8.92857 1.07137 8.92857H8.92851V1.07143C8.92851 0.767857 9.03187 0.513357 9.23851 0.307857C9.44494 0.102643 9.70087 0 10.0064 0C10.3116 0 10.5654 0.102643 10.7678 0.307857C10.9702 0.513357 11.0714 0.767857 11.0714 1.07143V8.92857H18.9285C19.2321 8.92857 19.4866 9.03193 19.6921 9.23857C19.8973 9.445 19.9999 9.70093 19.9999 10.0064C19.9999 10.3116 19.8973 10.5655 19.6921 10.7679C19.4866 10.9702 19.2321 11.0714 18.9285 11.0714H11.0714V18.9286C11.0714 19.2321 10.968 19.4866 10.7614 19.6918C10.5549 19.8973 10.299 20 9.99351 20C9.6883 20 9.43444 19.8973 9.23208 19.6918C9.02972 19.4866 8.92851 19.2321 8.92851 18.9286V11.0714Z" fill="#1A1E27"/>
</g>
<defs>
<clipPath id="clip0_3891_3920">
<rect width="20" height="20" fill="white"/>
</clipPath>
</defs>
</svg>
