<svg width="54" height="54" viewBox="0 0 54 54" fill="none" xmlns="http://www.w3.org/2000/svg">
<path d="M47 13.176C46.9306 10.7079 45.2198 9.02586 42.7459 9.00274C41.7806 8.99118 40.8154 8.99118 39.8501 9.00274C39.59 9.00274 39.4513 8.97384 39.4571 8.66171C39.4571 8.41894 39.3935 8.17039 39.3126 7.9334C38.9311 6.76003 37.9138 6.06641 36.5555 6.06641C29.8507 6.06641 23.1517 6.06641 16.4468 6.06641C16.337 6.06641 16.2272 6.06641 16.1232 6.07797C14.7186 6.18779 13.6146 7.25712 13.551 8.62703C13.5337 8.99118 13.4008 9.0143 13.1118 9.00852C12.0078 9.00274 10.9038 8.97384 9.79981 9.03164C8.06003 9.11834 6.58612 10.39 6.1584 12.0778C5.93876 12.9333 6.00234 13.8061 6.03124 14.6789C6.1584 18.9042 9.05419 22.3261 13.1985 23.1526C13.5568 23.222 13.6435 23.3896 13.7013 23.7133C14.5914 28.7825 17.4757 32.2044 22.2731 34.0251C22.5968 34.1465 22.5794 34.2563 22.4812 34.5107C21.9841 35.765 21.5101 37.0251 21.013 38.2794C20.8859 38.5973 20.909 38.6955 21.2847 38.6897C23.0245 38.6724 24.7701 38.684 26.5098 38.684C28.2496 38.684 29.9952 38.6724 31.735 38.6897C32.1107 38.6897 32.1338 38.5973 32.0066 38.2794C31.5038 37.0251 31.0356 35.765 30.5327 34.5107C30.4229 34.239 30.446 34.1407 30.7466 34.0251C35.5613 32.1928 38.4456 28.7478 39.3184 23.6613C39.3762 23.3318 39.5033 23.2162 39.8154 23.1468C42.821 22.5168 44.9539 20.777 46.2486 18.0083C46.9653 16.4707 47.0347 14.8292 46.9884 13.1702L47 13.176ZM13.5337 20.4128C11.2795 20.0255 9.28539 17.962 8.86345 15.6268C8.70161 14.7309 8.74207 13.8292 8.77675 12.9333C8.79987 12.2801 9.38365 11.7541 10.0484 11.7425C11.1177 11.7252 12.1927 11.7425 13.262 11.731C13.4528 11.731 13.5337 11.7657 13.5337 11.9853C13.5279 14.7945 13.5337 17.6036 13.5337 20.4128ZM43.5667 17.3089C42.7286 18.8175 41.4974 19.829 39.8501 20.355C39.5149 20.4591 39.4686 20.3781 39.4744 20.066C39.486 18.7308 39.4802 17.3956 39.4802 16.0603C39.4802 14.7251 39.486 13.4188 39.4744 12.1009C39.4744 11.8292 39.5149 11.7252 39.8212 11.731C40.8327 11.7541 41.8384 11.731 42.8499 11.7425C43.6938 11.7483 44.2372 12.2974 44.2603 13.1413C44.295 14.5748 44.2892 16.0025 43.5667 17.3089Z" fill="#353C49"/>
<path d="M26.4582 48.422C22.0712 48.422 17.6899 48.422 13.3029 48.422C12.9041 48.422 12.5284 48.3758 12.2047 48.1215C11.7712 47.7862 11.5747 47.2255 11.7134 46.7111C11.8637 46.1562 12.2972 45.74 12.8636 45.7111C13.6092 45.6707 14.3549 45.6765 15.1005 45.688C15.401 45.688 15.5224 45.636 15.5629 45.3007C15.8172 42.9771 17.5223 41.428 19.8459 41.4222C24.2907 41.4107 28.7413 41.4107 33.1862 41.4222C35.5097 41.428 37.2264 43.0002 37.4576 45.3123C37.4865 45.6187 37.5905 45.6996 37.8795 45.688C38.55 45.6649 39.2147 45.6707 39.8852 45.688C40.7522 45.7054 41.3475 46.2603 41.3533 47.0406C41.3533 47.8325 40.7349 48.4163 39.8505 48.4163C35.3883 48.4163 30.9262 48.4163 26.464 48.4163L26.4582 48.422Z" fill="#353C49"/>
<path d="M21.8463 25.0201C21.9735 24.2686 22.1122 23.4132 22.2798 22.5577C22.355 22.182 22.3145 21.8988 21.9966 21.6155C21.3897 21.0838 20.8348 20.4942 20.2568 19.9219C19.8291 19.5 19.6904 18.9971 19.8985 18.4307C20.1008 17.8873 20.5169 17.6041 21.0949 17.529C21.9446 17.4191 22.7885 17.2746 23.6324 17.1706C23.8636 17.1417 23.985 17.055 24.0832 16.8469C24.4531 16.0781 24.8346 15.3151 25.2103 14.5522C25.4704 14.0204 25.8635 13.6967 26.4819 13.6851C27.1177 13.6794 27.5281 14.003 27.7998 14.5522C28.1755 15.3151 28.5569 16.0781 28.9269 16.8469C29.0251 17.0492 29.1465 17.1417 29.3777 17.1706C30.2389 17.2804 31.1001 17.4134 31.9614 17.5463C32.5278 17.633 32.9382 17.9393 33.1232 18.4942C33.3081 19.0491 33.1578 19.5347 32.7417 19.9393C32.1521 20.5173 31.5799 21.1127 30.973 21.6676C30.7244 21.893 30.6493 22.1184 30.7129 22.4421C30.8632 23.234 30.9788 24.0374 31.1233 24.8293C31.2331 25.4247 31.077 25.916 30.5973 26.2744C30.1175 26.6385 29.5916 26.6385 29.0656 26.3553C28.3546 25.9796 27.6379 25.6096 26.9328 25.2166C26.638 25.0548 26.401 25.0259 26.0889 25.205C25.349 25.6328 24.5919 26.0258 23.8289 26.3958C22.8752 26.8582 21.8232 26.1703 21.8463 25.0143V25.0201Z" fill="#FF3030"/>
</svg>
