<svg width="54" height="54" viewBox="0 0 54 54" fill="none" xmlns="http://www.w3.org/2000/svg">
<g clip-path="url(#clip0_1907_10758)">
<path d="M48.4781 32.0964C51.2733 29.2175 53 25.2688 53 20.9019C53 12.1194 46.0073 5 37.3928 5C28.7783 5 21.7856 12.1194 21.7856 20.9116C21.7856 29.7038 28.7688 36.8232 37.3928 36.8232C40.2643 36.8232 42.9355 36.0159 45.2441 34.6446C46.5034 35.7436 48.688 36.8912 51.9315 35.9284C52.1223 35.87 52.151 35.6172 51.9888 35.4907C51.2065 34.8974 49.4417 33.7109 48.4781 32.1061V32.0964Z" fill="#FF3030"/>
<path d="M17.6072 17.1865C8.98317 17.1865 2 24.3059 2 33.0981C2 37.6596 3.88889 41.7639 6.91302 44.6622C5.93042 45.9947 4.45174 46.9575 3.68855 47.3952C3.5073 47.4924 3.55499 47.7745 3.74579 47.8329C6.5982 48.679 8.63019 47.9009 9.93715 46.9478C12.2076 48.2608 14.8215 49.0097 17.6072 49.0097C26.2217 49.0097 33.2144 41.8903 33.2144 33.0981C33.2144 24.3059 26.2312 17.1865 17.6072 17.1865Z" fill="#C4CAD4"/>
<path d="M33.825 22.8565C34.4046 22.8565 34.8744 22.3775 34.8744 21.7866C34.8744 21.1958 34.4046 20.7168 33.825 20.7168C33.2455 20.7168 32.7756 21.1958 32.7756 21.7866C32.7756 22.3775 33.2455 22.8565 33.825 22.8565Z" fill="white"/>
<path d="M37.3929 22.8565C37.9724 22.8565 38.4423 22.3775 38.4423 21.7866C38.4423 21.1958 37.9724 20.7168 37.3929 20.7168C36.8133 20.7168 36.3435 21.1958 36.3435 21.7866C36.3435 22.3775 36.8133 22.8565 37.3929 22.8565Z" fill="white"/>
<path d="M40.9608 22.8565C41.5403 22.8565 42.0101 22.3775 42.0101 21.7866C42.0101 21.1958 41.5403 20.7168 40.9608 20.7168C40.3812 20.7168 39.9114 21.1958 39.9114 21.7866C39.9114 22.3775 40.3812 22.8565 40.9608 22.8565Z" fill="white"/>
<path d="M12.0549 37.28L11.6542 35.792H9.62222L9.22154 37.28H7.38989L9.56498 30.2871C9.71761 29.8008 10.2041 29.5674 10.6525 29.5674C11.0818 29.5674 11.5493 29.8203 11.6924 30.2871L13.9056 37.28H12.0453H12.0549ZM10.0133 34.3331H11.2631L10.6334 31.9697L10.0038 34.3331H10.0133Z" fill="#353C49"/>
<path d="M20.2018 31.9596C20.2018 32.6209 19.9442 33.1072 19.4005 33.4185C20.1255 33.7102 20.4594 34.2841 20.4594 35.0719V35.1497C20.4594 36.735 19.3432 37.2796 17.8359 37.2796H16.3668C15.3556 37.2796 15.0503 36.9101 15.0503 35.918V31.0745C15.0503 30.0825 15.3556 29.7129 16.3668 29.7129H17.607C19.1524 29.7129 20.2113 30.4423 20.2113 31.8526V31.9596H20.2018ZM17.006 31.1815C16.8152 31.1815 16.7579 31.2301 16.7579 31.4344V32.796H17.6833C18.2461 32.796 18.4846 32.4653 18.4846 32.0471V31.9304C18.4846 31.4927 18.2366 31.1815 17.6833 31.1815H17.006ZM16.7579 34.2063V35.5679C16.7579 35.7721 16.8056 35.8208 17.006 35.8208H17.9409C18.5037 35.8208 18.7422 35.5095 18.7422 35.0816V34.9552C18.7422 34.5272 18.4942 34.216 17.9409 34.216H16.7675L16.7579 34.2063Z" fill="#353C49"/>
<path d="M23.5312 34.6735C23.5312 35.4808 24.0941 35.8893 24.7046 35.8893C25.0957 35.8893 25.3724 35.8309 25.6014 35.7239C25.7254 35.6656 25.878 35.5683 26.0402 35.5391C26.3455 35.4905 26.603 35.578 26.7652 35.8698C26.9751 36.2199 26.8415 36.609 26.5458 36.8521C26.0783 37.2412 25.3533 37.4162 24.6951 37.4162C23.2259 37.4162 21.7759 36.6576 21.7759 34.7513V32.242C21.7759 30.3358 23.2355 29.5771 24.6951 29.5771C25.4487 29.5771 26.0307 29.7619 26.3645 29.9954C26.708 30.2482 26.8797 30.6567 26.6794 31.0263C26.5076 31.3278 26.1928 31.4445 25.9066 31.3959C25.7158 31.3667 25.5727 31.2695 25.4392 31.2111C25.2388 31.1333 25.0385 31.0944 24.6951 31.0944C24.0845 31.0944 23.5217 31.5029 23.5217 32.3101V34.6638L23.5312 34.6735Z" fill="#353C49"/>
</g>
<defs>
<clipPath id="clip0_1907_10758">
<rect width="51" height="44" fill="white" transform="translate(2 5)"/>
</clipPath>
</defs>
</svg>
