<svg width="54" height="54" viewBox="0 0 54 54" fill="none" xmlns="http://www.w3.org/2000/svg">
<g clip-path="url(#clip0_1907_10374)">
<path d="M48.4781 32.0964C51.2733 29.2175 53 25.2688 53 20.9019C53 12.1194 46.0073 5 37.3928 5C28.7783 5 21.7856 12.1194 21.7856 20.9116C21.7856 29.7038 28.7688 36.8232 37.3928 36.8232C40.2643 36.8232 42.9355 36.0159 45.2441 34.6446C46.5034 35.7436 48.688 36.8912 51.9315 35.9284C52.1223 35.87 52.151 35.6172 51.9888 35.4907C51.2065 34.8974 49.4417 33.7109 48.4781 32.1061V32.0964Z" fill="#FF3030"/>
<path d="M17.6072 17.1865C8.98317 17.1865 2 24.3059 2 33.0981C2 37.6596 3.88889 41.7639 6.91302 44.6622C5.93042 45.9947 4.45174 46.9575 3.68855 47.3952C3.5073 47.4924 3.55499 47.7745 3.74579 47.8329C6.5982 48.679 8.63019 47.9009 9.93715 46.9478C12.2076 48.2608 14.8215 49.0097 17.6072 49.0097C26.2217 49.0097 33.2144 41.8903 33.2144 33.0981C33.2144 24.3059 26.2312 17.1865 17.6072 17.1865Z" fill="#E7EBEF"/>
<path d="M33.8249 22.8567C34.4045 22.8567 34.8743 22.3778 34.8743 21.7869C34.8743 21.196 34.4045 20.717 33.8249 20.717C33.2453 20.717 32.7755 21.196 32.7755 21.7869C32.7755 22.3778 33.2453 22.8567 33.8249 22.8567Z" fill="white"/>
<path d="M37.3928 22.8567C37.9723 22.8567 38.4421 22.3778 38.4421 21.7869C38.4421 21.196 37.9723 20.717 37.3928 20.717C36.8132 20.717 36.3434 21.196 36.3434 21.7869C36.3434 22.3778 36.8132 22.8567 37.3928 22.8567Z" fill="white"/>
<path d="M40.9608 22.8567C41.5403 22.8567 42.0101 22.3778 42.0101 21.7869C42.0101 21.196 41.5403 20.717 40.9608 20.717C40.3812 20.717 39.9114 21.196 39.9114 21.7869C39.9114 22.3778 40.3812 22.8567 40.9608 22.8567Z" fill="white"/>
<path d="M12.055 37.2803L11.6543 35.7922H9.62234L9.22166 37.2803H7.39001L9.5651 30.2873C9.71774 29.801 10.2043 29.5676 10.6526 29.5676C11.0819 29.5676 11.5494 29.8205 11.6925 30.2873L13.9057 37.2803H12.0455H12.055ZM10.0135 34.3333H11.2632L10.6336 31.9699L10.0039 34.3333H10.0135Z" fill="#353C49"/>
<path d="M20.2021 31.9603C20.2021 32.6217 19.9445 33.108 19.4007 33.4192C20.1257 33.711 20.4596 34.2848 20.4596 35.0726V35.1504C20.4596 36.7357 19.3435 37.2804 17.8362 37.2804H16.367C15.3558 37.2804 15.0505 36.9108 15.0505 35.9188V31.0752C15.0505 30.0832 15.3558 29.7136 16.367 29.7136H17.6072C19.1527 29.7136 20.2116 30.4431 20.2116 31.8533V31.9603H20.2021ZM17.0062 31.1822C16.8154 31.1822 16.7582 31.2309 16.7582 31.4351V32.7967H17.6835C18.2464 32.7967 18.4849 32.4661 18.4849 32.0478V31.9311C18.4849 31.4935 18.2368 31.1822 17.6835 31.1822H17.0062ZM16.7582 34.207V35.5686C16.7582 35.7729 16.8059 35.8215 17.0062 35.8215H17.9411C18.504 35.8215 18.7425 35.5103 18.7425 35.0823V34.9559C18.7425 34.5279 18.4944 34.2167 17.9411 34.2167H16.7677L16.7582 34.207Z" fill="#353C49"/>
<path d="M23.5315 34.6738C23.5315 35.481 24.0943 35.8895 24.7049 35.8895C25.096 35.8895 25.3726 35.8311 25.6016 35.7242C25.7256 35.6658 25.8783 35.5685 26.0404 35.5394C26.3457 35.4907 26.6033 35.5783 26.7655 35.8701C26.9753 36.2202 26.8418 36.6092 26.546 36.8524C26.0786 37.2414 25.3536 37.4165 24.6953 37.4165C23.2262 37.4165 21.7761 36.6579 21.7761 34.7516V32.2423C21.7761 30.336 23.2357 29.5774 24.6953 29.5774C25.449 29.5774 26.0309 29.7622 26.3648 29.9956C26.7082 30.2485 26.8799 30.657 26.6796 31.0266C26.5079 31.3281 26.1931 31.4448 25.9069 31.3961C25.7161 31.367 25.573 31.2697 25.4394 31.2113C25.2391 31.1335 25.0388 31.0946 24.6953 31.0946C24.0848 31.0946 23.5219 31.5031 23.5219 32.3104V34.664L23.5315 34.6738Z" fill="#353C49"/>
</g>
<defs>
<clipPath id="clip0_1907_10374">
<rect width="51" height="44" fill="white" transform="translate(2 5)"/>
</clipPath>
</defs>
</svg>
