<?xml version="1.0" encoding="utf-8"?>
<!-- Generator: Adobe Illustrator 28.0.0, SVG Export Plug-In . SVG Version: 6.00 Build 0)  -->
<svg version="1.1" id="레이어_1" xmlns="http://www.w3.org/2000/svg" xmlns:xlink="http://www.w3.org/1999/xlink" x="0px"
	 y="0px" viewBox="0 0 302 230" style="enable-background:new 0 0 302 230;" xml:space="preserve">
<style type="text/css">
	.st0{clip-path:url(#SVGID_00000086673238965299586430000007711435828269292165_);fill:#A4ADBC;}
	.st1{clip-path:url(#SVGID_00000086673238965299586430000007711435828269292165_);fill:#8E95A2;}
	.st2{clip-path:url(#SVGID_00000086673238965299586430000007711435828269292165_);fill:#C4CAD4;}
	.st3{clip-path:url(#SVGID_00000086673238965299586430000007711435828269292165_);fill:#7B8290;}
	.st4{clip-path:url(#SVGID_00000086673238965299586430000007711435828269292165_);}
	.st5{clip-path:url(#SVGID_00000011716707656671660770000014931245641775349656_);}
	.st6{fill:#7B8290;}
</style>
<g>
	<defs>
		<rect id="SVGID_1_" width="302" height="230"/>
	</defs>
	<clipPath id="SVGID_00000163035491554240202910000009470163915729187508_">
		<use xlink:href="#SVGID_1_"  style="overflow:visible;"/>
	</clipPath>
	<path style="clip-path:url(#SVGID_00000163035491554240202910000009470163915729187508_);fill:#A4ADBC;" d="M348.2,62.5
		c-0.2,0-0.3,0-0.5-0.1L179.6,14.4c-1.1-0.3-1.7-1.5-1.4-2.7c0.3-1.2,1.4-1.9,2.4-1.6l168.1,48c1,0.3,1.7,1.5,1.4,2.7
		C349.8,61.8,349,62.5,348.2,62.5L348.2,62.5L348.2,62.5z"/>
	<path style="clip-path:url(#SVGID_00000163035491554240202910000009470163915729187508_);fill:#A4ADBC;" d="M347.6,80.5
		c-0.2,0-0.3,0-0.5-0.1l-168.1-48c-1.1-0.3-1.7-1.5-1.4-2.7c0.3-1.2,1.3-1.9,2.4-1.6l168.1,48c1,0.3,1.7,1.5,1.4,2.7
		C349.3,79.8,348.5,80.5,347.6,80.5L347.6,80.5L347.6,80.5z"/>
	<path style="clip-path:url(#SVGID_00000163035491554240202910000009470163915729187508_);fill:#A4ADBC;" d="M347.1,99
		c-0.2,0-0.3,0-0.5-0.1L178.5,51c-1.1-0.3-1.7-1.5-1.4-2.7c0.3-1.2,1.3-1.9,2.4-1.6l168.1,48c1,0.3,1.7,1.5,1.4,2.7
		C348.8,98.3,348,99,347.1,99L347.1,99z"/>
	<path style="clip-path:url(#SVGID_00000163035491554240202910000009470163915729187508_);fill:#8E95A2;" d="M10.4,62.7
		c-0.9,0-1.7-0.7-1.9-1.7c-0.3-1.2,0.4-2.4,1.4-2.7l168-47.9c1.1-0.3,2.1,0.4,2.4,1.6c0.3,1.2-0.4,2.4-1.4,2.7L10.9,62.7
		C10.8,62.7,10.6,62.7,10.4,62.7L10.4,62.7z"/>
	<path style="clip-path:url(#SVGID_00000163035491554240202910000009470163915729187508_);fill:#8E95A2;" d="M11,80.7
		c-0.9,0-1.7-0.7-1.9-1.7c-0.3-1.2,0.4-2.4,1.4-2.7l168-47.9c1.1-0.3,2.1,0.4,2.4,1.6c0.3,1.2-0.4,2.4-1.4,2.7l-168,48
		C11.3,80.7,11.1,80.7,11,80.7L11,80.7z"/>
	<path style="clip-path:url(#SVGID_00000163035491554240202910000009470163915729187508_);fill:#8E95A2;" d="M11.5,99.2
		c-0.9,0-1.7-0.7-1.9-1.7c-0.3-1.2,0.4-2.4,1.4-2.7l168.1-48c1.1-0.3,2.1,0.4,2.4,1.6c0.3,1.2-0.4,2.4-1.4,2.7L12,99.2
		C11.9,99.2,11.7,99.2,11.5,99.2L11.5,99.2L11.5,99.2z"/>
	<path style="clip-path:url(#SVGID_00000163035491554240202910000009470163915729187508_);fill:#C4CAD4;" d="M178.5,57.4L13.1,107.2
		v8.5l165.4,50.1l165.4-50.1v-8.5L178.5,57.4z"/>
	<path style="clip-path:url(#SVGID_00000163035491554240202910000009470163915729187508_);fill:#7B8290;" d="M178.5,116.9
		c-0.9,0-1.6-0.6-1.9-1.6c-0.3-1.2,0.3-2.4,1.4-2.7l166.6-52.7c1-0.3,2.1,0.4,2.4,1.5c0.3,1.2-0.3,2.4-1.4,2.7L179,116.8
		C178.8,116.8,178.7,116.9,178.5,116.9L178.5,116.9z"/>
	<path style="clip-path:url(#SVGID_00000163035491554240202910000009470163915729187508_);fill:#7B8290;" d="M178.5,135.3
		c-0.9,0-1.6-0.6-1.9-1.6c-0.3-1.2,0.3-2.4,1.4-2.7l166.6-52.7c1-0.3,2.1,0.4,2.4,1.5c0.3,1.2-0.3,2.4-1.4,2.7L179,135.2
		C178.8,135.2,178.7,135.3,178.5,135.3L178.5,135.3z"/>
	<path style="clip-path:url(#SVGID_00000163035491554240202910000009470163915729187508_);fill:#7B8290;" d="M178.5,153.9
		c-0.9,0-1.6-0.6-1.9-1.6c-0.3-1.2,0.3-2.4,1.4-2.7l166.6-52.7c1-0.3,2.1,0.4,2.4,1.5c0.3,1.2-0.3,2.4-1.4,2.7L179,153.8
		C178.8,153.9,178.6,153.9,178.5,153.9L178.5,153.9z"/>
	<path style="clip-path:url(#SVGID_00000163035491554240202910000009470163915729187508_);fill:#A4ADBC;" d="M184.2,104.7v57.8
		L343.4,114V51.7c0-8.1,12.5-8.1,12.5,0v108.8c0,4.3-2.5,8.1-6.2,9.4L181,228.2c-1.7,0.6-3.5,0.6-5.2,0L7.2,169.8
		c-3.7-1.3-6.2-5.1-6.2-9.4V51.7c0-8.1,12.6-8.1,12.6,0V114l159.2,48.6v-57.8C172.8,96.6,184.2,96.6,184.2,104.7L184.2,104.7z"/>
	<path style="clip-path:url(#SVGID_00000163035491554240202910000009470163915729187508_);fill:#A4ADBC;" d="M172.5,115.1
		c-0.2,0-0.4,0-0.5-0.1L5.4,62.4c-1-0.3-1.7-1.6-1.4-2.7c0.3-1.2,1.4-1.9,2.4-1.5l166.6,52.7c1.1,0.3,1.7,1.6,1.4,2.7
		C174.2,114.5,173.4,115.1,172.5,115.1L172.5,115.1z"/>
	<path style="clip-path:url(#SVGID_00000163035491554240202910000009470163915729187508_);fill:#A4ADBC;" d="M172.5,133.5
		c-0.2,0-0.4,0-0.5-0.1L5.4,80.8c-1-0.3-1.7-1.6-1.4-2.7c0.3-1.2,1.4-1.9,2.4-1.5l166.6,52.7c1.1,0.3,1.7,1.6,1.4,2.7
		C174.2,132.9,173.4,133.5,172.5,133.5L172.5,133.5z"/>
	<path style="clip-path:url(#SVGID_00000163035491554240202910000009470163915729187508_);fill:#A4ADBC;" d="M172.5,152.1
		c-0.2,0-0.4,0-0.5-0.1L5.4,99.4c-1-0.3-1.7-1.6-1.4-2.7c0.3-1.2,1.4-1.9,2.4-1.5l166.6,52.7c1.1,0.3,1.7,1.6,1.4,2.7
		C174.2,151.5,173.4,152.1,172.5,152.1L172.5,152.1z"/>
	<path style="clip-path:url(#SVGID_00000163035491554240202910000009470163915729187508_);fill:#A4ADBC;" d="M172.5,58.2
		c0,5.2,12,5.2,12,0V5.7c0-6.2-12-6.2-12,0V58.2L172.5,58.2z"/>
	<g style="clip-path:url(#SVGID_00000163035491554240202910000009470163915729187508_);">
		<defs>
			<rect id="SVGID_00000006697816705451851520000003571278847149656990_" x="178.5" y="25.9" width="217.9" height="217.9"/>
		</defs>
		<clipPath id="SVGID_00000167393380299690576120000015579634182670401922_">
			<use xlink:href="#SVGID_00000006697816705451851520000003571278847149656990_"  style="overflow:visible;"/>
		</clipPath>
		<g style="clip-path:url(#SVGID_00000167393380299690576120000015579634182670401922_);">
			<path class="st6" d="M184.2,104.8v57.8L343.4,114V51.7c0-8.1,12.5-8.1,12.5,0v108.8c0,4.3-2.5,8.1-6.2,9.4L181,228.2
				c-1.7,0.6-3.5,0.6-5.2,0L7.2,169.8c-3.7-1.3-6.2-5.1-6.2-9.4V51.7c0-8.1,12.6-8.1,12.6,0V114l159.2,48.6v-57.8
				C172.8,96.6,184.2,96.6,184.2,104.8L184.2,104.8z"/>
		</g>
	</g>
</g>
</svg>
