<svg width="25" height="24" viewBox="0 0 25 24" fill="none" xmlns="http://www.w3.org/2000/svg">
<path d="M14.2033 0.668903C13.6907 0.23692 13.0419 0 12.3716 0C11.7013 0 11.0526 0.23692 10.54 0.668903L2.01348 7.86276C1.697 8.12949 1.44259 8.46212 1.26804 8.8374C1.0935 9.21268 1.00302 9.62156 1.00293 10.0354V21.7894C1.00293 23.0097 1.99327 24 3.21351 24H7.00308C7.58936 24 8.15163 23.7671 8.56619 23.3525C8.98076 22.938 9.21366 22.3757 9.21366 21.7894V16.7329C9.21366 15.8739 9.89831 15.1766 10.751 15.1539H13.9923C14.4038 15.1648 14.7948 15.3359 15.082 15.6308C15.3691 15.9258 15.5297 16.3212 15.5296 16.7329V21.7894C15.5296 23.0097 16.5199 24 17.7402 24H21.5297C22.116 24 22.6783 23.7671 23.0929 23.3525C23.5074 22.938 23.7403 22.3757 23.7403 21.7894V10.0342C23.7402 9.6203 23.6498 9.21142 23.4752 8.83614C23.3007 8.46086 23.0463 8.12823 22.7298 7.8615L14.2033 0.668903Z" fill="#C4CAD4"/>
</svg>
