<svg width="160" height="160" viewBox="0 0 160 160" fill="none" xmlns="http://www.w3.org/2000/svg">
<circle cx="80" cy="80" r="79.5" fill="#D8DCE2" stroke="#C4CAD4"/>
<g clip-path="url(#clip0_1644_7118)">
<path d="M49.0822 64.8588C49.1331 61.9422 48.8968 58.7601 49.6095 55.6145C50.4749 51.7887 52.1404 48.3739 54.7076 45.4101C56.0785 43.8282 57.5621 42.3517 59.1112 40.9516C64.4784 36.1076 72.6492 36.1731 77.98 41.0643C79.0236 42.0208 79.0418 42.6317 78.0309 43.6463C74.6055 47.0757 71.1619 50.4832 67.7547 53.9343C65.5838 56.1345 66.4602 59.6657 69.3656 60.4621C70.8965 60.8803 72.2164 60.4366 73.3401 59.3093C76.7146 55.9163 80.1072 52.5379 83.489 49.1522C86.5726 46.0683 89.6562 42.9808 92.7434 39.9006C96.1434 36.504 100.551 36.4676 103.918 39.857C107.118 43.079 110.514 46.1229 113.474 49.574C126.088 64.2769 121.947 86.8858 104.936 96.2064C98.8852 99.5194 92.7689 102.712 86.6781 105.949C84.8308 106.931 83.1981 106.694 81.7072 105.207C71.2492 94.7591 60.7984 84.3038 50.344 73.8521C49.4859 72.9939 49.0677 71.972 49.0786 70.7501C49.1004 68.8736 49.0822 66.9935 49.0822 64.8588Z" fill="white"/>
<path d="M62.7548 122.666C60.0057 122.59 57.813 121.684 56.0203 119.899C50.0786 113.978 44.1223 108.076 38.2388 102.101C34.5479 98.3516 34.5843 92.733 38.2278 88.9473C39.9696 87.1362 41.7587 85.3725 43.555 83.6124C45.2168 81.9868 47.4932 81.9831 49.1513 83.6342C57.6167 92.0784 66.0747 100.534 74.5182 109C76.2019 110.687 76.1873 112.964 74.5182 114.662C72.7801 116.433 71.0165 118.182 69.2529 119.928C67.3947 121.764 65.1329 122.626 62.7548 122.662V122.666Z" fill="white"/>
</g>
<defs>
<clipPath id="clip0_1644_7118">
<rect width="85.3333" height="85.3333" fill="white" transform="translate(35.4824 37.333)"/>
</clipPath>
</defs>
</svg>
