<svg width="160" height="160" viewBox="0 0 160 160" fill="none" xmlns="http://www.w3.org/2000/svg">
<circle cx="80" cy="80" r="80" fill="#A4ADBC"/>
<g clip-path="url(#clip0_1071_8804)">
<path d="M49.0822 64.8589C49.1331 61.9423 48.8968 58.7603 49.6095 55.6146C50.4749 51.7889 52.1404 48.3741 54.7076 45.4102C56.0785 43.8283 57.5621 42.3518 59.1112 40.9517C64.4784 36.1077 72.6492 36.1732 77.98 41.0645C79.0236 42.0209 79.0418 42.6318 78.0309 43.6465C74.6055 47.0758 71.1619 50.4833 67.7547 53.9345C65.5838 56.1346 66.4601 59.6658 69.3656 60.4622C70.8965 60.8804 72.2164 60.4367 73.3401 59.3094C76.7146 55.9164 80.1072 52.538 83.489 49.1523C86.5726 46.0685 89.6562 42.981 92.7434 39.9007C96.1434 36.5041 100.551 36.4678 103.918 39.8571C107.118 43.0791 110.514 46.123 113.474 49.5742C126.088 64.277 121.947 86.8859 104.936 96.2066C98.8851 99.5195 92.7689 102.712 86.678 105.949C84.8308 106.931 83.1981 106.695 81.7072 105.207C71.2492 94.7592 60.7984 84.3039 50.344 73.8522C49.4858 72.994 49.0677 71.9721 49.0786 70.7502C49.1004 68.8737 49.0822 66.9936 49.0822 64.8589Z" fill="white"/>
<path d="M62.7543 122.667C60.0053 122.59 57.8126 121.685 56.0199 119.899C50.0781 113.979 44.1219 108.076 38.2383 102.101C34.5474 98.3521 34.5838 92.7335 38.2274 88.9478C39.9692 87.1367 41.7583 85.373 43.5546 83.6128C45.2164 81.9873 47.4927 81.9836 49.1509 83.6347C57.6162 92.0789 66.0743 100.534 74.5178 109C76.2014 110.687 76.1869 112.964 74.5178 114.662C72.7796 116.433 71.016 118.183 69.2524 119.928C67.3943 121.765 65.1325 122.627 62.7543 122.663V122.667Z" fill="white"/>
</g>
<defs>
<clipPath id="clip0_1071_8804">
<rect width="85.3333" height="85.3333" fill="white" transform="translate(35.4824 37.333)"/>
</clipPath>
</defs>
</svg>
