<svg width="48" height="48" viewBox="0 0 48 48" fill="none" xmlns="http://www.w3.org/2000/svg">
<circle cx="24" cy="24" r="24" fill="#D8DCE2"/>
<g clip-path="url(#clip0_3163_10136)">
<path d="M15.8251 19.7413C15.8394 18.9211 15.7729 18.0261 15.9733 17.1414C16.2168 16.0654 16.6852 15.105 17.4072 14.2714C17.7928 13.8265 18.21 13.4112 18.6457 13.0175C20.1552 11.6551 22.4533 11.6735 23.9526 13.0492C24.2461 13.3182 24.2512 13.49 23.9669 13.7753C23.0035 14.7399 22.035 15.6982 21.0767 16.6689C20.4661 17.2876 20.7126 18.2808 21.5297 18.5048C21.9603 18.6224 22.3316 18.4976 22.6476 18.1805C23.5967 17.2263 24.5508 16.2761 25.502 15.3239C26.3692 14.4565 27.2365 13.5882 28.1048 12.7219C29.061 11.7666 30.3005 11.7563 31.2476 12.7096C32.1476 13.6158 33.1028 14.4719 33.9353 15.4425C37.483 19.5777 36.3182 25.9364 31.5339 28.5579C29.8321 29.4896 28.1119 30.3877 26.3989 31.298C25.8793 31.5741 25.4201 31.5076 25.0008 31.0893C22.0595 28.1508 19.1202 25.2103 16.1799 22.2707C15.9386 22.0293 15.821 21.7419 15.824 21.3983C15.8302 20.8705 15.8251 20.3417 15.8251 19.7413Z" fill="#F4F6F8"/>
<path d="M19.6705 36.0002C18.8973 35.9787 18.2806 35.724 17.7764 35.2218C16.1053 33.5567 14.4301 31.8967 12.7753 30.2163C11.7373 29.1617 11.7475 27.5815 12.7723 26.5168C13.2621 26.0074 13.7653 25.5114 14.2705 25.0163C14.7379 24.5591 15.3781 24.5581 15.8445 25.0225C18.2254 27.3974 20.6042 29.7754 22.9789 32.1565C23.4525 32.6311 23.4484 33.2714 22.9789 33.749C22.4901 34.2471 21.9941 34.7391 21.4981 35.23C20.9754 35.7465 20.3393 35.9889 19.6705 35.9992V36.0002Z" fill="#F4F6F8"/>
</g>
<defs>
<clipPath id="clip0_3163_10136">
<rect width="24" height="24" fill="white" transform="translate(12 12)"/>
</clipPath>
</defs>
</svg>
