<svg width="12" height="12" viewBox="0 0 12 12" fill="none" xmlns="http://www.w3.org/2000/svg">
<path d="M7.8671 5.99593L2.93572 1.06455C2.8209 0.949746 2.76351 0.806241 2.76351 0.634034C2.76351 0.461827 2.8209 0.313103 2.93572 0.187862C3.06096 0.0626206 3.20969 0 3.38189 0C3.5541 0 3.70282 0.0626206 3.82806 0.187862L8.97861 5.33841C9.07255 5.43234 9.1404 5.5367 9.18213 5.65152C9.22387 5.76633 9.24475 5.88111 9.24475 5.99593C9.24475 6.11074 9.22387 6.22553 9.18213 6.34034C9.1404 6.45516 9.07255 6.55951 8.97861 6.65345L3.81241 11.8197C3.68717 11.9449 3.54104 12.0049 3.37406 11.9997C3.20709 11.9945 3.06096 11.9292 2.93572 11.804C2.8209 11.6788 2.76091 11.5326 2.75569 11.3657C2.75046 11.1987 2.81048 11.0525 2.93572 10.9273L7.8671 5.99593Z" fill="#595F72"/>
</svg>
