<svg width="53" height="53" viewBox="0 0 53 53" fill="none" xmlns="http://www.w3.org/2000/svg">
<circle cx="26.5" cy="26.5" r="26.5" fill="#C4CAD4"/>
<g clip-path="url(#clip0_759_7982)">
<path d="M34.1865 13.6199C34.8609 12.891 35.5711 12.1979 36.2863 11.5106C36.5694 11.2382 36.9466 11.1449 37.2954 11H38.0448C38.7258 11.1449 39.2029 11.5906 39.6675 12.0713C40.2994 12.726 40.9539 13.36 41.5983 14.0031C41.5034 14.088 41.5941 14.1572 41.6249 14.223C42.0063 15.0352 41.9347 15.8341 41.3627 16.493C40.7041 17.2511 39.9764 17.9541 39.2254 18.6264C39.1413 18.5506 39.053 18.4781 38.9723 18.3981C37.3762 16.8062 35.7818 15.2135 34.1865 13.6207V13.6199Z" fill="#EB5E9E"/>
<path d="M11.0003 41.119C11.3042 40.5809 11.5315 40.0011 11.8679 39.4805C12.7488 40.3618 13.6305 41.244 14.5114 42.1253C14.0318 42.4311 13.5256 42.6951 12.9994 42.9026C12.2717 43.1899 11.4558 42.8159 11.1311 42.1003C11.0944 42.0195 11.0961 41.9154 10.9995 41.8679V41.1182L11.0003 41.119Z" fill="#0E224A"/>
<path d="M38.7158 21.4438C38.6475 21.5213 38.5834 21.6029 38.5101 21.6762C32.4422 27.7481 26.3742 33.8193 20.3046 39.8887C20.0182 40.1753 19.7284 40.4627 19.3155 40.566C18.9633 40.576 18.6211 40.6584 18.278 40.7251C17.617 40.8525 17.2823 40.5143 17.4013 39.8587C17.4721 39.4697 17.622 39.0674 17.3672 38.6842C17.527 38.5359 17.6919 38.3934 17.8459 38.2393C24.0288 32.0549 30.2108 25.8697 36.3937 19.6861C36.4811 19.5986 36.5785 19.5195 36.6709 19.437C36.9823 19.7311 37.2929 20.0243 37.6043 20.3184C37.9748 20.6941 38.3453 21.0697 38.7158 21.4446V21.4438Z" fill="#E9A92E"/>
<path d="M17.3671 38.6835C17.6227 39.0675 17.472 39.4698 17.4013 39.858C17.2822 40.5145 17.6161 40.8527 18.278 40.7244C18.621 40.6577 18.9632 40.5753 19.3154 40.5653C18.7384 40.8535 18.1065 40.9835 17.4995 41.1834C16.507 41.5091 15.5229 41.8598 14.5121 42.1255C13.6313 41.2442 12.7495 40.362 11.8687 39.4807C12.2142 38.2436 12.6355 37.0307 13.031 35.8087C13.1542 35.4263 13.2241 35.024 13.4289 34.6699C13.409 35.0315 13.3324 35.383 13.2624 35.737C13.1384 36.3685 13.5005 36.7092 14.1325 36.5909C14.5213 36.5184 14.9226 36.3718 15.3081 36.6209C15.5604 36.9941 15.4147 37.3898 15.3489 37.7688C15.2265 38.4735 15.5196 38.7684 16.2206 38.6451C16.5995 38.5785 16.9941 38.4335 17.368 38.6835H17.3671Z" fill="#FFE8B9"/>
<path d="M39.2251 18.6258C39.9769 17.9535 40.7038 17.2504 41.3624 16.4924C41.9344 15.8343 42.0068 15.0346 41.6246 14.2224C41.5938 14.1574 41.5031 14.0874 41.598 14.0024C41.9094 14.279 42.21 14.5664 42.4747 14.888C43.1525 15.711 43.1908 16.8647 42.4922 17.6678C41.8311 18.4267 41.1001 19.1247 40.3574 19.807C39.9819 19.433 39.6056 19.0598 39.2301 18.6857C39.2301 18.6657 39.2284 18.6449 39.2251 18.6249V18.6258Z" fill="#D03A79"/>
<path d="M39.2301 18.6865C39.6056 19.0606 39.9819 19.4338 40.3574 19.8078C39.8362 20.3792 39.295 20.9307 38.7155 21.4439C38.345 21.0682 37.9745 20.6925 37.604 20.3176C38.1177 19.7453 38.6647 19.2072 39.2301 18.6865Z" fill="#CAEEFF"/>
<path d="M15.3072 36.6208C14.9217 36.3726 14.5204 36.5184 14.1316 36.5908C13.4996 36.7091 13.1375 36.3684 13.2615 35.737C13.3306 35.3829 13.408 35.0314 13.428 34.6699C13.4988 34.3142 13.7353 34.0559 13.975 33.8168C20.1055 27.6749 26.2409 21.5388 32.3763 15.4019C32.427 15.3511 32.4878 15.3111 32.5444 15.2661C32.6227 15.3486 32.6993 15.4327 32.7792 15.5135C33.3895 16.1333 34.0007 16.7531 34.6118 17.3728C34.5119 17.4628 34.407 17.5486 34.312 17.6436C28.1433 23.813 21.9763 29.9841 15.8076 36.1535C15.6461 36.3151 15.4746 36.4651 15.3072 36.6208Z" fill="#FFDA68"/>
<path d="M34.6118 17.3726C34.0006 16.7528 33.3895 16.133 32.7792 15.5132C32.6993 15.4324 32.6227 15.3483 32.5444 15.2658C33.0573 14.6827 33.6068 14.1363 34.1863 13.6206C35.7816 15.2134 37.376 16.8061 38.9721 18.398C39.052 18.478 39.1403 18.5505 39.2252 18.6263C39.2285 18.6463 39.2302 18.6663 39.2302 18.6871C38.6648 19.2077 38.1178 19.7459 37.6041 20.3182C37.2927 20.0241 36.9822 19.7309 36.6708 19.4368C36.008 18.7254 35.3186 18.0407 34.6109 17.3734L34.6118 17.3726Z" fill="#F2FFF7"/>
<path d="M34.6118 17.3726C35.3187 18.0398 36.0081 18.7246 36.6717 19.436C36.5793 19.5184 36.4819 19.5976 36.3944 19.685C30.2116 25.8695 24.0296 32.0547 17.8467 38.2383C17.6927 38.3924 17.5278 38.5348 17.3679 38.6831C16.9941 38.434 16.5995 38.5782 16.2206 38.6448C15.5196 38.7681 15.2265 38.4732 15.3489 37.7685C15.4147 37.3894 15.5604 36.9937 15.3081 36.6205C15.4746 36.4648 15.647 36.314 15.8085 36.1532C21.9772 29.9838 28.1442 23.8127 34.3129 17.6433C34.4079 17.5483 34.5128 17.4625 34.6127 17.3726H34.6118Z" fill="#FFC43D"/>
</g>
<defs>
<clipPath id="clip0_759_7982">
<rect width="32" height="32" fill="white" transform="translate(11 11)"/>
</clipPath>
</defs>
</svg>
