<svg width="22" height="24" viewBox="0 0 22 24" fill="none" xmlns="http://www.w3.org/2000/svg">
<path d="M14.3014 19.8C13.485 19.8 12.7968 19.5182 12.2368 18.9546C11.6768 18.3908 11.3968 17.7008 11.3968 16.8846C11.3968 16.0682 11.6786 15.38 12.2422 14.82C12.806 14.26 13.496 13.98 14.3122 13.98C15.1286 13.98 15.8168 14.2618 16.3768 14.8254C16.9368 15.3892 17.2168 16.0792 17.2168 16.8954C17.2168 17.7118 16.935 18.4 16.3714 18.96C15.8076 19.52 15.1176 19.8 14.3014 19.8ZM1.79683 24C1.31683 24 0.896826 23.82 0.536826 23.46C0.176826 23.1 -0.00317383 22.68 -0.00317383 22.2V3.6C-0.00317383 3.12 0.176826 2.7 0.536826 2.34C0.896826 1.98 1.31683 1.8 1.79683 1.8H3.74683V0.96C3.74683 0.688002 3.83881 0.460002 4.02283 0.276C4.20685 0.091998 4.43485 0 4.70683 0C4.98721 0 5.22235 0.091998 5.41213 0.276C5.60191 0.460002 5.69683 0.688002 5.69683 0.96V1.8H15.8968V0.96C15.8968 0.688002 15.9888 0.460002 16.1728 0.276C16.3568 0.091998 16.5848 0 16.8568 0C17.1374 0 17.3725 0.091998 17.5621 0.276C17.7519 0.460002 17.8468 0.688002 17.8468 0.96V1.8H19.7968C20.2768 1.8 20.6968 1.98 21.0568 2.34C21.4168 2.7 21.5968 3.12 21.5968 3.6V22.2C21.5968 22.68 21.4168 23.1 21.0568 23.46C20.6968 23.82 20.2768 24 19.7968 24H1.79683ZM1.79683 22.2H19.7968V9.3H1.79683V22.2Z" fill="#C4CAD4"/>
</svg>
