<svg width="54" height="54" viewBox="0 0 54 54" fill="none" xmlns="http://www.w3.org/2000/svg">
<path d="M37.5272 22.0402C43.2429 22.0402 47.8764 17.4067 47.8764 11.691C47.8764 5.97528 43.2429 1.3418 37.5272 1.3418C31.8115 1.3418 27.178 5.97528 27.178 11.691C27.178 17.4067 31.8115 22.0402 37.5272 22.0402Z" fill="#FF3030"/>
<path d="M33.4276 17.3901L25.1482 38.5084C24.0183 41.3981 26.1481 44.5179 29.2479 44.5179H45.7966C48.8964 44.5179 51.0262 41.3981 49.8963 38.5084L41.617 17.3901C40.1571 13.6603 34.8775 13.6603 33.4176 17.3901H33.4276Z" fill="#FF3030"/>
<path d="M16.879 30.1896C22.5947 30.1896 27.2282 25.5561 27.2282 19.8404C27.2282 14.1247 22.5947 9.49121 16.879 9.49121C11.1633 9.49121 6.52979 14.1247 6.52979 19.8404C6.52979 25.5561 11.1633 30.1896 16.879 30.1896Z" fill="#C4CAD4"/>
<path d="M12.7792 25.5297L4.50979 46.648C3.37987 49.5378 5.50971 52.6575 8.60947 52.6575H25.1582C28.258 52.6575 30.3878 49.5378 29.2579 46.648L20.9785 25.5297C19.5186 21.8 14.239 21.8 12.7792 25.5297Z" fill="#C4CAD4"/>
<g clip-path="url(#clip0_1907_10776)">
<path d="M44.7738 13.6385C44.2512 13.6385 43.8235 13.2014 43.833 12.6787C43.8616 8.68746 42.094 6.36874 38.4164 5.58949C37.8937 5.49446 37.5706 4.98131 37.6751 4.46815C37.7892 3.95499 38.2833 3.63189 38.806 3.73642C43.3769 4.69622 45.7717 7.79418 45.7336 12.6977C45.7336 13.2204 45.306 13.6385 44.7833 13.6385H44.7738Z" fill="white"/>
</g>
<g clip-path="url(#clip1_1907_10776)">
<path d="M23.8676 22.1912C23.3449 22.1912 22.9173 21.7541 22.9268 21.2314C22.9553 17.2402 21.1878 14.9215 17.5101 14.1422C16.9874 14.0472 16.6643 13.534 16.7689 13.0209C16.8829 12.5077 17.3771 12.1846 17.8997 12.2892C22.4707 13.249 24.8654 16.3469 24.8274 21.2504C24.8274 21.7731 24.3998 22.1912 23.8771 22.1912H23.8676Z" fill="white"/>
</g>
<defs>
<clipPath id="clip0_1907_10776">
<rect width="8.06803" height="9.92108" fill="white" transform="translate(37.6562 3.71777)"/>
</clipPath>
<clipPath id="clip1_1907_10776">
<rect width="8.06803" height="9.92108" fill="white" transform="translate(16.75 12.2705)"/>
</clipPath>
</defs>
</svg>
