<svg width="54" height="54" viewBox="0 0 54 54" fill="none" xmlns="http://www.w3.org/2000/svg">
<path d="M37.5273 22.0404C43.243 22.0404 47.8765 17.4069 47.8765 11.6912C47.8765 5.97553 43.243 1.34204 37.5273 1.34204C31.8116 1.34204 27.1781 5.97553 27.1781 11.6912C27.1781 17.4069 31.8116 22.0404 37.5273 22.0404Z" fill="#FF3030"/>
<path d="M33.4276 17.3908L25.1482 38.5091C24.0183 41.3989 26.1481 44.5186 29.2479 44.5186H45.7966C48.8964 44.5186 51.0262 41.3989 49.8963 38.5091L41.617 17.3908C40.1571 13.6611 34.8775 13.6611 33.4176 17.3908H33.4276Z" fill="#FF3030"/>
<path d="M16.8789 30.1898C22.5946 30.1898 27.2281 25.5563 27.2281 19.8406C27.2281 14.1249 22.5946 9.49146 16.8789 9.49146C11.1632 9.49146 6.52966 14.1249 6.52966 19.8406C6.52966 25.5563 11.1632 30.1898 16.8789 30.1898Z" fill="#353C49"/>
<path d="M12.7793 25.5302L4.50991 46.6485C3.38 49.5383 5.50983 52.658 8.6096 52.658H25.1583C28.2581 52.658 30.3879 49.5383 29.258 46.6485L20.9787 25.5302C19.5188 21.8005 14.2392 21.8005 12.7793 25.5302Z" fill="#353C49"/>
<g clip-path="url(#clip0_1907_10392)">
<path d="M44.774 13.6387C44.2513 13.6387 43.8237 13.2016 43.8332 12.6789C43.8617 8.6877 42.0941 6.36898 38.4165 5.58974C37.8938 5.49471 37.5707 4.98155 37.6752 4.46839C37.7893 3.95523 38.2834 3.63213 38.8061 3.73666C43.377 4.69646 45.7718 7.79442 45.7338 12.6979C45.7338 13.2206 45.3061 13.6387 44.7835 13.6387H44.774Z" fill="white"/>
</g>
<g clip-path="url(#clip1_1907_10392)">
<path d="M23.8677 22.1912C23.3451 22.1912 22.9174 21.7541 22.9269 21.2314C22.9554 17.2402 21.1879 14.9215 17.5102 14.1422C16.9876 14.0472 16.6645 13.534 16.769 13.0209C16.883 12.5077 17.3772 12.1846 17.8998 12.2892C22.4708 13.249 24.8655 16.3469 24.8275 21.2504C24.8275 21.7731 24.3999 22.1912 23.8772 22.1912H23.8677Z" fill="white"/>
</g>
<defs>
<clipPath id="clip0_1907_10392">
<rect width="8.06803" height="9.92108" fill="white" transform="translate(37.6562 3.71777)"/>
</clipPath>
<clipPath id="clip1_1907_10392">
<rect width="8.06803" height="9.92108" fill="white" transform="translate(16.75 12.2703)"/>
</clipPath>
</defs>
</svg>
