<svg width="54" height="54" viewBox="0 0 54 54" fill="none" xmlns="http://www.w3.org/2000/svg">
<path d="M14.0533 21.6289C13.7002 21.7903 13.3371 21.9618 12.9841 22.1232C12.0359 22.5569 11.0877 23.0108 10.1295 23.4244C9.79659 23.5656 9.68564 23.7573 9.67555 24.1204C9.61503 26.0672 8.15242 27.6105 6.24599 27.8122C4.36982 28.014 2.56426 26.7632 2.12043 24.9677C1.64635 23.0613 2.60461 21.1347 4.42025 20.4286C5.81225 19.8839 7.13364 20.0957 8.29364 21.0439C8.52564 21.2355 8.69712 21.2759 8.96946 21.1447C12.7016 19.4199 16.4439 17.7051 20.1861 15.9903C20.2567 15.9601 20.3173 15.9197 20.4585 15.839C20.3072 15.4961 20.1357 15.1632 19.9945 14.8101C19.6414 13.9931 19.8936 13.3173 20.7006 12.944C22.1632 12.2581 23.6359 11.5924 25.1086 10.9166C25.9458 10.5333 26.6115 10.7955 27.015 11.6227C27.1663 11.9354 27.3075 12.248 27.4689 12.6112C27.6706 12.5305 27.832 12.48 27.9934 12.3994C31.6146 10.735 35.2359 9.07066 38.8672 7.41639C39.2 7.26509 39.3412 7.09361 39.3614 6.69013C39.4118 4.89465 40.7131 3.40178 42.4884 3.06891C44.1931 2.73604 45.928 3.63378 46.6644 5.22752C47.4108 6.85152 46.9771 8.75796 45.5951 9.85744C44.1931 10.9771 42.2059 10.9973 40.8038 9.85744C40.4911 9.60526 40.2692 9.59518 39.9364 9.75657C38.6251 10.382 37.3037 10.9771 35.9823 11.5823C35.8411 11.6529 35.7099 11.7336 35.5082 11.8345C36.4564 12.0867 37.344 12.2783 38.2115 12.5507C41.5805 13.6098 44.5259 15.4254 47.1485 17.7454C48.7019 19.1274 50.1141 20.6807 51.5464 22.2039C52.192 22.8999 52.1214 23.727 51.5061 24.1809C50.8303 24.6853 50.0939 24.5239 49.4988 23.7875C46.5433 20.1461 43.0532 17.1604 38.6654 15.3649C35.6393 14.1242 32.5225 13.8216 29.3451 14.7395C29.1131 14.8001 28.8912 14.8908 28.5785 15.0018C28.7399 15.3548 28.8912 15.6776 29.0324 16.0004C29.4056 16.8477 29.1635 17.5336 28.3364 17.9169C26.8738 18.6028 25.4011 19.2787 23.9284 19.9444C23.0912 20.3176 22.4254 20.0554 22.022 19.2181C21.8707 18.9054 21.7294 18.5927 21.5176 18.1187C20.5392 18.8651 19.5708 19.4905 18.7235 20.2571C15.8689 22.8192 14.4668 26.1378 13.9524 29.87C13.4884 33.1987 13.7305 36.4971 14.5475 39.7552C14.7795 40.6832 14.4366 41.3691 13.6397 41.5809C12.8933 41.7726 12.2881 41.3187 12.046 40.3907C12.0359 40.3402 12.0157 40.2898 12.0056 40.2293C10.9263 35.4178 10.7549 30.6164 12.278 25.8755C12.7016 24.5541 13.4077 23.3336 13.9827 22.0627C14.0331 21.9517 14.0936 21.8508 14.1542 21.75C14.134 21.7197 14.1037 21.6794 14.0835 21.6491L14.0533 21.6289Z" fill="#FF3030"/>
<path d="M39.4119 50.4382C39.2009 50.3021 39.069 50.1026 38.9722 49.8667C37.8555 47.1636 36.7299 44.4605 35.622 41.7574C35.5253 41.5125 35.4637 41.576 35.323 41.703C33.9513 42.9366 32.5883 44.1702 31.2077 45.3948C30.7153 45.8393 30.0382 45.676 29.792 45.0864C29.7393 44.9594 29.7305 44.8324 29.7305 44.7054C29.7305 37.3671 29.7305 30.0379 29.7305 22.6995C29.7305 22.2823 29.9151 22.0102 30.2669 21.8469C30.6186 21.6836 30.9703 21.7562 31.2605 22.0555C36.4398 27.3892 41.6102 32.7319 46.7895 38.0746C47.1148 38.4102 47.2028 38.7821 47.0445 39.145C46.8598 39.5441 46.5433 39.6983 46.1212 39.6983C44.2394 39.6983 42.3577 39.6983 40.4671 39.6983C40.4495 39.8072 40.5023 39.8797 40.5374 39.9523C41.619 42.5647 42.7006 45.168 43.7822 47.7804C44.0196 48.3428 43.9229 48.5968 43.3865 48.8326C42.173 49.3769 40.9595 49.9121 39.7373 50.4563H39.4119V50.4382Z" fill="#353C49"/>
</svg>
