<svg width="54" height="54" viewBox="0 0 54 54" fill="none" xmlns="http://www.w3.org/2000/svg">
<path d="M4 37.114C4.10032 34.6142 5.61355 32.382 8.31396 30.9524C10.2285 29.9408 12.3019 29.3388 14.3836 28.7787C16.0222 28.3356 17.5355 27.4912 17.8113 25.7773C18.3548 22.4081 20.5786 20.4016 23.0366 18.4954C23.7723 17.9269 24.5665 17.4253 25.3524 16.9237C25.9794 16.5224 26.665 16.5976 27.1332 17.0741C27.593 17.5423 27.6766 18.2362 27.2753 18.8633C26.3306 20.3514 25.4527 21.873 24.8508 23.5367C24.7087 23.9213 24.6083 24.3226 24.4913 24.7239C24.3324 25.284 24.5665 25.677 25.0682 25.9111C25.5196 26.1201 25.9293 26.2037 26.3807 25.7773C31.7648 20.7611 37.174 15.7616 42.5832 10.7621C42.9009 10.4694 42.9761 10.3022 42.6082 10.0013C42.2237 9.68357 41.8809 9.30736 41.5381 8.9395C41.0616 8.42952 41.095 7.81085 41.6635 7.40119C43.6282 5.97993 45.6096 4.57538 47.591 3.17084C48.009 2.87822 48.4605 2.89494 48.8284 3.24608C49.4721 3.84803 50.0908 4.47506 50.7011 5.11881C51.1024 5.54519 51.1024 6.10533 50.6844 6.52335C48.9705 8.24559 47.2148 9.92602 45.5177 11.6566C44.5228 12.6682 43.6031 13.7467 42.6417 14.7918C38.3779 19.4067 34.1141 24.0133 29.8503 28.6282C29.0393 29.506 29.5493 31.0611 30.7365 31.3202C31.4806 31.4791 32.1996 31.2868 32.9186 31.1112C33.5623 30.9524 34.181 30.7099 34.7913 30.4508C35.4267 30.1749 36.0203 30.2836 36.4299 30.7183C36.8396 31.1447 36.9399 31.7633 36.6306 32.3736C35.4434 34.748 33.7212 36.4953 31.0375 37.1223C30.1011 37.3397 29.2483 37.741 28.4458 38.2844C26.9576 39.296 26.4142 40.826 26.0881 42.4897C25.7704 44.0949 25.4527 45.7085 24.6752 47.1632C23.1285 50.0475 20.7793 51.6861 17.4184 51.5774C15.6293 51.5189 14.0157 50.8417 12.5443 49.8636C9.359 47.7567 6.72548 45.1149 4.9698 41.6871C4.34278 40.4331 4 39.1205 4 37.114Z" fill="#C4CAD4"/>
<path d="M17.6609 43.0088C17.6358 43.6358 17.3683 44.104 16.7914 44.3799C16.1978 44.6641 15.5624 44.5721 15.0524 44.0789C14.1412 43.1927 13.2466 42.2814 12.3437 41.3785C12.0427 41.0775 11.725 40.7765 11.4324 40.4588C10.8722 39.8402 10.8722 38.9456 11.424 38.3604C11.9758 37.7668 12.8955 37.6748 13.5058 38.2601C14.7933 39.4807 16.039 40.7598 17.2847 42.0222C17.5438 42.2814 17.6609 42.6325 17.6609 43.0088Z" fill="#FF3030"/>
<path d="M22.1 37.0395C22.0916 37.5913 21.8826 37.9341 21.4897 38.1431C21.0717 38.3688 20.6202 38.3521 20.2858 38.0344C19.3494 37.1399 18.4381 36.2286 17.5519 35.2922C17.1674 34.8909 17.2426 34.2137 17.6188 33.8208C18.0201 33.4028 18.6973 33.3025 19.1237 33.7121C20.0684 34.59 20.963 35.5263 21.8659 36.446C22.0415 36.6299 22.1167 36.8807 22.1 37.0395Z" fill="white"/>
<path d="M23.8307 35.3001C23.5799 35.3085 23.304 35.1663 23.0615 34.9239C22.2506 34.1129 21.4312 33.3103 20.6286 32.4827C20.1354 31.9727 20.127 31.3206 20.5701 30.8524C21.0132 30.3926 21.6988 30.3675 22.2088 30.8524C23.0615 31.6717 23.8976 32.5161 24.7252 33.3605C25.0847 33.7284 25.1767 34.1798 24.951 34.648C24.7503 35.0744 24.3992 35.2917 23.8307 35.3001Z" fill="white"/>
</svg>
