<svg width="54" height="54" viewBox="0 0 54 54" fill="none" xmlns="http://www.w3.org/2000/svg">
<path d="M4 37.1137C4.10032 34.614 5.61355 32.3818 8.31396 30.9521C10.2285 29.9405 12.3019 29.3386 14.3836 28.7784C16.0222 28.3353 17.5355 27.4909 17.8113 25.7771C18.3548 22.4078 20.5786 20.4013 23.0366 18.4952C23.7723 17.9267 24.5665 17.425 25.3524 16.9234C25.9794 16.5221 26.665 16.5974 27.1332 17.0739C27.593 17.5421 27.6766 18.236 27.2753 18.863C26.3306 20.3512 25.4527 21.8728 24.8508 23.5365C24.7087 23.9211 24.6083 24.3224 24.4913 24.7237C24.3324 25.2838 24.5665 25.6767 25.0682 25.9108C25.5196 26.1198 25.9293 26.2034 26.3807 25.7771C31.7648 20.7608 37.174 15.7613 42.5832 10.7618C42.9009 10.4692 42.9761 10.302 42.6082 10.001C42.2237 9.68333 41.8809 9.30711 41.5381 8.93926C41.0616 8.42927 41.095 7.8106 41.6635 7.40095C43.6282 5.97968 45.6096 4.57514 47.591 3.17059C48.009 2.87798 48.4605 2.8947 48.8284 3.24584C49.4721 3.84778 50.0908 4.47481 50.7011 5.11856C51.1024 5.54494 51.1024 6.10509 50.6844 6.52311C48.9705 8.24534 47.2148 9.92578 45.5177 11.6564C44.5228 12.668 43.6031 13.7465 42.6417 14.7915C38.3779 19.4065 34.1141 24.013 29.8503 28.6279C29.0393 29.5058 29.5493 31.0608 30.7365 31.32C31.4806 31.4788 32.1996 31.2866 32.9186 31.111C33.5623 30.9521 34.181 30.7097 34.7913 30.4505C35.4267 30.1746 36.0203 30.2833 36.4299 30.718C36.8396 31.1444 36.9399 31.7631 36.6306 32.3734C35.4434 34.7477 33.7212 36.4951 31.0375 37.1221C30.1011 37.3395 29.2483 37.7408 28.4458 38.2842C26.9576 39.2958 26.4142 40.8257 26.0881 42.4895C25.7704 44.0947 25.4527 45.7082 24.6752 47.1629C23.1285 50.0472 20.7793 51.6859 17.4184 51.5772C15.6293 51.5187 14.0157 50.8415 12.5443 49.8633C9.359 47.7565 6.72548 45.1146 4.9698 41.6869C4.34278 40.4328 4 39.1202 4 37.1137Z" fill="#353C49"/>
<path d="M17.6609 43.0083C17.6358 43.6353 17.3683 44.1035 16.7914 44.3794C16.1978 44.6636 15.5624 44.5717 15.0524 44.0784C14.1412 43.1922 13.2466 42.2809 12.3437 41.378C12.0427 41.077 11.725 40.776 11.4324 40.4583C10.8722 39.8397 10.8722 38.9451 11.424 38.3599C11.9758 37.7663 12.8955 37.6743 13.5058 38.2596C14.7933 39.4802 16.039 40.7593 17.2847 42.0217C17.5438 42.2809 17.6609 42.632 17.6609 43.0083Z" fill="#FF3030"/>
<path d="M22.0999 37.0398C22.0915 37.5916 21.8825 37.9343 21.4896 38.1434C21.0715 38.3691 20.6201 38.3524 20.2857 38.0347C19.3493 37.1401 18.438 36.2288 17.5518 35.2925C17.1672 34.8912 17.2425 34.214 17.6187 33.821C18.02 33.403 18.6972 33.3027 19.1236 33.7124C20.0683 34.5902 20.9629 35.5266 21.8658 36.4462C22.0413 36.6301 22.1166 36.8809 22.0999 37.0398Z" fill="white"/>
<path d="M23.8308 35.3001C23.58 35.3085 23.3041 35.1663 23.0616 34.9239C22.2507 34.1129 21.4314 33.3103 20.6288 32.4827C20.1355 31.9727 20.1271 31.3206 20.5702 30.8524C21.0133 30.3926 21.6989 30.3675 22.2089 30.8524C23.0616 31.6717 23.8977 32.5161 24.7254 33.3605C25.0849 33.7284 25.1768 34.1798 24.9511 34.648C24.7504 35.0744 24.3993 35.2917 23.8308 35.3001Z" fill="white"/>
</svg>
