<svg width="353" height="56" viewBox="0 0 353 56" fill="none" xmlns="http://www.w3.org/2000/svg">
<rect width="353" height="56" rx="12" fill="black"/>
<path d="M107.919 24.8187C107.802 24.9087 105.734 26.0628 105.734 28.6291C105.734 31.5974 108.366 32.6475 108.444 32.6735C108.432 32.7375 108.026 34.1116 107.057 35.5118C106.192 36.7439 105.289 37.974 103.916 37.974C102.542 37.974 102.189 37.1839 100.603 37.1839C99.0577 37.1839 98.5083 38 97.2519 38C95.9955 38 95.1188 36.8599 94.1109 35.4597C92.9433 33.8156 92 31.2613 92 28.8371C92 24.9487 94.5532 22.8865 97.066 22.8865C98.4012 22.8865 99.5142 23.7546 100.353 23.7546C101.15 23.7546 102.395 22.8345 103.914 22.8345C104.489 22.8345 106.558 22.8865 107.919 24.8187ZM103.193 21.1883C103.821 20.4502 104.265 19.4261 104.265 18.402C104.265 18.26 104.253 18.116 104.227 18C103.205 18.038 101.989 18.6741 101.255 19.5162C100.68 20.1642 100.142 21.1883 100.142 22.2264C100.142 22.3824 100.169 22.5385 100.181 22.5885C100.245 22.6005 100.35 22.6145 100.456 22.6145C101.373 22.6145 102.526 22.0064 103.193 21.1883Z" fill="white"/>
<path d="M129.898 35L128.531 31.2109H122.613L121.227 35H118.922L124.352 20.8594H126.793L132.223 35H129.898ZM123.316 29.2578H127.809L125.621 23.2227H125.523L123.316 29.2578ZM133.722 39.2188V24.9219H135.734V26.4258H135.812C136.476 25.2539 137.56 24.6484 138.995 24.6484C141.779 24.6484 143.771 26.9336 143.761 29.9609C143.771 32.9883 141.779 35.2734 138.995 35.2734C137.56 35.2734 136.466 34.6582 135.812 33.4766H135.734V39.2188H133.722ZM138.683 33.3789C140.47 33.3887 141.72 31.9629 141.71 29.9609C141.72 27.959 140.47 26.5332 138.683 26.543C136.915 26.5332 135.655 27.9492 135.655 29.9609C135.655 31.9727 136.915 33.3887 138.683 33.3789ZM145.631 39.2188V24.9219H147.643V26.4258H147.721C148.385 25.2539 149.469 24.6484 150.905 24.6484C153.688 24.6484 155.68 26.9336 155.67 29.9609C155.68 32.9883 153.688 35.2734 150.905 35.2734C149.469 35.2734 148.375 34.6582 147.721 33.4766H147.643V39.2188H145.631ZM150.592 33.3789C152.379 33.3887 153.629 31.9629 153.62 29.9609C153.629 27.959 152.379 26.5332 150.592 26.543C148.825 26.5332 147.565 27.9492 147.565 29.9609C147.565 31.9727 148.825 33.3887 150.592 33.3789ZM157.541 35V20.8594H159.552V35H157.541ZM166.735 35.2734C163.63 35.2734 161.403 32.998 161.403 29.9609C161.403 26.9043 163.6 24.6484 166.54 24.6484C169.479 24.6484 171.52 26.9043 171.52 29.9609C171.52 30.1855 171.511 30.4199 171.481 30.6445H163.473C163.718 32.3633 165.016 33.4766 166.755 33.4766C168.034 33.4766 168.942 32.8809 169.411 31.8945L171.188 32.6172C170.388 34.2383 168.835 35.2734 166.735 35.2734ZM163.552 28.8672H169.391C169.255 27.5 168.132 26.4453 166.54 26.4453C165.026 26.4453 163.893 27.3926 163.552 28.8672ZM188.762 33.0273V34.5508H172.766V33.0273H179.797V29.9414H174.719V24.375H184.973V21.9141H174.68V20.4102H186.828V25.8594H176.555V28.4375H187.238V29.9414H181.652V33.0273H188.762ZM201.018 23.5742C201.028 26.8164 202.952 30.0098 205.647 31.2109L204.553 32.7344C202.522 31.7578 200.94 29.7754 200.12 27.3633C199.309 29.9316 197.698 32.041 195.608 33.0664L194.475 31.543C197.219 30.2734 199.153 26.9141 199.162 23.5742V20.625H201.018V23.5742ZM209.104 19.1602V36.6797H207.229V19.1602H209.104ZM217.81 22.2656C217.8 24.5117 219.363 26.6504 222.029 27.5391L221.072 29.0039C219.099 28.3301 217.654 26.9629 216.892 25.2344C216.121 27.1191 214.597 28.6133 212.537 29.3359L211.56 27.8711C214.295 26.9434 215.925 24.6875 215.935 22.2852V21.8359H212.107V20.332H221.58V21.8359H217.81V22.2656ZM225.427 19.1602V23.6523H227.966V25.1953H225.427V29.6875H223.572V19.1602H225.427ZM225.427 30.5859V36.6602H223.572V32.0898H213.884V30.5859H225.427ZM242.434 19.1602V26.2305H245.208V27.8125H242.434V36.6602H240.559V19.1602H242.434ZM239.055 21.8945V23.418H228.684V21.8945H232.981V19.3945H234.856V21.8945H239.055ZM233.938 24.7266C236.448 24.7168 238.274 26.3965 238.274 28.7695C238.274 31.1621 236.448 32.8418 233.938 32.8516C231.429 32.8418 229.583 31.1621 229.583 28.7695C229.583 26.3965 231.429 24.7168 233.938 24.7266ZM233.938 26.2695C232.444 26.2598 231.37 27.2754 231.38 28.7695C231.37 30.293 232.444 31.2988 233.938 31.3086C235.413 31.2988 236.497 30.293 236.497 28.7695C236.497 27.2754 235.413 26.2598 233.938 26.2695ZM260.398 19.1602V36.6406H258.543V19.1602H260.398ZM255.184 21.0156C255.193 26.1523 253.025 30.5859 247.02 33.4766L246.023 31.9922C250.691 29.7754 252.938 26.6113 253.309 22.5195H246.883V21.0156H255.184Z" fill="white"/>
</svg>
