<svg width="38" height="38" viewBox="0 0 38 38" fill="none" xmlns="http://www.w3.org/2000/svg">
<g clip-path="url(#clip0_2100_7425)">
<path d="M6.05616 12.2586C6.07883 10.9598 5.97357 9.54272 6.29095 8.14185C6.67635 6.43813 7.41798 4.91742 8.56121 3.59753C9.17168 2.89304 9.83235 2.23552 10.5222 1.61202C12.9123 -0.545161 16.5508 -0.51601 18.9247 1.66222C19.3894 2.08815 19.3975 2.36023 18.9474 2.81207C17.422 4.33926 15.8885 5.85673 14.3712 7.39364C13.4045 8.37344 13.7948 9.94597 15.0886 10.3006C15.7703 10.4869 16.3581 10.2893 16.8585 9.78726C18.3612 8.27627 19.872 6.77175 21.3779 5.26399C22.7511 3.89066 24.1243 2.5157 25.499 1.14398C27.0131 -0.368635 28.9757 -0.38483 30.4751 1.12455C31.9001 2.55942 33.4125 3.91495 34.7306 5.45186C40.348 11.9995 38.5036 22.0679 30.9285 26.2187C28.234 27.6941 25.5104 29.116 22.798 30.5574C21.9754 30.9946 21.2484 30.8894 20.5845 30.227C15.9274 25.5742 11.2735 20.9181 6.61805 16.2637C6.2359 15.8814 6.04968 15.4264 6.05454 14.8822C6.06425 14.0466 6.05616 13.2093 6.05616 12.2586Z" fill="#FF3030"/>
<path d="M12.1447 38.002C10.9205 37.968 9.94408 37.5648 9.14576 36.7696C6.49984 34.133 3.84743 31.5046 1.22741 28.8438C-0.416174 27.174 -0.399982 24.6719 1.22255 22.986C1.99819 22.1795 2.79489 21.394 3.59482 20.6102C4.33484 19.8863 5.34852 19.8847 6.08692 20.6199C9.85664 24.3804 13.6231 28.1458 17.3831 31.916C18.1329 32.6674 18.1264 33.6812 17.3831 34.4375C16.6091 35.2262 15.8237 36.0052 15.0384 36.7826C14.2109 37.6004 13.2037 37.9842 12.1447 38.0004V38.002Z" fill="#FF3030"/>
</g>
<defs>
<clipPath id="clip0_2100_7425">
<rect width="38" height="38.0016" fill="white" transform="translate(0 0.000488281)"/>
</clipPath>
</defs>
</svg>
