<svg width="8" height="12" viewBox="0 0 8 12" fill="none" xmlns="http://www.w3.org/2000/svg">
<path d="M5.8671 5.99593L0.93572 1.06455C0.820905 0.949746 0.763513 0.806241 0.763513 0.634034C0.763513 0.461827 0.820905 0.313103 0.93572 0.187862C1.06096 0.0626206 1.20969 0 1.38189 0C1.5541 0 1.70282 0.0626206 1.82806 0.187862L6.97861 5.33841C7.07255 5.43234 7.1404 5.5367 7.18213 5.65152C7.22387 5.76633 7.24475 5.88111 7.24475 5.99593C7.24475 6.11074 7.22387 6.22553 7.18213 6.34034C7.1404 6.45516 7.07255 6.55951 6.97861 6.65345L1.81241 11.8197C1.68717 11.9449 1.54104 12.0049 1.37406 11.9997C1.20709 11.9945 1.06096 11.9292 0.93572 11.804C0.820905 11.6788 0.760914 11.5326 0.755685 11.3657C0.750457 11.1987 0.810478 11.0525 0.93572 10.9273L5.8671 5.99593Z" fill="#353C49"/>
</svg>
