<svg width="42" height="42" viewBox="0 0 42 42" fill="none" xmlns="http://www.w3.org/2000/svg">
<mask id="mask0_2100_8013" style="mask-type:alpha" maskUnits="userSpaceOnUse" x="0" y="0" width="42" height="42">
<rect width="42" height="42" fill="#D9D9D9"/>
</mask>
<g mask="url(#mask0_2100_8013)">
<path d="M18.4554 28.2554C18.846 28.646 19.4791 28.646 19.8697 28.2554L28.3429 19.7822C28.7335 19.3916 28.7335 18.7585 28.3429 18.3679L27.2634 17.2884C26.8729 16.8979 26.2397 16.8979 25.8492 17.2884L19.8697 23.2679C19.4791 23.6585 18.846 23.6585 18.4554 23.2679L16.1509 20.9634C15.7604 20.5729 15.1272 20.5729 14.7367 20.9634L13.6572 22.0429C13.2666 22.4335 13.2666 23.0666 13.6572 23.4572L18.4554 28.2554ZM21 38.5C18.8125 38.5 16.7636 38.0844 14.8532 37.2532C12.9428 36.4219 11.2803 35.299 9.86567 33.8844C8.45109 32.4698 7.32817 30.8073 6.49692 28.8969C5.66567 26.9865 5.25005 24.9376 5.25005 22.7501C5.25005 20.5626 5.66567 18.5136 6.49692 16.6032C7.32817 14.6928 8.45109 13.0303 9.86567 11.6157C11.2803 10.2011 12.9428 9.07817 14.8532 8.24692C16.7636 7.41567 18.8125 7.00005 21 7.00005C23.1875 7.00005 25.2365 7.41567 27.1469 8.24692C29.0573 9.07817 30.7198 10.2011 32.1344 11.6157C33.549 13.0303 34.6719 14.6928 35.5032 16.6032C36.3344 18.5136 36.7501 20.5626 36.7501 22.7501C36.7501 24.9376 36.3344 26.9865 35.5032 28.8969C34.6719 30.8073 33.549 32.4698 32.1344 33.8844C30.7198 35.299 29.0573 36.4219 27.1469 37.2532C25.2365 38.0844 23.1875 38.5 21 38.5ZM9.09294 4.81966C9.48347 4.42913 10.1166 4.42913 10.5072 4.81966L11.5429 5.85544C11.9335 6.24597 11.9335 6.87913 11.5429 7.26966L5.51966 13.2929C5.12913 13.6835 4.49597 13.6835 4.10544 13.2929L3.06966 12.2572C2.67913 11.8666 2.67913 11.2335 3.06966 10.8429L9.09294 4.81966ZM31.4929 4.81966C31.8835 4.42913 32.5166 4.42913 32.9072 4.81966L38.9304 10.8429C39.321 11.2335 39.321 11.8666 38.9304 12.2572L37.8947 13.2929C37.5041 13.6835 36.871 13.6835 36.4804 13.2929L30.4572 7.26966C30.0666 6.87913 30.0666 6.24597 30.4572 5.85544L31.4929 4.81966ZM21 35C24.4125 35 27.3073 33.8115 29.6844 31.4344C32.0615 29.0573 33.2501 26.1626 33.2501 22.7501C33.2501 19.3376 32.0615 16.4428 29.6844 14.0657C27.3073 11.6886 24.4125 10.5 21 10.5C17.5875 10.5 14.6928 11.6886 12.3157 14.0657C9.93859 16.4428 8.75005 19.3376 8.75005 22.7501C8.75005 26.1626 9.93859 29.0573 12.3157 31.4344C14.6928 33.8115 17.5875 35 21 35Z" fill="white"/>
</g>
</svg>
