<svg width="20" height="20" viewBox="0 0 20 20" fill="none" xmlns="http://www.w3.org/2000/svg">
<path d="M16.6666 7.5V15.8333C16.6666 16.2754 16.4911 16.6993 16.1785 17.0118C15.8659 17.3244 15.442 17.5 15 17.5H4.99998C4.55795 17.5 4.13403 17.3244 3.82147 17.0118C3.50891 16.6993 3.33331 16.2754 3.33331 15.8333V4.16667C3.33331 3.72464 3.50891 3.30072 3.82147 2.98816C4.13403 2.67559 4.55795 2.5 4.99998 2.5H11.6666M16.6666 7.5V7.35667C16.6666 6.91468 16.4909 6.49082 16.1783 6.17833L12.9883 2.98833C12.6758 2.67575 12.252 2.50009 11.81 2.5H11.6666M16.6666 7.5H13.3333C12.8913 7.5 12.4674 7.3244 12.1548 7.01184C11.8422 6.69928 11.6666 6.27536 11.6666 5.83333V2.5" stroke="#111111" stroke-width="1.66667" stroke-linecap="round" stroke-linejoin="round"/>
</svg>
