<svg width="393" height="127" viewBox="0 0 393 127" fill="none" xmlns="http://www.w3.org/2000/svg">
<circle cx="196.5" cy="40" r="40" fill="#D8DCE2"/>
<path d="M196.5 24L196.5 43" stroke="white" stroke-width="9" stroke-linecap="round"/>
<circle cx="196.5" cy="57.5" r="4.5" fill="white"/>
<path d="M88.3164 107.352C90.9824 107.361 92.9062 109.793 92.9062 113.602C92.9062 117.42 90.9824 119.852 88.3164 119.852C85.6406 119.852 83.7168 117.42 83.707 113.602C83.7168 109.793 85.6406 107.361 88.3164 107.352ZM88.3164 109.344C86.8223 109.354 85.8262 110.906 85.8359 113.602C85.8262 116.307 86.8223 117.869 88.3164 117.879C89.791 117.869 90.7969 116.307 90.7969 113.602C90.7969 110.906 89.791 109.354 88.3164 109.344ZM97.3984 106.102V112.879H100.113V114.695H97.3984V123.719H95.1914V106.102H97.3984ZM107.574 109.129C107.564 111.316 109.068 113.465 111.871 114.363L110.738 116.082C108.736 115.428 107.291 114.09 106.5 112.391C105.699 114.236 104.205 115.682 102.105 116.375L100.973 114.676C103.834 113.729 105.328 111.434 105.328 109.129V108.953H101.559V107.195H111.266V108.953H107.574V109.129ZM115.562 106.082V116.727H113.355V106.082H115.562ZM115.562 117.566V123.719H113.355V119.324H103.512V117.566H115.562ZM127.926 106.844C130.23 106.854 132.037 108.152 132.477 110.086H135.621V106.102H137.828V115.555H135.621V111.863H132.496C132.076 113.846 130.26 115.174 127.926 115.164C125.25 115.174 123.268 113.455 123.277 111.004C123.268 108.582 125.25 106.854 127.926 106.844ZM127.926 108.68C126.432 108.68 125.377 109.588 125.367 111.004C125.377 112.42 126.432 113.338 127.926 113.348C129.391 113.338 130.465 112.42 130.465 111.004C130.465 109.588 129.391 108.68 127.926 108.68ZM128.375 116.375V118.25H135.641V116.375H137.828V123.523H126.168V116.375H128.375ZM128.375 121.746H135.641V119.93H128.375V121.746ZM156.441 119.891V121.688H140.328V119.891H147.262V117.02H142.242V111.238H152.379V109.051H142.203V107.293H154.566V112.977H144.41V115.262H154.977V117.02H149.449V119.891H156.441ZM171.949 114.324V116.102H159.547V107.605H171.793V109.383H161.734V114.324H171.949ZM173.727 119.715V121.512H157.613V119.715H173.727ZM190.055 111.609V113.367H186.793V115.359C188.268 115.291 189.732 115.193 191.109 115.047L191.266 116.629C187.525 117.166 183.453 117.254 180.152 117.254L179.879 115.496C181.324 115.496 182.936 115.477 184.586 115.438V113.367H181.383V107.195H189.938V108.953H183.57V111.609H190.055ZM194.508 106.082V119.324H192.32V106.082H194.508ZM195.035 121.609V123.387H182.672V118.406H184.879V121.609H195.035ZM212.066 107.82V109.578H210.387V117.508C211.178 117.459 211.949 117.381 212.691 117.293L212.809 118.895C209.176 119.52 205.016 119.578 201.988 119.578L201.754 117.762L203.883 117.742V109.578H202.203V107.82H212.066ZM215.816 106.102V112.898H218.531V114.715H215.816V123.719H213.609V106.102H215.816ZM206.012 117.723C206.744 117.703 207.506 117.674 208.258 117.645V109.578H206.012V117.723ZM224.273 106.648C226.959 106.648 228.951 108.309 228.961 110.652C228.951 112.967 226.959 114.617 224.273 114.617C221.578 114.617 219.566 112.967 219.566 110.652C219.566 108.309 221.578 106.648 224.273 106.648ZM224.273 108.445C222.799 108.445 221.705 109.295 221.715 110.652C221.705 112 222.809 112.83 224.273 112.84C225.729 112.83 226.832 112 226.832 110.652C226.832 109.295 225.738 108.445 224.273 108.445ZM233.98 106.102V114.988H231.773V106.102H233.98ZM233.98 115.75V120.379H224.43V121.785H234.488V123.523H222.281V118.797H231.793V117.469H222.242V115.75H233.98ZM251.227 106.082V123.758H249.039V106.082H251.227ZM241.715 107.352C244.4 107.361 246.334 109.793 246.344 113.602C246.334 117.42 244.4 119.852 241.715 119.852C239.059 119.852 237.105 117.42 237.105 113.602C237.105 109.793 239.059 107.361 241.715 107.352ZM241.715 109.344C240.23 109.354 239.225 110.906 239.215 113.602C239.225 116.307 240.23 117.869 241.715 117.879C243.209 117.869 244.225 116.307 244.234 113.602C244.225 110.906 243.209 109.354 241.715 109.344ZM262.77 116.414V118.309H265.055V116.414H267.086V122C269.176 121.111 270.113 119.363 270.113 117.664V116.297H272.281V117.664C272.271 119.5 273.219 121.277 275.387 122.039L274.273 123.68C272.73 123.104 271.725 122.039 271.168 120.711C270.582 122.01 269.576 123.094 268.102 123.68L267.086 122.156V123.523H260.719V116.414H262.77ZM262.77 121.844H265.055V119.93H262.77V121.844ZM263.629 106.785C265.934 106.795 267.74 108.064 268.18 109.988H271.324V106.102H273.531V115.418H271.324V111.785H268.199C267.77 113.738 265.953 115.047 263.629 115.047C260.953 115.047 258.971 113.338 258.98 110.906C258.971 108.484 260.953 106.795 263.629 106.785ZM263.629 108.602C262.135 108.611 261.08 109.51 261.07 110.906C261.08 112.322 262.135 113.23 263.629 113.23C265.094 113.23 266.168 112.322 266.168 110.906C266.168 109.51 265.094 108.611 263.629 108.602ZM280.836 107.352C283.229 107.361 285.006 109.354 285.328 112.566H288.648V106.082H290.836V123.758H288.648V114.344H285.348C285.113 117.732 283.297 119.852 280.836 119.852C278.209 119.852 276.314 117.42 276.324 113.602C276.314 109.793 278.209 107.361 280.836 107.352ZM280.836 109.344C279.391 109.354 278.404 110.906 278.414 113.602C278.404 116.307 279.391 117.869 280.836 117.879C282.311 117.869 283.287 116.307 283.297 113.602C283.287 110.906 282.311 109.354 280.836 109.344ZM309.43 119.793V121.609H293.316V119.793H297.008V115.32C295.611 114.52 294.762 113.26 294.762 111.707C294.762 108.875 297.545 107.049 301.344 107.039C305.162 107.049 307.926 108.875 307.926 111.707C307.926 113.26 307.086 114.51 305.699 115.32V119.793H309.43ZM301.344 108.758C298.727 108.768 296.92 109.871 296.91 111.707C296.92 113.533 298.727 114.646 301.344 114.656C303.971 114.646 305.777 113.533 305.777 111.707C305.777 109.871 303.971 108.768 301.344 108.758ZM299.195 119.793H303.512V116.141C302.838 116.287 302.115 116.355 301.344 116.355C300.582 116.355 299.859 116.287 299.195 116.141V119.793Z" fill="#595F72"/>
</svg>
