<svg width="20" height="20" viewBox="0 0 20 20" fill="none" xmlns="http://www.w3.org/2000/svg">
<path d="M18.4231 17.6963C18.7179 17.6967 19.0015 17.8091 19.2159 18.0106C19.4303 18.2122 19.5593 18.4876 19.5766 18.7807C19.5938 19.0737 19.4981 19.3623 19.3089 19.5875C19.1196 19.8126 18.8512 19.9573 18.5584 19.9919L18.4231 20H10.3261C10.0313 19.9997 9.74768 19.8873 9.5333 19.6857C9.31892 19.4842 9.18991 19.2087 9.17263 18.9157C9.15535 18.6226 9.25111 18.334 9.44034 18.1089C9.62957 17.8838 9.89798 17.7391 10.1907 17.7044L10.3261 17.6963H18.4231ZM15.064 0.8428C15.5937 0.315611 16.3082 0.0136397 17.0571 0.000450839C17.8059 -0.012738 18.5307 0.263884 19.0788 0.77209C19.6269 1.2803 19.9557 1.98044 19.9958 2.72515C20.036 3.46986 19.7844 4.20104 19.2941 4.76477L19.153 4.91451L6.54939 17.466C6.43924 17.5758 6.31474 17.6703 6.17924 17.747L6.04043 17.8161L1.64027 19.8088C0.705646 20.2315 -0.254431 19.3285 0.0613535 18.3978L0.107622 18.2826L2.10875 13.8999C2.17289 13.759 2.25576 13.6273 2.35513 13.5083L2.45923 13.3931L15.064 0.8428Z" fill="#1A1E27"/>
</svg>
