<svg width="53" height="53" viewBox="0 0 53 53" fill="none" xmlns="http://www.w3.org/2000/svg">
<circle cx="26.5" cy="26.5" r="26.5" fill="#FFE37F"/>
<path d="M29.9171 12.917C30.5857 14.0075 31.0904 15.1581 31.3368 16.4217C32.308 21.3955 28.6079 26.406 23.5315 26.9638C23.2026 26.9997 22.9425 27.11 22.7034 27.3512C21.5319 28.5323 20.3441 29.6973 19.1599 30.8668C19.0331 30.9923 18.9235 31.1403 18.7468 31.2067C18.5357 30.9959 18.3255 30.7851 18.1144 30.5744C16.7227 29.187 15.3311 27.7996 13.9395 26.4123C13.9585 26.2876 14.0246 26.1872 14.1234 26.1145C14.8382 25.5872 15.3791 24.8859 16.0097 24.2743C17.1993 23.1855 18.3382 22.0457 19.448 20.878C19.5078 20.8762 19.5685 20.8744 19.6283 20.8735C20.6811 21.4278 22.3065 21.0484 23.0513 20.1014C23.796 19.1552 23.8622 18.1257 23.5061 17.0271C23.5061 16.9688 23.5079 16.9105 23.5088 16.8522C23.623 16.7562 23.7444 16.6674 23.8504 16.5634C25.3942 15.0379 26.9372 13.5115 28.4783 11.9825C28.5834 11.8784 28.6713 11.7565 28.7664 11.6426C29.1506 11.9188 29.3997 12.3215 29.7241 12.6533C29.7658 12.7098 29.8074 12.7663 29.8491 12.8228C29.8718 12.8542 29.8944 12.8865 29.9171 12.9179V12.917Z" fill="#FF5922"/>
<path d="M23.5095 16.8515C23.5095 16.9098 23.5077 16.9681 23.5068 17.0264C23.3645 17.0488 23.2685 17.143 23.1724 17.2371C22.0607 18.3384 20.9491 19.4388 19.8365 20.5392C19.7404 20.6343 19.6444 20.7284 19.629 20.8719C19.5692 20.8737 19.5085 20.8755 19.4487 20.8764C18.8761 20.5643 18.4312 20.1016 17.9782 19.6487C17.9094 19.5796 17.8441 19.4648 17.7191 19.5231C17.6222 19.568 17.6484 19.6756 17.6421 19.7617C17.5307 21.1499 17.0287 22.4091 16.3447 23.6072C16.2215 23.8234 16.0122 23.9964 16.0104 24.2727C15.3798 24.8843 14.8389 25.5856 14.124 26.1129C14.0262 26.1856 13.9591 26.286 13.9401 26.4107C13.9147 26.4035 13.8885 26.3972 13.8631 26.39C12.2504 24.7865 10.6377 23.183 9.02588 21.5795C9.10017 20.1518 9.17628 18.7276 9.75703 17.3833C10.1874 16.386 10.7573 15.4856 11.5292 14.7153C12.4506 13.796 13.3865 12.8902 14.2998 11.9638C14.905 11.3504 15.6108 10.9836 16.486 10.9504C16.602 10.9459 16.7162 10.8948 16.8312 10.8652C16.9019 10.9172 16.9662 11.0024 17.0432 11.015C17.7445 11.1361 18.2872 11.519 18.7638 12.0123C20.333 13.6364 22.0571 15.1126 23.5095 16.8488V16.8515Z" fill="#FF662A"/>
<path d="M23.5098 16.8518C22.0574 15.1146 20.3342 13.6385 18.7641 12.0152C18.2875 11.522 17.7448 11.139 17.0436 11.018C16.9665 11.0045 16.9013 10.9193 16.8315 10.8682C18.6744 9.45213 20.7691 8.85216 23.084 9.03063C25.1823 9.19206 27.0116 9.98933 28.5581 11.4108C28.6342 11.4807 28.6986 11.565 28.7683 11.6422C28.6723 11.7561 28.5853 11.878 28.4802 11.9821C26.9391 13.5111 25.397 15.0375 23.8523 16.563C23.7463 16.667 23.6249 16.7558 23.5107 16.8518H23.5098Z" fill="#FF4700"/>
<path d="M9.02692 21.582C10.6396 23.1855 12.2523 24.7891 13.8641 26.3926C13.7174 26.5585 13.576 26.7298 13.422 26.8894C12.5749 27.7638 11.6589 28.5709 10.8525 29.4848C9.27517 27.9351 7.69961 26.3836 6.11861 24.8366C5.96911 24.6904 5.95462 24.5891 6.11136 24.4366C7.08714 23.4896 8.05567 22.5345 9.02602 21.582H9.02692Z" fill="#EAF2FA"/>
<path d="M10.8525 29.4848C11.6589 28.5709 12.5749 27.7638 13.422 26.8894C13.576 26.7298 13.7174 26.5585 13.8641 26.3926C13.8895 26.3998 13.9158 26.4069 13.9412 26.4132C15.3328 27.8006 16.7244 29.188 18.1161 30.5753C18.3272 30.7861 18.5374 30.9968 18.7485 31.2076C18.1079 31.9699 17.3487 32.6183 16.6583 33.3322C16.3593 33.6416 16.0522 33.9438 15.7487 34.2496C15.6825 34.2209 15.5992 34.2092 15.5521 34.1617C13.9837 32.6048 12.419 31.0444 10.8534 29.4839L10.8525 29.4848Z" fill="#D6E4F5"/>
<path d="M29.8501 12.8218C29.8085 12.7653 29.7668 12.7088 29.7251 12.6523C29.8003 12.6846 29.8384 12.7438 29.8501 12.8218Z" fill="#F5C521"/>
<path d="M19.6289 20.8729C19.6443 20.7294 19.7403 20.6343 19.8364 20.5402C20.949 19.4398 22.0607 18.3385 23.1723 17.2381C23.2684 17.143 23.3644 17.0489 23.5067 17.0273C23.8627 18.1259 23.7966 19.1555 23.0518 20.1016C22.3071 21.0487 20.6817 21.428 19.6289 20.8738V20.8729Z" fill="#FF662A"/>
<path d="M16.0112 24.2753C16.0139 24 16.2223 23.826 16.3456 23.6099C17.0296 22.4108 17.5315 21.1517 17.643 19.7643C17.6502 19.6791 17.6239 19.5715 17.72 19.5257C17.845 19.4675 17.9102 19.5822 17.9791 19.6513C18.4321 20.1051 18.877 20.567 19.4496 20.879C18.3397 22.0467 17.2017 23.1866 16.0112 24.2753Z" fill="#FF4700"/>
<path d="M22.5751 41.333C21.9065 40.2425 21.4018 39.0919 21.1554 37.8283C20.1841 32.8545 23.8843 27.844 28.9607 27.2862C29.2896 27.2503 29.5496 27.14 29.7888 26.8988C30.9603 25.7177 32.1481 24.5527 33.3323 23.3832C33.4591 23.2577 33.5687 23.1097 33.7454 23.0433C33.9565 23.2541 34.1667 23.4649 34.3778 23.6756C35.7694 25.063 37.1611 26.4504 38.5527 27.8377C38.5337 27.9624 38.4676 28.0628 38.3688 28.1355C37.654 28.6628 37.1131 29.3641 36.4825 29.9757C35.2929 31.0645 34.154 32.2043 33.0441 33.372C32.9844 33.3738 32.9236 33.3756 32.8639 33.3765C31.8111 32.8222 30.1857 33.2016 29.4409 34.1486C28.6962 35.0948 28.63 36.1243 28.9861 37.2229C28.9861 37.2812 28.9843 37.3395 28.9834 37.3978C28.8692 37.4938 28.7478 37.5826 28.6418 37.6866C27.098 39.2121 25.555 40.7385 24.0139 42.2675C23.9088 42.3716 23.8209 42.4935 23.7258 42.6074C23.3416 42.3312 23.0925 41.9285 22.7681 41.5967C22.7264 41.5402 22.6847 41.4837 22.6431 41.4272C22.6204 41.3958 22.5978 41.3635 22.5751 41.3321L22.5751 41.333Z" fill="#FF5922"/>
<path d="M28.9827 37.3985C28.9827 37.3402 28.9845 37.2819 28.9854 37.2236C29.1277 37.2012 29.2237 37.107 29.3198 37.0129C30.4314 35.9116 31.5431 34.8112 32.6557 33.7108C32.7517 33.6157 32.8478 33.5216 32.8632 33.3781C32.923 33.3763 32.9837 33.3745 33.0435 33.3736C33.6161 33.6857 34.0609 34.1484 34.514 34.6013C34.5828 34.6704 34.648 34.7852 34.7731 34.7269C34.87 34.682 34.8437 34.5744 34.8501 34.4883C34.9615 33.1001 35.4635 31.8409 36.1475 30.6428C36.2707 30.4266 36.48 30.2536 36.4818 29.9773C37.1124 29.3657 37.6533 28.6644 38.3681 28.1371C38.466 28.0644 38.533 27.964 38.5521 27.8393C38.5774 27.8465 38.6037 27.8528 38.6291 27.86C40.2418 29.4635 41.8545 31.067 43.4663 32.6705C43.392 34.0982 43.3159 35.5224 42.7352 36.8667C42.3048 37.864 41.7349 38.7644 40.963 39.5347C40.0416 40.454 39.1056 41.3598 38.1924 42.2862C37.5872 42.8996 36.8814 43.2664 36.0062 43.2996C35.8902 43.3041 35.776 43.3552 35.661 43.3848C35.5903 43.3328 35.526 43.2476 35.449 43.235C34.7477 43.1139 34.205 42.731 33.7284 42.2377C32.1592 40.6136 30.4351 39.1374 28.9827 37.4012L28.9827 37.3985Z" fill="#FF662A"/>
<path d="M28.9824 37.3982C30.4347 39.1354 32.158 40.6115 33.7281 42.2348C34.2047 42.728 34.7474 43.111 35.4486 43.232C35.5256 43.2455 35.5909 43.3307 35.6606 43.3818C33.8178 44.7979 31.7231 45.3978 29.4082 45.2194C27.3099 45.0579 25.4806 44.2607 23.9341 42.8392C23.858 42.7693 23.7936 42.685 23.7239 42.6078C23.8199 42.4939 23.9069 42.372 24.012 42.2679C25.5531 40.7389 27.0952 39.2125 28.6399 37.687C28.7459 37.583 28.8673 37.4942 28.9815 37.3982L28.9824 37.3982Z" fill="#FF4700"/>
<path d="M43.4653 32.668C41.8526 31.0645 40.2398 29.4609 38.628 27.8574C38.7748 27.6915 38.9162 27.5202 39.0702 27.3606C39.9173 26.4862 40.8333 25.6791 41.6396 24.7652C43.217 26.3149 44.7926 27.8664 46.3736 29.4134C46.5231 29.5596 46.5376 29.6609 46.3808 29.8134C45.405 30.7604 44.4365 31.7155 43.4662 32.668L43.4653 32.668Z" fill="#EAF2FA"/>
<path d="M41.6396 24.7652C40.8333 25.6791 39.9173 26.4862 39.0702 27.3606C38.9162 27.5202 38.7748 27.6915 38.628 27.8574C38.6027 27.8502 38.5764 27.8431 38.551 27.8368C37.1594 26.4494 35.7678 25.062 34.3761 23.6747C34.165 23.4639 33.9548 23.2532 33.7437 23.0424C34.3843 22.2801 35.1435 21.6317 35.8339 20.9178C36.1329 20.6084 36.44 20.3062 36.7435 20.0004C36.8097 20.0291 36.893 20.0408 36.9401 20.0883C38.5085 21.6452 40.0731 23.2056 41.6387 24.7661L41.6396 24.7652Z" fill="#D6E4F5"/>
<path d="M22.6421 41.4282C22.6837 41.4847 22.7254 41.5412 22.7671 41.5977C22.6919 41.5654 22.6538 41.5062 22.6421 41.4282Z" fill="#F5C521"/>
<path d="M32.8633 33.3771C32.8479 33.5206 32.7518 33.6157 32.6558 33.7098C31.5432 34.8102 30.4315 35.9115 29.3198 37.0119C29.2238 37.107 29.1278 37.2011 28.9855 37.2227C28.6295 36.1241 28.6956 35.0945 29.4403 34.1484C30.1851 33.2013 31.8105 32.822 32.8633 33.3762L32.8633 33.3771Z" fill="#FF662A"/>
<path d="M36.481 29.9747C36.4782 30.25 36.2699 30.424 36.1466 30.6401C35.4626 31.8392 34.9607 33.0983 34.8492 34.4857C34.842 34.5709 34.8682 34.6785 34.7722 34.7243C34.6472 34.7825 34.5819 34.6678 34.5131 34.5987C34.0601 34.1449 33.6152 33.683 33.0426 33.371C34.1525 32.2033 35.2904 31.0634 36.481 29.9747Z" fill="#FF4700"/>
</svg>
