<svg width="17" height="16" viewBox="0 0 17 16" fill="none" xmlns="http://www.w3.org/2000/svg">
<path d="M10.9819 13.2C10.4219 13.2 9.94987 13.0121 9.56576 12.6364C9.18165 12.2605 8.98957 11.8005 8.98957 11.2564C8.98957 10.7121 9.18288 10.2533 9.56946 9.88C9.95621 9.50668 10.4295 9.32 10.9893 9.32C11.5494 9.32 12.0214 9.50788 12.4055 9.8836C12.7896 10.2595 12.9817 10.7195 12.9817 11.2636C12.9817 11.8079 12.7884 12.2667 12.4018 12.64C12.0151 13.0133 11.5418 13.2 10.9819 13.2ZM2.4046 16C2.07536 16 1.78726 15.88 1.54033 15.64C1.29339 15.4 1.16992 15.12 1.16992 14.8V2.4C1.16992 2.08 1.29339 1.8 1.54033 1.56C1.78726 1.32 2.07536 1.2 2.4046 1.2H3.74218V0.64C3.74218 0.458668 3.80527 0.306668 3.93149 0.184C4.05772 0.061332 4.21411 0 4.40067 0C4.593 0 4.75429 0.061332 4.88446 0.184C5.01464 0.306668 5.07975 0.458668 5.07975 0.64V1.2H12.0763V0.64C12.0763 0.458668 12.1394 0.306668 12.2656 0.184C12.3918 0.061332 12.5482 0 12.7348 0C12.9273 0 13.0885 0.061332 13.2186 0.184C13.3487 0.306668 13.4139 0.458668 13.4139 0.64V1.2H14.7514C15.0807 1.2 15.3688 1.32 15.6157 1.56C15.8626 1.8 15.9861 2.08 15.9861 2.4V14.8C15.9861 15.12 15.8626 15.4 15.6157 15.64C15.3688 15.88 15.0807 16 14.7514 16H2.4046ZM2.4046 14.8H14.7514V6.2H2.4046V14.8Z" fill="#C4CAD4"/>
</svg>
