<svg width="20" height="20" viewBox="0 0 20 20" fill="none" xmlns="http://www.w3.org/2000/svg">
<g clip-path="url(#clip0_3721_14235)">
<path d="M9.99562 20C9.58187 20 9.22912 19.8527 8.9375 19.5581C8.64581 19.2636 8.5 18.9094 8.5 18.4956C8.5 18.0819 8.64725 17.7292 8.94188 17.4375C9.23644 17.1458 9.59062 17 10.0044 17C10.4181 17 10.7708 17.1473 11.0625 17.4419C11.3541 17.7364 11.5 18.0906 11.5 18.5044C11.5 18.9181 11.3527 19.2708 11.0581 19.5625C10.7635 19.8542 10.4094 20 9.99562 20ZM9.99562 11.5C9.58187 11.5 9.22912 11.3527 8.9375 11.0581C8.64581 10.7636 8.5 10.4094 8.5 9.99563C8.5 9.58188 8.64725 9.22919 8.94188 8.9375C9.23644 8.64581 9.59062 8.5 10.0044 8.5C10.4181 8.5 10.7708 8.64731 11.0625 8.94188C11.3541 9.23644 11.5 9.59063 11.5 10.0044C11.5 10.4181 11.3527 10.7708 11.0581 11.0625C10.7635 11.3542 10.4094 11.5 9.99562 11.5ZM9.99562 3C9.58187 3 9.22912 2.85269 8.9375 2.55812C8.64581 2.26356 8.5 1.90937 8.5 1.49562C8.5 1.08187 8.64725 0.729169 8.94188 0.4375C9.23644 0.145831 9.59062 0 10.0044 0C10.4181 0 10.7708 0.147294 11.0625 0.441875C11.3541 0.736457 11.5 1.09063 11.5 1.50438C11.5 1.91813 11.3527 2.27081 11.0581 2.5625C10.7635 2.85419 10.4094 3 9.99562 3Z" fill="white"/>
</g>
<defs>
<clipPath id="clip0_3721_14235">
<rect width="20" height="20" fill="white"/>
</clipPath>
</defs>
</svg>
