<svg width="25" height="24" viewBox="0 0 25 24" fill="none" xmlns="http://www.w3.org/2000/svg">
<path d="M14.2035 0.668903C13.6909 0.23692 13.0422 0 12.3719 0C11.7016 0 11.0528 0.23692 10.5402 0.668903L2.01372 7.86276C1.69724 8.12949 1.44284 8.46212 1.26829 8.8374C1.09374 9.21268 1.00326 9.62156 1.00317 10.0354V21.7894C1.00317 23.0097 1.99351 24 3.21375 24H7.00332C7.5896 24 8.15187 23.7671 8.56644 23.3525C8.981 22.938 9.2139 22.3757 9.2139 21.7894V16.7329C9.2139 15.8739 9.89855 15.1766 10.7512 15.1539H13.9925C14.4041 15.1648 14.795 15.3359 15.0822 15.6308C15.3694 15.9258 15.53 16.3212 15.5298 16.7329V21.7894C15.5298 23.0097 16.5202 24 17.7404 24H21.53C22.1163 24 22.6785 23.7671 23.0931 23.3525C23.5077 22.938 23.7406 22.3757 23.7406 21.7894V10.0342C23.7405 9.6203 23.65 9.21142 23.4755 8.83614C23.3009 8.46086 23.0465 8.12823 22.73 7.8615L14.2035 0.668903Z" fill="#1F1F1F"/>
</svg>
