<svg width="54" height="54" viewBox="0 0 54 54" fill="none" xmlns="http://www.w3.org/2000/svg">
<g clip-path="url(#clip0_1907_10460)">
<path d="M13.3748 19.9011C13.3987 18.5341 13.2879 17.0427 13.622 15.5682C14.0277 13.7751 14.8084 12.1745 16.0117 10.7854C16.6543 10.0439 17.3498 9.35185 18.0759 8.69561C20.5918 6.42519 24.4219 6.45587 26.9207 8.74845C27.4099 9.19674 27.4184 9.4831 26.9445 9.95866C25.3389 11.566 23.7247 13.1632 22.1276 14.7808C21.11 15.812 21.5208 17.4671 22.8827 17.8404C23.6003 18.0364 24.219 17.8284 24.7457 17.3C26.3275 15.7097 27.9178 14.1262 29.503 12.5393C30.9485 11.0939 32.3939 9.64674 33.841 8.20301C35.4348 6.61098 37.5006 6.59394 39.079 8.18255C40.579 9.69276 42.171 11.1194 43.5585 12.737C49.4715 19.6284 47.53 30.2254 39.5563 34.5941C36.72 36.1469 33.853 37.6435 30.9979 39.1605C30.132 39.6207 29.3667 39.5099 28.6678 38.8128C23.7656 33.9157 18.8668 29.0152 13.9663 24.1164C13.5641 23.7141 13.368 23.2352 13.3731 22.6625C13.3834 21.7829 13.3748 20.9017 13.3748 19.9011Z" fill="#FF3030"/>
<path d="M19.7839 46.9963C18.4953 46.9605 17.4675 46.536 16.6272 45.6991C13.842 42.9242 11.05 40.1577 8.29206 37.3572C6.56197 35.5998 6.57902 32.9663 8.28695 31.1919C9.10341 30.3431 9.94204 29.5164 10.7841 28.6914C11.563 27.9295 12.6301 27.9278 13.4073 28.7016C17.3755 32.6595 21.3402 36.6226 25.2981 40.5907C26.0873 41.3816 26.0804 42.4486 25.2981 43.2446C24.4833 44.0747 23.6566 44.8946 22.8299 45.7128C21.9589 46.5735 20.8987 46.9775 19.7839 46.9946V46.9963Z" fill="#353C49"/>
</g>
<defs>
<clipPath id="clip0_1907_10460">
<rect width="40" height="39.9966" fill="white" transform="translate(7 6.99976)"/>
</clipPath>
</defs>
</svg>
