<svg width="53" height="53" viewBox="0 0 53 53" fill="none" xmlns="http://www.w3.org/2000/svg">
<circle cx="26.5" cy="26.5" r="26.5" fill="#353C49"/>
<g clip-path="url(#clip0_759_7981)">
<path d="M13.796 41.9267C12.9903 41.6145 12.561 40.9932 12.5491 40.1461C12.5199 38.0375 12.5311 35.9281 12.5446 33.8186C12.5491 33.0943 12.95 32.5775 13.5092 32.1714C13.8878 31.9934 14.2843 31.9411 14.7016 31.9411C21.4775 31.9471 28.254 31.9456 35.0298 31.9449C35.1784 31.9449 35.327 31.9373 35.4756 31.9328C36.2379 31.9335 37.0002 31.9934 37.7611 31.8994C37.7738 31.9115 37.7827 31.9267 37.7864 31.9441C37.8327 32.0858 38.0149 32.151 38.0045 32.3199C37.9641 32.9693 38.1329 33.633 37.8663 34.2657C37.2683 34.2748 36.6695 34.2839 36.0714 34.293C36.0468 34.2907 36.0221 34.2869 35.9975 34.2869C29.0701 34.2861 22.142 34.2869 15.2146 34.2793C14.9107 34.2793 14.8368 34.3945 14.8383 34.6801C14.8487 36.1917 14.8428 37.7033 14.8428 39.2157C14.8428 39.5592 15.0152 39.7312 15.3602 39.7317C22.1263 39.7317 28.8931 39.7317 35.6593 39.7317C35.7959 39.7317 35.9318 39.7241 36.0684 39.7203C36.6418 39.7279 37.2153 39.7354 37.7887 39.743C38.1702 40.475 38.0657 41.2228 37.8604 41.9744C37.7245 41.9805 37.5886 41.9919 37.4519 41.9919C29.7481 41.9926 22.0442 41.9926 14.3403 41.9919C14.2044 41.9919 14.0677 41.9805 13.9318 41.9744C13.8863 41.9585 13.8408 41.9426 13.7945 41.9274L13.796 41.9267Z" fill="#55B4DA"/>
<path d="M38.4578 22.1325C38.2047 22.1953 37.9412 22.0582 37.6918 22.1764C37.5626 22.0688 37.417 22.0287 37.2483 22.0309C36.5823 22.0393 35.9163 22.0377 35.2495 22.04C28.4625 22.04 21.6755 22.04 14.8885 22.04C14.7272 22.04 14.5667 22.0317 14.4054 22.0271C13.5378 21.5566 13.1831 20.8254 13.2003 19.8276C13.2339 17.9273 13.2085 16.0255 13.2108 14.1244C13.2122 12.8257 14.0224 12.0067 15.3081 12.0067C22.8022 12.0059 30.2963 12.0067 37.7911 12.0067C38.039 12.0067 38.2869 12.0082 38.5348 12.0097C38.7819 12.5492 38.6385 13.1235 38.6841 13.6812C38.705 13.9388 38.64 14.1494 38.4616 14.3275C37.8882 14.3366 37.3147 14.3464 36.7413 14.3555C36.7167 14.3525 36.692 14.3479 36.6674 14.3479C29.7408 14.3472 22.8141 14.3479 15.8875 14.3404C15.5814 14.3404 15.5119 14.4639 15.5134 14.7465C15.5231 16.296 15.5261 17.8454 15.5112 19.3942C15.5082 19.7207 15.6276 19.795 15.9248 19.795C22.8641 19.7874 29.8035 19.7882 36.7421 19.7867C36.8503 19.8761 36.9795 19.8397 37.0997 19.8389C37.5798 19.8359 38.0599 19.8253 38.5392 19.8177C38.6258 20.0071 38.7013 20.192 38.6863 20.4155C38.6654 20.7368 38.6691 21.0618 38.6848 21.3839C38.6983 21.6665 38.6684 21.9249 38.4593 22.1332L38.4578 22.1325Z" fill="#FFCC4B"/>
<path d="M14.4052 22.0274C14.5664 22.0319 14.727 22.0403 14.8883 22.0403C21.6753 22.0403 28.4623 22.0403 35.2493 22.0403C35.3023 22.1789 35.48 22.2456 35.4725 22.4161C35.4464 23.0344 35.5592 23.6595 35.3889 24.2755C35.5226 24.3694 35.7062 24.2406 35.8384 24.3649C35.8526 24.3709 35.8578 24.3815 35.8518 24.3959C35.0798 24.3527 34.3085 24.258 33.535 24.3747C26.5987 24.3747 19.6616 24.3755 12.7252 24.3664C12.3945 24.3664 12.3026 24.4702 12.3056 24.799C12.3205 26.3349 12.3108 27.8715 12.3146 29.4073C12.3146 29.5255 12.2645 29.6634 12.3915 29.7558C12.4116 29.7687 12.4318 29.7816 12.4512 29.7952C12.6117 29.8036 12.7715 29.8187 12.932 29.8187C19.1307 29.8202 25.3294 29.8202 31.528 29.8187C32.197 29.8187 32.8667 29.8134 33.5357 29.8104C34.1092 29.821 34.6833 29.8308 35.2568 29.8415C35.4315 30.0172 35.492 30.2233 35.4815 30.4779C35.4621 30.9613 35.4755 31.4462 35.4755 31.9312C35.3269 31.935 35.1784 31.9433 35.0298 31.9433C28.254 31.9433 21.4774 31.9456 14.7016 31.9395C14.2842 31.9395 13.8877 31.9918 13.5092 32.1698C12.8917 32.116 12.2683 32.2161 11.653 32.1168C10.707 31.9637 10.0231 31.2174 10.0141 30.2567C9.99474 28.1427 9.99324 26.028 10.0141 23.9133C10.0246 22.854 10.8646 22.0501 11.9114 22.0357C12.7424 22.0244 13.5734 22.0282 14.4044 22.0259L14.4052 22.0274Z" fill="#F6535E"/>
<path d="M35.2582 29.8427C34.6847 29.8321 34.1106 29.8222 33.5371 29.8116C33.5371 28 33.5364 26.1876 33.5356 24.3759C34.3092 24.2592 35.0805 24.354 35.8525 24.3971C35.8525 26.1967 35.8517 27.9962 35.851 29.7957C35.6531 29.8116 35.4553 29.8268 35.2582 29.8427Z" fill="#DEDEDE"/>
<path d="M36.7402 14.3547C37.3137 14.3456 37.8871 14.3358 38.4605 14.3267C38.6584 14.3395 38.8562 14.3524 39.0541 14.3653C39.0541 16.1678 39.0533 17.9712 39.0526 19.7737C38.8809 19.7881 38.7099 19.8017 38.5382 19.8161C38.0581 19.8237 37.578 19.8343 37.0986 19.8373C36.9784 19.8381 36.85 19.8745 36.741 19.7851C36.741 17.9749 36.741 16.1641 36.741 14.3539L36.7402 14.3547Z" fill="#DEDEDE"/>
<path d="M37.7901 39.7419C37.2167 39.7344 36.6432 39.7268 36.0698 39.7192C36.0706 37.9106 36.0721 36.1012 36.0728 34.2926C36.6709 34.2835 37.2697 34.2744 37.8677 34.2661C38.0395 34.2767 38.212 34.2881 38.3837 34.2987C38.3844 36.1043 38.3859 37.9091 38.3867 39.7147C38.1881 39.7245 37.9887 39.7336 37.7901 39.7435V39.7419Z" fill="#DEDEDE"/>
<path d="M39.0545 14.3654C38.8567 14.3526 38.6588 14.3397 38.4609 14.3268C38.6394 14.148 38.7043 13.9373 38.6834 13.6805C38.6379 13.1228 38.7812 12.5485 38.5341 12.009C39.1665 12.006 39.7997 11.9961 40.4321 12.0007C40.833 12.0037 40.9891 12.1681 40.9951 12.5781C41.001 12.9933 41.0025 13.4092 40.9951 13.8245C40.9883 14.195 40.8398 14.3412 40.4687 14.3495C39.9975 14.3601 39.5264 14.3601 39.0553 14.3647L39.0545 14.3654Z" fill="#FF9C00"/>
<path d="M38.3829 34.2978C38.2112 34.2872 38.0387 34.2766 37.867 34.2652C38.1336 33.6326 37.9641 32.9681 38.0051 32.3195C38.0156 32.1505 37.8334 32.0854 37.7871 31.9437C38.4449 31.9422 39.102 31.9376 39.7597 31.9414C40.1801 31.9437 40.3182 32.0823 40.3235 32.5029C40.3287 32.9181 40.3309 33.334 40.322 33.7493C40.3145 34.1122 40.1525 34.2774 39.7963 34.2865C39.3252 34.2978 38.8541 34.2948 38.3829 34.2986V34.2978Z" fill="#3293AE"/>
<path d="M38.5384 19.8168C38.7101 19.8024 38.8811 19.7888 39.0528 19.7744C39.4971 19.7774 39.9413 19.779 40.3856 19.785C40.8351 19.7911 40.9904 19.9426 40.9956 20.3881C41.0008 20.789 41.0016 21.1898 40.9956 21.5906C40.9896 21.9838 40.847 22.1369 40.4573 22.1407C39.7913 22.1475 39.1245 22.1361 38.4585 22.1323C38.6683 21.924 38.6982 21.6656 38.684 21.383C38.6683 21.061 38.6646 20.7359 38.6855 20.4147C38.7004 20.1919 38.625 20.0063 38.5384 19.8168Z" fill="#FF9C00"/>
<path d="M35.8386 24.3655C35.7065 24.2413 35.5228 24.3693 35.3891 24.2761C35.5594 23.6601 35.4466 23.035 35.4728 22.4167C35.4802 22.2463 35.3025 22.1796 35.2495 22.0409C35.9155 22.0386 36.5823 22.0402 37.2483 22.0318C37.417 22.0296 37.5626 22.0697 37.6918 22.1773C37.8702 22.4546 37.7747 22.7645 37.7903 23.0608C37.8045 23.3244 37.7926 23.5896 37.7926 23.8533C37.7926 24.195 37.6082 24.3708 37.2886 24.3769C36.8055 24.3867 36.3217 24.3708 35.8386 24.3663V24.3655Z" fill="#ED1F2C"/>
<path d="M37.79 39.7422C37.9886 39.7331 38.188 39.7232 38.3866 39.7134C38.8443 39.7172 39.302 39.7179 39.7589 39.7247C40.1793 39.7308 40.3197 39.8672 40.3256 40.2832C40.3316 40.6976 40.3242 41.1113 40.3279 41.5258C40.3294 41.6963 40.295 41.8485 40.1741 41.9736C39.4035 42.0084 38.633 42.0092 37.8617 41.9736C38.067 41.2219 38.1716 40.4741 37.79 39.7422Z" fill="#3293AE"/>
<path d="M35.2583 29.8429C35.4562 29.827 35.654 29.8118 35.8511 29.7959C36.3073 29.8004 36.7628 29.8004 37.219 29.8095C37.6513 29.8186 37.7947 29.9603 37.7909 30.4005C37.7864 30.8999 37.829 31.4007 37.7626 31.8992C37.0017 31.9932 36.2386 31.9333 35.4771 31.9326C35.4771 31.4484 35.4629 30.9627 35.483 30.4793C35.4935 30.2248 35.433 30.0187 35.2583 29.8429Z" fill="#ED1F2C"/>
<path d="M13.9333 41.9732C13.8974 41.9748 13.8616 41.9763 13.8265 41.9778C13.8108 41.9642 13.8004 41.9467 13.7959 41.9263C13.8414 41.9422 13.887 41.9581 13.9333 41.9732Z" fill="#3293AE"/>
<path d="M36.073 34.2917C36.0723 36.1004 36.0708 37.9097 36.07 39.7183C35.9334 39.7221 35.7975 39.7297 35.6609 39.7297C28.8948 39.7297 22.1279 39.7297 15.3618 39.7297C15.0173 39.7297 14.8449 39.5577 14.8444 39.2137C14.8444 37.7021 14.8496 36.1905 14.8399 34.6782C14.8377 34.3925 14.9123 34.2766 15.2162 34.2773C22.1436 34.2849 29.0717 34.2842 35.9991 34.2849C36.0237 34.2849 36.0484 34.2887 36.073 34.291V34.2917Z" fill="white"/>
<path d="M36.7407 14.355C36.7407 16.1651 36.7407 17.9752 36.7407 19.7861C29.8014 19.7869 22.862 19.7869 15.9235 19.7945C15.6263 19.7945 15.5068 19.7202 15.5098 19.3936C15.524 17.8442 15.521 16.2947 15.5121 14.746C15.5106 14.4633 15.5808 14.3398 15.8861 14.3398C22.8128 14.3474 29.7394 14.3467 36.666 14.3474C36.6907 14.3474 36.7153 14.3527 36.74 14.355H36.7407Z" fill="white"/>
<path d="M33.5358 24.3755C33.5358 26.1872 33.5365 27.9996 33.5373 29.8112C32.8683 29.8142 32.1986 29.8195 31.5296 29.8195C25.3309 29.8195 19.1322 29.8195 12.9336 29.8195C12.7731 29.8195 12.6133 29.8044 12.4528 29.796C12.4378 29.7748 12.4177 29.7619 12.393 29.7566C12.2653 29.6642 12.3161 29.5263 12.3161 29.4081C12.3124 27.8723 12.3221 26.3357 12.3072 24.7998C12.3042 24.4717 12.396 24.3672 12.7268 24.3672C19.6631 24.3763 26.6002 24.3748 33.5365 24.3755H33.5358Z" fill="white"/>
<path d="M12.3926 29.7563C12.418 29.7617 12.4381 29.7745 12.4523 29.7957C12.4322 29.7829 12.412 29.7692 12.3926 29.7563Z" fill="#DEDEDE"/>
</g>
<defs>
<clipPath id="clip0_759_7981">
<rect width="31" height="30" fill="white" transform="translate(10 12)"/>
</clipPath>
</defs>
</svg>
