<svg width="126" height="147" viewBox="0 0 126 147" fill="none" xmlns="http://www.w3.org/2000/svg">
<path d="M68.5806 3.3125C97.9268 3.3125 121.714 27.0158 121.714 56.2653C121.714 85.5148 97.9268 109.218 68.5806 109.218C39.2344 109.218 15.4468 85.5148 15.4468 56.2653C15.4468 27.0158 39.2344 3.3125 68.5806 3.3125ZM68.5806 99.677C92.6369 99.677 112.144 80.2347 112.144 56.2653C112.144 32.2959 92.6369 12.8536 68.5806 12.8536C44.5243 12.8536 25.0174 32.2959 25.0174 56.2653C25.0174 80.2347 44.5243 99.677 68.5806 99.677Z" fill="#FF3030" stroke="#FF3030"/>
<path d="M47.873 97.7567L39.0128 90.6528L2.87927 135.412C1.28853 137.383 1.98505 140.57 4.43574 142.535C6.88644 144.5 10.1598 144.496 11.7505 142.525L47.884 97.7656L47.873 97.7567Z" fill="#FF3030"/>
<mask id="mask0_2436_11829" style="mask-type:luminance" maskUnits="userSpaceOnUse" x="24" y="13" width="89" height="87">
<path d="M28.1264 72.8941C19.041 51.0354 29.7429 25.8576 52.0299 16.6577C74.3169 7.45791 99.7492 17.7199 108.835 39.5786C117.92 61.4373 107.218 86.6152 84.931 95.815C62.6441 105.015 37.2118 94.7528 28.1264 72.8941Z" fill="white"/>
</mask>
<g mask="url(#mask0_2436_11829)">
<path d="M28.1264 72.8941C19.041 51.0354 29.7429 25.8576 52.0299 16.6577C74.3169 7.45791 99.7492 17.7199 108.835 39.5786C117.92 61.4373 107.218 86.6152 84.931 95.815C62.6441 105.015 37.2118 94.7528 28.1264 72.8941Z" fill="#1A1E27"/>
<g filter="url(#filter0_d_2436_11829)">
<g clip-path="url(#clip0_2436_11829)">
<path d="M122.61 59.7645C122.61 64.6508 122.554 69.5557 122.629 74.442C122.666 76.4965 121.231 77.6996 119.406 77.6996C111.227 77.6996 103.607 79.8281 96.6013 84.0666C94.3097 85.4548 92.074 86.917 89.5588 87.898C84.5284 89.8599 79.3304 90.5262 73.9461 89.8044C69.2138 89.1566 64.8914 87.4538 60.9044 84.844C56.4702 81.9381 51.6448 79.9021 46.4654 78.7361C43.2609 78.0142 40.0191 77.6255 36.7587 77.6811C35.0446 77.7366 33.6287 76.441 33.6287 74.5716C33.6846 64.6693 33.6659 54.7671 33.6287 44.8648C33.6287 43.0694 34.9701 41.7553 36.7214 41.7553C45.5525 41.7553 53.6942 39.3307 61.0721 34.4998C65.1336 31.8531 69.5492 30.1688 74.3559 29.5765C77.3369 29.2063 80.2992 29.2803 83.2615 29.7801C87.7889 30.5389 91.869 32.3343 95.6884 34.8145C100.383 37.8499 105.507 39.9044 111.022 40.9409C113.854 41.4777 116.704 41.7553 119.573 41.7738C121.474 41.7738 122.591 42.9029 122.591 44.7908C122.591 49.7882 122.591 54.7671 122.591 59.7645H122.61ZM78.138 80.4389C89.6147 80.4389 98.9674 71.1474 98.9861 59.7645C98.9861 48.3445 89.652 39.053 78.138 39.0345C66.68 39.0345 57.3086 48.3075 57.29 59.7089C57.29 71.1289 66.6427 80.4389 78.138 80.4389ZM110.127 63.8734C112.4 63.8734 114.263 62.004 114.282 59.746C114.282 57.4694 112.4 55.6 110.09 55.6C107.799 55.6 105.935 57.4879 105.954 59.783C105.954 62.0226 107.854 63.8734 110.127 63.8734ZM46.1673 63.8734C48.4403 63.8734 50.322 62.0411 50.3406 59.783C50.3406 57.4879 48.4962 55.6185 46.1859 55.6C43.8943 55.6 42.0126 57.4694 42.0126 59.746C42.0126 62.004 43.8943 63.8549 46.1673 63.8734Z" fill="#1CC166"/>
<path d="M110.127 63.8692C107.854 63.8692 105.954 62.0183 105.954 59.7787C105.954 57.4836 107.799 55.6142 110.09 55.5957C112.4 55.5957 114.282 57.4466 114.282 59.7417C114.282 61.9998 112.4 63.8507 110.127 63.8692Z" fill="#FFDA00"/>
<path d="M46.1486 63.8693C43.8756 63.8693 41.9939 61.9999 41.9939 59.7418C41.9939 57.4467 43.8756 55.5773 46.1672 55.5958C48.4588 55.5958 50.3406 57.4837 50.3219 59.7788C50.3219 62.0369 48.4216 63.8693 46.1486 63.8693Z" fill="#FFDA00"/>
<path d="M78.1006 74.9229C69.6608 74.9229 62.8232 68.0746 62.8418 59.6716C62.8605 51.3241 69.7539 44.5313 78.1751 44.5498C86.6149 44.5684 93.4525 51.3981 93.4339 59.8012C93.4152 68.1487 86.5404 74.9414 78.1006 74.9229ZM72.9957 67.4083C73.1075 67.5934 73.2379 67.9636 73.4615 68.0561C73.7409 68.1672 74.2067 68.1487 74.4489 67.9821C75.455 67.3158 76.3865 66.5569 77.374 65.8536C78.0447 65.3723 78.2869 65.3538 78.939 65.8536C79.8705 66.5384 80.7834 67.2232 81.6964 67.9081C82.0504 68.1672 82.4043 68.3338 82.8329 68.0931C83.2614 67.834 83.2986 67.4453 83.2055 67.0196C82.9633 65.8166 82.7397 64.595 82.4789 63.3919C82.3484 62.7626 82.5161 62.3369 83.0564 61.9482C84.137 61.1893 85.199 60.412 86.2051 59.5791C86.4286 59.394 86.6336 58.9498 86.5777 58.6721C86.5218 58.413 86.1492 58.0983 85.8511 58.0243C84.5096 57.7097 83.1682 57.432 81.8082 57.1914C81.1561 57.0804 80.7834 56.7842 80.5412 56.1549C80.0568 54.8778 79.5165 53.6192 79.0135 52.3421C78.8458 51.9164 78.6036 51.5647 78.082 51.5832C77.5789 51.5832 77.374 51.9164 77.2063 52.3421C76.7033 53.6377 76.163 54.9148 75.6599 56.2104C75.4364 56.7842 75.0824 57.0804 74.4862 57.1914C73.1448 57.432 71.822 57.7097 70.4992 57.9688C70.0893 58.0428 69.7353 58.2094 69.6235 58.6536C69.5117 59.1348 69.7912 59.431 70.1452 59.6901C71.0767 60.3934 71.971 61.1338 72.9584 61.7631C73.7968 62.2999 73.9086 62.9292 73.6851 63.8176C73.387 64.9651 73.2006 66.1312 72.9584 67.4268L72.9957 67.4083Z" fill="#1CC166"/>
<path d="M72.9961 67.4051C73.257 66.1095 73.4433 64.9435 73.7227 63.7959C73.9463 62.9075 73.8345 62.2782 72.9961 61.7414C72.0087 61.1121 71.1144 60.3718 70.1829 59.6684C69.8289 59.4093 69.5494 59.1132 69.6612 58.6319C69.773 58.1877 70.1083 58.0211 70.5369 57.9471C71.8597 57.688 73.2011 57.3918 74.5239 57.1697C75.1387 57.0587 75.4927 56.7625 75.6976 56.1887C76.2007 54.8931 76.741 53.616 77.244 52.3204C77.4117 51.9132 77.6166 51.58 78.1197 51.5615C78.6413 51.5615 78.8835 51.8947 79.0512 52.3204C79.5542 53.5975 80.0945 54.8561 80.5789 56.1332C80.8025 56.744 81.1938 57.0587 81.8458 57.1697C83.2059 57.4103 84.5473 57.6695 85.8888 58.0026C86.1869 58.0767 86.5595 58.3913 86.6154 58.6504C86.6713 58.9096 86.485 59.3538 86.2428 59.5574C85.2181 60.3903 84.1747 61.1861 83.0941 61.9265C82.5538 62.2967 82.3675 62.7409 82.5166 63.3702C82.7774 64.5733 83.001 65.7949 83.2432 66.9979C83.3363 67.4422 83.2991 67.8308 82.8706 68.0715C82.442 68.3121 82.088 68.1455 81.7341 67.8864C80.8211 67.2015 79.8896 66.4982 78.9767 65.8319C78.3246 65.3506 78.0824 65.3506 77.4117 65.8319C76.4429 66.5537 75.4927 67.2941 74.4866 67.9604C74.2444 68.127 73.7973 68.1455 73.4992 68.0344C73.2756 67.9419 73.1452 67.5717 73.0334 67.3866L72.9961 67.4051Z" fill="#FFDA00"/>
</g>
</g>
<rect opacity="0.13" width="92.8145" height="97.5424" rx="46.4072" transform="matrix(0.805839 0.592135 -0.55186 0.833937 55.4583 -11.6484)" fill="#F4F6F8"/>
<rect opacity="0.13" width="75.7583" height="79.6173" rx="37.8791" transform="matrix(0.805839 0.592135 -0.55186 0.833937 67.9375 4)" fill="black"/>
<rect opacity="0.51" width="14.1764" height="95.9912" transform="matrix(0.80002 0.599973 -0.544039 0.83906 71.2229 2)" fill="#F4F6F8"/>
<rect opacity="0.51" width="6.4175" height="95.9912" transform="matrix(0.80002 0.599973 -0.544039 0.83906 86.5195 12.5908)" fill="#F4F6F8"/>
</g>
<defs>
<filter id="filter0_d_2436_11829" x="13.6287" y="9.35156" width="129" height="100.746" filterUnits="userSpaceOnUse" color-interpolation-filters="sRGB">
<feFlood flood-opacity="0" result="BackgroundImageFix"/>
<feColorMatrix in="SourceAlpha" type="matrix" values="0 0 0 0 0 0 0 0 0 0 0 0 0 0 0 0 0 0 127 0" result="hardAlpha"/>
<feOffset/>
<feGaussianBlur stdDeviation="10"/>
<feComposite in2="hardAlpha" operator="out"/>
<feColorMatrix type="matrix" values="0 0 0 0 0 0 0 0 0 0 0 0 0 0 0 0 0 0 0.05 0"/>
<feBlend mode="normal" in2="BackgroundImageFix" result="effect1_dropShadow_2436_11829"/>
<feBlend mode="normal" in="SourceGraphic" in2="effect1_dropShadow_2436_11829" result="shape"/>
</filter>
<clipPath id="clip0_2436_11829">
<rect width="89.0001" height="60.7462" fill="white" transform="translate(33.6287 29.3516)"/>
</clipPath>
</defs>
</svg>
