<svg width="60" height="60" viewBox="0 0 60 60" fill="none" xmlns="http://www.w3.org/2000/svg">
<circle cx="30" cy="30" r="30" fill="#C4CAD4"/>
<g clip-path="url(#clip0_3307_9187)">
<path d="M19.7811 24.6772C19.799 23.6518 19.7159 22.5331 19.9665 21.4272C20.2708 20.0822 20.8563 18.8817 21.7588 17.8397C22.2408 17.2836 22.7623 16.7645 23.3069 16.2723C25.1938 14.5693 28.0664 14.5924 29.9405 16.3119C30.3074 16.6482 30.3138 16.863 29.9584 17.2197C28.7542 18.4253 27.5435 19.6233 26.3457 20.8366C25.5825 21.61 25.8906 22.8515 26.912 23.1315C27.4502 23.2785 27.9143 23.1225 28.3093 22.7262C29.4956 21.5333 30.6884 20.3456 31.8773 19.1553C32.9613 18.0712 34.0454 16.9857 35.1308 15.9028C36.3261 14.7087 37.8755 14.6959 39.0593 15.8875C40.1843 17.0202 41.3783 18.0903 42.4189 19.3036C46.8536 24.4726 45.3975 32.421 39.4172 35.6978C37.29 36.8625 35.1397 37.9851 32.9984 39.1229C32.349 39.4681 31.775 39.385 31.2509 38.8621C27.5742 35.189 23.9001 31.5133 20.2247 27.8389C19.923 27.5372 19.776 27.1779 19.7799 26.7483C19.7875 26.0886 19.7811 25.4276 19.7811 24.6772Z" fill="#F4F6F8"/>
<path d="M24.588 45.0002C23.6216 44.9734 22.8507 44.655 22.2204 44.0273C20.1315 41.9459 18.0375 39.8709 15.9691 37.7703C14.6715 36.4522 14.6843 34.4769 15.9653 33.146C16.5776 32.5093 17.2066 31.8892 17.8381 31.2704C18.4223 30.6989 19.2226 30.6977 19.8056 31.2781C22.7817 34.2468 25.7552 37.2193 28.7236 40.1956C29.3155 40.7889 29.3104 41.5892 28.7236 42.1863C28.1125 42.8089 27.4925 43.4238 26.8725 44.0375C26.2192 44.6832 25.4241 44.9862 24.588 44.999V45.0002Z" fill="#F4F6F8"/>
</g>
<defs>
<clipPath id="clip0_3307_9187">
<rect width="30" height="30" fill="white" transform="translate(15 15)"/>
</clipPath>
</defs>
</svg>
