<svg width="10" height="11" viewBox="0 0 10 11" fill="none" xmlns="http://www.w3.org/2000/svg">
<path d="M9.21156 9.34817C9.35897 9.34834 9.50075 9.40454 9.60794 9.50531C9.71514 9.60608 9.77964 9.7438 9.78828 9.89033C9.79692 10.0369 9.74904 10.1812 9.65443 10.2937C9.55981 10.4063 9.4256 10.4786 9.27922 10.496L9.21156 10.5H5.16304C5.01563 10.4998 4.87384 10.4436 4.76665 10.3429C4.65946 10.2421 4.59495 10.1044 4.58631 9.95784C4.57768 9.8113 4.62555 9.66701 4.72017 9.55445C4.81478 9.44188 4.94899 9.36954 5.09537 9.3522L5.16304 9.34817H9.21156ZM7.532 0.9214C7.79687 0.657805 8.15411 0.50682 8.52853 0.500225C8.90295 0.493631 9.26533 0.631942 9.53939 0.886045C9.81346 1.14015 9.97784 1.49022 9.99792 1.86257C10.018 2.23493 9.89222 2.60052 9.64706 2.88239L9.5765 2.95726L3.27469 9.23299C3.21962 9.2879 3.15737 9.33516 3.08962 9.37351L3.02022 9.40807L0.820137 10.4044C0.352823 10.6158 -0.127215 10.1642 0.0306768 9.6989L0.0538111 9.64131L1.05437 7.44996C1.08645 7.37949 1.12788 7.31363 1.17756 7.25415L1.22962 7.19656L7.532 0.9214Z" fill="#8E95A2"/>
</svg>
