<svg width="32" height="32" viewBox="0 0 32 32" fill="none" xmlns="http://www.w3.org/2000/svg">
<circle cx="16" cy="16" r="16" fill="#8E95A2"/>
<g clip-path="url(#clip0_3730_14910)">
<path d="M15.1429 16.8571H8.85714C8.61429 16.8571 8.41074 16.7745 8.24657 16.6091C8.08217 16.444 8 16.2393 8 15.9949C8 15.7507 8.08217 15.5476 8.24657 15.3857C8.41074 15.2238 8.61429 15.1429 8.85714 15.1429H15.1429V8.85714C15.1429 8.61429 15.2255 8.41069 15.3909 8.24629C15.556 8.08211 15.7607 8 16.0051 8C16.2493 8 16.4524 8.08211 16.6143 8.24629C16.7762 8.41069 16.8571 8.61429 16.8571 8.85714V15.1429H23.1429C23.3857 15.1429 23.5893 15.2255 23.7537 15.3909C23.9179 15.556 24 15.7607 24 16.0051C24 16.2493 23.9179 16.4524 23.7537 16.6143C23.5893 16.7762 23.3857 16.8571 23.1429 16.8571H16.8571V23.1429C16.8571 23.3857 16.7745 23.5893 16.6091 23.7534C16.444 23.9178 16.2393 24 15.9949 24C15.7507 24 15.5476 23.9178 15.3857 23.7534C15.2238 23.5893 15.1429 23.3857 15.1429 23.1429V16.8571Z" fill="white"/>
</g>
<defs>
<clipPath id="clip0_3730_14910">
<rect width="16" height="16" fill="white" transform="translate(8 8)"/>
</clipPath>
</defs>
</svg>
