<svg width="53" height="53" viewBox="0 0 53 53" fill="none" xmlns="http://www.w3.org/2000/svg">
<circle cx="26.5" cy="26.5" r="26.5" fill="#353C49"/>
<path d="M22.7032 14H31.8406C32.2998 14.1891 32.4541 14.5287 32.4541 15.0189C32.4464 23.0114 32.4503 31.0079 32.4503 39.0004C32.4503 39.0853 32.4541 39.1703 32.4503 39.2552C32.4194 39.672 32.0798 40 31.6631 40C28.6765 40 25.6898 40 22.707 40C22.707 37.5378 22.707 35.0756 22.707 32.6133C22.707 28.5688 22.707 24.5243 22.707 20.4797C22.707 20.3678 22.6607 20.2405 22.7649 20.144C22.9501 20.4913 23.2395 20.6303 23.637 20.6303C25.1264 20.6187 26.6159 20.6264 28.1054 20.6264C28.1825 20.6264 28.2597 20.6264 28.333 20.6187C28.8231 20.5646 29.1241 20.0707 28.9543 19.6075C28.8308 19.2756 28.5723 19.1136 28.1517 19.1136C26.6545 19.1136 25.1573 19.1213 23.6601 19.1097C23.255 19.1097 22.954 19.237 22.7649 19.5998C22.6684 19.5111 22.707 19.3914 22.707 19.2872C22.707 17.5274 22.707 15.7676 22.707 14.0077L22.7032 14ZM25.8712 26.2378C26.6506 26.2378 27.4262 26.2378 28.2057 26.2378C28.6726 26.2378 29.0083 25.902 29.0006 25.4659C28.9929 25.0414 28.661 24.7172 28.2057 24.7172C26.6429 24.7172 25.0801 24.7172 23.5135 24.7172C23.3399 24.7172 23.1817 24.7674 23.0389 24.8677C22.7803 25.0569 22.6684 25.3926 22.7611 25.7014C22.8537 26.0178 23.1469 26.2339 23.5096 26.2378C24.2968 26.2417 25.0801 26.2378 25.8673 26.2378H25.8712ZM25.8789 27.7622C25.1187 27.7622 24.3586 27.7622 23.5984 27.7622C23.0813 27.7622 22.7379 28.0632 22.734 28.5186C22.734 28.974 23.0698 29.2866 23.583 29.2866C25.1033 29.2866 26.6275 29.2866 28.1478 29.2866C28.6572 29.2866 29.0044 28.974 29.0006 28.5186C29.0006 28.0671 28.6533 27.7661 28.1362 27.7622C27.3838 27.7622 26.6313 27.7622 25.8789 27.7622ZM25.8789 32.3316C25.111 32.3316 24.3393 32.3316 23.5714 32.3316C23.0775 32.3316 22.7379 32.6403 22.734 33.088C22.734 33.5357 23.0698 33.856 23.5598 33.856C25.0994 33.856 26.6352 33.856 28.1748 33.856C28.6649 33.856 29.0044 33.5357 29.0006 33.088C29.0006 32.6442 28.6572 32.3355 28.1594 32.3355C27.3992 32.3355 26.6391 32.3355 25.8789 32.3355V32.3316ZM25.8789 35.3766C25.1187 35.3766 24.3586 35.3766 23.5984 35.3766C23.0813 35.3766 22.7418 35.6815 22.7379 36.133C22.7379 36.5884 23.0775 36.8971 23.5907 36.8971C25.111 36.8971 26.6352 36.8971 28.1555 36.8971C28.6649 36.8971 29.0083 36.5807 29.0045 36.1253C29.0006 35.6815 28.6572 35.3766 28.1633 35.3727C27.4031 35.3727 26.6429 35.3727 25.8828 35.3727L25.8789 35.3766Z" fill="#CBE3F6"/>
<path d="M22.7645 20.1401C22.6603 20.2366 22.7066 20.364 22.7066 20.4759C22.7066 24.5204 22.7066 28.5649 22.7066 32.6095C22.7066 35.0717 22.7066 37.5339 22.7066 39.9961C19.7469 39.9961 16.7873 39.9961 13.8277 39.9961C13.3299 39.9961 13.0058 39.6488 13.0058 39.1317C13.0058 32.6519 13.0058 26.176 13.0058 19.6963C13.0058 19.6075 12.9749 19.5072 13.0559 19.4339C14.5917 19.4339 16.1313 19.4339 17.6671 19.4339C17.9025 19.4339 18.0838 19.3605 18.2498 19.1907C18.4581 18.9823 18.4813 18.7276 18.4813 18.4691C18.489 17.0836 18.4813 15.6981 18.4813 14.3126C18.4813 14.2238 18.5122 14.1235 18.4311 14.0502C18.4311 14.0347 18.4311 14.0154 18.4311 14H22.695C22.695 15.7598 22.695 17.5197 22.695 19.2795C22.695 19.3837 22.6526 19.5033 22.7529 19.5921C22.7452 19.623 22.7374 19.6577 22.7297 19.6886C22.6641 19.8082 22.6641 19.924 22.7297 20.0436C22.7374 20.0745 22.7452 20.1092 22.7529 20.1401H22.7645ZM18.7475 24.7134C18.2575 24.7134 17.7674 24.7134 17.2774 24.7134C16.7526 24.7134 16.4593 25.0028 16.4593 25.5277C16.4593 26.5079 16.4593 27.4882 16.4593 28.4685C16.4593 28.9895 16.7564 29.2789 17.2851 29.2789C18.2575 29.2789 19.2299 29.2789 20.2023 29.2789C20.7078 29.2789 21.028 28.9624 21.0319 28.4646C21.0319 27.4843 21.0319 26.5041 21.0319 25.5238C21.0319 25.0376 20.7078 24.7134 20.2254 24.7134C19.7354 24.7134 19.2453 24.7134 18.7553 24.7134H18.7475ZM18.7205 36.901C19.2376 36.901 19.7508 36.9049 20.2679 36.901C20.6846 36.8971 21.0242 36.5614 21.0242 36.1407C21.028 35.1257 21.028 34.1107 21.0242 33.0957C21.0242 32.6635 20.6846 32.3316 20.2486 32.3316C19.2415 32.3316 18.2382 32.3316 17.2311 32.3316C16.7564 32.3316 16.4593 32.6365 16.4555 33.115C16.4555 34.1146 16.4555 35.1103 16.4555 36.1098C16.4555 36.5961 16.7603 36.901 17.2465 36.901C17.7366 36.901 18.2266 36.901 18.7167 36.901H18.7205Z" fill="#E9F2FB"/>
<path d="M39.0017 35.6854C38.3921 36.9358 37.7785 38.1862 37.1727 39.4404C37.0184 39.7646 36.7907 39.9692 36.4164 39.9807C36.4164 39.8727 36.4087 39.7608 36.4087 39.6527C36.4087 37.5533 36.4087 35.4577 36.4087 33.3582V33.3428C37.2576 33.3428 38.1027 33.3428 38.9477 33.3466C38.967 33.3466 38.9825 33.3466 39.0017 33.3505V35.6854Z" fill="#F6CDA4"/>
<path d="M39.0013 16.5386V17.7078C39.0013 17.7078 38.9666 17.7078 38.9512 17.7116C38.1063 17.7116 37.2613 17.7116 36.4125 17.7116V17.6962C36.4125 16.4846 36.4125 15.2691 36.4125 14.0575L36.4087 14.0459C36.5129 14.0459 36.617 14.0459 36.7212 14.0459C37.8246 14.1385 38.847 15.0839 38.9743 16.172C39.0013 16.3997 39.0013 16.4113 39.0013 16.5386Z" fill="#C11F58"/>
<path d="M38.9516 17.7124C38.9516 17.7124 38.9863 17.7124 39.0018 17.7085V33.3502C39.0018 33.3502 38.967 33.3502 38.9478 33.3463C38.9478 28.1363 38.9478 22.9262 38.9478 17.7162L38.9516 17.7124Z" fill="#F7BD68"/>
<path d="M25.8708 26.2366C25.0838 26.2366 24.3006 26.2366 23.5135 26.2366C23.1509 26.2366 22.8577 26.0167 22.7651 25.7003C22.6725 25.3877 22.7805 25.0559 23.0429 24.8668C23.1817 24.7626 23.3438 24.7163 23.5174 24.7163C25.0799 24.7163 26.6425 24.7163 28.2088 24.7163C28.6641 24.7163 28.9959 25.0404 29.0036 25.4649C29.0113 25.9009 28.6757 26.2328 28.2088 26.2366C27.4295 26.2405 26.654 26.2366 25.8747 26.2366H25.8708Z" fill="#1E3D77"/>
<path d="M25.8783 27.7617C26.6306 27.7617 27.3829 27.7617 28.1353 27.7617C28.6522 27.7617 28.9956 28.0627 28.9995 28.518C28.9995 28.9733 28.66 29.2859 28.1468 29.2859C26.6267 29.2859 25.1028 29.2859 23.5827 29.2859C23.0696 29.2859 22.7301 28.9733 22.7339 28.518C22.7339 28.0627 23.0773 27.7656 23.5981 27.7617C24.3582 27.7617 25.1182 27.7617 25.8783 27.7617Z" fill="#1E3D77"/>
<path d="M25.8783 32.331C26.6383 32.331 27.3984 32.331 28.1584 32.331C28.6522 32.331 28.9956 32.6397 28.9995 33.0834C28.9995 33.5272 28.66 33.8513 28.1738 33.8513C26.6345 33.8513 25.0989 33.8513 23.5596 33.8513C23.0696 33.8513 22.7301 33.5311 22.7339 33.0834C22.7339 32.6358 23.0773 32.331 23.5711 32.3271C24.3389 32.3271 25.1105 32.3271 25.8783 32.3271V32.331Z" fill="#1E3D77"/>
<path d="M25.8744 35.3804C26.6344 35.3804 27.3945 35.3804 28.1545 35.3804C28.6522 35.3804 28.9917 35.6891 28.9956 36.1328C28.9994 36.5881 28.6561 36.9045 28.1468 36.9045C26.6267 36.9045 25.1027 36.9045 23.5827 36.9045C23.0695 36.9045 22.7262 36.5959 22.73 36.1405C22.73 35.6852 23.0734 35.3842 23.5904 35.3842C24.3504 35.3842 25.1105 35.3842 25.8705 35.3842L25.8744 35.3804Z" fill="#1E3D77"/>
<path d="M22.7648 20.1401C22.7571 20.1092 22.7494 20.0745 22.7417 20.0436C22.7417 19.924 22.7417 19.8083 22.7417 19.6887C22.7494 19.6578 22.7571 19.6231 22.7648 19.5922C22.9539 19.2295 23.2548 19.0983 23.6599 19.1021C25.1569 19.1137 26.6538 19.1021 28.1508 19.106C28.5713 19.106 28.8298 19.2719 28.9532 19.5999C29.123 20.0591 28.8221 20.553 28.3321 20.6109C28.2549 20.6186 28.1816 20.6186 28.1045 20.6186C26.6152 20.6186 25.126 20.6109 23.6368 20.6224C23.2394 20.6224 22.95 20.4874 22.7648 20.1363V20.1401Z" fill="#1E3D77"/>
<path d="M18.7472 24.7134C19.2372 24.7134 19.7272 24.7134 20.2172 24.7134C20.7033 24.7134 21.0235 25.0375 21.0235 25.5237C21.0235 26.5038 21.0235 27.4839 21.0235 28.464C21.0235 28.9656 20.7033 29.2782 20.194 29.2782C19.2218 29.2782 18.2495 29.2782 17.2773 29.2782C16.7526 29.2782 16.4555 28.9849 16.4517 28.4679C16.4517 27.4878 16.4517 26.5077 16.4517 25.5276C16.4517 25.0028 16.7449 24.7134 17.2696 24.7134C17.7596 24.7134 18.2495 24.7134 18.7395 24.7134H18.7472Z" fill="#B4CAE6"/>
<path d="M18.7242 36.9007C18.2342 36.9007 17.7443 36.9007 17.2543 36.9007C16.7682 36.9007 16.4634 36.5959 16.4634 36.1097C16.4634 35.1103 16.4634 34.1147 16.4634 33.1153C16.4634 32.6369 16.7643 32.3359 17.2389 32.332C18.2458 32.332 19.2489 32.332 20.2559 32.332C20.6919 32.332 21.0314 32.6639 21.0314 33.096C21.0352 34.1109 21.0352 35.1257 21.0314 36.1405C21.0314 36.5611 20.6919 36.893 20.2752 36.9007C19.7582 36.9046 19.2451 36.9007 18.7281 36.9007H18.7242Z" fill="#B4CAE6"/>
<path d="M13.0557 19.4336C13.0981 19.3835 13.1367 19.3256 13.1868 19.2793C14.8844 17.5776 16.5858 15.8798 18.2834 14.182C18.3297 14.1357 18.3837 14.0932 18.4377 14.0508C18.5149 14.128 18.4879 14.2244 18.4879 14.3132C18.4879 15.6984 18.4917 17.0837 18.4879 18.469C18.4879 18.7275 18.4647 18.986 18.2564 19.1905C18.0905 19.3603 17.9053 19.4336 17.6738 19.4336C16.1383 19.4298 14.5989 19.4336 13.0634 19.4336H13.0557Z" fill="#CBE4F7"/>
<path d="M22.7416 19.689C22.7416 19.8086 22.7416 19.9243 22.7416 20.044C22.676 19.9243 22.676 19.8086 22.7416 19.689Z" fill="#CBE3F6"/>
<path d="M33.8745 33.3466C33.8745 33.2463 33.8706 33.1421 33.8706 33.0417C33.8706 28.0362 33.8706 23.0307 33.8706 18.0214C33.8706 17.9133 33.8706 17.8014 33.8745 17.6934C34.7234 17.6934 35.5684 17.6934 36.4174 17.6934V17.7088C36.4174 22.9188 36.4174 28.1289 36.4174 33.3389V33.3543C35.5684 33.3543 34.7234 33.3505 33.8745 33.3466Z" fill="#F8DC79"/>
<path d="M33.8737 33.3462C34.7188 33.3462 35.5638 33.3501 36.4089 33.3539C36.4089 35.4534 36.4089 37.549 36.4089 39.6484C36.4089 39.7565 36.4127 39.8684 36.4166 39.9764C36.0963 39.9494 35.8686 39.8028 35.7259 39.5056C35.1509 38.3208 34.5644 37.1399 33.9856 35.9589C33.9161 35.8123 33.866 35.6656 33.8698 35.4997C33.8737 34.7818 33.8698 34.064 33.8698 33.3462H33.8737Z" fill="#FCE0C1"/>
<path d="M36.4158 17.6924C35.567 17.6924 34.7221 17.6924 33.8733 17.6924C33.8656 17.1946 33.8193 16.693 33.8965 16.199C34.074 15.0414 34.9382 14.2157 36.1033 14.042C36.2075 14.042 36.3078 14.0343 36.412 14.0382C36.412 15.2498 36.412 16.4769 36.412 17.6885L36.4158 17.6924Z" fill="#DF3468"/>
<path d="M36.417 33.3386V17.7085C37.2621 17.7085 38.1071 17.7085 38.9522 17.7085C38.9522 22.9185 38.9522 28.1286 38.9522 33.3386C38.1071 33.3386 37.2621 33.3386 36.417 33.3347V33.3386Z" fill="#F6B056"/>
</svg>
