<svg width="20" height="20" viewBox="0 0 20 20" fill="none" xmlns="http://www.w3.org/2000/svg">
<g clip-path="url(#clip0_4019_2853)">
<path d="M8.92857 11.0714H1.07143C0.767857 11.0714 0.513429 10.9681 0.308214 10.7614C0.102714 10.555 0 10.2991 0 9.99357C0 9.68836 0.102714 9.4345 0.308214 9.23214C0.513429 9.02978 0.767857 8.92857 1.07143 8.92857H8.92857V1.07143C8.92857 0.767857 9.03193 0.513357 9.23857 0.307857C9.445 0.102643 9.70093 0 10.0064 0C10.3116 0 10.5655 0.102643 10.7679 0.307857C10.9702 0.513357 11.0714 0.767857 11.0714 1.07143V8.92857H18.9286C19.2321 8.92857 19.4866 9.03193 19.6921 9.23857C19.8974 9.445 20 9.70093 20 10.0064C20 10.3116 19.8974 10.5655 19.6921 10.7679C19.4866 10.9702 19.2321 11.0714 18.9286 11.0714H11.0714V18.9286C11.0714 19.2321 10.9681 19.4866 10.7614 19.6918C10.555 19.8973 10.2991 20 9.99357 20C9.68836 20 9.4345 19.8973 9.23214 19.6918C9.02978 19.4866 8.92857 19.2321 8.92857 18.9286V11.0714Z" fill="#1A1E27"/>
</g>
<defs>
<clipPath id="clip0_4019_2853">
<rect width="20" height="20" fill="white"/>
</clipPath>
</defs>
</svg>
