<svg width="53" height="53" viewBox="0 0 53 53" fill="none" xmlns="http://www.w3.org/2000/svg">
<circle cx="26.5" cy="26.5" r="26.5" fill="#CCE1FF"/>
<g clip-path="url(#clip0_759_7984)">
<path d="M27.25 22.8198C32.92 22.8198 38.59 22.8198 44.26 22.8198C44.5 22.8198 44.74 22.7898 44.96 22.9098C44.96 27.4598 44.96 32.0198 44.96 36.5698C44.96 37.2298 44.87 37.3198 44.2 37.3198C32.14 37.3198 20.08 37.3198 8.03 37.3198C8.03 37.1998 8.02 37.0698 8.02 36.9498C8.01 32.7598 8.03 28.5798 8 24.3998C8 23.4298 8.61 22.7998 9.58 22.7998C15.26 22.8198 20.94 22.8098 26.62 22.8098C26.83 22.8098 27.04 22.8098 27.24 22.8098L27.25 22.8198ZM23.02 35.8098C24.48 35.8098 25.94 35.8098 27.41 35.8098C27.75 35.8098 27.92 35.6331 27.92 35.2798C27.92 34.9698 27.92 34.6598 27.92 34.3398C27.92 33.8098 27.91 33.7898 27.38 33.7898C24.48 33.7898 21.58 33.7898 18.68 33.7898C18.62 33.7898 18.56 33.7898 18.49 33.7898C18.24 33.7898 18.13 33.9098 18.14 34.1598C18.15 34.5598 18.14 34.9598 18.14 35.3598C18.14 35.7798 18.16 35.7998 18.59 35.7998C20.06 35.7998 21.54 35.7998 23.01 35.7998L23.02 35.8098ZM43.54 32.8198C43.54 31.9398 43.54 31.0698 43.54 30.1898C43.54 29.9398 43.48 29.7998 43.19 29.7998C41.46 29.7998 39.74 29.7998 38.01 29.7998C37.75 29.7998 37.66 29.9098 37.66 30.1598C37.67 30.5598 37.66 30.9598 37.66 31.3598C37.66 31.7398 37.69 31.7598 38.07 31.7598C39.11 31.7598 40.15 31.7598 41.18 31.7598C41.56 31.7598 41.56 31.7598 41.56 32.1498C41.56 33.2298 41.56 34.2998 41.56 35.3798C41.56 35.7798 41.59 35.7998 41.99 35.7998C42.37 35.7998 42.74 35.7998 43.12 35.7998C43.5 35.7998 43.53 35.7698 43.53 35.3898C43.53 34.5298 43.53 33.6598 43.53 32.7998L43.54 32.8198ZM22.05 26.7498C22.05 26.9898 22.05 27.2198 22.05 27.4598C22.05 27.6798 22.14 27.7798 22.36 27.7798C22.81 27.7798 23.26 27.7798 23.71 27.7798C23.93 27.7798 24.02 27.6798 24.02 27.4598C24.02 26.9998 24.02 26.5398 24.02 26.0798C24.02 25.8698 23.91 25.7798 23.73 25.7698C23.27 25.7698 22.81 25.7698 22.35 25.7698C22.16 25.7698 22.05 25.8698 22.06 26.0798C22.06 26.2998 22.06 26.5298 22.06 26.7498H22.05ZM27.92 26.7998C27.92 26.5598 27.92 26.3298 27.92 26.0898C27.92 25.8898 27.83 25.7798 27.64 25.7698C27.17 25.7698 26.69 25.7698 26.22 25.7698C26.05 25.7698 25.95 25.8798 25.96 26.0598C25.96 26.5298 25.96 27.0098 25.96 27.4798C25.96 27.6798 26.06 27.7698 26.26 27.7698C26.71 27.7698 27.16 27.7698 27.61 27.7698C27.83 27.7698 27.93 27.6798 27.93 27.4598C27.93 27.2398 27.93 27.0098 27.93 26.7898L27.92 26.7998ZM12.3 26.7998C12.3 26.5598 12.3 26.3198 12.3 26.0898C12.3 25.8898 12.19 25.7798 12 25.7798C11.55 25.7798 11.1 25.7798 10.65 25.7798C10.44 25.7798 10.33 25.8798 10.33 26.1098C10.33 26.5698 10.33 27.0398 10.33 27.4998C10.33 27.6998 10.42 27.7998 10.63 27.7998C11.08 27.7998 11.53 27.7998 11.98 27.7998C12.2 27.7998 12.31 27.7098 12.3 27.4898C12.3 27.2698 12.3 27.0398 12.3 26.8098V26.7998ZM14.24 26.7698C14.24 27.0098 14.24 27.2498 14.24 27.4798C14.24 27.6798 14.33 27.7798 14.53 27.7798C14.99 27.7798 15.46 27.7798 15.92 27.7798C16.13 27.7798 16.21 27.6698 16.2 27.4698C16.2 27.0198 16.2 26.5698 16.2 26.1198C16.2 25.8898 16.09 25.7698 15.86 25.7698C15.43 25.7698 15.01 25.7698 14.58 25.7698C14.34 25.7698 14.21 25.8698 14.22 26.1298C14.23 26.3398 14.22 26.5598 14.22 26.7698H14.24ZM20.11 26.7698C20.11 26.5398 20.11 26.3198 20.11 26.0898C20.11 25.8698 20 25.7598 19.79 25.7598C19.34 25.7598 18.89 25.7598 18.44 25.7598C18.25 25.7598 18.14 25.8498 18.14 26.0598C18.14 26.5198 18.14 26.9898 18.14 27.4498C18.14 27.6698 18.23 27.7698 18.45 27.7698C18.89 27.7698 19.33 27.7698 19.76 27.7698C20 27.7698 20.11 27.6798 20.1 27.4398C20.1 27.2198 20.1 26.9898 20.1 26.7598L20.11 26.7698ZM31.83 26.7698C31.83 26.5398 31.83 26.3198 31.83 26.0898C31.83 25.8598 31.73 25.7598 31.52 25.7598C31.07 25.7598 30.62 25.7598 30.17 25.7598C29.98 25.7598 29.87 25.8698 29.87 26.0698C29.87 26.5498 29.87 27.0198 29.87 27.4998C29.87 27.6798 29.96 27.7798 30.15 27.7798C30.61 27.7798 31.08 27.7798 31.54 27.7798C31.74 27.7798 31.84 27.6898 31.84 27.4898C31.84 27.2498 31.84 27.0098 31.84 26.7798L31.83 26.7698ZM34.75 27.7798C34.98 27.7798 35.2 27.7798 35.43 27.7798C35.65 27.7798 35.75 27.6798 35.74 27.4598C35.74 27.0098 35.74 26.5598 35.74 26.1098C35.74 25.8698 35.63 25.7698 35.4 25.7698C34.97 25.7698 34.55 25.7698 34.12 25.7698C33.87 25.7698 33.75 25.8898 33.76 26.1398C33.76 26.3598 33.76 26.5898 33.76 26.8198C33.78 27.9498 33.6 27.7698 34.74 27.7798H34.75ZM39.64 26.7798C39.64 26.5698 39.63 26.3498 39.64 26.1398C39.66 25.8898 39.55 25.7698 39.29 25.7698C38.86 25.7698 38.44 25.7698 38.01 25.7698C37.79 25.7698 37.66 25.8698 37.66 26.1098C37.66 26.5598 37.66 27.0098 37.66 27.4598C37.66 27.6798 37.75 27.7798 37.97 27.7798C38.42 27.7798 38.87 27.7798 39.32 27.7798C39.55 27.7798 39.63 27.6698 39.63 27.4498C39.63 27.2198 39.63 26.9998 39.63 26.7698L39.64 26.7798ZM43.55 26.7998C43.55 26.5698 43.55 26.3498 43.55 26.1198C43.56 25.8798 43.46 25.7598 43.23 25.7598C42.79 25.7598 42.35 25.7598 41.92 25.7598C41.69 25.7598 41.58 25.8798 41.59 26.1198C41.59 26.5598 41.59 26.9998 41.59 27.4298C41.59 27.6998 41.71 27.7898 41.96 27.7698C42.17 27.7598 42.39 27.7698 42.6 27.7698C43.2467 27.7698 43.57 27.4431 43.57 26.7898L43.55 26.7998ZM30.85 35.8098C31.06 35.8098 31.28 35.8098 31.49 35.8098C31.72 35.8098 31.84 35.7298 31.84 35.4898C31.84 35.0398 31.84 34.5898 31.84 34.1398C31.84 33.9198 31.75 33.8098 31.54 33.7998C31.09 33.7998 30.64 33.7998 30.19 33.7998C29.98 33.7998 29.87 33.8998 29.88 34.1298C29.88 34.3698 29.88 34.6098 29.88 34.8398C29.9 35.9098 29.7 35.8098 30.86 35.8098H30.85ZM35.74 34.8098C35.74 34.5798 35.74 34.3598 35.74 34.1298C35.74 33.9098 35.64 33.7998 35.43 33.7998C34.98 33.7998 34.53 33.7998 34.08 33.7998C33.87 33.7998 33.76 33.9098 33.77 34.1298C33.77 34.5798 33.77 35.0298 33.77 35.4798C33.77 35.6998 33.87 35.8098 34.08 35.8098C34.53 35.8098 34.98 35.8098 35.43 35.8098C35.66 35.8098 35.74 35.6998 35.73 35.4798C35.73 35.2498 35.73 35.0298 35.73 34.7998L35.74 34.8098ZM39.64 34.8198C39.64 34.5898 39.64 34.3698 39.64 34.1398C39.65 33.8998 39.54 33.7898 39.31 33.7898C38.87 33.7898 38.43 33.7898 38 33.7898C37.77 33.7898 37.67 33.9098 37.67 34.1498C37.68 34.5898 37.68 35.0298 37.67 35.4598C37.67 35.6998 37.78 35.7998 38.01 35.7998C38.45 35.7998 38.89 35.7998 39.32 35.7998C39.54 35.7998 39.64 35.7098 39.64 35.4898C39.64 35.2598 39.64 35.0398 39.64 34.8098V34.8198ZM11.32 35.8098C11.54 35.8098 11.77 35.8098 11.99 35.8098C12.17 35.8098 12.3 35.7298 12.3 35.5198C12.3 35.0598 12.3 34.5998 12.3 34.1298C12.3 33.9098 12.19 33.7998 11.98 33.7998C11.54 33.7998 11.11 33.7998 10.67 33.7998C10.44 33.7998 10.33 33.8998 10.33 34.1398C10.33 34.5798 10.33 35.0098 10.33 35.4498C10.33 35.6998 10.42 35.8198 10.68 35.8098C10.89 35.7998 11.1 35.8098 11.32 35.8098ZM16.21 34.8498C16.21 34.6098 16.21 34.3798 16.21 34.1398C16.21 33.9298 16.11 33.7998 15.9 33.7998C15.45 33.7998 15 33.7998 14.55 33.7998C14.34 33.7998 14.23 33.9098 14.24 34.1298C14.24 34.5898 14.24 35.0498 14.24 35.5198C14.24 35.7198 14.33 35.8198 14.54 35.8198C14.99 35.8198 15.44 35.8198 15.89 35.8198C16.12 35.8198 16.22 35.6998 16.21 35.4598C16.2 35.2598 16.21 35.0598 16.21 34.8598V34.8498ZM11.33 31.7698C11.55 31.7698 11.78 31.7698 12 31.7698C12.2 31.7698 12.3 31.6898 12.3 31.4798C12.3 31.0198 12.3 30.5598 12.3 30.0898C12.3 29.8798 12.2 29.7998 12 29.7998C11.54 29.7998 11.08 29.7998 10.61 29.7998C10.42 29.7998 10.33 29.8798 10.33 30.0698C10.33 30.5398 10.33 31.0198 10.33 31.4898C10.33 31.6798 10.42 31.7598 10.61 31.7598C10.85 31.7598 11.08 31.7598 11.32 31.7598L11.33 31.7698ZM15.21 31.7698C15.43 31.7698 15.66 31.7698 15.88 31.7698C16.09 31.7698 16.21 31.6998 16.2 31.4698C16.2 31.0198 16.2 30.5698 16.2 30.1198C16.2 29.8998 16.11 29.7998 15.89 29.8098C15.44 29.8098 14.99 29.8098 14.54 29.8098C14.34 29.8098 14.24 29.8898 14.24 30.0998C14.24 30.5598 14.24 31.0198 14.24 31.4898C14.24 31.6898 14.33 31.7898 14.53 31.7798C14.75 31.7798 14.98 31.7798 15.2 31.7798L15.21 31.7698ZM20.11 30.8198C20.11 30.5798 20.11 30.3498 20.11 30.1098C20.11 29.9098 20.03 29.8098 19.82 29.8098C19.36 29.8098 18.9 29.8098 18.43 29.8098C18.25 29.8098 18.14 29.8798 18.14 30.0698C18.14 30.5598 18.14 31.0398 18.14 31.5298C18.14 31.6998 18.24 31.7698 18.41 31.7698C18.88 31.7698 19.36 31.7698 19.83 31.7698C20.01 31.7698 20.1 31.6798 20.1 31.4898C20.1 31.2698 20.1 31.0398 20.1 30.8198H20.11ZM23.07 29.8098C22.83 29.8098 22.6 29.8098 22.36 29.8098C22.16 29.8098 22.06 29.8898 22.06 30.0998C22.06 30.5598 22.06 31.0198 22.06 31.4898C22.06 31.6998 22.15 31.7798 22.35 31.7798C22.81 31.7798 23.27 31.7798 23.74 31.7798C23.92 31.7798 24.02 31.7098 24.02 31.5098C24.02 31.0398 24.02 30.5598 24.02 30.0898C24.02 29.8998 23.93 29.8098 23.74 29.8198C23.52 29.8198 23.29 29.8198 23.07 29.8198V29.8098ZM27.93 30.7898C27.93 30.5698 27.93 30.3398 27.93 30.1198C27.93 29.9198 27.85 29.8198 27.64 29.8198C27.18 29.8198 26.72 29.8198 26.25 29.8198C26.05 29.8198 25.95 29.9098 25.96 30.1198C25.96 30.5798 25.96 31.0398 25.96 31.5098C25.96 31.6898 26.04 31.7898 26.23 31.7898C26.7 31.7898 27.18 31.7898 27.65 31.7898C27.84 31.7898 27.93 31.6998 27.92 31.5098C27.92 31.2698 27.92 31.0398 27.92 30.7998L27.93 30.7898ZM30.85 31.7798C31.09 31.7798 31.32 31.7798 31.56 31.7798C31.74 31.7798 31.84 31.6898 31.84 31.5098C31.84 31.0398 31.84 30.5598 31.84 30.0898C31.84 29.8998 31.74 29.8198 31.56 29.8198C31.1 29.8198 30.64 29.8198 30.17 29.8198C29.97 29.8198 29.87 29.9098 29.87 30.1098C29.87 30.3498 29.87 30.5798 29.87 30.8198C29.87 31.4598 30.1967 31.7798 30.85 31.7798ZM35.74 30.8098C35.74 30.5898 35.74 30.3598 35.74 30.1398C35.74 29.9198 35.65 29.8198 35.43 29.8198C34.98 29.8198 34.53 29.8198 34.08 29.8198C33.85 29.8198 33.77 29.9298 33.77 30.1398C33.77 30.5898 33.77 31.0398 33.77 31.4898C33.77 31.6898 33.86 31.7898 34.06 31.7898C34.3 31.7898 34.53 31.7898 34.77 31.7898C35.41 31.7898 35.73 31.4631 35.73 30.8098H35.74Z" fill="#435073"/>
<path d="M8.03002 37.3099C20.09 37.3099 32.15 37.3099 44.2 37.3099C44.87 37.3099 44.96 37.2199 44.96 36.5599C44.96 32.0099 44.96 27.4499 44.96 22.8999C45.51 23.0799 45.86 23.5299 45.86 24.0899C45.86 28.5499 45.86 33.0199 45.86 37.4799C45.86 38.1199 45.38 38.6499 44.75 38.7299C44.61 38.7499 44.48 38.7599 44.34 38.7599C32.75 38.7599 21.15 38.7599 9.56002 38.7599C8.76002 38.7599 8.29002 38.4599 8.07002 37.8199C8.01002 37.6499 8.02002 37.4799 8.03002 37.2999V37.3099Z" fill="#252F55"/>
<path d="M27.2498 22.8199C27.0398 22.8199 26.8298 22.8199 26.6298 22.8199C26.6298 21.9799 26.6698 21.1399 26.6298 20.3099C26.5798 19.3899 27.2398 18.4099 28.5298 18.4199C31.1198 18.4499 33.7098 18.4199 36.2998 18.4199C36.4598 18.4199 36.6298 18.4199 36.7898 18.3999C37.3198 18.3399 37.7298 17.8999 37.7498 17.3699C37.7698 16.8499 37.3898 16.3699 36.8598 16.2799C36.6798 16.2499 36.4898 16.2499 36.2998 16.2499C29.4298 16.2499 22.5598 16.2499 15.6898 16.2499C15.5198 16.2499 15.3398 16.2499 15.1698 16.2299C14.6198 16.1699 14.1598 15.7699 14.0298 15.2299C13.9598 14.9199 13.9698 14.6099 13.9898 14.2999C13.9898 14.1099 14.1198 13.9999 14.3098 14.0099C14.4798 14.0099 14.5798 14.1299 14.5898 14.2999C14.5998 14.4999 14.5898 14.6999 14.5998 14.8999C14.6298 15.3499 14.8898 15.6099 15.3398 15.6299C15.4598 15.6299 15.5898 15.6299 15.7198 15.6299C22.6098 15.6299 29.5098 15.6299 36.3998 15.6299C36.6598 15.6299 36.9298 15.6299 37.1798 15.7199C37.9298 15.9599 38.4198 16.6999 38.3498 17.4899C38.2898 18.2599 37.6998 18.8899 36.9198 19.0099C36.7398 19.0399 36.5498 19.0499 36.3598 19.0499C33.7598 19.0499 31.1598 19.0499 28.5498 19.0499C27.6498 19.0499 27.2398 19.4499 27.2398 20.3499C27.2398 21.1799 27.2398 21.9999 27.2398 22.8299L27.2498 22.8199Z" fill="#2B2F49"/>
<path d="M23.0199 35.8098C21.5499 35.8098 20.0699 35.8098 18.5999 35.8098C18.1699 35.8098 18.1499 35.7898 18.1499 35.3698C18.1499 34.9698 18.1499 34.5698 18.1499 34.1698C18.1499 33.9198 18.2499 33.7998 18.4999 33.7998C18.5599 33.7998 18.6199 33.7998 18.6899 33.7998C21.5899 33.7998 24.4899 33.7998 27.3899 33.7998C27.9199 33.7998 27.9299 33.8198 27.9299 34.3498C27.9299 34.6598 27.9299 34.9698 27.9299 35.2898C27.9299 35.6431 27.7599 35.8198 27.4199 35.8198C25.9599 35.8198 24.4999 35.8198 23.0299 35.8198L23.0199 35.8098Z" fill="#B0B6CB"/>
<path d="M43.5399 32.8101C43.5399 33.6701 43.5399 34.5401 43.5399 35.4001C43.5399 35.7801 43.5099 35.8001 43.1299 35.8101C42.7499 35.8101 42.3799 35.8101 41.9999 35.8101C41.5999 35.8101 41.5699 35.7801 41.5699 35.3901C41.5699 34.3101 41.5699 33.2401 41.5699 32.1601C41.5699 31.7701 41.5699 31.7701 41.1899 31.7701C40.1499 31.7701 39.1099 31.7701 38.0799 31.7701C37.6999 31.7701 37.6699 31.7401 37.6699 31.3701C37.6699 30.9701 37.6699 30.5701 37.6699 30.1701C37.6699 29.9201 37.7499 29.8101 38.0199 29.8101C39.7499 29.8101 41.4699 29.8101 43.1999 29.8101C43.4999 29.8101 43.5599 29.9501 43.5499 30.2001C43.5499 31.0801 43.5499 31.9501 43.5499 32.8301L43.5399 32.8101Z" fill="#B0B6CB"/>
<path d="M22.0502 26.75C22.0502 26.53 22.0502 26.3 22.0502 26.08C22.0502 25.87 22.1502 25.77 22.3402 25.77C22.8002 25.77 23.2602 25.77 23.7202 25.77C23.9102 25.77 24.0202 25.87 24.0102 26.08C24.0102 26.54 24.0102 27 24.0102 27.46C24.0102 27.68 23.9302 27.78 23.7002 27.78C23.2502 27.78 22.8002 27.78 22.3502 27.78C22.1302 27.78 22.0302 27.68 22.0402 27.46C22.0402 27.22 22.0402 26.99 22.0402 26.75H22.0502Z" fill="#B0B6CB"/>
<path d="M27.9202 26.7897C27.9202 27.0097 27.9202 27.2397 27.9202 27.4597C27.9202 27.6797 27.8202 27.7697 27.6002 27.7697C27.1502 27.7697 26.7002 27.7697 26.2502 27.7697C26.0502 27.7697 25.9502 27.6797 25.9502 27.4797C25.9502 27.0097 25.9502 26.5297 25.9502 26.0597C25.9502 25.8697 26.0402 25.7697 26.2102 25.7697C26.6802 25.7597 27.1602 25.7597 27.6302 25.7697C27.8202 25.7697 27.9202 25.8797 27.9102 26.0897C27.9102 26.3297 27.9102 26.5597 27.9102 26.7997L27.9202 26.7897Z" fill="#B0B6CB"/>
<path d="M12.2898 26.7898C12.2898 27.0198 12.2898 27.2398 12.2898 27.4698C12.2898 27.6898 12.1898 27.7798 11.9698 27.7798C11.5198 27.7798 11.0698 27.7798 10.6198 27.7798C10.4198 27.7798 10.3198 27.6898 10.3198 27.4798C10.3198 27.0198 10.3198 26.5498 10.3198 26.0898C10.3198 25.8598 10.4298 25.7698 10.6398 25.7598C11.0898 25.7598 11.5398 25.7598 11.9898 25.7598C12.1798 25.7598 12.2898 25.8698 12.2898 26.0698C12.2898 26.3098 12.2898 26.5498 12.2898 26.7798V26.7898Z" fill="#B0B6CB"/>
<path d="M14.2398 26.7598C14.2398 26.5498 14.2398 26.3298 14.2398 26.1198C14.2198 25.8598 14.3498 25.7598 14.5998 25.7598C15.0298 25.7598 15.4498 25.7598 15.8798 25.7598C16.1098 25.7598 16.2198 25.8798 16.2198 26.1098C16.2198 26.5598 16.2198 27.0098 16.2198 27.4598C16.2198 27.6598 16.1398 27.7698 15.9398 27.7698C15.4798 27.7698 15.0098 27.7698 14.5498 27.7698C14.3498 27.7698 14.2498 27.6698 14.2598 27.4698C14.2598 27.2298 14.2598 26.9898 14.2598 26.7598H14.2398Z" fill="#B0B6CB"/>
<path d="M20.1101 26.77C20.1101 27 20.1101 27.22 20.1101 27.45C20.1101 27.69 20.0101 27.78 19.7701 27.78C19.3301 27.78 18.8901 27.78 18.4601 27.78C18.2401 27.78 18.1401 27.68 18.1501 27.46C18.1501 27 18.1501 26.53 18.1501 26.07C18.1501 25.86 18.2601 25.77 18.4501 25.77C18.9001 25.77 19.3501 25.77 19.8001 25.77C20.0101 25.77 20.1201 25.88 20.1201 26.1C20.1201 26.33 20.1201 26.55 20.1201 26.78L20.1101 26.77Z" fill="#B0B6CB"/>
<path d="M31.8201 26.77C31.8201 27.01 31.8201 27.25 31.8201 27.48C31.8201 27.68 31.7201 27.77 31.5201 27.77C31.0601 27.77 30.5901 27.77 30.1301 27.77C29.9401 27.77 29.8501 27.68 29.8501 27.49C29.8501 27.01 29.8501 26.54 29.8501 26.06C29.8501 25.86 29.9601 25.76 30.1501 25.75C30.6001 25.75 31.0501 25.75 31.5001 25.75C31.7101 25.75 31.8201 25.85 31.8101 26.08C31.8101 26.3 31.8101 26.53 31.8101 26.76L31.8201 26.77Z" fill="#B0B6CB"/>
<path d="M34.7398 27.77C33.5998 27.75 33.7798 27.93 33.7598 26.8C33.7598 26.57 33.7598 26.35 33.7598 26.12C33.7598 25.87 33.8698 25.75 34.1198 25.75C34.5498 25.75 34.9698 25.75 35.3998 25.75C35.6298 25.75 35.7398 25.85 35.7398 26.09C35.7298 26.54 35.7398 26.99 35.7398 27.44C35.7398 27.66 35.6498 27.76 35.4298 27.76C35.2098 27.76 34.9798 27.76 34.7498 27.76L34.7398 27.77Z" fill="#B0B6CB"/>
<path d="M39.6302 26.77C39.6302 27 39.6302 27.22 39.6302 27.45C39.6302 27.66 39.5502 27.78 39.3202 27.78C38.8702 27.78 38.4202 27.78 37.9702 27.78C37.7502 27.78 37.6602 27.68 37.6602 27.46C37.6602 27.01 37.6602 26.56 37.6602 26.11C37.6602 25.87 37.7802 25.77 38.0102 25.77C38.4402 25.77 38.8602 25.77 39.2902 25.77C39.5402 25.77 39.6502 25.89 39.6402 26.14C39.6302 26.35 39.6402 26.57 39.6402 26.78L39.6302 26.77Z" fill="#B0B6CB"/>
<path d="M43.5401 26.8C43.5401 27.4534 43.2167 27.78 42.5701 27.78C42.3601 27.78 42.1401 27.78 41.9301 27.78C41.6801 27.79 41.5601 27.7 41.5601 27.44C41.5701 27 41.5601 26.56 41.5601 26.13C41.5601 25.9 41.6601 25.78 41.8901 25.77C42.3301 25.77 42.7701 25.77 43.2001 25.77C43.4301 25.77 43.5301 25.89 43.5201 26.13C43.5101 26.35 43.5201 26.58 43.5201 26.81L43.5401 26.8Z" fill="#B0B6CB"/>
<path d="M30.84 35.8098C29.68 35.8098 29.87 35.9098 29.86 34.8398C29.86 34.5998 29.86 34.3598 29.86 34.1298C29.86 33.8998 29.97 33.8098 30.17 33.7998C30.62 33.7998 31.07 33.7998 31.52 33.7998C31.73 33.7998 31.83 33.9198 31.82 34.1398C31.82 34.5898 31.82 35.0398 31.82 35.4898C31.82 35.7398 31.71 35.8198 31.47 35.8098C31.26 35.8098 31.04 35.8098 30.83 35.8098H30.84Z" fill="#B0B6CB"/>
<path d="M35.7302 34.7998C35.7302 35.0298 35.7302 35.2498 35.7302 35.4798C35.7302 35.6898 35.6502 35.8098 35.4302 35.8098C34.9802 35.8098 34.5302 35.8098 34.0802 35.8098C33.8702 35.8098 33.7602 35.7098 33.7702 35.4798C33.7702 35.0298 33.7702 34.5798 33.7702 34.1298C33.7702 33.8998 33.8702 33.7998 34.0802 33.7998C34.5302 33.7998 34.9802 33.7998 35.4302 33.7998C35.6402 33.7998 35.7502 33.9098 35.7402 34.1298C35.7402 34.3498 35.7402 34.5798 35.7402 34.8098L35.7302 34.7998Z" fill="#B0B6CB"/>
<path d="M39.6302 34.8198C39.6302 35.0498 39.6302 35.2698 39.6302 35.4998C39.6302 35.7198 39.5302 35.8198 39.3102 35.8098C38.8702 35.8098 38.4302 35.8098 38.0002 35.8098C37.7702 35.8098 37.6602 35.7098 37.6602 35.4698C37.6602 35.0298 37.6702 34.5898 37.6602 34.1598C37.6602 33.9198 37.7602 33.8098 37.9902 33.7998C38.4302 33.7998 38.8702 33.7998 39.3002 33.7998C39.5302 33.7998 39.6402 33.9098 39.6302 34.1498C39.6202 34.3698 39.6302 34.5998 39.6302 34.8298V34.8198Z" fill="#B0B6CB"/>
<path d="M11.31 35.8098C11.1 35.8098 10.88 35.8098 10.67 35.8098C10.41 35.8198 10.31 35.6998 10.32 35.4498C10.32 35.0098 10.32 34.5798 10.32 34.1398C10.32 33.8998 10.43 33.7998 10.66 33.7998C11.1 33.7998 11.53 33.7998 11.97 33.7998C12.18 33.7998 12.29 33.9098 12.29 34.1298C12.29 34.5898 12.29 35.0498 12.29 35.5198C12.29 35.7298 12.17 35.8098 11.98 35.8098C11.76 35.8098 11.53 35.8098 11.31 35.8098Z" fill="#B0B6CB"/>
<path d="M16.2 34.85C16.2 35.05 16.2 35.25 16.2 35.45C16.21 35.68 16.11 35.81 15.88 35.81C15.43 35.81 14.98 35.81 14.53 35.81C14.33 35.81 14.23 35.72 14.23 35.51C14.23 35.05 14.23 34.59 14.23 34.12C14.23 33.9 14.33 33.79 14.54 33.79C14.99 33.79 15.44 33.79 15.89 33.79C16.1 33.79 16.2 33.92 16.2 34.13C16.2 34.37 16.2 34.6 16.2 34.84V34.85Z" fill="#B0B6CB"/>
<path d="M11.3201 31.7598C11.0801 31.7598 10.8501 31.7598 10.6101 31.7598C10.4301 31.7598 10.3301 31.6798 10.3301 31.4898C10.3301 31.0198 10.3301 30.5398 10.3301 30.0698C10.3301 29.8798 10.4201 29.7998 10.6101 29.7998C11.0701 29.7998 11.5301 29.7998 12.0001 29.7998C12.2001 29.7998 12.3001 29.8898 12.3001 30.0898C12.3001 30.5498 12.3001 31.0098 12.3001 31.4798C12.3001 31.6898 12.2001 31.7698 12.0001 31.7698C11.7801 31.7698 11.5501 31.7698 11.3301 31.7698L11.3201 31.7598Z" fill="#B0B6CB"/>
<path d="M15.1999 31.7698C14.9799 31.7698 14.7499 31.7698 14.5299 31.7698C14.3299 31.7698 14.2299 31.6798 14.2399 31.4798C14.2399 31.0198 14.2399 30.5598 14.2399 30.0898C14.2399 29.8798 14.3399 29.7998 14.5399 29.7998C14.9899 29.7998 15.4399 29.7998 15.8899 29.7998C16.1099 29.7998 16.2099 29.8898 16.1999 30.1098C16.1999 30.5598 16.1999 31.0098 16.1999 31.4598C16.1999 31.6898 16.0899 31.7698 15.8799 31.7598C15.6599 31.7598 15.4299 31.7598 15.2099 31.7598L15.1999 31.7698Z" fill="#B0B6CB"/>
<path d="M20.1099 30.8098C20.1099 31.0298 20.1099 31.2598 20.1099 31.4798C20.1099 31.6698 20.0199 31.7598 19.8399 31.7598C19.3699 31.7598 18.8899 31.7598 18.4199 31.7598C18.2599 31.7598 18.1599 31.6898 18.1499 31.5198C18.1499 31.0298 18.1499 30.5498 18.1499 30.0598C18.1499 29.8698 18.2599 29.7998 18.4399 29.7998C18.8999 29.7998 19.3599 29.7998 19.8299 29.7998C20.0399 29.7998 20.1199 29.8998 20.1199 30.0998C20.1199 30.3398 20.1199 30.5698 20.1199 30.8098H20.1099Z" fill="#B0B6CB"/>
<path d="M23.06 29.8C23.28 29.8 23.51 29.8 23.73 29.8C23.92 29.8 24.01 29.89 24.01 30.07C24.01 30.54 24.01 31.02 24.01 31.49C24.01 31.68 23.91 31.76 23.73 31.76C23.27 31.76 22.81 31.76 22.34 31.76C22.14 31.76 22.04 31.67 22.05 31.47C22.05 31.01 22.05 30.55 22.05 30.08C22.05 29.87 22.15 29.79 22.35 29.79C22.59 29.79 22.82 29.79 23.06 29.79V29.8Z" fill="#B0B6CB"/>
<path d="M27.92 30.7798C27.92 31.0198 27.92 31.2498 27.92 31.4898C27.92 31.6798 27.83 31.7698 27.65 31.7698C27.18 31.7698 26.7 31.7698 26.23 31.7698C26.04 31.7698 25.96 31.6698 25.96 31.4898C25.96 31.0298 25.96 30.5698 25.96 30.0998C25.96 29.8998 26.05 29.7998 26.25 29.7998C26.71 29.7998 27.17 29.7998 27.64 29.7998C27.85 29.7998 27.93 29.9098 27.93 30.0998C27.93 30.3198 27.93 30.5498 27.93 30.7698L27.92 30.7798Z" fill="#B0B6CB"/>
<path d="M30.8399 31.7598C30.1865 31.7598 29.8599 31.4398 29.8599 30.7998C29.8599 30.5598 29.8599 30.3298 29.8599 30.0898C29.8599 29.8898 29.9499 29.7998 30.1599 29.7998C30.6199 29.7998 31.0799 29.7998 31.5499 29.7998C31.7299 29.7998 31.8299 29.8798 31.8299 30.0698C31.8299 30.5398 31.8299 31.0198 31.8299 31.4898C31.8299 31.6798 31.7399 31.7598 31.5499 31.7598C31.3099 31.7598 31.0799 31.7598 30.8399 31.7598Z" fill="#B0B6CB"/>
<path d="M35.7302 30.7899C35.7302 31.4433 35.4102 31.7699 34.7702 31.7699C34.5302 31.7699 34.3002 31.7699 34.0602 31.7699C33.8602 31.7699 33.7602 31.6799 33.7702 31.4699C33.7702 31.0199 33.7702 30.5699 33.7702 30.1199C33.7702 29.8999 33.8502 29.7899 34.0802 29.7999C34.5302 29.7999 34.9802 29.7999 35.4302 29.7999C35.6602 29.7999 35.7502 29.8999 35.7402 30.1199C35.7402 30.3399 35.7402 30.5699 35.7402 30.7899H35.7302Z" fill="#B0B6CB"/>
</g>
<defs>
<clipPath id="clip0_759_7984">
<rect width="37.86" height="24.77" fill="white" transform="translate(8 14)"/>
</clipPath>
</defs>
</svg>
