<svg width="71" height="71" viewBox="0 0 71 71" fill="none" xmlns="http://www.w3.org/2000/svg">
<g clip-path="url(#clip0_2504_7836)">
<path d="M11.3155 22.8995C11.3578 20.473 11.1612 17.8257 11.7542 15.2086C12.4742 12.0258 13.8599 9.18481 15.9959 6.71901C17.1366 5.40291 18.371 4.17454 19.6599 3.00971C24.1255 -1.02029 30.9239 -0.965825 35.3593 3.10351C36.2276 3.89922 36.2428 4.40751 35.4017 5.25163C32.5516 8.1047 29.6864 10.9396 26.8515 13.8108C25.0453 15.6413 25.7744 18.5791 28.1918 19.2417C29.4656 19.5896 30.5638 19.2205 31.4987 18.2826C34.3064 15.4598 37.1292 12.649 39.943 9.83227C42.5086 7.26663 45.0743 4.69796 47.6429 2.13534C50.4718 -0.690503 54.1387 -0.720758 56.9404 2.09903C59.6028 4.77965 62.4287 7.31201 64.8915 10.1832C75.387 22.4154 71.9409 41.2251 57.7875 48.9795C52.7531 51.7358 47.6641 54.3922 42.5964 57.0849C41.0594 57.9018 39.7009 57.7052 38.4605 56.4677C29.7591 47.7754 21.0637 39.077 12.3653 30.3816C11.6513 29.6676 11.3034 28.8174 11.3124 27.8009C11.3306 26.2397 11.3155 24.6755 11.3155 22.8995Z" fill="#D8DCE2"/>
<path d="M22.6916 70.9945C20.4043 70.931 18.5799 70.1776 17.0883 68.6921C12.1446 63.7665 7.18876 58.8561 2.29347 53.8852C-0.777443 50.7659 -0.747188 46.0914 2.28439 42.9419C3.73362 41.4351 5.22217 39.9678 6.71678 38.5034C8.09945 37.151 9.99343 37.148 11.3731 38.5216C18.4165 45.5468 25.4539 52.5812 32.4791 59.6246C33.8799 61.0285 33.8678 62.9224 32.4791 64.3354C31.0329 65.8088 29.5655 67.2641 28.0982 68.7163C26.5521 70.2442 24.6702 70.9613 22.6916 70.9915V70.9945Z" fill="#D8DCE2"/>
</g>
<defs>
<clipPath id="clip0_2504_7836">
<rect width="71" height="70.9939" fill="white"/>
</clipPath>
</defs>
</svg>
