<svg width="270" height="63" viewBox="0 0 270 63" fill="none" xmlns="http://www.w3.org/2000/svg">
<path d="M25.6722 0.933594V7.38672H29.3089V9.19141H25.6722V15.5352H23.512V0.933594H25.6722ZM25.6722 16.9297V24.8867H10.305V16.9297H25.6722ZM12.4105 18.6797V23.1367H23.5667V18.6797H12.4105ZM21.2151 3.50391V5.28125H6.75031V3.50391H12.9026V0.714844H15.0628V3.50391H21.2151ZM13.9691 6.51172C17.4554 6.51172 19.8206 8.20703 19.8206 10.832C19.8206 13.4707 17.4417 15.1387 13.9691 15.125C10.4554 15.1387 8.10382 13.4707 8.11749 10.832C8.10382 8.20703 10.4417 6.51172 13.9691 6.51172ZM13.9691 8.15234C11.6722 8.15234 10.1409 9.20508 10.1409 10.832C10.1409 12.459 11.6859 13.498 13.9691 13.4844C16.2249 13.498 17.7698 12.459 17.7698 10.832C17.7698 9.20508 16.2249 8.15234 13.9691 8.15234ZM36.6031 3.83203C36.6031 9 35.8785 14.7148 32.3648 19.4453L30.6422 18.4336C33.691 14.6055 34.5797 10.1211 34.7437 5.63672H31.1617V3.83203H36.6031ZM41.9898 3.83203C41.9898 5.82812 41.9488 8.11133 41.6617 10.4766H44.8883V1.53516H46.9117V23.957H44.8883V12.2539H41.3883C40.8141 15.2891 39.7613 18.3652 37.7789 21.0312L36.0836 20.0195C39.4605 15.7129 40.0484 10.1895 40.1578 5.63672H37.3961V3.83203H41.9898ZM51.4781 0.933594V25.2148H49.4V0.933594H51.4781ZM73.5106 0.824219V6.70312H77.1747V8.53516H73.5106V14.2773H71.3505V0.824219H73.5106ZM73.5106 15.5078V20.9219H60.1669V23.2734H74.413V24.9141H58.0614V19.3359H71.4052V17.1484H57.9794V15.5078H73.5106ZM69.0536 3.12109V4.81641H54.5887V3.12109H60.7411V0.660156H62.9012V3.12109H69.0536ZM61.8075 5.9375C65.3348 5.9375 67.6591 7.46875 67.6591 9.90234C67.6591 12.377 65.3348 13.8945 61.8075 13.8945C58.2528 13.8945 55.9423 12.377 55.9559 9.90234C55.9423 7.46875 58.2528 5.9375 61.8075 5.9375ZM61.8075 7.52344C59.4969 7.53711 57.9794 8.45312 57.9794 9.90234C57.9794 11.3789 59.4969 12.3086 61.8075 12.3086C64.0907 12.3086 65.6083 11.3789 65.6083 9.90234C65.6083 8.45312 64.0907 7.53711 61.8075 7.52344ZM105.79 0.960938V14.9883H103.74V0.960938H105.79ZM101.115 1.42578V14.7148H99.0912V8.64453H95.7006V13.1836H86.267V2.68359H95.7006V6.86719H99.0912V1.42578H101.115ZM88.2631 4.37891V11.5156H93.6772V4.37891H88.2631ZM105.79 16.2188V24.8867H89.7397V16.2188H105.79ZM91.8451 17.9141V23.1367H103.685V17.9141H91.8451ZM129.217 0.90625V25.2422H127.085V11.707H121.26V19.0898H110.05V2.84766H112.182V9.16406H119.155V2.84766H121.26V9.95703H127.085V0.90625H129.217ZM112.182 17.3125H119.155V10.8867H112.182V17.3125ZM155.188 12.2266V13.8672H132.957V12.2266H155.188ZM152.398 15.8633V21.0312H137.797V23.3281H153.191V24.8867H135.691V19.5273H150.293V17.4219H135.637V15.8633H152.398ZM152.316 1.64453V6.67578H137.961V8.80859H152.781V10.3672H135.828V5.17188H150.211V3.20312H135.801V1.64453H152.316ZM185.854 20.293V22.0977H163.624V20.293H173.604V14.3594H166.249V2.95703H183.12V14.3594H175.764V20.293H185.854ZM168.327 4.67969V12.6367H181.014V4.67969H168.327ZM196.293 4.89844C196.293 8.05664 198.931 10.9004 202.527 12.0078L201.461 13.7031C198.603 12.8008 196.334 10.832 195.226 8.31641C194.16 11.0098 191.877 13.1289 188.937 14.1406L187.871 12.418C191.508 11.2559 194.105 8.23438 194.105 4.89844V4.26953H188.445V2.54688H201.898V4.26953H196.293V4.89844ZM207.613 0.933594V14.0586H205.453V0.933594H207.613ZM193.996 15.2617V18.1875H205.48V15.2617H207.613V24.8867H191.863V15.2617H193.996ZM193.996 23.1094H205.48V19.9375H193.996V23.1094ZM230.302 0.933594V10.9141H234.321V12.7461H230.302V25.2148H228.142V0.933594H230.302ZM225.79 4.81641V6.59375H211.325V4.81641H217.56V1.20703H219.72V4.81641H225.79ZM218.681 8.61719C222.112 8.63086 224.614 10.9277 224.614 14.1953C224.614 17.4766 222.112 19.7734 218.681 19.7734C215.222 19.7734 212.706 17.4766 212.72 14.1953C212.706 10.9277 215.222 8.63086 218.681 8.61719ZM218.681 10.4219C216.398 10.4355 214.771 11.9941 214.771 14.1953C214.771 16.4102 216.398 17.9688 218.681 17.9688C220.909 17.9688 222.564 16.4102 222.564 14.1953C222.564 11.9941 220.909 10.4355 218.681 10.4219ZM254.85 3.39453V5.77344C254.836 8.78125 254.836 12.1172 253.975 17.0117L251.815 16.7383C252.704 12.0898 252.704 8.69922 252.717 5.77344V5.14453H237.733V3.39453H254.85ZM257.53 19.9922V21.7695H235.381V19.9922H244.049V11.2969H246.182V19.9922H257.53ZM8.87984 45.2617C8.87984 49.0488 10.4384 52.918 13.8837 54.7773L12.2158 57.0469C9.9189 55.8438 8.36031 53.6973 7.45796 51.1133C6.55562 54.0117 4.94234 56.3359 2.70015 57.6484L0.95015 55.2969C4.43648 53.3008 5.95406 49.1309 5.95406 45.2617V44.4961H1.79781V42.0078H5.95406V38.5625H8.90718V42.0078H13.0087V44.4961H8.87984V45.2617ZM22.6337 37.7148V62.4062H19.6806V37.7148H22.6337ZM17.5478 38.1797V61.2305H14.6767V49.7188H11.4775V47.2305H14.6767V38.1797H17.5478ZM46.5803 37.7148V62.4062H43.6545V37.7148H46.5803ZM41.4397 38.2891V61.2578H38.5686V53H34.7131V50.5391H38.5686V46.8203H35.1506C34.0022 50.9492 31.4319 54.4766 26.7561 57.2109L25.0061 55.0508C30.092 52.002 32.4299 48.1602 32.8811 43.1836H26.3186V40.6953H35.9162C35.9162 41.9668 35.8342 43.1973 35.6702 44.3867H38.5686V38.2891H41.4397ZM58.2495 41.9258C58.2495 44.9062 60.2319 47.9688 64.0464 49.2539L62.5425 51.6602C59.7671 50.7305 57.8257 48.8438 56.773 46.4922C55.6792 49.0762 53.6284 51.168 50.648 52.1797L49.1167 49.7461C53.0542 48.4199 55.146 45.166 55.1597 41.9258V41.6797H49.9917V39.2188H63.3355V41.6797H58.2495V41.9258ZM69.8706 53.6562V62.4062H66.7808V56.1172H53.0269V53.6562H69.8706ZM69.8706 37.7422V52.4258H66.7808V46.3281H62.6245V43.8125H66.7808V37.7422H69.8706ZM84.3289 39.082C89.5379 39.082 93.5437 41.8848 93.5437 46.1094C93.5437 50.334 89.5516 53.123 84.3289 53.1094C79.1199 53.123 75.1141 50.334 75.1141 46.1094C75.1141 41.8848 79.1336 39.082 84.3289 39.082ZM84.3289 41.5977C80.7469 41.584 78.1219 43.334 78.1219 46.1094C78.1219 48.8574 80.7332 50.5938 84.3289 50.5938C87.9383 50.5938 90.5496 48.8574 90.5633 46.1094C90.5496 43.334 87.9383 41.584 84.3289 41.5977ZM95.6492 56.8008V59.3438H73.0906V56.8008H95.6492ZM119.568 57.0469V59.5625H97.0098V57.0469H106.717V53.0273H99.6895V44.9336H113.881V41.8711H99.6348V39.4102H116.943V47.3672H102.725V50.5664H117.518V53.0273H109.779V57.0469H119.568ZM142.196 40.0391V42.5H127.54V40.0391H133.337V37.6055H136.399V40.0391H142.196ZM134.868 43.4297C138.436 43.4434 140.924 45.2617 140.938 47.9688C140.924 50.6758 138.436 52.4668 134.868 52.4531C131.272 52.4668 128.797 50.6758 128.797 47.9688C128.797 45.2617 131.272 43.4434 134.868 43.4297ZM134.868 45.8086C132.995 45.7949 131.737 46.5742 131.723 47.9688C131.737 49.3496 133.008 50.1289 134.868 50.1289C136.714 50.1289 137.985 49.3496 137.985 47.9688C137.985 46.5742 136.714 45.7949 134.868 45.8086ZM146.981 37.7422V44.25H150.454V46.793H146.981V53.1914H143.919V37.7422H146.981ZM146.981 54.3125V62.4062H143.919V56.8008H130.547V54.3125H146.981ZM157.174 52.5078V54.8867H168.029V52.5078H171.037V62.1328H154.139V52.5078H157.174ZM157.174 59.6992H168.029V57.1836H157.174V59.6992ZM173.935 48.6797V51.1133H151.404V48.6797H173.935ZM164.228 38.8633C164.242 41.5566 167.619 44.3184 172.76 44.9336L171.639 47.3398C167.537 46.793 164.269 44.9609 162.67 42.4453C161.084 44.9609 157.83 46.7793 153.701 47.3398L152.58 44.9336C157.762 44.3047 161.098 41.5977 161.111 38.8633V37.9883H164.228V38.8633ZM187.655 42.0898V43.8672H175.46V42.0898H180.519V38.6172H182.652V42.0898H187.655ZM181.558 45.5078C184.62 45.5215 186.821 47.8047 186.835 51.0312C186.821 54.2988 184.62 56.5684 181.558 56.5547C178.523 56.5684 176.321 54.2988 176.335 51.0312C176.321 47.8047 178.523 45.5215 181.558 45.5078ZM181.558 47.3398C179.63 47.3398 178.249 48.8848 178.249 51.0312C178.249 53.2188 179.63 54.75 181.558 54.75C183.499 54.75 184.907 53.2188 184.921 51.0312C184.907 48.8848 183.499 47.3398 181.558 47.3398ZM196.241 37.9336V62.2148H194.191V49.9375H190.937V61.0117H188.913V38.4531H190.937V48.1602H194.191V37.9336H196.241ZM221.665 57.293V59.0977H199.434V57.293H209.415V52.043H202.059V39.6289H204.192V44.0039H216.852V39.6289H218.957V52.043H211.575V57.293H221.665ZM204.192 50.293H216.852V45.7812H204.192V50.293ZM230.572 44.7969C230.558 48.6797 232.459 52.8359 235.685 54.75L234.427 56.418C232.103 55.0234 230.435 52.4258 229.588 49.4727C228.672 52.8086 226.812 55.5293 224.447 56.9648L223.08 55.3242C226.429 53.3965 228.494 49.0488 228.494 44.8789V40.2031H230.572V44.7969ZM244.162 37.9336V62.2148H242.084V37.9336H244.162ZM239.158 38.4258V60.9844H237.107V48.4336H233.006V46.6289H237.107V38.4258H239.158ZM269.503 57.293V59.0977H247.272V57.293H252.741V50.7031C250.69 49.6367 249.433 47.8867 249.433 45.6992C249.433 41.9258 253.165 39.4785 258.319 39.4648C263.528 39.4785 267.22 41.9258 267.233 45.6992C267.22 47.8867 265.989 49.623 263.952 50.7031V57.293H269.503ZM258.319 41.1875C254.368 41.1875 251.511 42.9785 251.511 45.6992C251.511 48.4336 254.368 50.2246 258.319 50.2109C262.298 50.2246 265.142 48.4336 265.155 45.6992C265.142 42.9785 262.298 41.1875 258.319 41.1875ZM254.874 57.293H261.819V51.4961C260.767 51.7832 259.591 51.9336 258.319 51.9336C257.075 51.9336 255.913 51.7969 254.874 51.5234V57.293Z" fill="black"/>
</svg>
