<svg width="35" height="36" viewBox="0 0 35 36" fill="none" xmlns="http://www.w3.org/2000/svg">
<g clip-path="url(#clip0_2046_9882)">
<path d="M22.9399 33.1076C22.3641 33.0381 21.6594 32.9885 20.9745 32.8694C20.1506 32.7205 19.3664 32.4525 18.6219 32.0455C17.7881 31.5889 17.1131 30.9834 16.597 30.1794C16.2297 29.6036 15.9617 28.9783 15.783 28.3132C15.654 27.8368 15.6143 27.3504 15.6738 26.864C15.7533 26.2188 16.1304 25.7919 16.736 25.5835C17.0437 25.4743 17.3315 25.6133 17.5797 25.8019C17.9767 26.0997 18.2745 26.5066 18.5128 26.9335C18.8205 27.4794 19.0984 28.0452 19.4061 28.5912C19.4657 28.7103 19.555 28.8195 19.6642 28.8989C19.8627 29.0478 20.091 29.0081 20.2697 28.8393C20.4384 28.6706 20.4881 28.4423 20.3789 28.2338C20.0215 27.5588 19.6741 26.8739 19.287 26.2188C18.9793 25.6828 18.5822 25.2162 18.0561 24.8787C17.262 24.3725 16.4977 24.4122 15.7533 24.9383C15.5944 25.0574 15.4356 25.1864 15.2966 25.3254C15.2172 25.4048 15.1577 25.3949 15.0981 25.3155C14.7507 24.8291 14.6117 24.2832 14.6614 23.6975C14.7507 22.6155 15.2272 21.6725 15.8128 20.7891C16.4183 19.8759 17.133 19.0619 17.9271 18.3175C18.7311 17.573 19.6146 16.9576 20.627 16.5407C21.1531 16.3223 21.709 16.1635 22.2649 16.0146C22.9696 15.8161 23.7042 15.7664 24.4387 15.7863C25.61 15.8161 26.6027 16.2925 27.4861 17.0271C28.3298 17.7318 29.0147 18.5756 29.65 19.459C30.2555 20.2928 30.8015 21.1663 31.2581 22.0895C31.5856 22.7446 31.8636 23.4295 32.1614 24.1144C32.2805 24.4023 32.3897 24.6901 32.479 24.9879C32.4989 25.0475 32.4492 25.1567 32.3996 25.2162C31.9728 25.653 31.536 26.0897 31.0993 26.5265C29.0445 28.5812 26.9898 30.626 24.945 32.6808C24.7266 32.9091 24.5082 33.0183 24.1906 33.0282C23.8134 33.0282 23.4263 33.0877 22.9299 33.1275L22.9399 33.1076Z" fill="#FF3030"/>
<path d="M2.38257 12.5392C2.4322 11.9337 2.4719 11.4474 2.52154 10.961C2.52154 10.8816 2.58109 10.7922 2.64065 10.7327C5.152 8.22132 7.67327 5.70998 10.1846 3.19863C10.4228 2.9604 10.4228 2.95048 10.7703 3.08944C11.4651 3.36738 12.1699 3.62546 12.8448 3.95303C13.5298 4.2806 14.1948 4.66772 14.85 5.05484C15.6639 5.53131 16.4183 6.08718 17.1429 6.69268C17.7881 7.2287 18.3738 7.81434 18.8602 8.50918C19.5451 9.49188 19.823 10.5738 19.7138 11.765C19.6741 12.172 19.6443 12.579 19.5649 12.976C19.4657 13.4525 19.3366 13.919 19.1778 14.3756C18.9396 15.0506 18.612 15.6958 18.215 16.2914C17.6988 17.0656 17.0734 17.7605 16.3885 18.3858C15.7731 18.9516 15.1279 19.4579 14.4132 19.8946C13.8673 20.2222 13.3015 20.51 12.696 20.6887C12.1599 20.8475 11.614 20.9071 11.068 20.7979C10.7504 20.7383 10.4725 20.5994 10.2045 20.4108C10.135 20.3611 10.1151 20.3016 10.2045 20.2222C10.5817 19.8549 10.8596 19.4281 10.9787 18.902C11.068 18.4652 10.9787 18.0582 10.7703 17.681C10.4427 17.0458 9.9166 16.5991 9.32103 16.2517C8.64604 15.8546 7.94128 15.4973 7.24644 15.13C7.00821 15.001 6.72035 15.13 6.58138 15.3881C6.46226 15.6065 6.5516 15.9142 6.78983 16.0432C7.09754 16.212 7.41518 16.3609 7.7229 16.5197C8.41774 16.8869 9.11257 17.2542 9.62874 17.8498C9.75778 17.9987 9.86697 18.1873 9.93645 18.3759C10.0456 18.6638 9.89675 18.9218 9.73793 19.1601C9.43021 19.6266 8.97361 19.8251 8.41774 19.8549C7.84201 19.8748 7.29607 19.7755 6.75012 19.5869C5.7575 19.2494 4.89391 18.7233 4.19907 17.9391C3.75239 17.4428 3.43475 16.8671 3.16674 16.2616C2.92851 15.7057 2.74984 15.13 2.64065 14.5344C2.52154 13.8396 2.4719 13.1249 2.40242 12.5392H2.38257Z" fill="#FF3030"/>
<path d="M9.35081 2.26529C8.78501 1.70942 8.22914 1.14362 7.66334 0.587751C7.55415 0.478562 7.48467 0.478562 7.37548 0.587751C6.95858 1.01458 6.52182 1.44141 6.09499 1.86824C5.87662 2.08662 5.64831 2.30499 5.39023 2.55315C4.01048 3.95275 4.25864 3.69467 4.01048 3.95275C2.70021 5.26302 1.38995 6.57329 0.0796784 7.89348C-0.0295105 8.00267 -0.0195842 8.07215 0.0796784 8.17142C0.60577 8.68758 1.12194 9.2236 1.64803 9.73977C1.88626 9.978 1.84655 10.0475 2.14434 9.73977C2.17412 9.70999 2.21382 9.67028 2.2436 9.6405C3.48439 8.39972 4.7351 7.16886 5.96595 5.92808C8.7056 3.18843 6.21411 5.67992 8.50708 3.38696C8.78501 3.10902 9.06295 2.83109 9.34088 2.56308C9.45007 2.45389 9.44014 2.3844 9.34088 2.27522L9.35081 2.26529Z" fill="#353C49"/>
<path d="M34.9307 27.8458C34.355 27.2701 33.7793 26.6943 33.2036 26.1186C33.1142 26.0293 33.0447 26.0194 32.9554 26.1186C32.5881 26.4958 32.2208 26.8631 31.8536 27.2304C31.5657 27.5083 31.2878 27.7862 30.9602 28.1039C29.6301 29.434 31.4764 27.5976 29.6499 29.4439C29.3919 29.702 29.1239 29.9601 28.8558 30.2182C27.7838 31.2902 26.7118 32.3622 25.6397 33.4244C25.5305 33.5335 25.5405 33.603 25.6397 33.7122C26.1956 34.2681 26.7515 34.824 27.3073 35.3798C27.4562 35.5287 27.4761 35.5287 27.625 35.3798C27.8136 35.1912 28.0022 35.0026 28.2007 34.8041C29.3025 33.7023 30.4043 32.5905 31.5161 31.4887C31.7742 31.2306 31.5161 31.4887 32.9256 30.0494C32.9752 30.0097 32.9951 29.9998 33.0149 29.9799C33.6502 29.3447 34.2855 28.6995 34.9307 28.0642C35.0201 27.9748 34.9903 27.9153 34.9208 27.8359L34.9307 27.8458Z" fill="#353C49"/>
</g>
<defs>
<clipPath id="clip0_2046_9882">
<rect width="35" height="35" fill="white" transform="translate(0 0.5)"/>
</clipPath>
</defs>
</svg>
