<svg width="54" height="54" viewBox="0 0 54 54" fill="none" xmlns="http://www.w3.org/2000/svg">
<g clip-path="url(#clip0_2202_8159)">
<path d="M5.82534 15.5305C6.15 15.8551 6.09589 15.9498 6.50171 15.5305C6.54229 15.4899 6.59641 15.4358 6.63699 15.3952C8.32793 13.7043 10.0324 12.027 11.7098 10.3361C14.3612 7.67125 11.818 10.2279 14.0771 7.96884C14.8347 7.21133 15.5787 6.46734 16.3227 5.75041C16.4715 5.60161 16.458 5.50692 16.3227 5.35812C15.5516 4.60061 14.7941 3.82956 14.023 3.07205C13.8742 2.92325 13.7795 2.92325 13.6307 3.07205C13.0626 3.65371 12.4674 4.23537 11.8857 4.81704C11.5881 5.11463 11.2769 5.41223 10.9252 5.75041C9.03136 7.6442 9.38307 7.30602 9.04489 7.65772C7.25925 9.45682 5.46009 11.2424 3.67446 13.0415C3.52566 13.1903 3.53919 13.285 3.67446 13.4203C4.39142 14.1237 5.09485 14.8541 5.82534 15.5575V15.5305Z" fill="#FF3030"/>
<path d="M7.00237 17.1952C6.93474 17.858 6.88063 18.5209 6.81299 19.346C6.90768 20.1441 6.97532 21.1045 7.13765 22.065C7.27292 22.8766 7.51642 23.6611 7.85461 24.4187C8.20632 25.2573 8.65273 26.0284 9.26147 26.7047C10.2084 27.7734 11.3853 28.4903 12.738 28.9502C13.4821 29.2072 14.2261 29.3425 15.0107 29.3155C15.7682 29.2884 16.3769 29.0179 16.8098 28.3686C17.0263 28.0439 17.2157 27.6922 17.0804 27.2999C16.9857 27.0429 16.8504 26.7859 16.661 26.583C15.9441 25.7578 14.9971 25.2573 14.0637 24.7704C13.6444 24.5539 13.2115 24.351 12.7922 24.1211C12.4675 23.9452 12.3457 23.5124 12.5081 23.2283C12.711 22.8766 13.0898 22.7007 13.4144 22.8766C14.3613 23.3771 15.3218 23.8641 16.2417 24.4051C17.0533 24.8921 17.7703 25.5008 18.2167 26.353C18.4872 26.8806 18.6225 27.4352 18.5008 28.0169C18.352 28.7338 17.9597 29.3155 17.4456 29.816C17.3374 29.9242 17.3509 30.0053 17.4456 30.073C17.7973 30.33 18.1896 30.5194 18.6225 30.6005C19.3801 30.7493 20.1241 30.6682 20.841 30.4517C21.6797 30.2082 22.4508 29.8295 23.1813 29.3696C24.1553 28.7744 25.0346 28.0845 25.8733 27.3135C26.8067 26.4477 27.6589 25.5144 28.3623 24.4592C28.9034 23.6476 29.3498 22.7684 29.6745 21.8485C29.8909 21.2263 30.0668 20.5905 30.2021 19.9412C30.3103 19.4001 30.3509 18.8455 30.405 18.2909C30.5538 16.6677 30.175 15.1932 29.2416 13.854C28.5788 12.9071 27.7807 12.109 26.9014 11.3786C25.9139 10.5534 24.8858 9.79591 23.7765 9.14661C22.8702 8.61905 21.9773 8.0915 21.0439 7.6451C20.1241 7.19871 19.1636 6.84701 18.2167 6.46825C17.7568 6.27887 17.7432 6.30592 17.4186 6.61705C13.9961 10.0394 10.5601 13.4617 7.13765 16.8841C7.05648 16.9653 6.98885 17.087 6.97532 17.1952H7.00237Z" fill="#353C49"/>
<path d="M24.9805 44.1277C24.5611 43.4919 24.2094 42.8155 23.9795 42.0851C23.8036 41.4899 23.6142 40.8947 23.533 40.286C23.4654 39.7449 23.506 39.1903 23.5601 38.6492C23.5736 38.4193 23.5601 38.2705 23.3978 38.0946C22.762 37.4318 22.3426 36.6472 22.1938 35.7544C21.9639 34.4152 22.2344 33.1437 22.7755 31.9263C22.8972 31.6422 23.019 31.3716 23.1678 31.047C23.0325 31.1011 22.9243 31.1282 22.8431 31.1687C21.8962 31.6422 20.9087 31.9804 19.84 32.0615C18.3791 32.1833 17.121 31.7639 16.0658 30.7629C15.917 30.6277 15.7818 30.6006 15.5924 30.6412C15.3624 30.6953 15.1325 30.7224 14.916 30.7359C14.2667 30.7629 13.6309 30.6682 12.9951 30.5059C12.3458 30.3436 11.7235 30.1407 11.1418 29.8296C10.5872 29.532 10.0596 29.1938 9.51853 28.8556C9.36972 28.7609 9.23445 28.7203 9.05859 28.788C8.49044 29.0315 7.90875 29.2479 7.3406 29.4779C6.54247 29.8025 5.74435 30.1272 4.94622 30.4518C4.1481 30.7765 3.34998 31.0876 2.55185 31.4122C1.94311 31.6557 1.32085 31.9127 0.71211 32.1562C0.495669 32.2374 0.292757 32.3321 0.0898438 32.4268C0.0898438 32.4538 0.0898438 32.4673 0.0898438 32.4944C0.54978 32.6838 1.00972 32.8732 1.45612 33.049C2.03781 33.2925 2.63302 33.5225 3.2147 33.7524C3.79639 33.9959 4.37807 34.2259 4.97328 34.4693C5.66318 34.7534 6.36661 35.024 7.05652 35.308C7.65173 35.5515 8.26047 35.795 8.85568 36.0385C9.3562 36.2414 9.87024 36.4443 10.3708 36.6743C10.6413 36.796 10.7766 37.026 10.736 37.3236C10.7089 37.5129 10.6413 37.7158 10.5601 37.8917C10.1949 38.7574 9.81613 39.6232 9.45089 40.4889C9.12623 41.2599 8.8151 42.031 8.49044 42.7885C8.16578 43.5595 7.82759 44.317 7.50293 45.0881C7.16474 45.8862 6.82655 46.6708 6.50189 47.4689C6.47483 47.5365 6.48836 47.6312 6.48836 47.7123C6.56953 47.7123 6.65069 47.7123 6.71833 47.6853C7.787 47.2389 8.84215 46.779 9.91083 46.3191C11.0877 45.8186 12.2646 45.3316 13.4415 44.8311C14.4967 44.3847 15.5518 43.9248 16.6069 43.4784C16.8234 43.3837 17.0534 43.3972 17.2698 43.5325C17.5674 43.7219 17.6215 44.0465 17.7433 44.3306C18.0273 45.0205 18.2979 45.7239 18.582 46.4137C18.866 47.1036 19.1501 47.7935 19.4342 48.4834C19.7589 49.2815 20.07 50.0796 20.3947 50.8912C20.7328 51.7299 21.071 52.5686 21.4092 53.4072C21.5039 53.6372 21.5986 53.8536 21.7204 54.1242C21.788 54.0024 21.8421 53.9348 21.8827 53.8536C22.1532 53.1773 22.4238 52.5144 22.6943 51.8381C22.9243 51.2564 23.1678 50.6612 23.3978 50.0796C23.6413 49.4844 23.8848 48.8757 24.1283 48.2805C24.3717 47.6853 24.6152 47.0901 24.8452 46.5084C25.0346 46.0485 25.224 45.5751 25.4134 45.1151C25.481 44.9393 25.4675 44.7905 25.3322 44.6282C25.1969 44.4658 25.0887 44.2765 24.967 44.1006L24.9805 44.1277Z" fill="#FF3030"/>
<path d="M51.4393 22.0239C50.8441 21.7804 50.2488 21.5504 49.6536 21.3069C48.9773 21.0364 48.3009 20.7388 47.6245 20.4683C46.9211 20.1842 46.2176 19.9137 45.5277 19.6296C44.689 19.2914 43.8639 18.9532 43.0251 18.6151C42.5517 18.4257 42.3082 18.0469 42.4705 17.6411C42.7275 16.9918 43.0116 16.356 43.2822 15.7203C43.5663 15.0574 43.8503 14.3946 44.1209 13.7318C44.405 13.069 44.6755 12.4061 44.9596 11.7433C45.2437 11.067 45.5277 10.3906 45.8253 9.71425C46.1094 9.05143 46.3935 8.37507 46.6776 7.71225C46.7046 7.63108 46.7046 7.53639 46.7182 7.45523C46.637 7.45523 46.5558 7.45523 46.4747 7.49581C45.8118 7.77988 45.1354 8.06395 44.4726 8.34802C43.7151 8.67267 42.944 8.98379 42.1864 9.30844C41.5101 9.59251 40.8202 9.8901 40.1438 10.1742C39.4809 10.4582 38.8046 10.7423 38.1417 11.0264C37.6141 11.2563 37.0866 11.4863 36.5455 11.6892C36.2073 11.8245 35.842 11.6757 35.6797 11.351C35.5444 11.067 35.4227 10.7694 35.3009 10.4853C35.0574 9.90363 34.8275 9.30844 34.5975 8.72678C34.3134 8.0369 34.0293 7.34702 33.7453 6.65714C33.4612 5.96726 33.1906 5.26385 32.9066 4.57397C32.6225 3.85703 32.3249 3.15363 32.0408 2.43669C31.8514 1.9903 31.6756 1.53038 31.4862 1.08398C31.4591 1.08398 31.4456 1.08398 31.4185 1.08398C31.3644 1.1922 31.3103 1.30042 31.2562 1.40863C31.1074 1.78739 30.9586 2.15262 30.8098 2.53138C30.5663 3.12657 30.3228 3.72176 30.0928 4.30343C29.8493 4.89862 29.6058 5.49381 29.3759 6.07547C29.0918 6.76535 28.8213 7.4417 28.5372 8.13159C28.2937 8.72678 28.0637 9.32197 27.8067 9.90363C27.7255 10.093 27.7526 10.2012 27.9014 10.3365C29.3218 11.5539 30.5934 12.8931 31.3103 14.6787C31.5538 15.2739 31.7297 15.8826 31.7838 16.5048C31.8785 17.6141 31.8785 18.7233 31.6485 19.819C31.4862 20.59 31.2833 21.3611 31.0533 22.1186C30.9045 22.592 30.6745 23.0384 30.4987 23.4983C30.4716 23.5795 30.4446 23.6607 30.4175 23.7553C31.1074 23.4848 31.7702 23.2007 32.4331 22.9843C33.0283 22.7949 33.6506 22.6326 34.2728 22.5244C34.8816 22.4162 35.5174 22.3485 36.1396 22.3215C37.2624 22.2538 38.3717 22.3891 39.4268 22.8084C40.4143 23.2007 41.3072 23.7553 42.0782 24.4723C42.7005 25.0404 43.2686 25.6627 43.8503 26.2714C43.9585 26.3796 44.0532 26.4472 44.202 26.3796C45.0678 26.0279 45.9336 25.6762 46.7993 25.3245C47.5975 24.9998 48.382 24.6617 49.1666 24.3505C50.2894 23.8906 51.4122 23.4578 52.5215 22.9978C52.7109 22.9167 52.9002 22.822 53.0896 22.7408C52.5215 22.4567 51.9804 22.2268 51.4257 21.9968L51.4393 22.0239Z" fill="#FF3030"/>
<path d="M47.7192 36.6061C47.7868 36.5385 47.8545 36.3897 47.8274 36.295C47.7057 35.8892 47.5569 35.4834 47.3945 35.1046C47.0022 34.1848 46.6099 33.2514 46.1635 32.3451C45.5413 31.0871 44.7972 29.8967 43.9721 28.7605C43.0928 27.5565 42.1594 26.4067 41.0231 25.4463C39.8191 24.4318 38.4664 23.796 36.8701 23.7554C35.8691 23.7284 34.8816 23.8095 33.9076 24.0666C33.1501 24.2695 32.3925 24.4859 31.6756 24.7835C30.2957 25.3516 29.0918 26.1903 27.9961 27.2048C26.9003 28.2194 25.9264 29.3286 25.1147 30.5731C24.3166 31.7905 23.6673 33.0621 23.5455 34.5365C23.4779 35.3346 23.6673 36.0786 24.1407 36.7414C24.2084 36.8496 24.2895 36.8632 24.4113 36.7549C24.6142 36.5656 24.8171 36.3762 25.0335 36.2274C26.0616 35.5105 27.1033 35.4428 28.1719 36.1462C28.8889 36.6061 29.43 37.2554 29.8493 37.9724C30.3769 38.8652 30.8504 39.7985 31.3374 40.7184C31.4862 41.0024 31.4185 41.3271 31.1886 41.5435C30.9451 41.7735 30.6339 41.8276 30.3634 41.6247C30.2146 41.5165 30.0928 41.3677 30.0117 41.2053C29.6058 40.4614 29.2271 39.6903 28.7942 38.9463C28.456 38.3647 28.0637 37.8236 27.5226 37.4042C27.1844 37.1472 26.8056 36.9443 26.3728 37.1066C25.5611 37.4042 25.0471 37.9724 24.9253 38.8516C24.8442 39.5145 24.8983 40.1773 25.0741 40.8266C25.3176 41.7329 25.6829 42.5716 26.1834 43.3697C26.8868 44.4654 27.8067 45.3041 28.943 45.9128C29.9576 46.4674 31.0262 46.8326 32.149 47.0355C33.0824 47.1978 34.0429 47.2655 34.8275 47.3602C35.5038 47.3061 36.0314 47.2384 36.5455 47.2249C36.9783 47.2249 37.2624 47.0626 37.5736 46.7514C40.3602 43.9378 43.1604 41.1512 45.9606 38.3647C46.5558 37.7695 47.151 37.1743 47.7327 36.5791L47.7192 36.6061Z" fill="#353C49"/>
<path d="M51.1824 40.2041C50.3978 39.4195 49.6132 38.6349 48.8286 37.8504C48.7069 37.7286 48.6122 37.7151 48.4904 37.8504C47.9899 38.3644 47.4894 38.8649 46.9889 39.3654C46.5966 39.7441 46.2178 40.1229 45.7714 40.5558C43.8505 42.5037 45.812 40.5152 43.9858 42.3819C43.6341 42.7472 43.2688 43.0853 42.9036 43.437C41.4426 44.898 39.9816 46.3589 38.5207 47.8063C38.3718 47.9551 38.3854 48.0498 38.5207 48.1986C39.2782 48.9561 40.0357 49.7136 40.7933 50.4711C40.9962 50.674 41.0232 50.674 41.2262 50.4711C41.4832 50.2141 41.7402 49.9571 42.0108 49.6865C43.5123 48.185 45.0139 46.67 46.5289 45.1685C46.8807 44.8168 46.5425 45.155 48.8151 42.8689C49.5997 42.0843 50.3978 41.2862 51.1959 40.5017C51.3177 40.3799 51.2771 40.2988 51.1824 40.1905V40.2041Z" fill="#FF3030"/>
<path d="M14.2452 2.80816L17.8705 6.43332L7.13809 17.1653L3.5128 13.5402C3.27367 13.301 3.2641 12.9089 3.5128 12.6602L13.3652 2.80816C13.6043 2.56903 13.9965 2.55947 14.2452 2.80816Z" fill="#353C49"/>
<path d="M40.7573 50.7851L37.132 47.1599L47.8644 36.4279L51.4896 40.0531C51.7288 40.2922 51.7383 40.6844 51.4896 40.9331L41.6373 50.7851C41.3981 51.0242 41.006 51.0338 40.7573 50.7851Z" fill="#353C49"/>
</g>
<defs>
<clipPath id="clip0_2202_8159">
<rect width="54" height="54" fill="white"/>
</clipPath>
</defs>
</svg>
