<svg width="54" height="54" viewBox="0 0 54 54" fill="none" xmlns="http://www.w3.org/2000/svg">
<g clip-path="url(#clip0_1907_10366)">
<path d="M43.3356 18.8999L29.605 8.26087L32.8206 4.11087C34.6642 1.73154 38.0936 1.28936 40.4808 3.13909L45.5873 7.0958C47.9666 8.9394 48.4088 12.3688 46.5591 14.756L43.3435 18.906L43.3356 18.8999Z" fill="#FF3030"/>
<path d="M9.94351 33.6342L23.6741 44.2732L41.7304 20.97L27.9998 10.331L9.94351 33.6342Z" fill="#353C49"/>
<path d="M14.6636 33.7482L14.7427 33.8095C15.0657 34.0598 15.5306 34.0008 15.7809 33.6777L29.2986 16.2319C29.5489 15.9089 29.49 15.4441 29.1669 15.1937L29.0879 15.1325C28.7648 14.8822 28.3 14.9411 28.0497 15.2642L14.5319 32.71C14.2816 33.0331 14.3406 33.4979 14.6636 33.7482Z" fill="white"/>
<path d="M6.19995 45.7L6.34995 50.82C6.36995 51.63 7.12995 52.22 7.91995 52.04L12.92 50.91L6.19995 45.7Z" fill="#353C49"/>
<path d="M5.99995 39.1999L6.15995 44.5499L14.04 50.6599L19.26 49.4799C19.55 49.4099 19.81 49.2499 19.99 49.0099L23.67 44.2699L9.94995 33.6299L6.26995 38.3699C6.08995 38.6099 5.98995 38.8999 5.99995 39.1999Z" fill="#353C49"/>
</g>
<defs>
<clipPath id="clip0_1907_10366">
<rect width="41.69" height="50.07" fill="white" transform="translate(6 2)"/>
</clipPath>
</defs>
</svg>
