<svg width="67" height="67" viewBox="0 0 67 67" fill="none" xmlns="http://www.w3.org/2000/svg">
<circle cx="33.5" cy="33.5" r="33.5" fill="#FF3030"/>
<g clip-path="url(#clip0_1567_11114)">
<path d="M25.8248 29.7412C25.8391 28.921 25.7727 28.0261 25.9731 27.1414C26.2165 26.0655 26.6849 25.1052 27.4069 24.2717C27.7925 23.8268 28.2098 23.4116 28.6455 23.0179C30.155 21.6556 32.453 21.674 33.9523 23.0496C34.2458 23.3185 34.2509 23.4904 33.9666 23.7757C33.0032 24.7401 32.0347 25.6984 31.0764 26.6689C30.4659 27.2877 30.7124 28.2807 31.5295 28.5047C31.9601 28.6223 32.3313 28.4976 32.6473 28.1805C33.5964 27.2263 34.5506 26.2762 35.5017 25.3241C36.369 24.4568 37.2362 23.5885 38.1045 22.7223C39.0608 21.7671 40.3003 21.7569 41.2473 22.71C42.1473 23.6161 43.1025 24.4722 43.935 25.4427C47.4828 29.5775 46.3179 35.9357 41.5337 38.557C39.8319 39.4886 38.1117 40.3866 36.3986 41.2968C35.8791 41.5729 35.4199 41.5065 35.0006 41.0882C32.0593 38.1499 29.12 35.2096 26.1797 32.2703C25.9383 32.029 25.8207 31.7416 25.8238 31.398C25.8299 30.8702 25.8248 30.3415 25.8248 29.7412Z" fill="white"/>
<path d="M29.6705 45.9982C28.8973 45.9768 28.2806 45.7221 27.7764 45.22C26.1053 43.555 24.4301 41.8951 22.7753 40.2148C21.7373 39.1604 21.7475 37.5803 22.7723 36.5157C23.2621 36.0063 23.7653 35.5103 24.2705 35.0153C24.7379 34.5582 25.3781 34.5572 25.8445 35.0215C28.2254 37.3962 30.6042 39.774 32.9789 42.1549C33.4525 42.6294 33.4484 43.2697 32.9789 43.7473C32.4901 44.2453 31.9941 44.7372 31.4981 45.2281C30.9754 45.7446 30.3393 45.987 29.6705 45.9972V45.9982Z" fill="white"/>
</g>
<defs>
<clipPath id="clip0_1567_11114">
<rect width="24" height="23.998" fill="white" transform="translate(22 22)"/>
</clipPath>
</defs>
</svg>
