<svg width="161" height="160" viewBox="0 0 161 160" fill="none" xmlns="http://www.w3.org/2000/svg">
<circle cx="80.5" cy="80" r="79.5" fill="#595F72" stroke="#C4CAD4"/>
<g clip-path="url(#clip0_1846_8232)">
<path d="M49.5821 64.8578C49.633 61.9412 49.3966 58.7592 50.1094 55.6135C50.9748 51.7878 52.6402 48.373 55.2075 45.4091C56.5784 43.8272 58.062 42.3507 59.611 40.9506C64.9782 36.1066 73.149 36.1721 78.4799 41.0634C79.5235 42.0198 79.5417 42.6307 78.5308 43.6454C75.1054 47.0747 71.6618 50.4822 68.2546 53.9334C66.0837 56.1335 66.96 59.6647 69.8654 60.4611C71.3963 60.8793 72.7163 60.4356 73.8399 59.3083C77.2144 55.9153 80.6071 52.5369 83.9889 49.1512C87.0725 46.0674 90.1561 42.9799 93.2433 39.8996C96.6432 36.503 101.05 36.4667 104.418 39.856C107.618 43.078 111.014 46.1219 113.974 49.5731C126.588 64.2759 122.447 86.8848 105.436 96.2055C99.385 99.5184 93.2687 102.711 87.1779 105.948C85.3307 106.93 83.698 106.693 82.2071 105.206C71.7491 94.7581 61.2983 84.3028 50.8439 73.8511C49.9857 72.9929 49.5675 71.971 49.5785 70.7491C49.6003 68.8726 49.5821 66.9925 49.5821 64.8578Z" fill="white"/>
<path d="M63.2549 122.667C60.5058 122.591 58.3131 121.685 56.5204 119.9C50.5787 113.979 44.6224 108.077 38.7388 102.102C35.048 98.3526 35.0844 92.734 38.7279 88.9483C40.4697 87.1372 42.2588 85.3735 44.0551 83.6133C45.7169 81.9878 47.9933 81.9841 49.6514 83.6352C58.1168 92.0794 66.5748 100.535 75.0183 109.001C76.7019 110.688 76.6874 112.965 75.0183 114.663C73.2802 116.434 71.5166 118.183 69.753 119.929C67.8948 121.765 65.633 122.627 63.2549 122.663V122.667Z" fill="white"/>
</g>
<defs>
<clipPath id="clip0_1846_8232">
<rect width="85.3333" height="85.3333" fill="white" transform="translate(35.9824 37.333)"/>
</clipPath>
</defs>
</svg>
