<svg width="393" height="343" viewBox="0 0 393 343" fill="none" xmlns="http://www.w3.org/2000/svg">
<g filter="url(#filter0_d_4230_14903)">
<rect x="20" y="20" width="353" height="303" rx="12" fill="white"/>
</g>
<path d="M49.7266 49.4844C49.7266 52.209 52.373 54.9434 56.0547 55.5781L55.0977 57.4141C52.1289 56.7988 49.707 55.0117 48.5547 52.6484C47.3926 55.002 44.9902 56.8086 42.0312 57.4141L41.0742 55.5781C44.7363 54.9238 47.3926 52.1699 47.3828 49.4844V48.1758H49.7266V49.4844ZM56.6992 60.6953V62.4922H40.5859V60.6953H56.6992ZM72.6758 47.082V64.7578H70.4883V55.2266H67.1875V53.4492H70.4883V47.082H72.6758ZM66.9141 48.6055V50.3828H60.8594V53.5273H66.2305V55.2656H60.8594V58.8789C63.5742 58.8789 65.5469 58.8008 67.832 58.4102L68.0469 60.168C65.4492 60.6074 63.1055 60.6758 60.0781 60.6758H58.6719V48.6055H66.9141ZM89.8242 47.082V64.7578H87.6367V47.082H89.8242ZM84.7656 48.6836V50.4805H78.4375V58.6641C81.7188 58.6543 83.75 58.5469 86.0742 58.0977L86.2891 59.9336C83.7402 60.4121 81.4844 60.5 77.7344 60.5H76.25V48.6836H84.7656ZM108.555 55.0898V56.7109H92.4219V55.0898H108.555ZM106.602 57.7852V61.8281H96.4844V63.0391H107.129V64.543H94.3164V60.4023H104.434V59.3086H94.2773V57.7852H106.602ZM106.543 47.4727V51.457H96.6211V52.5898H106.875V54.0938H94.4531V50.0312H104.375V48.9766H94.4336V47.4727H106.543ZM120.137 50.3242C120.137 52.2383 121.25 54.1621 123.555 55.0703L122.402 56.75C120.84 56.1348 119.756 55.0117 119.121 53.625C118.467 55.2168 117.305 56.5645 115.625 57.2773L114.473 55.5781C116.885 54.5137 118.018 52.3066 118.027 50.3242V48.1758H120.137V50.3242ZM129.727 47.1016V57.9219H127.637V53.3125H125.918V57.3555H123.848V47.4336H125.918V51.5352H127.637V47.1016H129.727ZM123.75 58.2148C127.451 58.2051 129.805 59.4258 129.805 61.457C129.805 63.5078 127.461 64.7188 123.75 64.7188C120.029 64.7188 117.695 63.5078 117.695 61.457C117.695 59.4258 120.039 58.2051 123.75 58.2148ZM123.75 59.875C121.318 59.875 119.883 60.4316 119.883 61.457C119.883 62.4922 121.299 63.0586 123.75 63.0586C126.201 63.0586 127.607 62.4922 127.617 61.457C127.607 60.4316 126.182 59.875 123.75 59.875ZM138.398 49.6016C138.389 52.0039 139.775 54.1914 142.5 55.0898L141.367 56.8086C139.492 56.1445 138.115 54.8848 137.344 53.1758C136.553 55.0898 135.088 56.584 132.949 57.3359L131.797 55.5586C134.668 54.6113 136.172 52.2773 136.172 49.6992V48.0391H138.398V49.6016ZM146.699 47.1016V57.4531H144.492V52.2773H141.016V50.4805H144.492V47.1016H146.699ZM140.742 57.9219C144.453 57.9316 146.768 59.1816 146.758 61.3203C146.768 63.4688 144.453 64.7188 140.742 64.7188C137.002 64.7188 134.697 63.4688 134.707 61.3203C134.697 59.1816 137.002 57.9316 140.742 57.9219ZM140.742 59.6406C138.271 59.6504 136.885 60.2266 136.895 61.3203C136.885 62.4238 138.291 63.0098 140.742 63C143.184 63.0098 144.58 62.4238 144.59 61.3203C144.58 60.2266 143.193 59.6504 140.742 59.6406ZM163.047 47.1016V54.0938H165.742V55.9297H163.047V64.7188H160.84V47.1016H163.047ZM159.512 49.7773V51.5352H149.102V49.7773H153.242V47.3555H155.449V49.7773H159.512ZM154.355 52.707C156.914 52.6973 158.799 54.416 158.789 56.8477C158.799 59.2793 156.914 60.998 154.355 60.9883C151.797 60.998 149.912 59.2793 149.922 56.8477C149.912 54.416 151.797 52.6973 154.355 52.707ZM154.355 54.5039C152.988 54.5039 152.012 55.4121 152.012 56.8477C152.012 58.2832 152.988 59.2012 154.355 59.1914C155.713 59.2012 156.699 58.2832 156.699 56.8477C156.699 55.4121 155.713 54.5039 154.355 54.5039ZM180.879 48.6836V50.3828C180.879 52.5801 180.879 55.0508 180.195 58.7422L178.008 58.4883C178.672 55.0605 178.682 52.5703 178.691 50.4609H168.145V48.6836H180.879ZM182.578 60.6758V62.4727H166.484V60.6758H172.383V54.543H174.59V60.6758H182.578ZM203.379 47.1016V56.8672H201.172V47.1016H203.379ZM195.234 49.4258C195.234 51.623 196.729 53.7324 199.531 54.5625L198.477 56.2812C196.426 55.6562 194.961 54.3477 194.16 52.668C193.35 54.4844 191.846 55.9102 189.727 56.5938L188.652 54.875C191.514 53.957 193.008 51.7109 193.008 49.4258V47.7266H195.234V49.4258ZM203.457 57.7656V59.5039H201.25V62.7656H203.652V64.5234H191.27V62.7656H193.672V59.5039H191.445V57.7656H203.457ZM195.82 62.7656H199.082V59.5039H195.82V62.7656ZM219.785 47.082V53.7617H222.5V55.5781H219.785V64.7578H217.578V47.082H219.785ZM214.941 48.7422V50.5195H208.848V58.625C211.621 58.6055 213.779 58.4688 216.191 58.0586L216.426 59.875C213.711 60.3633 211.367 60.4609 208.125 60.4609H206.66V48.7422H214.941ZM232.285 48.5469V49.9727H235.82V47.1016H238.027V59.9531H235.82V55.5391H232.285V57.043H224.004V48.5469H232.285ZM226.152 50.2852V55.3047H230.156V50.2852H226.152ZM238.418 62.6094V64.3867H226.367V58.7617H228.574V62.6094H238.418ZM232.285 53.7617H235.82V51.75H232.285V53.7617ZM244.141 58.332C244.15 54.2695 247.441 54.7773 247.441 52.6094C247.441 51.5059 246.592 50.8027 245.371 50.793C244.033 50.8027 243.223 51.6426 243.223 53.0195H240.742C240.752 50.3242 242.705 48.5859 245.469 48.5859C248.018 48.5859 250.02 50.041 250.02 52.5117C250.02 55.7246 246.621 55.3145 246.621 58.2539V58.6055H244.141V58.332ZM245.391 63.1953C244.463 63.1953 243.799 62.5508 243.809 61.6719C243.799 60.793 244.463 60.1484 245.391 60.1484C246.299 60.1484 246.963 60.793 246.973 61.6719C246.963 62.5508 246.299 63.1953 245.391 63.1953Z" fill="#1F1F1F"/>
<path d="M44.8125 80.0938C44.8125 82.4297 45.7891 84.7734 47.6875 85.8125L46.7969 86.9844C45.4844 86.2422 44.5938 84.9062 44.1094 83.2969C43.5859 85.0547 42.625 86.5391 41.2656 87.3594L40.3125 86.25C42.3203 85.0859 43.375 82.5859 43.375 80.2031V77.6094H44.8125V80.0938ZM52.5469 76.3281V90.3125H51.1094V83.125H49.4375V89.6406H48.0312V76.5938H49.4375V81.8906H51.1094V76.3281H52.5469ZM66.9806 87.4219V88.6406H54.1838V87.4219H59.8088V84.9531H55.7463V80.5H63.9494V78.5312H55.715V77.3281H65.4338V81.6875H57.215V83.75H65.7619V84.9531H61.2931V87.4219H66.9806ZM80.6331 83.3438V84.5469H75.1019V87.25H73.5863V84.5469H67.8363V83.3438H80.6331ZM79.2269 88.8125V90.0312H69.43V85.9062H70.93V88.8125H79.2269ZM74.2113 76.6406C77.2269 76.6484 79.2113 77.7422 79.2113 79.4844C79.2113 81.2422 77.2269 82.3281 74.2113 82.3281C71.2269 82.3281 69.2425 81.2422 69.2425 79.4844C69.2425 77.7422 71.2269 76.6484 74.2113 76.6406ZM74.2113 77.8594C72.1878 77.8516 70.8284 78.4609 70.8363 79.4844C70.8284 80.5156 72.1878 81.1172 74.2113 81.125C76.2738 81.1172 77.6175 80.5156 77.6175 79.4844C77.6175 78.4609 76.2738 77.8516 74.2113 77.8594ZM92.4538 78.2969C92.4538 80.5859 94.8678 82.7344 97.5319 83.2188L96.8756 84.4688C94.6334 83.9688 92.5788 82.5156 91.6725 80.5469C90.7428 82.5078 88.6959 83.9766 86.4538 84.4688L85.7975 83.2188C88.4616 82.7188 90.8678 80.5703 90.8756 78.2969V77.25H92.4538V78.2969ZM98.1256 87.25V88.5H85.3288V87.25H98.1256ZM110.669 76.3281V90.3438H109.184V82.7188H106.403V81.5H109.184V76.3281H110.669ZM106.169 77.5625V78.7969H101.122V81.4844H105.591V82.6875H101.122V85.8125C103.497 85.8047 105.098 85.75 106.966 85.4219L107.122 86.625C105.075 86.9766 103.27 87.0391 100.731 87.0469H99.6375V77.5625H106.169ZM124.259 76.3281V90.3438H122.759V76.3281H124.259ZM120.259 77.625V78.8594H115.04V85.6562C117.72 85.6484 119.415 85.5625 121.384 85.2031L121.524 86.4531C119.423 86.8359 117.595 86.9141 114.712 86.9219H113.556V77.625H120.259ZM139.114 82.7656V83.875H126.317V82.7656H139.114ZM137.536 84.875V87.9688H129.333V89.1094H137.974V90.1562H127.849V86.9688H136.083V85.9375H127.817V84.875H137.536ZM137.489 76.6875V79.7188H129.427V80.7812H137.755V81.8281H127.958V78.7188H136.021V77.7344H127.927V76.6875H137.489ZM150.888 77.5469V84.125H144.341V77.5469H150.888ZM145.794 78.7656V82.9062H149.435V78.7656H145.794ZM154.794 76.3281V80.5156H156.826V81.7656H154.794V86.5625H153.31V76.3281H154.794ZM155.404 88.8125V90.0312H145.935V85.5938H147.419V88.8125H155.404ZM170.244 82.0469V83.25H157.478V82.0469H170.244ZM168.728 79.8281V81.0312H159.134V76.7344H168.588V77.9375H160.619V79.8281H168.728ZM168.619 84.3438V87.75H160.494V89H169.025V90.1719H159.025V86.6719H167.15V85.5H158.978V84.3438H168.619ZM174.928 77.375C176.842 77.375 178.24 78.9922 178.459 81.5781H181.334V76.3281H182.818V90.3438H181.334V82.7812H178.459C178.31 85.4922 176.888 87.2031 174.928 87.2031C172.865 87.2031 171.388 85.2812 171.381 82.2812C171.388 79.2891 172.865 77.375 174.928 77.375ZM174.928 78.7188C173.67 78.7188 172.803 80.0859 172.803 82.2812C172.803 84.5 173.67 85.8672 174.928 85.8594C176.201 85.8672 177.068 84.5 177.068 82.2812C177.068 80.0859 176.201 78.7188 174.928 78.7188ZM196.154 77.1719V78.3594H190.904V79.8906H195.764V81.0781H190.904V82.6875C193.67 82.6797 195.342 82.625 197.248 82.3125L197.404 83.4844C195.373 83.8359 193.6 83.8828 190.576 83.875H189.42V77.1719H196.154ZM200.232 76.3438V84.6719H198.732V76.3438H200.232ZM200.232 85.3281V90.1406H191.045V85.3281H200.232ZM192.514 86.5156V88.9531H198.764V86.5156H192.514ZM207.182 78.8906C207.174 80.6641 208.416 82.2891 210.541 82.9688L209.822 84.1406C208.229 83.625 207.072 82.5859 206.463 81.25C205.846 82.7891 204.619 84 202.932 84.5781L202.182 83.4062C204.369 82.6562 205.674 80.8438 205.682 78.9062V78.5469H202.619V77.3281H210.197V78.5469H207.182V78.8906ZM213.276 76.3281V79.7812H215.307V81.0156H213.276V84.7344H211.791V76.3281H213.276ZM208.76 85.0625C211.643 85.0625 213.424 86.0234 213.432 87.6719C213.424 89.3281 211.651 90.3047 208.76 90.2969C205.862 90.3047 204.072 89.3281 204.072 87.6719C204.072 86.0234 205.869 85.0625 208.76 85.0625ZM208.76 86.25C206.744 86.25 205.549 86.75 205.541 87.6719C205.549 88.6094 206.737 89.1328 208.76 89.125C210.776 89.1328 211.963 88.6094 211.963 87.6719C211.963 86.75 210.768 86.25 208.76 86.25ZM227.553 76.3281V90.3438H226.053V76.3281H227.553ZM220.053 77.375C222.163 77.375 223.678 79.2891 223.678 82.2812C223.678 85.2812 222.163 87.2031 220.053 87.2031C217.959 87.2031 216.436 85.2812 216.444 82.2812C216.436 79.2891 217.959 77.375 220.053 77.375ZM220.053 78.7188C218.764 78.7188 217.873 80.0859 217.881 82.2812C217.873 84.5 218.764 85.8672 220.053 85.8594C221.35 85.8672 222.241 84.5 222.241 82.2812C222.241 80.0859 221.35 78.7188 220.053 78.7188ZM241.764 82.25V83.4531H238.827V86.0625C240.124 86.0078 241.421 85.9219 242.639 85.7812L242.749 86.875C239.678 87.3359 236.382 87.3984 233.702 87.3906L233.499 86.1562C234.686 86.1562 235.999 86.1484 237.342 86.1094V83.4531H234.499V77.625H241.702V78.8281H235.999V82.25H241.764ZM244.999 76.3281V90.3438H243.514V76.3281H244.999ZM250.886 77.375C252.8 77.375 254.198 78.9922 254.417 81.5781H257.292V76.3281H258.776V90.3438H257.292V82.7812H254.417C254.268 85.4922 252.847 87.2031 250.886 87.2031C248.823 87.2031 247.347 85.2812 247.339 82.2812C247.347 79.2891 248.823 77.375 250.886 77.375ZM250.886 78.7188C249.628 78.7188 248.761 80.0859 248.761 82.2812C248.761 84.5 249.628 85.8672 250.886 85.8594C252.159 85.8672 253.026 84.5 253.026 82.2812C253.026 80.0859 252.159 78.7188 250.886 78.7188ZM273.569 87.3594V88.5938H260.773V87.3594H266.398V84.4844H262.226V77.2812H263.71V79.6719H270.585V77.2812H272.069V84.4844H267.882V87.3594H273.569ZM263.71 83.2656H270.585V80.8906H263.71V83.2656ZM278.706 80.125C278.706 82.375 279.636 84.75 281.519 85.9062L280.675 87.0625C279.378 86.2734 278.495 84.875 278.019 83.25C277.488 85.1016 276.488 86.5703 275.159 87.375L274.238 86.25C276.222 85.0859 277.269 82.5859 277.269 80.2031V77.6094H278.706V80.125ZM286.472 76.3281V90.3125H285.034V76.3281H286.472ZM283.581 76.5938V89.6406H282.175V82.4844H280.003V81.25H282.175V76.5938H283.581ZM300.906 87.3438V88.5781H288.109V87.3438H291.156V83.6875C290.007 83.0547 289.304 82.0469 289.312 80.7969C289.304 78.5859 291.484 77.1562 294.468 77.1562C297.492 77.1562 299.656 78.5859 299.656 80.7969C299.656 82.0391 298.968 83.0391 297.827 83.6719V87.3438H300.906ZM294.468 78.3281C292.304 78.3281 290.757 79.2891 290.765 80.7969C290.757 82.3047 292.304 83.2656 294.468 83.2656C296.663 83.2656 298.195 82.3047 298.202 80.7969C298.195 79.2891 296.663 78.3281 294.468 78.3281ZM292.64 87.3438H296.343V84.2344C295.773 84.3672 295.14 84.4375 294.468 84.4375C293.812 84.4375 293.202 84.3672 292.64 84.2344V87.3438Z" fill="#8E95A2"/>
<g clip-path="url(#clip0_4230_14903)">
<path d="M192.509 185.443C204.941 185.443 215.019 175.27 215.019 162.721C215.019 150.173 204.941 140 192.509 140C180.078 140 170 150.173 170 162.721C170 175.27 180.078 185.443 192.509 185.443Z" fill="#353C49"/>
<path d="M213.441 206.16L201.417 175.197C198.243 167.011 186.775 167.011 183.602 175.197L171.577 206.16C170.854 208.014 172.208 210 174.175 210H210.843C212.81 210 214.165 207.996 213.441 206.16Z" fill="#353C49"/>
<path d="M209.155 165.194C208.134 165.194 207.299 164.332 207.318 163.302C207.373 155.435 203.922 150.864 196.74 149.328C195.738 149.122 195.089 148.13 195.311 147.118C195.515 146.107 196.499 145.451 197.501 145.676C206.427 147.568 211.103 153.674 211.029 163.34C211.029 164.37 210.194 165.194 209.173 165.194H209.155Z" fill="white"/>
</g>
<g opacity="0.85" clip-path="url(#clip1_4230_14903)">
<path d="M146.008 203.951C157.058 203.951 166.016 195.232 166.016 184.476C166.016 173.719 157.058 165 146.008 165C134.958 165 126 173.719 126 184.476C126 195.232 134.958 203.951 146.008 203.951Z" fill="#595F72"/>
<path d="M164.615 221.708L153.926 195.168C151.105 188.152 140.911 188.152 138.091 195.168L127.402 221.708C126.759 223.298 127.963 225 129.711 225H162.305C164.054 225 165.258 223.282 164.615 221.708Z" fill="#595F72"/>
<path d="M160.804 186.595C159.897 186.595 159.155 185.856 159.171 184.973C159.221 178.23 156.152 174.312 149.769 172.996C148.878 172.819 148.301 171.968 148.499 171.101C148.68 170.234 149.555 169.672 150.445 169.865C158.379 171.486 162.536 176.721 162.47 185.005C162.47 185.888 161.728 186.595 160.821 186.595H160.804Z" fill="white"/>
</g>
<g opacity="0.85" clip-path="url(#clip2_4230_14903)">
<path d="M239.008 203.951C250.058 203.951 259.016 195.232 259.016 184.476C259.016 173.719 250.058 165 239.008 165C227.958 165 219 173.719 219 184.476C219 195.232 227.958 203.951 239.008 203.951Z" fill="#595F72"/>
<path d="M257.615 221.708L246.926 195.168C244.105 188.152 233.911 188.152 231.091 195.168L220.402 221.708C219.759 223.298 220.963 225 222.711 225H255.305C257.054 225 258.258 223.282 257.615 221.708Z" fill="#595F72"/>
<path d="M253.804 186.595C252.897 186.595 252.155 185.856 252.171 184.973C252.221 178.23 249.152 174.312 242.769 172.996C241.878 172.819 241.301 171.968 241.499 171.101C241.68 170.234 242.555 169.672 243.445 169.865C251.379 171.486 255.536 176.721 255.47 185.005C255.47 185.888 254.728 186.595 253.821 186.595H253.804Z" fill="white"/>
</g>
<path d="M181.703 125.902H181.773C181.773 125.902 184.032 130.678 184.032 135.32H201.468C201.468 130.678 203.728 125.902 203.728 125.902H203.797C204.736 125.902 205.5 125.162 205.5 124.254C205.5 123.346 204.736 122.606 203.797 122.606C202.859 122.606 202.094 123.346 202.094 124.254C202.094 124.433 202.117 124.601 202.175 124.758L198.085 127.079L193.683 120.016C194.135 119.724 194.447 119.22 194.447 118.648C194.447 117.74 193.683 117 192.744 117C191.806 117 191.041 117.74 191.041 118.648C191.041 119.22 191.342 119.724 191.806 120.016L187.403 127.079L183.314 124.758C183.36 124.601 183.395 124.433 183.395 124.254C183.395 123.346 182.63 122.606 181.692 122.606C180.765 122.617 180 123.346 180 124.254C180 125.162 180.765 125.902 181.703 125.902Z" fill="#FFC700"/>
<path d="M200.844 137.784H184.645C184.322 137.784 184.068 137.55 184.068 137.251V136.154H201.432V137.251C201.421 137.539 201.167 137.784 200.844 137.784Z" fill="#FFC700"/>
<defs>
<filter id="filter0_d_4230_14903" x="0" y="0" width="393" height="343" filterUnits="userSpaceOnUse" color-interpolation-filters="sRGB">
<feFlood flood-opacity="0" result="BackgroundImageFix"/>
<feColorMatrix in="SourceAlpha" type="matrix" values="0 0 0 0 0 0 0 0 0 0 0 0 0 0 0 0 0 0 127 0" result="hardAlpha"/>
<feOffset/>
<feGaussianBlur stdDeviation="10"/>
<feComposite in2="hardAlpha" operator="out"/>
<feColorMatrix type="matrix" values="0 0 0 0 0 0 0 0 0 0 0 0 0 0 0 0 0 0 0.05 0"/>
<feBlend mode="normal" in2="BackgroundImageFix" result="effect1_dropShadow_4230_14903"/>
<feBlend mode="normal" in="SourceGraphic" in2="effect1_dropShadow_4230_14903" result="shape"/>
</filter>
<clipPath id="clip0_4230_14903">
<rect width="45" height="70" fill="white" transform="translate(170 140)"/>
</clipPath>
<clipPath id="clip1_4230_14903">
<rect width="40" height="60" fill="white" transform="translate(126 165)"/>
</clipPath>
<clipPath id="clip2_4230_14903">
<rect width="40" height="60" fill="white" transform="translate(219 165)"/>
</clipPath>
</defs>
</svg>
