<svg width="393" height="393" viewBox="0 0 393 393" fill="none" xmlns="http://www.w3.org/2000/svg">
<g clip-path="url(#clip0_2394_7934)">
<path d="M273.412 346.194C384.014 346.194 473.674 303.16 473.674 250.074C473.674 196.989 384.014 153.955 273.412 153.955C162.811 153.955 73.1501 196.989 73.1501 250.074C73.1501 303.16 162.811 346.194 273.412 346.194Z" fill="#595F72"/>
<path d="M271.514 332.935C382.116 332.935 471.776 290.325 471.776 237.763C471.776 185.201 382.116 142.591 271.514 142.591C160.912 142.591 71.252 185.201 71.252 237.763C71.252 290.325 160.912 332.935 271.514 332.935Z" fill="#F4F6F8"/>
<path d="M439.728 141.707C439.573 141.707 439.418 141.683 439.252 141.633L277.099 95.3603C276.083 95.076 275.464 93.9139 275.718 92.7642C275.972 91.6145 277.022 90.9345 278.038 91.2189L440.192 137.492C441.208 137.776 441.827 138.938 441.573 140.088C441.352 141.052 440.578 141.695 439.728 141.695V141.707Z" fill="#A4ADBC"/>
<path d="M439.208 159.076C439.053 159.076 438.899 159.052 438.733 159.002L276.58 112.729C275.563 112.445 274.945 111.283 275.199 110.133C275.453 108.984 276.491 108.304 277.519 108.588L439.672 154.861C440.689 155.145 441.307 156.307 441.053 157.457C440.832 158.421 440.059 159.064 439.208 159.064V159.076Z" fill="#A4ADBC"/>
<path d="M438.678 176.926C438.524 176.926 438.369 176.901 438.203 176.852L276.05 130.579C275.033 130.295 274.415 129.133 274.669 127.983C274.923 126.833 275.962 126.153 276.989 126.438L439.142 172.71C440.159 172.995 440.778 174.157 440.523 175.307C440.302 176.271 439.529 176.914 438.678 176.914V176.926Z" fill="#A4ADBC"/>
<path d="M113.852 141.94C113.001 141.94 112.228 141.297 112.007 140.333C111.753 139.184 112.36 138.034 113.388 137.737L275.53 91.4767C276.546 91.1923 277.585 91.8723 277.85 93.022C278.115 94.1717 277.497 95.3214 276.469 95.6181L114.316 141.879C114.161 141.916 114.007 141.953 113.841 141.953L113.852 141.94Z" fill="#8E95A2"/>
<path d="M114.371 159.311C113.521 159.311 112.747 158.669 112.526 157.704C112.272 156.555 112.88 155.405 113.907 155.108L276.049 108.848C277.077 108.563 278.105 109.243 278.37 110.393C278.624 111.543 278.005 112.693 276.989 112.989L114.835 159.25C114.681 159.287 114.526 159.324 114.36 159.324L114.371 159.311Z" fill="#8E95A2"/>
<path d="M114.891 177.175C114.04 177.175 113.267 176.533 113.046 175.568C112.792 174.419 113.4 173.269 114.427 172.972L276.58 126.699C277.597 126.415 278.635 127.095 278.9 128.245C279.155 129.394 278.547 130.544 277.519 130.841L115.366 177.114C115.212 177.151 115.057 177.188 114.891 177.188V177.175Z" fill="#8E95A2"/>
<path d="M276.006 136.786L116.383 184.814V192.986L276.006 241.36L435.628 192.986V184.814L276.006 136.786Z" fill="#C4CAD4"/>
<path d="M276.005 194.198C275.177 194.198 274.414 193.58 274.171 192.64C273.884 191.503 274.48 190.328 275.486 190.007L436.214 139.197C437.23 138.876 438.28 139.543 438.556 140.668C438.843 141.805 438.247 142.98 437.241 143.301L276.513 194.111C276.337 194.161 276.16 194.185 275.994 194.185L276.005 194.198Z" fill="#595F72"/>
<path d="M276.005 211.951C275.177 211.951 274.414 211.333 274.171 210.393C273.884 209.256 274.48 208.081 275.486 207.76L436.214 156.95C437.23 156.629 438.28 157.296 438.556 158.421C438.843 159.558 438.247 160.733 437.241 161.054L276.513 211.864C276.337 211.914 276.16 211.938 275.994 211.938L276.005 211.951Z" fill="#595F72"/>
<path d="M276.005 229.914C275.177 229.914 274.414 229.295 274.171 228.356C273.884 227.219 274.48 226.044 275.486 225.723L436.214 174.913C437.23 174.591 438.28 175.259 438.556 176.384C438.843 177.521 438.247 178.696 437.241 179.017L276.513 229.827C276.337 229.876 276.16 229.901 275.994 229.901L276.005 229.914Z" fill="#595F72"/>
<path d="M281.508 182.489V238.294L435.142 191.44V131.296C435.142 123.459 447.252 123.459 447.252 131.296V236.254C447.252 240.395 444.843 244.055 441.297 245.278L278.48 301.565C276.856 302.121 275.122 302.121 273.497 301.565L110.703 245.291C107.168 244.067 104.748 240.408 104.748 236.266V131.309C104.748 123.471 116.858 123.471 116.858 131.309V191.452L270.492 238.306V182.502C270.492 174.627 281.508 174.627 281.508 182.502V182.489Z" fill="#A4ADBC"/>
<path d="M270.238 192.504C270.061 192.504 269.895 192.479 269.719 192.429L108.991 141.62C107.974 141.298 107.389 140.111 107.676 138.986C107.963 137.849 109.013 137.194 110.018 137.515L270.746 188.325C271.763 188.647 272.348 189.833 272.061 190.958C271.829 191.898 271.067 192.516 270.227 192.516L270.238 192.504Z" fill="#A4ADBC"/>
<path d="M270.238 210.255C270.061 210.255 269.895 210.23 269.719 210.18L108.991 159.371C107.974 159.049 107.389 157.862 107.676 156.737C107.963 155.6 109.013 154.945 110.018 155.266L270.746 206.076C271.763 206.398 272.348 207.584 272.061 208.709C271.829 209.649 271.067 210.267 270.227 210.267L270.238 210.255Z" fill="#A4ADBC"/>
<path d="M270.238 228.232C270.061 228.232 269.895 228.207 269.719 228.158L108.991 177.335C107.974 177.014 107.389 175.827 107.676 174.702C107.963 173.565 109.013 172.91 110.018 173.231L270.746 224.041C271.763 224.362 272.348 225.537 272.061 226.674C271.829 227.614 271.067 228.232 270.227 228.232H270.238Z" fill="#A4ADBC"/>
<mask id="mask0_2394_7934" style="mask-type:luminance" maskUnits="userSpaceOnUse" x="276" y="111" width="202" height="249">
<path d="M477.471 111.246H276.006V359.287H477.471V111.246Z" fill="white"/>
</mask>
<g mask="url(#mask0_2394_7934)">
<path d="M281.508 182.492V238.297L435.143 191.443V131.299C435.143 123.461 447.252 123.461 447.252 131.299V236.257C447.252 240.398 444.843 244.058 441.297 245.281L278.481 301.568C276.856 302.124 275.122 302.124 273.498 301.568L110.704 245.294C107.168 244.07 104.748 240.411 104.748 236.269V131.312C104.748 123.474 116.858 123.474 116.858 131.312V191.455L270.492 238.309V182.505C270.492 174.63 281.508 174.63 281.508 182.505V182.492Z" fill="#595F72"/>
</g>
<path d="M270.238 137.527C270.238 142.51 281.784 142.51 281.784 137.527V86.9031C281.784 80.8826 270.238 80.8826 270.238 86.9031V137.515V137.527Z" fill="#A4ADBC"/>
</g>
<defs>
<clipPath id="clip0_2394_7934">
<rect width="393" height="393" fill="white"/>
</clipPath>
</defs>
</svg>
