<svg width="275" height="63" viewBox="0 0 275 63" fill="none" xmlns="http://www.w3.org/2000/svg">
<path d="M46.9807 16.1641C52.3264 16.1641 55.758 17.9141 55.758 20.7852C55.758 23.6562 52.3264 25.4062 46.9807 25.4062C41.635 25.4062 38.2034 23.6562 38.2034 20.7852C38.2034 17.9141 41.635 16.1641 46.9807 16.1641ZM46.9807 18.4883C43.3987 18.502 41.2659 19.3223 41.2659 20.7852C41.2659 22.248 43.4123 23.0684 46.9807 23.0547C50.5491 23.0684 52.7092 22.248 52.7229 20.7852C52.7092 19.3223 50.5764 18.502 46.9807 18.4883ZM55.594 1.86328V3.91406C55.5803 5.88281 55.5803 7.96094 54.9104 10.5039L51.8752 10.1758C52.5041 7.83789 52.5452 6.10156 52.5315 4.32422H38.4495V1.86328H55.594ZM58.3284 11.8984V14.3594H35.8791V11.8984H44.5471V7.44141H47.6096V11.8984H58.3284ZM82.3296 14.5781V17.0664H76.8335V25.4062H73.7163V17.0664H68.2476V25.4062H65.1031V17.0664H59.7437V14.5781H82.3296ZM70.982 1.61719C76.2593 1.61719 79.8687 3.75 79.8687 7.08594C79.8687 10.4219 76.2456 12.5547 70.982 12.5547C65.7183 12.5547 62.0952 10.4219 62.0952 7.08594C62.0952 3.75 65.7183 1.61719 70.982 1.61719ZM70.982 4.05078C67.4956 4.06445 65.2534 5.18555 65.2398 7.08594C65.2534 8.98633 67.5093 10.0801 70.982 10.0938C74.4409 10.0801 76.7105 8.98633 76.7241 7.08594C76.7105 5.18555 74.4546 4.06445 70.982 4.05078ZM101.266 2.10938C101.252 8.125 98.3536 12.2812 91.7227 14.7148L90.3829 12.5547C93.2813 11.5293 95.2911 10.2031 96.5626 8.5625L90.8204 9.19141L90.4376 6.78516L97.793 6.375C97.9981 5.78711 98.1485 5.1582 98.2305 4.51562H91.504V2.10938H101.266ZM111.41 0.742188V13.5117H108.484V8.50781H105.914V13.3477H103.043V1.17969H105.914V6.01953H108.484V0.742188H111.41ZM111.41 14.5234V20.8125H97.7384V22.7539H112.258V25.1328H94.7032V18.5977H108.402V16.875H94.6759V14.5234H111.41ZM134.755 0.742188V18.9258H131.693V0.742188H134.755ZM135.411 22.4531V24.9414H118.267V17.4492H121.329V22.4531H135.411ZM126.826 2.38281V10.0117H118.486V13.1562C123.025 13.1562 125.937 13.0195 129.314 12.3906L129.615 14.8516C125.978 15.5215 122.82 15.6582 117.583 15.6445H115.478V7.71484H123.79V4.87109H115.423V2.38281H126.826ZM150.608 2.95703V5.44531H142.378V16.9023C146.274 16.8887 148.981 16.7383 152.03 16.1914L152.331 18.6797C148.885 19.3223 145.932 19.459 141.256 19.4453H139.315V2.95703H150.608ZM158.866 0.714844V25.4609H155.776V11.9258H149.296V9.38281H155.776V0.714844H158.866ZM184.398 12.2266V13.8672H162.168V12.2266H184.398ZM181.609 15.8633V21.0312H167.008V23.3281H182.402V24.8867H164.902V19.5273H179.504V17.4219H164.848V15.8633H181.609ZM181.527 1.64453V6.67578H167.172V8.80859H181.992V10.3672H165.039V5.17188H179.422V3.20312H165.012V1.64453H181.527ZM214.983 13.7852V15.5625H192.807V13.7852H202.815V11.3789H195.76V1.61719H212.221V3.33984H197.893V5.60938H211.592V7.25H197.893V9.68359H212.358V11.3789H204.948V13.7852H214.983ZM203.881 17.3945C209.227 17.4082 212.262 18.748 212.276 21.2773C212.262 23.8066 209.227 25.1602 203.881 25.1602C198.536 25.1602 195.487 23.8066 195.487 21.2773C195.487 18.748 198.536 17.4082 203.881 17.3945ZM203.881 19.0078C199.903 19.0215 197.661 19.8418 197.674 21.2773C197.661 22.7539 199.889 23.5195 203.881 23.5195C207.874 23.5195 210.116 22.7539 210.116 21.2773C210.116 19.8418 207.86 19.0215 203.881 19.0078ZM228.894 5.08984V6.86719H216.699V5.08984H221.758V1.61719H223.89V5.08984H228.894ZM222.797 8.50781C225.859 8.52148 228.06 10.8047 228.074 14.0312C228.06 17.2988 225.859 19.5684 222.797 19.5547C219.761 19.5684 217.56 17.2988 217.574 14.0312C217.56 10.8047 219.761 8.52148 222.797 8.50781ZM222.797 10.3398C220.869 10.3398 219.488 11.8848 219.488 14.0312C219.488 16.2188 220.869 17.75 222.797 17.75C224.738 17.75 226.146 16.2188 226.16 14.0312C226.146 11.8848 224.738 10.3398 222.797 10.3398ZM237.48 0.933594V25.2148H235.429V12.9375H232.176V24.0117H230.152V1.45312H232.176V11.1602H235.429V0.933594H237.48ZM12.2093 41.4883C12.1956 45.6582 16.9534 49.3496 21.1507 50.1289L20.1663 51.9336C16.5159 51.0859 12.6605 48.502 11.0882 44.9336C9.48859 48.4883 5.64679 51.0996 1.98273 51.9336L1.0257 50.1289C5.20929 49.3223 9.93976 45.6445 9.93976 41.4883V39.6016H12.2093V41.4883ZM22.2991 57.1289V58.9336H0.0686646V57.1289H22.2991ZM44.1402 37.9062V62.2422H42.0074V48.8711H36.8394V47.0938H42.0074V37.9062H44.1402ZM36.4566 40.1211V41.9258H27.2691V46.957H35.3629V48.707H27.2691V54.5859C31.7809 54.5996 34.5973 54.4902 37.9605 53.875L38.1793 55.625C34.6519 56.2539 31.6031 56.3906 26.9684 56.3906H25.1363V40.1211H36.4566ZM67.9227 37.9336V62.2422H65.7899V37.9336H67.9227ZM61.0321 40.2305V42.0352H51.6259V54.3672C56.411 54.3809 59.4872 54.2168 63.1376 53.5469L63.3563 55.3516C59.5419 56.0625 56.3153 56.2129 51.4618 56.1992H49.493V40.2305H61.0321ZM85.4369 38.8086C89.0737 38.8223 91.726 41.0371 91.726 44.1953C91.726 47.3672 89.0737 49.5684 85.4369 49.5547C81.7729 49.5684 79.0932 47.3672 79.0932 44.1953C79.0932 41.0371 81.7729 38.8223 85.4369 38.8086ZM85.4369 40.5859C83.0033 40.5996 81.1987 42.0898 81.1987 44.1953C81.1987 46.3281 83.017 47.791 85.4369 47.7773C87.8295 47.791 89.6479 46.3281 89.6479 44.1953C89.6479 42.0898 87.8432 40.5996 85.4369 40.5859ZM98.6166 37.9336V50.375H96.4565V37.9336H98.6166ZM98.6166 51.5781V57.4297H84.9721V60.1367H99.4643V61.8867H82.8666V55.8164H96.4838V53.3008H82.8119V51.5781H98.6166ZM122.618 37.9336V52.3984H120.43V46.0273H115.536V44.2227H120.43V37.9336H122.618ZM114.551 53.1367C119.583 53.1504 122.7 54.832 122.7 57.6758C122.7 60.5332 119.583 62.1875 114.551 62.1875C109.493 62.1875 106.389 60.5332 106.403 57.6758C106.389 54.832 109.493 53.1504 114.551 53.1367ZM114.551 54.832C110.805 54.8457 108.522 55.8984 108.536 57.6758C108.522 59.4395 110.805 60.5059 114.551 60.4922C118.284 60.5059 120.567 59.4395 120.567 57.6758C120.567 55.8984 118.27 54.8457 114.551 54.832ZM110.915 42.3359C110.901 45.4941 113.348 48.543 116.903 49.7734L115.782 51.4688C113.048 50.4844 110.942 48.4609 109.903 45.9453C108.837 48.8027 106.581 51.0586 103.669 52.1523L102.575 50.4297C106.171 49.1309 108.755 45.8633 108.755 42.3633V41.4883H103.259V39.7109H116.329V41.4883H110.915V42.3359ZM137.432 38.3438C142.832 38.3438 146.045 39.8477 146.045 42.5547C146.045 45.2617 142.832 46.7793 137.432 46.7656C132.045 46.7793 128.832 45.2617 128.846 42.5547C128.832 39.8477 132.045 38.3438 137.432 38.3438ZM137.432 39.9844C133.398 39.9844 131.047 40.9277 131.061 42.5547C131.047 44.1953 133.398 45.1387 137.432 45.125C141.479 45.1387 143.83 44.1953 143.83 42.5547C143.83 40.9277 141.479 39.9844 137.432 39.9844ZM148.533 48.4336V50.1562H126.385V48.4336H148.533ZM145.689 52.2891V57.7031H131.252V60.2461H146.4V61.9141H129.119V56.1172H143.557V53.9297H129.064V52.2891H145.689ZM175.973 37.9609V45.2891H179.61V47.0938H175.973V54.2031H173.84V37.9609H175.973ZM156.915 51.7148C158.87 51.7148 161.139 51.7285 163.504 51.6602V49.8555C160.647 49.6094 158.842 48.3105 158.856 46.3281C158.842 44.0996 161.098 42.7188 164.544 42.7188C167.989 42.7188 170.245 44.0996 170.258 46.3281C170.245 48.2969 168.454 49.5957 165.637 49.8555V51.5781C167.907 51.4824 170.204 51.291 172.336 50.9766L172.501 52.5078C167.237 53.4648 161.454 53.4785 157.161 53.4922L156.915 51.7148ZM175.973 55.4336V62.2148H173.84V57.1836H159.922V55.4336H175.973ZM171.598 40.1484V41.7891H157.489V40.1484H163.504V37.7148H165.637V40.1484H171.598ZM164.544 44.2227C162.315 44.2363 160.893 45.0293 160.907 46.3281C160.893 47.5859 162.329 48.4336 164.544 48.4336C166.772 48.4336 168.194 47.5859 168.208 46.3281C168.194 45.0293 166.772 44.2363 164.544 44.2227ZM201.014 37.9609V55.6797H198.853V37.9609H201.014ZM201.779 59.8906V61.668H185.318V53.875H187.451V59.8906H201.779ZM187.889 39.6289C191.512 39.6426 194.26 42.1172 194.26 45.5898C194.26 49.1035 191.512 51.5918 187.889 51.5781C184.224 51.5918 181.49 49.1035 181.49 45.5898C181.49 42.1172 184.224 39.6426 187.889 39.6289ZM187.889 41.4883C185.441 41.502 183.596 43.2109 183.596 45.5898C183.596 47.9961 185.441 49.6777 187.889 49.6641C190.322 49.6777 192.168 47.9961 192.181 45.5898C192.168 43.2109 190.322 41.502 187.889 41.4883ZM223.702 37.9336V47.9141H227.722V49.7461H223.702V62.2148H221.542V37.9336H223.702ZM219.191 41.8164V43.5938H204.726V41.8164H210.96V38.207H213.12V41.8164H219.191ZM212.081 45.6172C215.513 45.6309 218.015 47.9277 218.015 51.1953C218.015 54.4766 215.513 56.7734 212.081 56.7734C208.622 56.7734 206.107 54.4766 206.12 51.1953C206.107 47.9277 208.622 45.6309 212.081 45.6172ZM212.081 47.4219C209.798 47.4355 208.171 48.9941 208.171 51.1953C208.171 53.4102 209.798 54.9688 212.081 54.9688C214.31 54.9688 215.964 53.4102 215.964 51.1953C215.964 48.9941 214.31 47.4355 212.081 47.4219ZM236 44.7969C235.987 48.6797 237.887 52.8359 241.114 54.75L239.856 56.418C237.532 55.0234 235.864 52.4258 235.016 49.4727C234.1 52.8086 232.241 55.5293 229.875 56.9648L228.508 55.3242C231.858 53.3965 233.922 49.0488 233.922 44.8789V40.2031H236V44.7969ZM249.59 37.9336V62.2148H247.512V37.9336H249.59ZM244.586 38.4258V60.9844H242.536V48.4336H238.434V46.6289H242.536V38.4258H244.586ZM274.931 57.293V59.0977H252.701V57.293H258.17V50.7031C256.119 49.6367 254.861 47.8867 254.861 45.6992C254.861 41.9258 258.593 39.4785 263.748 39.4648C268.957 39.4785 272.648 41.9258 272.662 45.6992C272.648 47.8867 271.418 49.623 269.381 50.7031V57.293H274.931ZM263.748 41.1875C259.797 41.1875 256.939 42.9785 256.939 45.6992C256.939 48.4336 259.797 50.2246 263.748 50.2109C267.726 50.2246 270.57 48.4336 270.584 45.6992C270.57 42.9785 267.726 41.1875 263.748 41.1875ZM260.302 57.293H267.248V51.4961C266.195 51.7832 265.019 51.9336 263.748 51.9336C262.504 51.9336 261.341 51.7969 260.302 51.5234V57.293Z" fill="black"/>
</svg>
