<svg width="54" height="54" viewBox="0 0 54 54" fill="none" xmlns="http://www.w3.org/2000/svg">
<path d="M12.99 2.34082H3.4C2.07452 2.34082 1 3.41534 1 4.74082V49.2408C1 50.5663 2.07452 51.6408 3.4 51.6408H12.99C14.3155 51.6408 15.39 50.5663 15.39 49.2408V4.74082C15.39 3.41534 14.3155 2.34082 12.99 2.34082Z" fill="#A4ADBC"/>
<path d="M27.5601 9.3916H17.6101C16.3841 9.3916 15.3901 10.3855 15.3901 11.6116V49.4316C15.3901 50.6577 16.3841 51.6516 17.6101 51.6516H27.5601C28.7862 51.6516 29.7801 50.6577 29.7801 49.4316V11.6116C29.7801 10.3855 28.7862 9.3916 27.5601 9.3916Z" fill="#C4CAD4"/>
<path d="M39.9936 2.55095L30.6078 4.79387C29.3348 5.0981 28.5494 6.37675 28.8536 7.64982L38.9293 49.8126C39.2335 51.0857 40.5122 51.8711 41.7852 51.5669L51.171 49.324C52.444 49.0197 53.2294 47.7411 52.9252 46.468L42.8495 4.3052C42.5453 3.03213 41.2666 2.24673 39.9936 2.55095Z" fill="#FF3030"/>
<path d="M6.13003 9.00117C6.13003 8.42127 5.65993 7.95117 5.08003 7.95117C4.50013 7.95117 4.03003 8.42127 4.03003 9.00117V38.2212C4.03003 38.8011 4.50013 39.2712 5.08003 39.2712C5.65993 39.2712 6.13003 38.8011 6.13003 38.2212V9.00117Z" fill="white"/>
<path d="M26.2299 17.8508C26.2299 17.2709 25.7598 16.8008 25.1799 16.8008C24.6 16.8008 24.1299 17.2709 24.1299 17.8508V41.5708C24.1299 42.1507 24.6 42.6208 25.1799 42.6208C25.7598 42.6208 26.2299 42.1507 26.2299 41.5708V17.8508Z" fill="white"/>
<path d="M37.5282 17.9296C37.3935 17.3656 36.827 17.0177 36.2629 17.1524C35.6989 17.2872 35.351 17.8537 35.4857 18.4177L40.9989 41.4881C41.1337 42.0521 41.7002 42.4001 42.2642 42.2653C42.8282 42.1305 43.1762 41.5641 43.0414 41L37.5282 17.9296Z" fill="white"/>
<path d="M10.6698 9.00117C10.6698 8.42127 10.1997 7.95117 9.61982 7.95117C9.03992 7.95117 8.56982 8.42127 8.56982 9.00117V25.2212C8.56982 25.8011 9.03992 26.2712 9.61982 26.2712C10.1997 26.2712 10.6698 25.8011 10.6698 25.2212V9.00117Z" fill="white"/>
</svg>
