<svg width="54" height="54" viewBox="0 0 54 54" fill="none" xmlns="http://www.w3.org/2000/svg">
<path d="M12.99 2.34131H3.4C2.07452 2.34131 1 3.41583 1 4.74131V49.2413C1 50.5668 2.07452 51.6413 3.4 51.6413H12.99C14.3155 51.6413 15.39 50.5668 15.39 49.2413V4.74131C15.39 3.41583 14.3155 2.34131 12.99 2.34131Z" fill="#353C49"/>
<path d="M27.5601 9.39136H17.6101C16.3841 9.39136 15.3901 10.3853 15.3901 11.6114V49.4314C15.3901 50.6574 16.3841 51.6514 17.6101 51.6514H27.5601C28.7862 51.6514 29.7801 50.6574 29.7801 49.4314V11.6114C29.7801 10.3853 28.7862 9.39136 27.5601 9.39136Z" fill="#595F72"/>
<path d="M39.9936 2.55095L30.6078 4.79387C29.3348 5.0981 28.5494 6.37675 28.8536 7.64982L38.9293 49.8126C39.2335 51.0857 40.5122 51.8711 41.7852 51.5669L51.171 49.324C52.444 49.0197 53.2294 47.7411 52.9252 46.468L42.8495 4.3052C42.5453 3.03213 41.2666 2.24673 39.9936 2.55095Z" fill="#FF3030"/>
<path d="M6.13003 9.00142C6.13003 8.42152 5.65993 7.95142 5.08003 7.95142C4.50013 7.95142 4.03003 8.42152 4.03003 9.00142V38.2214C4.03003 38.8013 4.50013 39.2714 5.08003 39.2714C5.65993 39.2714 6.13003 38.8013 6.13003 38.2214V9.00142Z" fill="white"/>
<path d="M26.2299 17.8513C26.2299 17.2714 25.7598 16.8013 25.1799 16.8013C24.6 16.8013 24.1299 17.2714 24.1299 17.8513V41.5713C24.1299 42.1512 24.6 42.6213 25.1799 42.6213C25.7598 42.6213 26.2299 42.1512 26.2299 41.5713V17.8513Z" fill="white"/>
<path d="M37.5282 17.9299C37.3935 17.3659 36.827 17.0179 36.2629 17.1527C35.6989 17.2875 35.351 17.854 35.4857 18.418L40.9989 41.4884C41.1337 42.0524 41.7002 42.4004 42.2642 42.2656C42.8282 42.1308 43.1762 41.5643 43.0414 41.0003L37.5282 17.9299Z" fill="white"/>
<path d="M10.6698 9.00142C10.6698 8.42152 10.1997 7.95142 9.61982 7.95142C9.03992 7.95142 8.56982 8.42152 8.56982 9.00142V25.2214C8.56982 25.8013 9.03992 26.2714 9.61982 26.2714C10.1997 26.2714 10.6698 25.8013 10.6698 25.2214V9.00142Z" fill="white"/>
</svg>
