<svg width="25" height="24" viewBox="0 0 25 24" fill="none" xmlns="http://www.w3.org/2000/svg">
<path d="M16.3014 19.8C15.485 19.8 14.7968 19.5182 14.2368 18.9546C13.6768 18.3908 13.3968 17.7008 13.3968 16.8846C13.3968 16.0682 13.6786 15.38 14.2422 14.82C14.806 14.26 15.496 13.98 16.3122 13.98C17.1286 13.98 17.8168 14.2618 18.3768 14.8254C18.9368 15.3892 19.2168 16.0792 19.2168 16.8954C19.2168 17.7118 18.935 18.4 18.3714 18.96C17.8076 19.52 17.1176 19.8 16.3014 19.8ZM3.79683 24C3.31683 24 2.89683 23.82 2.53683 23.46C2.17683 23.1 1.99683 22.68 1.99683 22.2V3.6C1.99683 3.12 2.17683 2.7 2.53683 2.34C2.89683 1.98 3.31683 1.8 3.79683 1.8H5.74683V0.96C5.74683 0.688002 5.83881 0.460002 6.02283 0.276C6.20685 0.091998 6.43485 0 6.70683 0C6.98721 0 7.22235 0.091998 7.41213 0.276C7.60191 0.460002 7.69683 0.688002 7.69683 0.96V1.8H17.8968V0.96C17.8968 0.688002 17.9888 0.460002 18.1728 0.276C18.3568 0.091998 18.5848 0 18.8568 0C19.1374 0 19.3725 0.091998 19.5621 0.276C19.7519 0.460002 19.8468 0.688002 19.8468 0.96V1.8H21.7968C22.2768 1.8 22.6968 1.98 23.0568 2.34C23.4168 2.7 23.5968 3.12 23.5968 3.6V22.2C23.5968 22.68 23.4168 23.1 23.0568 23.46C22.6968 23.82 22.2768 24 21.7968 24H3.79683ZM3.79683 22.2H21.7968V9.3H3.79683V22.2Z" fill="#1F1F1F"/>
</svg>
