<svg width="393" height="393" viewBox="0 0 393 393" fill="none" xmlns="http://www.w3.org/2000/svg">
<g clip-path="url(#clip0_2394_7934)">
<path d="M273.412 346.194C384.014 346.194 473.674 303.16 473.674 250.074C473.674 196.989 384.014 153.955 273.412 153.955C162.811 153.955 73.1501 196.989 73.1501 250.074C73.1501 303.16 162.811 346.194 273.412 346.194Z" fill="#595F72"/>
<path d="M271.514 332.935C382.116 332.935 471.776 290.325 471.776 237.763C471.776 185.201 382.116 142.591 271.514 142.591C160.912 142.591 71.252 185.201 71.252 237.763C71.252 290.325 160.912 332.935 271.514 332.935Z" fill="#F4F6F8"/>
<path d="M439.728 141.707C439.573 141.707 439.418 141.683 439.252 141.633L277.099 95.3603C276.083 95.076 275.464 93.9139 275.718 92.7642C275.972 91.6145 277.022 90.9345 278.038 91.2189L440.192 137.492C441.208 137.776 441.827 138.938 441.573 140.088C441.352 141.052 440.578 141.695 439.728 141.695V141.707Z" fill="#A4ADBC"/>
<path d="M439.208 159.076C439.053 159.076 438.899 159.052 438.733 159.002L276.58 112.729C275.563 112.445 274.945 111.283 275.199 110.133C275.453 108.984 276.491 108.304 277.519 108.588L439.672 154.861C440.689 155.145 441.307 156.307 441.053 157.457C440.832 158.421 440.059 159.064 439.208 159.064V159.076Z" fill="#A4ADBC"/>
<path d="M438.678 176.926C438.524 176.926 438.369 176.901 438.203 176.852L276.05 130.579C275.033 130.295 274.415 129.133 274.669 127.983C274.923 126.833 275.962 126.153 276.989 126.438L439.142 172.71C440.159 172.995 440.778 174.157 440.523 175.307C440.302 176.271 439.529 176.914 438.678 176.914V176.926Z" fill="#A4ADBC"/>
<path d="M113.852 141.94C113.001 141.94 112.228 141.297 112.007 140.333C111.753 139.184 112.36 138.034 113.388 137.737L275.53 91.4767C276.546 91.1923 277.585 91.8723 277.85 93.022C278.115 94.1717 277.497 95.3214 276.469 95.6181L114.316 141.879C114.161 141.916 114.007 141.953 113.841 141.953L113.852 141.94Z" fill="#8E95A2"/>
<path d="M114.371 159.311C113.521 159.311 112.747 158.669 112.526 157.704C112.272 156.555 112.88 155.405 113.907 155.108L276.049 108.848C277.077 108.563 278.105 109.243 278.37 110.393C278.624 111.543 278.005 112.693 276.989 112.989L114.835 159.25C114.681 159.287 114.526 159.324 114.36 159.324L114.371 159.311Z" fill="#8E95A2"/>
<path d="M114.891 177.175C114.04 177.175 113.267 176.533 113.046 175.568C112.792 174.419 113.4 173.269 114.427 172.972L276.58 126.699C277.597 126.415 278.635 127.095 278.9 128.245C279.155 129.394 278.547 130.544 277.519 130.841L115.366 177.114C115.212 177.151 115.057 177.188 114.891 177.188V177.175Z" fill="#8E95A2"/>
<path d="M276.006 136.786L116.383 184.814V192.986L276.006 241.36L435.628 192.986V184.814L276.006 136.786Z" fill="#C4CAD4"/>
<path d="M276.005 194.198C275.177 194.198 274.414 193.58 274.171 192.64C273.884 191.503 274.48 190.328 275.486 190.007L436.214 139.197C437.23 138.876 438.28 139.543 438.556 140.668C438.843 141.805 438.247 142.98 437.241 143.301L276.513 194.111C276.337 194.161 276.16 194.185 275.994 194.185L276.005 194.198Z" fill="#595F72"/>
<path d="M276.005 211.951C275.177 211.951 274.414 211.333 274.171 210.393C273.884 209.256 274.48 208.081 275.486 207.76L436.214 156.95C437.23 156.629 438.28 157.296 438.556 158.421C438.843 159.558 438.247 160.733 437.241 161.054L276.513 211.864C276.337 211.914 276.16 211.938 275.994 211.938L276.005 211.951Z" fill="#595F72"/>
<path d="M276.005 229.914C275.177 229.914 274.414 229.295 274.171 228.356C273.884 227.219 274.48 226.044 275.486 225.723L436.214 174.913C437.23 174.591 438.28 175.259 438.556 176.384C438.843 177.521 438.247 178.696 437.241 179.017L276.513 229.827C276.337 229.876 276.16 229.901 275.994 229.901L276.005 229.914Z" fill="#595F72"/>
<path d="M281.508 182.489V238.294L435.142 191.44V131.296C435.142 123.459 447.252 123.459 447.252 131.296V236.254C447.252 240.395 444.843 244.055 441.297 245.278L278.48 301.565C276.856 302.121 275.122 302.121 273.497 301.565L110.703 245.291C107.168 244.067 104.748 240.408 104.748 236.266V131.309C104.748 123.471 116.858 123.471 116.858 131.309V191.452L270.492 238.306V182.502C270.492 174.627 281.508 174.627 281.508 182.502V182.489Z" fill="#A4ADBC"/>
<path d="M270.238 192.504C270.061 192.504 269.895 192.479 269.719 192.429L108.991 141.62C107.974 141.298 107.389 140.111 107.676 138.986C107.963 137.849 109.013 137.194 110.018 137.515L270.746 188.325C271.763 188.647 272.348 189.833 272.061 190.958C271.829 191.898 271.067 192.516 270.227 192.516L270.238 192.504Z" fill="#A4ADBC"/>
<path d="M270.238 210.255C270.061 210.255 269.895 210.23 269.719 210.18L108.991 159.371C107.974 159.049 107.389 157.862 107.676 156.737C107.963 155.6 109.013 154.945 110.018 155.266L270.746 206.076C271.763 206.398 272.348 207.584 272.061 208.709C271.829 209.649 271.067 210.267 270.227 210.267L270.238 210.255Z" fill="#A4ADBC"/>
<path d="M270.238 228.232C270.061 228.232 269.895 228.207 269.719 228.158L108.991 177.335C107.974 177.014 107.389 175.827 107.676 174.702C107.963 173.565 109.013 172.91 110.018 173.231L270.746 224.041C271.763 224.362 272.348 225.537 272.061 226.674C271.829 227.614 271.067 228.232 270.227 228.232H270.238Z" fill="#A4ADBC"/>
<mask id="mask0_2394_7934" style="mask-type:luminance" maskUnits="userSpaceOnUse" x="276" y="111" width="202" height="249">
<path d="M477.471 111.246H276.006V359.287H477.471V111.246Z" fill="white"/>
</mask>
<g mask="url(#mask0_2394_7934)">
<path d="M281.508 182.492V238.297L435.143 191.443V131.299C435.143 123.461 447.252 123.461 447.252 131.299V236.257C447.252 240.398 444.843 244.058 441.297 245.281L278.481 301.568C276.856 302.124 275.122 302.124 273.498 301.568L110.704 245.294C107.168 244.07 104.748 240.411 104.748 236.269V131.312C104.748 123.474 116.858 123.474 116.858 131.312V191.455L270.492 238.309V182.505C270.492 174.63 281.508 174.63 281.508 182.505V182.492Z" fill="#595F72"/>
</g>
<path d="M270.238 137.527C270.238 142.51 281.784 142.51 281.784 137.527V86.9031C281.784 80.8826 270.238 80.8826 270.238 86.9031V137.515V137.527Z" fill="#A4ADBC"/>
<path d="M121.581 221.312C150.927 221.312 174.714 245.016 174.714 274.265C174.714 303.515 150.927 327.218 121.581 327.218C92.2344 327.218 68.4468 303.515 68.4468 274.265C68.4468 245.016 92.2344 221.312 121.581 221.312ZM121.581 317.677C145.637 317.677 165.144 298.235 165.144 274.265C165.144 250.296 145.637 230.854 121.581 230.854C97.5243 230.854 78.0174 250.296 78.0174 274.265C78.0174 298.235 97.5243 317.677 121.581 317.677Z" fill="#FF3030" stroke="#FF3030"/>
<path d="M100.873 315.757L92.0128 308.653L55.8793 353.412C54.2885 355.383 54.9851 358.57 57.4357 360.535C59.8864 362.5 63.1598 362.496 64.7505 360.525L100.884 315.766L100.873 315.757Z" fill="#FF3030"/>
<mask id="mask1_2394_7934" style="mask-type:luminance" maskUnits="userSpaceOnUse" x="77" y="231" width="89" height="87">
<path d="M81.1264 290.894C72.041 269.035 82.7429 243.858 105.03 234.658C127.317 225.458 152.749 235.72 161.835 257.579C170.92 279.437 160.218 304.615 137.931 313.815C115.644 323.015 90.2118 312.753 81.1264 290.894Z" fill="white"/>
</mask>
<g mask="url(#mask1_2394_7934)">
<path d="M81.1264 290.894C72.041 269.035 82.7429 243.858 105.03 234.658C127.317 225.458 152.749 235.72 161.835 257.579C170.92 279.437 160.218 304.615 137.931 313.815C115.644 323.015 90.2118 312.753 81.1264 290.894Z" fill="#1A1E27"/>
<g filter="url(#filter0_d_2394_7934)">
<g clip-path="url(#clip1_2394_7934)">
<path d="M175.61 277.764C175.61 282.651 175.554 287.556 175.629 292.442C175.666 294.497 174.231 295.7 172.406 295.7C164.227 295.7 156.607 297.828 149.601 302.067C147.31 303.455 145.074 304.917 142.559 305.898C137.528 307.86 132.33 308.526 126.946 307.804C122.214 307.157 117.891 305.454 113.904 302.844C109.47 299.938 104.645 297.902 99.4654 296.736C96.2609 296.014 93.0191 295.626 89.7587 295.681C88.0446 295.737 86.6287 294.441 86.6287 292.572C86.6846 282.669 86.6659 272.767 86.6287 262.865C86.6287 261.069 87.9701 259.755 89.7214 259.755C98.5525 259.755 106.694 257.331 114.072 252.5C118.134 249.853 122.549 248.169 127.356 247.576C130.337 247.206 133.299 247.28 136.262 247.78C140.789 248.539 144.869 250.334 148.688 252.814C153.383 255.85 158.507 257.904 164.022 258.941C166.854 259.478 169.704 259.755 172.573 259.774C174.474 259.774 175.591 260.903 175.591 262.791C175.591 267.788 175.591 272.767 175.591 277.764H175.61ZM131.138 298.439C142.615 298.439 151.967 289.147 151.986 277.764C151.986 266.344 142.652 257.053 131.138 257.035C119.68 257.035 110.309 266.307 110.29 277.709C110.29 289.129 119.643 298.439 131.138 298.439ZM163.127 281.873C165.4 281.873 167.263 280.004 167.282 277.746C167.282 275.469 165.4 273.6 163.09 273.6C160.799 273.6 158.935 275.488 158.954 277.783C158.954 280.023 160.854 281.873 163.127 281.873ZM99.1673 281.873C101.44 281.873 103.322 280.041 103.341 277.783C103.341 275.488 101.496 273.618 99.1859 273.6C96.8943 273.6 95.0126 275.469 95.0126 277.746C95.0126 280.004 96.8943 281.855 99.1673 281.873Z" fill="#1CC166"/>
<path d="M163.127 281.869C160.854 281.869 158.954 280.018 158.954 277.779C158.954 275.484 160.799 273.614 163.09 273.596C165.4 273.596 167.282 275.447 167.282 277.742C167.282 280 165.4 281.851 163.127 281.869Z" fill="#FFDA00"/>
<path d="M99.1486 281.869C96.8756 281.869 94.9939 280 94.9939 277.742C94.9939 275.447 96.8756 273.577 99.1672 273.596C101.459 273.596 103.341 275.484 103.322 277.779C103.322 280.037 101.422 281.869 99.1486 281.869Z" fill="#FFDA00"/>
<path d="M131.101 292.923C122.661 292.923 115.823 286.075 115.842 277.672C115.86 269.324 122.754 262.531 131.175 262.55C139.615 262.568 146.452 269.398 146.434 277.801C146.415 286.149 139.54 292.941 131.101 292.923ZM125.996 285.408C126.107 285.593 126.238 285.964 126.461 286.056C126.741 286.167 127.207 286.149 127.449 285.982C128.455 285.316 129.387 284.557 130.374 283.854C131.045 283.372 131.287 283.354 131.939 283.854C132.871 284.538 133.783 285.223 134.696 285.908C135.05 286.167 135.404 286.334 135.833 286.093C136.261 285.834 136.299 285.445 136.205 285.02C135.963 283.817 135.74 282.595 135.479 281.392C135.348 280.763 135.516 280.337 136.056 279.948C137.137 279.189 138.199 278.412 139.205 277.579C139.429 277.394 139.634 276.95 139.578 276.672C139.522 276.413 139.149 276.098 138.851 276.024C137.51 275.71 136.168 275.432 134.808 275.191C134.156 275.08 133.783 274.784 133.541 274.155C133.057 272.878 132.517 271.619 132.014 270.342C131.846 269.916 131.604 269.565 131.082 269.583C130.579 269.583 130.374 269.916 130.206 270.342C129.703 271.638 129.163 272.915 128.66 274.21C128.436 274.784 128.082 275.08 127.486 275.191C126.145 275.432 124.822 275.71 123.499 275.969C123.089 276.043 122.735 276.209 122.624 276.654C122.512 277.135 122.791 277.431 123.145 277.69C124.077 278.393 124.971 279.134 125.958 279.763C126.797 280.3 126.909 280.929 126.685 281.818C126.387 282.965 126.201 284.131 125.958 285.427L125.996 285.408Z" fill="#1CC166"/>
<path d="M125.996 285.405C126.257 284.11 126.443 282.943 126.723 281.796C126.946 280.907 126.835 280.278 125.996 279.741C125.009 279.112 124.114 278.372 123.183 277.668C122.829 277.409 122.549 277.113 122.661 276.632C122.773 276.188 123.108 276.021 123.537 275.947C124.86 275.688 126.201 275.392 127.524 275.17C128.139 275.059 128.493 274.763 128.698 274.189C129.201 272.893 129.741 271.616 130.244 270.32C130.412 269.913 130.617 269.58 131.12 269.562C131.641 269.562 131.884 269.895 132.051 270.32C132.554 271.598 133.095 272.856 133.579 274.133C133.803 274.744 134.194 275.059 134.846 275.17C136.206 275.41 137.547 275.669 138.889 276.003C139.187 276.077 139.559 276.391 139.615 276.65C139.671 276.91 139.485 277.354 139.243 277.557C138.218 278.39 137.175 279.186 136.094 279.927C135.554 280.297 135.368 280.741 135.517 281.37C135.777 282.573 136.001 283.795 136.243 284.998C136.336 285.442 136.299 285.831 135.871 286.071C135.442 286.312 135.088 286.145 134.734 285.886C133.821 285.202 132.89 284.498 131.977 283.832C131.325 283.351 131.082 283.351 130.412 283.832C129.443 284.554 128.493 285.294 127.487 285.96C127.244 286.127 126.797 286.145 126.499 286.034C126.276 285.942 126.145 285.572 126.033 285.387L125.996 285.405Z" fill="#FFDA00"/>
</g>
</g>
<rect opacity="0.13" width="92.8145" height="97.5424" rx="46.4072" transform="matrix(0.805839 0.592135 -0.55186 0.833937 108.458 206.352)" fill="#F4F6F8"/>
<rect opacity="0.13" width="75.7583" height="79.6173" rx="37.8791" transform="matrix(0.805839 0.592135 -0.55186 0.833937 120.938 222)" fill="black"/>
<rect opacity="0.51" width="14.1764" height="95.9912" transform="matrix(0.80002 0.599973 -0.544039 0.83906 124.223 220)" fill="#F4F6F8"/>
<rect opacity="0.51" width="6.4175" height="95.9912" transform="matrix(0.80002 0.599973 -0.544039 0.83906 139.52 230.591)" fill="#F4F6F8"/>
</g>
</g>
<defs>
<filter id="filter0_d_2394_7934" x="66.6287" y="227.352" width="129" height="100.746" filterUnits="userSpaceOnUse" color-interpolation-filters="sRGB">
<feFlood flood-opacity="0" result="BackgroundImageFix"/>
<feColorMatrix in="SourceAlpha" type="matrix" values="0 0 0 0 0 0 0 0 0 0 0 0 0 0 0 0 0 0 127 0" result="hardAlpha"/>
<feOffset/>
<feGaussianBlur stdDeviation="10"/>
<feComposite in2="hardAlpha" operator="out"/>
<feColorMatrix type="matrix" values="0 0 0 0 0 0 0 0 0 0 0 0 0 0 0 0 0 0 0.05 0"/>
<feBlend mode="normal" in2="BackgroundImageFix" result="effect1_dropShadow_2394_7934"/>
<feBlend mode="normal" in="SourceGraphic" in2="effect1_dropShadow_2394_7934" result="shape"/>
</filter>
<clipPath id="clip0_2394_7934">
<rect width="393" height="393" fill="white"/>
</clipPath>
<clipPath id="clip1_2394_7934">
<rect width="89.0001" height="60.7462" fill="white" transform="translate(86.6287 247.352)"/>
</clipPath>
</defs>
</svg>
