<svg width="53" height="53" viewBox="0 0 53 53" fill="none" xmlns="http://www.w3.org/2000/svg">
<circle cx="26.5" cy="26.5" r="26.5" fill="#CCE1FF"/>
<g clip-path="url(#clip0_759_7979)">
<path d="M18.4814 30.4322C15.0374 25.7417 11.597 21.0485 8.14195 16.3654C7.92658 16.0733 7.95774 15.936 8.21985 15.7148C9.5148 14.6228 10.7914 13.5087 12.08 12.4084C12.2394 12.272 12.376 12.0997 12.5849 12.0278C12.8654 12.554 13.2484 13.0092 13.6004 13.4847C14.7588 15.0513 15.9236 16.6133 17.0866 18.1771C17.1791 18.3162 17.2653 18.459 17.3643 18.5936C19.2861 21.219 21.2097 23.8434 23.1324 26.4679C21.206 27.3433 19.6536 28.662 18.4814 30.4313V30.4322Z" fill="#81B3FF"/>
<path d="M45.9998 16.0484C42.5815 20.7038 39.1622 25.3593 35.7429 30.0148C35.6705 30.1124 35.5944 30.2083 35.5202 30.3041C34.3178 28.5625 32.7744 27.2401 30.8169 26.4264C32.1494 24.6037 33.4875 22.7846 34.8127 20.9554C35.4826 20.0311 36.2057 19.1446 36.8105 18.1734C36.8573 18.1347 36.9141 18.1043 36.9489 18.0573C37.9863 16.652 39.0119 15.2384 40.0603 13.8432C40.5048 13.2516 40.8494 12.5807 41.4176 12.085C42.6108 13.0977 43.8077 14.1068 44.9954 15.1269C45.3391 15.4227 45.7231 15.6761 45.998 16.0484H45.9998Z" fill="#0B6DFF"/>
<path d="M18.4815 30.4318C19.6537 28.6616 21.2061 27.3438 23.1325 26.4684C23.2764 26.4223 23.4212 26.379 23.5642 26.3283C24.6868 25.9275 25.8361 25.6861 27.0339 25.7248C27.0339 26.731 27.0348 27.7364 27.0357 28.7427C26.5757 28.7114 26.1238 28.7961 25.6785 28.8828C22.3636 29.5269 19.8589 32.6333 19.9918 35.9959C20.1009 38.7365 21.3491 40.7638 23.7163 42.1037C24.564 42.5838 25.4695 42.8731 26.4501 42.9072C26.857 42.921 27.0733 43.0758 27.0467 43.555C27.0027 44.365 27.0321 45.1778 27.0302 45.9897C25.0965 46.0118 23.3222 45.4699 21.6836 44.4535C21.5159 44.3494 21.3528 44.2369 21.1878 44.1282C21.1768 44.0996 21.1567 44.0877 21.1264 44.0914C21.0833 44.0609 21.0403 44.0305 20.9981 44.0001C19.8498 43.0703 18.8444 42.0115 18.1662 40.6808C16.512 37.4371 16.5331 34.1916 18.2029 30.9571C18.2936 30.7811 18.3889 30.606 18.4824 30.4309L18.4815 30.4318Z" fill="#FFDC53"/>
<path d="M17.0866 18.1776C15.9236 16.6138 14.7588 15.0518 13.6004 13.4852C13.2485 13.0097 12.8654 12.5545 12.585 12.0283C13.3145 12.0219 14.043 12.0108 14.7725 12.0108C18.6785 12.009 22.5853 12.0099 26.4913 12.0108C26.6737 12.0108 26.8551 12.021 27.0375 12.0256C27.0375 14.0686 27.0357 16.1106 27.0357 18.1536C26.8386 18.1591 26.6407 18.1684 26.4436 18.1684C23.3249 18.172 20.2062 18.1748 17.0875 18.1776H17.0866Z" fill="#0B6DFF"/>
<path d="M27.0346 18.1537C27.0346 16.1107 27.0364 14.0686 27.0364 12.0257C29.498 12.0211 31.9597 12.0137 34.4203 12.0109C36.5933 12.0082 38.7662 12.0091 40.9391 12.0137C41.0995 12.0137 41.2745 11.9538 41.4184 12.0846C40.8502 12.5804 40.5056 13.2513 40.0611 13.8429C39.0118 15.239 37.9863 16.6526 36.9498 18.0569C36.9149 18.1039 36.8581 18.1343 36.8114 18.173C36.4457 18.1721 36.08 18.1694 35.7144 18.1694C32.8211 18.1638 29.9269 18.1592 27.0337 18.1537H27.0346Z" fill="#0056D7"/>
<path d="M27.0349 28.7429C27.0349 27.7366 27.034 26.7312 27.0331 25.725C28.3464 25.6752 29.5937 25.9857 30.818 26.4262C32.7765 27.2399 34.3198 28.5632 35.5213 30.3039C36.2801 31.5931 36.8108 32.9588 37.038 34.4535C37.8418 39.7337 34.1063 44.944 28.8449 45.8387C28.2446 45.941 27.6425 46.0313 27.0303 45.9908C27.0322 45.1789 27.0028 44.3652 27.0468 43.5562C27.0725 43.077 26.8562 42.9231 26.4502 42.9083C25.4696 42.8742 24.5641 42.5849 23.7164 42.1048C21.3501 40.7649 20.101 38.7376 19.9919 35.997C19.8581 32.6344 22.3637 29.528 25.6786 28.8839C26.124 28.7973 26.5758 28.7125 27.0358 28.7429C27.0358 29.4479 27.0358 30.1519 27.0367 30.8568C26.5052 31.7138 26.1249 32.6501 25.6584 33.5412C25.542 33.7633 25.4302 33.9513 25.136 33.9872C24.2342 34.095 23.3352 34.2296 22.4343 34.353C22.3445 34.365 22.2391 34.3549 22.1933 34.4489C22.13 34.5788 22.2519 34.6406 22.3216 34.7115C22.7917 35.1898 23.2261 35.715 23.7494 36.126C24.4368 36.6651 24.5568 37.277 24.3378 38.0888C24.1472 38.7947 24.0885 39.5356 23.9556 40.3594C24.3295 40.1613 24.6081 40.012 24.8886 39.8674C25.6034 39.4988 26.3192 39.132 27.0349 38.7643C27.0349 39.9881 27.0459 41.2128 27.0285 42.4365C27.023 42.8005 27.1513 42.912 27.5051 42.9111C28.0458 42.9102 28.559 42.7987 29.0694 42.642C32.3357 41.6357 34.4454 38.5662 34.0476 35.0718C33.6343 31.4438 30.731 28.8314 27.0349 28.7447V28.7429Z" fill="#FFCB18"/>
<path d="M27.0349 28.743C30.7319 28.8296 33.6352 31.4421 34.0476 35.0701C34.4454 38.5635 32.3357 41.6331 29.0694 42.6403C28.559 42.7979 28.0458 42.9084 27.505 42.9094C27.1513 42.9094 27.023 42.7988 27.0285 42.4348C27.0459 41.211 27.0349 39.9873 27.0349 38.7626C27.1907 38.7828 27.3144 38.8722 27.4491 38.9441C28.2263 39.3643 29.0062 39.7771 29.7879 40.1891C29.8768 40.2361 29.9758 40.3282 30.0785 40.2425C30.1628 40.1725 30.0959 40.072 30.0812 39.9845C29.941 39.1413 29.8292 38.2926 29.6496 37.4577C29.5634 37.0578 29.6523 36.7942 29.9373 36.5242C30.5129 35.9778 31.0637 35.4055 31.6199 34.8397C31.7226 34.7356 31.8921 34.6434 31.8362 34.4674C31.7831 34.3015 31.6044 34.3587 31.4761 34.3393C30.6659 34.2168 29.8576 34.0878 29.0447 33.9855C28.7404 33.9468 28.5452 33.8196 28.4114 33.5422C28.0678 32.8253 27.7085 32.1157 27.352 31.4052C27.2787 31.2587 27.2347 31.0818 27.0413 31.0339C27.0395 30.974 27.0377 30.9141 27.0349 30.8542C27.0349 30.1492 27.0349 29.4452 27.034 28.7402L27.0349 28.743Z" fill="#DFB000"/>
<path d="M27.0368 30.856C27.0386 30.9159 27.0405 30.9758 27.0432 31.0357C27.0405 33.6113 27.0377 36.1878 27.035 38.7634C26.3192 39.1311 25.6035 39.4979 24.8886 39.8665C24.6082 40.0112 24.3296 40.1614 23.9557 40.3586C24.0886 39.5347 24.1472 38.7938 24.3378 38.088C24.5569 37.2761 24.4368 36.6642 23.7495 36.1251C23.2262 35.7142 22.7918 35.1889 22.3216 34.7106C22.2529 34.6406 22.1301 34.5779 22.1933 34.448C22.2392 34.354 22.3455 34.3651 22.4344 34.3522C23.3343 34.2287 24.2334 34.0941 25.1361 33.9863C25.4303 33.9513 25.5421 33.7624 25.6585 33.5403C26.1249 32.6492 26.5053 31.713 27.0368 30.856Z" fill="#FFDC53"/>
<path d="M27.0347 38.7634C27.0374 36.1878 27.0402 33.6113 27.0429 31.0356C27.2363 31.0826 27.2803 31.2605 27.3536 31.407C27.7101 32.1175 28.0693 32.8271 28.413 33.544C28.5459 33.8214 28.7411 33.9495 29.0463 33.9872C29.8583 34.0895 30.6675 34.2185 31.4777 34.3411C31.605 34.3604 31.7847 34.3024 31.8378 34.4692C31.8937 34.6452 31.7242 34.7373 31.6215 34.8415C31.0643 35.4073 30.5135 35.9795 29.9389 36.526C29.6548 36.796 29.5659 37.0595 29.6512 37.4595C29.8299 38.2944 29.9426 39.1431 30.0828 39.9863C30.0975 40.0738 30.1644 40.1733 30.0801 40.2443C29.9774 40.33 29.8775 40.2378 29.7895 40.1908C29.0078 39.7789 28.2279 39.3652 27.4507 38.9459C27.316 38.8731 27.1923 38.7837 27.0365 38.7643L27.0347 38.7634Z" fill="#F5C520"/>
</g>
<defs>
<clipPath id="clip0_759_7979">
<rect width="38" height="34" fill="white" transform="translate(8 12)"/>
</clipPath>
</defs>
</svg>
