<svg width="258" height="248" viewBox="0 0 258 248" fill="none" xmlns="http://www.w3.org/2000/svg">
<path d="M98.8605 240.783C98.3486 243.123 99.8301 245.443 102.187 245.873C118.776 248.897 135.823 248.506 152.283 244.708C170.153 240.584 186.885 232.545 201.273 221.173C215.661 209.8 227.345 195.376 235.483 178.941C242.98 163.803 247.295 147.307 248.183 130.468C248.31 128.076 246.394 126.099 243.999 126.056V126.056C241.603 126.014 239.636 127.922 239.503 130.315C238.642 145.869 234.635 161.103 227.708 175.091C220.14 190.375 209.273 203.79 195.893 214.366C182.512 224.943 166.951 232.419 150.332 236.254C135.123 239.764 119.375 240.145 104.042 237.392C101.683 236.968 99.3723 238.442 98.8605 240.783V240.783Z" fill="#C4CAD4"/>
<path d="M98.4818 242.514C98.1791 243.898 99.0555 245.269 100.446 245.543C117.386 248.881 134.847 248.646 151.708 244.839C169.404 240.844 186.006 233.013 200.344 221.899C214.682 210.786 226.406 196.66 234.687 180.52C242.578 165.142 247.16 148.291 248.151 131.054C248.232 129.639 247.124 128.449 245.708 128.397C244.292 128.345 243.105 129.451 243.022 130.865C242.06 147.352 237.67 163.467 230.122 178.178C222.183 193.65 210.945 207.19 197.201 217.844C183.456 228.497 167.541 236.004 150.578 239.834C134.45 243.475 117.749 243.708 101.542 240.529C100.152 240.256 98.7845 241.13 98.4818 242.514Z" fill="#D8DCE2"/>
<ellipse cx="245" cy="121.107" rx="13" ry="12.9998" fill="#353C49"/>
<ellipse cx="3.47597" cy="5.83345" rx="3.47597" ry="5.83345" transform="matrix(0.692436 -0.721478 0.721484 0.692433 242.234 115.558)" fill="#A4ADBC"/>
</svg>
