<svg width="54" height="54" viewBox="0 0 54 54" fill="none" xmlns="http://www.w3.org/2000/svg">
<g clip-path="url(#clip0_1907_10454)">
<path d="M27.0068 34.1084C36.1233 34.1084 43.5136 26.6968 43.5136 17.5542C43.5136 8.41156 36.1233 1 27.0068 1C17.8903 1 10.5 8.41156 10.5 17.5542C10.5 26.6968 17.8903 34.1084 27.0068 34.1084Z" fill="#353C49"/>
<path d="M42.3568 49.2023L33.5387 26.6433C31.2116 20.6794 22.8017 20.6794 20.4747 26.6433L11.6566 49.2023C11.1259 50.5534 12.1193 52 13.5617 52H40.4516C41.8941 52 42.8875 50.5398 42.3568 49.2023Z" fill="#353C49"/>
<path d="M39.2134 19.3557C38.465 19.3557 37.8526 18.728 37.8662 17.9774C37.907 12.2455 35.3759 8.91554 30.1095 7.79646C29.3746 7.64634 28.8984 6.92303 29.0617 6.18607C29.2113 5.44912 29.9326 4.97146 30.6674 5.13523C37.213 6.51361 40.6423 10.9626 40.5878 18.0046C40.5878 18.7552 39.9755 19.3557 39.227 19.3557H39.2134Z" fill="white"/>
<path d="M30.7898 35.5413C31.2389 34.9818 30.9123 34.1493 30.2183 34.0264L29.0752 33.8354C27.7007 33.6034 26.2991 33.6034 24.9247 33.8354L23.7816 34.0264C23.0739 34.1356 22.7609 34.9818 23.21 35.5413L25.6051 38.5301C25.782 38.7621 25.85 39.0487 25.782 39.3352L24.2034 45.8723C24.149 46.1043 24.1762 46.35 24.2987 46.5547L26.5849 50.6489C26.7754 50.9764 27.2517 50.9764 27.4286 50.6489L29.7148 46.5547C29.8236 46.35 29.8645 46.1043 29.81 45.8723L28.2315 39.3352C28.1634 39.0487 28.2315 38.7484 28.4084 38.5301L30.8034 35.5413H30.7898Z" fill="#FF3030"/>
</g>
<defs>
<clipPath id="clip0_1907_10454">
<rect width="33" height="51" fill="white" transform="translate(10.5 1)"/>
</clipPath>
</defs>
</svg>
