<svg width="54" height="54" viewBox="0 0 54 54" fill="none" xmlns="http://www.w3.org/2000/svg">
<g clip-path="url(#clip0_1907_10447)">
<path d="M26.9997 29.1786C35.0019 29.1786 41.4889 22.6916 41.4889 14.6894C41.4889 6.68723 35.0019 0.200195 26.9997 0.200195C18.9975 0.200195 12.5105 6.68723 12.5105 14.6894C12.5105 22.6916 18.9975 29.1786 26.9997 29.1786Z" fill="#353C49"/>
<path d="M40.4797 42.4119L32.7417 22.663C30.7006 17.4483 23.3102 17.4483 21.2692 22.663L13.5311 42.4119C13.0713 43.5894 13.9349 44.8679 15.2021 44.8679H38.8088C40.076 44.8679 40.9395 43.5894 40.4797 42.4119Z" fill="#353C49"/>
<path d="M37.7209 16.2821C37.0593 16.2821 36.5322 15.7438 36.5322 15.0822C36.5658 10.058 34.3454 7.14225 29.725 6.1778C29.0745 6.04322 28.6708 5.40399 28.8054 4.76476C28.9399 4.11432 29.568 3.71059 30.2184 3.84517C35.9603 5.05634 38.977 8.94779 38.9321 15.1158C38.9321 15.7775 38.3938 16.3045 37.7322 16.3045L37.7209 16.2821Z" fill="white"/>
<path d="M41.6133 29H12.3867C10.7924 29 9.5 30.3942 9.5 32.1141V49.8859C9.5 51.6058 10.7924 53 12.3867 53H41.6133C43.2076 53 44.5 51.6058 44.5 49.8859V32.1141C44.5 30.3942 43.2076 29 41.6133 29Z" fill="#D8DCE2"/>
<path d="M29.0876 39H24.9124C24.6846 39 24.5 39.2905 24.5 39.6488V43.3512C24.5 43.7095 24.6846 44 24.9124 44H29.0876C29.3154 44 29.5 43.7095 29.5 43.3512V39.6488C29.5 39.2905 29.3154 39 29.0876 39Z" fill="#FF3030"/>
</g>
<defs>
<clipPath id="clip0_1907_10447">
<rect width="37.1202" height="53" fill="white" transform="translate(8.43994 0.200195)"/>
</clipPath>
</defs>
</svg>
