<svg width="16" height="19" viewBox="0 0 16 19" fill="none" xmlns="http://www.w3.org/2000/svg">
<path d="M0.2125 15.2873C0.354165 15.429 0.533335 15.4998 0.75 15.4998H15.25C15.4666 15.4998 15.6458 15.429 15.7875 15.2873C15.9291 15.1457 16 14.9665 16 14.7498C16 14.5332 15.9291 14.354 15.7875 14.2123C15.6458 14.0707 15.4666 13.9998 15.25 13.9998H14V6.3998C14 4.9998 13.5875 3.74565 12.7625 2.6373C11.9375 1.52895 10.85 0.833046 9.5 0.549711L9.49874 0.549521C9.16667 0.499823 9.16625 0.49976 8.83333 0.499823C8.5 0.499907 8.58332 0.49976 8.16667 0.49976L7.16667 0.49976H7.16666C6.83333 0.49976 6.83333 0.49976 6.5 0.549799C5.15 0.833133 4.0625 1.52895 3.2375 2.6373C2.4125 3.74565 2 4.9998 2 6.3998V13.9998H0.75C0.533335 13.9998 0.354165 14.0707 0.2125 14.2123C0.0708351 14.354 0 14.5332 0 14.7498C0 14.9665 0.0708351 15.1457 0.2125 15.2873Z" fill="#1F1F1F"/>
<path d="M6.5875 17.9123C6.97915 18.304 7.45 18.4998 8 18.4998C8.55 18.4998 9.02085 18.304 9.4125 17.9123C9.80415 17.5207 10 17.0498 10 16.4998H6C6 17.0498 6.19585 17.5207 6.5875 17.9123Z" fill="#1F1F1F"/>
</svg>
