<svg width="17" height="16" viewBox="0 0 17 16" fill="none" xmlns="http://www.w3.org/2000/svg">
<g clip-path="url(#clip0_759_8596)">
<path d="M9.68034 0.445935C9.33864 0.157947 8.90614 0 8.45926 0C8.01238 0 7.57988 0.157947 7.23818 0.445935L1.55383 5.24184C1.34284 5.41966 1.17324 5.64141 1.05687 5.8916C0.940504 6.14179 0.880184 6.41437 0.880127 6.6903V14.5263C0.880127 15.3398 1.54035 16 2.35385 16H4.88023C5.27108 16 5.64593 15.8447 5.9223 15.5684C6.19868 15.292 6.35395 14.9171 6.35395 14.5263V11.1553C6.35395 10.5826 6.81038 10.1178 7.37881 10.1026H9.53971C9.81404 10.1098 10.0747 10.2239 10.2661 10.4206C10.4576 10.6172 10.5647 10.8808 10.5646 11.1553V14.5263C10.5646 15.3398 11.2248 16 12.0383 16H14.5647C14.9555 16 15.3304 15.8447 15.6067 15.5684C15.8831 15.292 16.0384 14.9171 16.0384 14.5263V6.68946C16.0383 6.41353 15.978 6.14095 15.8617 5.89076C15.7453 5.64057 15.5757 5.41882 15.3647 5.241L9.68034 0.445935Z" fill="#C4CAD4"/>
</g>
<defs>
<clipPath id="clip0_759_8596">
<rect width="16.4624" height="16" fill="white" transform="translate(0.34668)"/>
</clipPath>
</defs>
</svg>
