<svg width="161" height="160" viewBox="0 0 161 160" fill="none" xmlns="http://www.w3.org/2000/svg">
<rect x="1" y="0.5" width="159" height="159" rx="79.5" fill="#D8DCE2"/>
<rect x="1" y="0.5" width="159" height="159" rx="79.5" stroke="#C4CAD4"/>
<circle cx="80" cy="80" r="11" fill="#353C49"/>
<g clip-path="url(#clip0_759_9984)">
<path d="M79.3571 80.6429H74.6429C74.4607 80.6429 74.3081 80.5809 74.1849 80.4569C74.0616 80.3331 74 80.1795 74 79.9962C74 79.8131 74.0616 79.6608 74.1849 79.5393C74.3081 79.4179 74.4607 79.3572 74.6429 79.3572H79.3571V74.6429C79.3571 74.4608 79.4192 74.3081 79.5431 74.1848C79.667 74.0616 79.8206 74.0001 80.0039 74.0001C80.187 74.0001 80.3393 74.0616 80.4607 74.1848C80.5821 74.3081 80.6429 74.4608 80.6429 74.6429V79.3572H85.3571C85.5393 79.3572 85.692 79.4192 85.8153 79.5432C85.9384 79.6671 86 79.8206 86 80.0039C86 80.187 85.9384 80.3394 85.8153 80.4608C85.692 80.5822 85.5393 80.6429 85.3571 80.6429H80.6429V85.3572C80.6429 85.5393 80.5808 85.692 80.4569 85.8151C80.333 85.9384 80.1794 86.0001 79.9961 86.0001C79.813 86.0001 79.6607 85.9384 79.5393 85.8151C79.4179 85.692 79.3571 85.5393 79.3571 85.3572V80.6429Z" fill="#F4F6F8"/>
</g>
<defs>
<clipPath id="clip0_759_9984">
<rect width="12" height="12" fill="white" transform="translate(74 74)"/>
</clipPath>
</defs>
</svg>
