<svg width="276" height="63" viewBox="0 0 276 63" fill="none" xmlns="http://www.w3.org/2000/svg">
<path d="M41.8193 0.714844V25.4062H38.8935V12.7188H36.2412V24.2852H33.3701V1.37109H36.2412V10.2578H38.8935V0.714844H41.8193ZM31.292 3.80469C31.292 10.5449 29.1865 16.2598 22.1865 20.2383L20.3818 18.1055C25.6455 15.0977 27.8603 11.2422 28.2841 6.29297H21.5302V3.80469H31.292ZM65.219 0.742188V13.4844H62.1291V10.8047H57.2073V12.6641H45.6135V1.78125H48.676V4.89844H54.1721V1.78125H57.2073V3.96875H62.1291V0.742188H65.219ZM65.219 14.4961V20.8398H51.9846V22.6992H66.012V25.1328H48.9495V18.5977H62.1565V16.9023H48.8948V14.4961H65.219ZM48.676 10.2578H54.1721V7.25H48.676V10.2578ZM57.2073 8.45312H62.1291V6.32031H57.2073V8.45312ZM87.8191 4.07812C87.8191 7.89258 91.5242 11.7207 96.6785 12.6094L95.3387 15.1797C91.1824 14.3184 87.7918 11.8164 86.1785 8.50781C84.5516 11.8027 81.1883 14.332 77.0457 15.1797L75.7059 12.6094C80.8328 11.6934 84.5516 7.83789 84.5379 4.07812V2.24609H87.8191V4.07812ZM97.5809 19.7734V22.2891H75.0223V19.7734H97.5809ZM119.668 0.714844V25.4609H116.606V12.1172H111.984V9.62891H116.606V0.714844H119.668ZM111.602 2.84766V5.33594H103.125V9.73828H110.645V12.1719H103.125V17.2305C106.926 17.2305 109.688 17.1211 112.887 16.5742L113.188 19.0352C109.551 19.6504 106.27 19.7461 102.031 19.7461H100.063V2.84766H111.602ZM143.396 0.714844V25.4609H140.333V0.714844H143.396ZM136.314 2.95703V5.47266H127.454V16.9297C132.048 16.916 134.892 16.7656 138.146 16.1367L138.447 18.707C134.878 19.377 131.72 19.5 126.47 19.5H124.392V2.95703H136.314ZM173.16 17.9688V25.1328H156.016V17.9688H173.16ZM159.023 20.2656V22.8359H170.125V20.2656H159.023ZM174.664 2.57422V4.89844H154.457V2.57422H163.07V0.46875H166.133V2.57422H174.664ZM164.601 5.66406C169.879 5.65039 172.832 6.86719 172.832 9.16406C172.832 11.2285 170.439 12.4043 166.133 12.6094V14.1133H175.867V16.4922H153.336V14.1133H163.07V12.6094C158.764 12.4043 156.385 11.2285 156.398 9.16406C156.385 6.86719 159.338 5.65039 164.601 5.66406ZM164.601 7.74219C161.348 7.74219 159.666 8.19336 159.68 9.16406C159.666 10.1211 161.307 10.5859 164.601 10.5859C167.91 10.5859 169.551 10.1211 169.551 9.16406C169.551 8.19336 167.869 7.74219 164.601 7.74219ZM188.493 1.34375C193.894 1.34375 197.107 2.84766 197.107 5.55469C197.107 8.26172 193.894 9.7793 188.493 9.76562C183.107 9.7793 179.894 8.26172 179.907 5.55469C179.894 2.84766 183.107 1.34375 188.493 1.34375ZM188.493 2.98438C184.46 2.98438 182.109 3.92773 182.122 5.55469C182.109 7.19531 184.46 8.13867 188.493 8.125C192.54 8.13867 194.892 7.19531 194.892 5.55469C194.892 3.92773 192.54 2.98438 188.493 2.98438ZM199.595 11.4336V13.1562H177.446V11.4336H199.595ZM196.751 15.2891V20.7031H182.314V23.2461H197.462V24.9141H180.181V19.1172H194.618V16.9297H180.126V15.2891H196.751ZM230.234 13.7852V15.5625H208.058V13.7852H218.066V11.3789H211.011V1.61719H227.472V3.33984H213.144V5.60938H226.844V7.25H213.144V9.68359H227.609V11.3789H220.199V13.7852H230.234ZM219.133 17.3945C224.478 17.4082 227.513 18.748 227.527 21.2773C227.513 23.8066 224.478 25.1602 219.133 25.1602C213.787 25.1602 210.738 23.8066 210.738 21.2773C210.738 18.748 213.787 17.4082 219.133 17.3945ZM219.133 19.0078C215.154 19.0215 212.912 19.8418 212.926 21.2773C212.912 22.7539 215.14 23.5195 219.133 23.5195C223.125 23.5195 225.367 22.7539 225.367 21.2773C225.367 19.8418 223.111 19.0215 219.133 19.0078ZM244.146 5.08984V6.86719H231.95V5.08984H237.009V1.61719H239.142V5.08984H244.146ZM238.048 8.50781C241.11 8.52148 243.312 10.8047 243.325 14.0312C243.312 17.2988 241.11 19.5684 238.048 19.5547C235.013 19.5684 232.812 17.2988 232.825 14.0312C232.812 10.8047 235.013 8.52148 238.048 8.50781ZM238.048 10.3398C236.12 10.3398 234.739 11.8848 234.739 14.0312C234.739 16.2188 236.12 17.75 238.048 17.75C239.989 17.75 241.397 16.2188 241.411 14.0312C241.397 11.8848 239.989 10.3398 238.048 10.3398ZM252.731 0.933594V25.2148H250.681V12.9375H247.427V24.0117H245.403V1.45312H247.427V11.1602H250.681V0.933594H252.731ZM21.2087 41.5156V43.293H1.30243V41.5156H10.2165V38.3164H12.3493V41.5156H21.2087ZM22.4391 57.6211V59.3984H0.208679V57.6211H6.08759V53.1094C4.2829 52.3574 3.25751 51.1133 3.27118 49.4727C3.25751 46.5879 6.32001 44.9199 11.2556 44.9062C16.2048 44.9199 19.2536 46.5879 19.2673 49.4727C19.2536 51.1133 18.2556 52.3574 16.4509 53.1094V57.6211H22.4391ZM11.2556 46.6016C7.64618 46.6152 5.43134 47.668 5.43134 49.4727C5.43134 51.2363 7.64618 52.2891 11.2556 52.2891C14.8513 52.2891 17.0934 51.2363 17.1071 49.4727C17.0934 47.668 14.8649 46.6152 11.2556 46.6016ZM8.2204 57.6211H14.3181V53.7383C13.402 53.9023 12.3766 53.9844 11.2556 53.9844C10.1481 53.9844 9.12274 53.9023 8.2204 53.7383V57.6211ZM35.1748 38.207C40.5752 38.2207 43.7881 39.7109 43.7881 42.418C43.7881 45.125 40.5888 46.6426 35.1748 46.6289C29.7881 46.6426 26.5752 45.125 26.5888 42.418C26.5752 39.7109 29.7881 38.2207 35.1748 38.207ZM35.1748 39.875C31.1416 39.875 28.79 40.8047 28.8037 42.418C28.79 44.0723 31.1689 45.002 35.1748 44.9883C39.1943 45.002 41.5732 44.0723 41.5732 42.418C41.5732 40.8047 39.208 39.875 35.1748 39.875ZM46.2763 48.1055V49.8828H40.0966V52.2891H43.4326V57.7031H28.9951V60.2461H44.1435V61.9141H26.8623V56.1172H41.2998V53.9297H26.8076V52.2891H30.1435V49.8828H24.1279V48.1055H46.2763ZM32.3037 52.2891H37.9365V49.8828H32.3037V52.2891ZM56.4963 42.3906C56.4827 45.5215 58.9299 48.5703 62.4846 49.8008L61.3635 51.4961C58.6155 50.5117 56.4963 48.4746 55.4573 45.9453C54.4182 48.7344 52.1897 50.9766 49.2502 52.0703L48.1291 50.3477C51.7385 49.0762 54.3362 45.8496 54.3362 42.3906V41.3789H48.8401V39.6016H61.9104V41.3789H56.4963V42.3906ZM68.1995 53.793V62.2148H66.012V55.543H51.8479V53.793H68.1995ZM68.1995 37.9336V52.4531H66.012V46.082H61.1448V44.2773H66.012V37.9336H68.1995ZM92.0367 37.9609V55.6797H89.8765V37.9609H92.0367ZM92.8023 59.8906V61.668H76.3413V53.875H78.4742V59.8906H92.8023ZM78.9117 39.6289C82.5347 39.6426 85.2827 42.1172 85.2827 45.5898C85.2827 49.1035 82.5347 51.5918 78.9117 51.5781C75.2476 51.5918 72.5132 49.1035 72.5132 45.5898C72.5132 42.1172 75.2476 39.6426 78.9117 39.6289ZM78.9117 41.4883C76.4644 41.502 74.6187 43.2109 74.6187 45.5898C74.6187 47.9961 76.4644 49.6777 78.9117 49.6641C81.3452 49.6777 83.1909 47.9961 83.2046 45.5898C83.1909 43.2109 81.3452 41.502 78.9117 41.4883ZM116.059 39.8203V41.0781C116.059 42.6777 116.059 45.0977 115.43 48.2969L113.324 48.0508C113.885 45.1934 113.94 43.1426 113.953 41.5977H103.945V39.8203H116.059ZM109.797 45.207V50.4023C112.504 50.293 115.293 50.1016 117.809 49.7461L117.973 51.332C112.887 52.1934 106.953 52.3164 102.688 52.3164L102.441 50.5117C104 50.5117 105.791 50.5117 107.691 50.457V45.207H109.797ZM121.637 37.9336V45.8359H125.191V47.6406H121.637V56.1992H119.477V37.9336H121.637ZM122.43 59.8906V61.668H106.215V54.5312H108.348V59.8906H122.43ZM146.595 37.9062V62.2422H144.462V37.9062H146.595ZM139.212 40.2031V48.8164H130.107V54.5586C134.126 54.5586 137.763 54.3945 142.111 53.7109L142.329 55.4609C137.859 56.1855 134.195 56.3633 129.97 56.3633H127.947V47.0664H137.025V41.9531H127.892V40.2031H139.212ZM169.256 37.9062V47.8047H173.221V49.6094H169.256V62.1875H167.096V37.9062H169.256ZM162.94 40.5312C162.94 47.4082 159.727 53.6562 151.811 57.5664L150.608 55.9258C156.815 52.8223 160.288 48.1465 160.78 42.3086H151.756V40.5312H162.94ZM199.896 37.9062V47.8047H203.861V49.6094H199.896V62.1875H197.736V37.9062H199.896ZM193.579 40.5312C193.579 47.4082 190.366 53.6562 182.45 57.5664L181.247 55.9258C187.454 52.8223 190.927 48.1465 191.419 42.3086H182.396V40.5312H193.579ZM224.635 44.7148V46.4648H208.038V38.4258H210.17V44.7148H224.635ZM227.178 49.3359V51.0859H205.002V49.3359H227.178ZM216.049 53.2734C221.272 53.2871 224.43 54.9004 224.444 57.7031C224.43 60.5059 221.272 62.1328 216.049 62.1328C210.827 62.1328 207.655 60.5059 207.655 57.7031C207.655 54.9004 210.827 53.2871 216.049 53.2734ZM216.049 54.9961C212.166 54.9961 209.829 55.9941 209.842 57.7031C209.829 59.4258 212.18 60.4102 216.049 60.4102C219.905 60.4102 222.256 59.4258 222.256 57.7031C222.256 55.9941 219.932 54.9961 216.049 54.9961ZM241.062 42.0898V43.8672H228.867V42.0898H233.926V38.6172H236.058V42.0898H241.062ZM234.965 45.5078C238.027 45.5215 240.228 47.8047 240.242 51.0312C240.228 54.2988 238.027 56.5684 234.965 56.5547C231.929 56.5684 229.728 54.2988 229.742 51.0312C229.728 47.8047 231.929 45.5215 234.965 45.5078ZM234.965 47.3398C233.037 47.3398 231.656 48.8848 231.656 51.0312C231.656 53.2188 233.037 54.75 234.965 54.75C236.906 54.75 238.314 53.2188 238.328 51.0312C238.314 48.8848 236.906 47.3398 234.965 47.3398ZM249.648 37.9336V62.2148H247.597V49.9375H244.344V61.0117H242.32V38.4531H244.344V48.1602H247.597V37.9336H249.648ZM275.071 57.293V59.0977H252.841V57.293H258.31V50.7031C256.259 49.6367 255.001 47.8867 255.001 45.6992C255.001 41.9258 258.733 39.4785 263.888 39.4648C269.097 39.4785 272.788 41.9258 272.802 45.6992C272.788 47.8867 271.558 49.623 269.521 50.7031V57.293H275.071ZM263.888 41.1875C259.937 41.1875 257.079 42.9785 257.079 45.6992C257.079 48.4336 259.937 50.2246 263.888 50.2109C267.866 50.2246 270.71 48.4336 270.724 45.6992C270.71 42.9785 267.866 41.1875 263.888 41.1875ZM260.442 57.293H267.388V51.4961C266.335 51.7832 265.159 51.9336 263.888 51.9336C262.644 51.9336 261.482 51.7969 260.442 51.5234V57.293Z" fill="black"/>
</svg>
