<svg width="20" height="20" viewBox="0 0 20 20" fill="none" xmlns="http://www.w3.org/2000/svg">
<path d="M10 9.67188C8.625 9.67188 7.5 9.23438 6.625 8.35938C5.75 7.48438 5.3125 6.35938 5.3125 4.98438C5.3125 3.60938 5.75 2.48438 6.625 1.60938C7.5 0.734375 8.625 0.296875 10 0.296875C11.375 0.296875 12.5 0.734375 13.375 1.60938C14.25 2.48438 14.6875 3.60938 14.6875 4.98438C14.6875 6.35938 14.25 7.48438 13.375 8.35938C12.5 9.23438 11.375 9.67188 10 9.67188ZM0 17.8281V16.7656C0 15.9739 0.197919 15.2969 0.59375 14.7344C0.989582 14.1719 1.5 13.7448 2.125 13.4531C3.52081 12.8281 4.85938 12.3594 6.14063 12.0469C7.42188 11.7344 8.70831 11.5781 10 11.5781C11.2917 11.5781 12.5729 11.7396 13.8438 12.0625C15.1146 12.3854 16.4479 12.8489 17.8438 13.4531C18.4896 13.7448 19.0104 14.1719 19.4062 14.7344C19.8021 15.2969 20 15.9739 20 16.7656V17.8281C20 18.3489 19.8177 18.7917 19.4531 19.1563C19.0886 19.5208 18.6458 19.7031 18.125 19.7031H1.875C1.35419 19.7031 0.911456 19.5208 0.546875 19.1563C0.182294 18.7917 0 18.3489 0 17.8281Z" fill="#1F1F1F"/>
</svg>
