<svg width="348" height="186" viewBox="0 0 348 186" fill="none" xmlns="http://www.w3.org/2000/svg">
<path opacity="0.75" d="M294.868 164.776L86 120.5L127 117L325.5 146.5L340.761 149.552C342.762 149.952 342.949 152.74 341.02 153.404L310.859 163.793C305.717 165.564 300.189 165.904 294.868 164.776Z" fill="#121213"/>
<ellipse opacity="0.75" cx="62.5" cy="170.5" rx="61.5" ry="15.5" fill="#121213"/>
<g clip-path="url(#clip0_2835_11046)">
<path d="M67.5163 0.601805L91.8668 0C91.8668 0 91.9483 0 91.9891 0C95.136 0.204002 228.234 6.44645 325.157 10.7203C330.046 10.9345 342.99 16.1875 342.99 28.8866C342.99 44.0745 343 130.071 342.99 132.489C342.99 132.53 342.99 132.55 342.99 132.591C342.929 133.437 343.255 141.404 332.266 145.208L302.436 155.48C302.192 155.51 301.947 155.48 301.713 155.388L58.9616 67.9223C58.2181 67.6571 57.7802 66.8921 57.9024 66.1169L61.3854 2.79482C61.5178 2.01962 64.5527 0.877207 67.5163 0.591605V0.601805Z" fill="#595F72"/>
<path d="M298.047 150.9C297.293 150.9 296.54 150.829 295.796 150.676L67.2009 105.734C61.7625 104.663 57.811 99.8589 57.811 94.2998V15.3818C57.811 8.95579 63.0254 3.72314 69.4414 3.72314C69.7266 3.72314 70.0016 3.73334 70.2867 3.75374L298.872 20.3697C304.921 20.8083 309.657 25.9083 309.657 31.9876V139.241C309.657 145.667 304.443 150.89 298.037 150.89L298.047 150.9Z" fill="#121213"/>
<path d="M69.4413 8.8233C69.6043 8.8233 69.757 8.8233 69.92 8.8437L298.505 25.4596C301.927 25.7044 304.575 28.5605 304.575 31.9877V139.242C304.575 142.924 301.571 145.79 298.047 145.79C297.629 145.79 297.202 145.749 296.774 145.668L68.1887 100.726C65.1232 100.124 62.9132 97.4314 62.9132 94.3V15.3718C62.9132 11.7303 65.8666 8.8233 69.4413 8.8233ZM69.258 0.877441C60.0413 0.877441 55.0103 5.65108 55.0103 14.8924V93.8104C55.0103 101.797 60.0005 107.601 67.822 109.141L294.818 155.674C295.888 155.888 296.978 155.99 298.057 155.99C307.274 155.99 314.769 148.473 314.769 139.242V31.9979C314.769 23.2666 307.956 15.9226 299.259 15.2902L70.4699 0.928442C70.0626 0.897842 69.6552 0.887641 69.2478 0.887641L69.258 0.877441Z" fill="#353C49"/>
<path d="M100.687 31.0492L92.2642 30.2638L91.8976 30.2332L83.4752 29.4478L80.6338 32.5384L83.4854 36.1696L91.9077 36.9958L92.2744 37.0366L100.697 37.8628L103.538 34.7212L100.687 31.0492Z" fill="#FFC700"/>
<path d="M100.737 59.4666L92.315 58.4976L91.9586 58.4568L83.5362 57.4878L80.6948 60.5172L83.5464 64.2096L91.9688 65.2297L92.3354 65.2705L100.758 66.2803L103.599 63.21L100.737 59.4666Z" fill="#FFC700"/>
<path d="M106.827 59.7317L106.807 49.6132V49.1746L106.787 39.0459L103.935 35.3535L101.094 38.4849L101.114 48.5626V49.0012L101.134 59.0789L103.986 62.8223L106.827 59.7317Z" fill="#FFC700"/>
<path d="M106.734 59.3782L106.713 49.2597V48.8211L106.693 38.6924L103.841 35L101 38.1314L101.02 48.2091V48.6477L101.041 58.7254L103.892 62.4688L106.734 59.3782Z" fill="#FFC700"/>
<path d="M83.139 57.0187L83.1186 47.0838V46.6554L83.0983 36.7103L80.2467 33.0791L77.4053 36.1493L77.4256 46.0434V46.4718L77.446 56.3659L80.3078 60.0481L83.139 57.0187Z" fill="#FFC700"/>
<path d="M83.1593 64.5054L83.1797 74.4402V74.8686L83.2 84.8137L80.3688 87.7717L77.507 84.0283L77.4867 74.1342V73.7058L77.4663 63.8118L80.3077 60.8027L83.1593 64.5054Z" fill="#FFC700"/>
<path d="M141.006 63.6589L140.996 53.2548V52.8162L140.975 42.4224L138.124 38.6279L135.282 41.8512L135.292 52.2042L135.303 52.653L135.313 63.0061L138.164 66.8311L141.006 63.6589Z" fill="#FFC700"/>
<path d="M141.016 71.4719L141.036 81.8658V82.3146L141.057 92.7085L138.215 95.8297L135.364 91.9332L135.343 81.5802V81.1416L135.323 70.7885L138.164 67.6265L141.016 71.4719Z" fill="#FFC700"/>
<path d="M171.222 67.1164L171.212 56.4879V56.0289L171.202 45.4004L168.35 41.5244L165.509 44.8292L165.519 55.4169V55.8759L165.529 66.4636L168.381 70.3804L171.222 67.1164Z" fill="#F4F6F8"/>
<path d="M171.233 75.1136L171.243 85.742L171.253 86.201L171.263 96.8397L168.422 100.032L165.57 96.0543L165.55 85.4768V85.0178L165.54 74.4301L168.381 71.1865L171.233 75.1136Z" fill="#F4F6F8"/>
<path d="M199.3 40.1986L190.878 39.4132L190.511 39.3826L182.089 38.5972L179.238 41.953L182.089 45.8494L190.522 46.6756L190.878 46.7062L199.3 47.5324L202.152 44.1358L199.3 40.1986Z" fill="#F4F6F8"/>
<path d="M205.411 71.0335L205.401 60.1398V59.6604L205.39 48.7667L202.539 44.8091L199.698 48.2057L199.708 59.0586V59.5278L199.718 70.3807L202.569 74.3893L205.411 71.0335Z" fill="#F4F6F8"/>
<path d="M181.722 68.3205L181.712 57.6104V57.1412L181.702 46.4311L178.85 42.5347L176.009 45.8701L176.019 56.5394V56.9984L176.029 67.6677L178.881 71.6049L181.722 68.3205Z" fill="#F4F6F8"/>
<path d="M199.362 108.641L190.939 107.448L190.573 107.397L182.16 106.193L179.309 102.174L182.15 98.9512L190.573 100.104L190.929 100.155L199.351 101.307L202.203 105.367L199.362 108.641Z" fill="#F4F6F8"/>
<path d="M205.411 79.2342L205.421 90.1381V90.6073L205.431 101.501L202.59 104.796L199.738 100.726L199.728 89.8728V89.4036L199.718 78.5508L202.57 75.2153L205.411 79.2342Z" fill="#F4F6F8"/>
<path d="M181.733 76.3785L181.743 87.0988V87.5578L181.763 98.2679L178.912 101.501L176.07 97.4927L176.05 86.8234V86.3644L176.04 75.6951L178.881 72.4209L181.733 76.3785Z" fill="#F4F6F8"/>
<path d="M248.918 44.7987L240.496 44.0133L240.129 43.9827L231.707 43.1973L228.865 46.6857L231.717 50.7147L240.139 51.5409L240.496 51.5715L248.918 52.3977L251.77 48.8685L248.918 44.7987Z" fill="#F4F6F8"/>
<path d="M255.018 76.7151V65.4338V64.9442L255.008 53.6527L252.157 49.5625L249.315 53.0917V64.3424V64.8218L249.325 76.0623L252.167 80.2035L255.018 76.7151Z" fill="#F4F6F8"/>
<path d="M231.34 74.0017L231.33 62.904V62.4246L231.32 51.3167L228.468 47.2979L225.627 50.7557L225.637 61.8126V62.292V73.3489L228.488 77.4289L231.34 74.0017Z" fill="#F4F6F8"/>
<path d="M248.949 115.699L240.526 114.506L240.17 114.455L231.747 113.251L228.896 109.1L231.747 105.744L240.16 106.897L240.526 106.948L248.949 108.1L251.79 112.303L248.949 115.699Z" fill="#F4F6F8"/>
<path d="M255.018 85.2115V96.503L255.029 96.9926V108.274L252.177 111.701L249.336 107.499L249.325 96.2582V95.7686V84.5281L252.167 81.0601L255.018 85.2115Z" fill="#F4F6F8"/>
<path d="M231.34 82.3554L231.35 93.4632V93.9427V105.04L228.509 108.396L225.657 104.265L225.647 93.2082V92.7288V81.672L228.488 78.2651L231.34 82.3554Z" fill="#F4F6F8"/>
<path d="M283.117 47.971L274.684 47.1856L274.328 47.155L265.905 46.3696L263.054 49.9499L265.905 54.0707L274.328 54.8969L274.694 54.9275L283.117 55.7537L285.958 52.1327L283.117 47.971Z" fill="#F4F6F8"/>
<path d="M289.197 80.6317V69.075V68.5854V57.0287L286.355 52.8467L283.504 56.4677V67.9734V68.4732V79.9789L286.355 84.2119L289.197 80.6317Z" fill="#F4F6F8"/>
<path d="M265.518 77.9187V66.5558V66.056L265.508 54.6931L262.667 50.5723L259.815 54.1321V65.4542V65.9438L259.825 77.2659L262.667 81.4377L265.518 77.9187Z" fill="#F4F6F8"/>
<path d="M283.117 120.565L274.694 119.372L274.338 119.321L265.915 118.117L263.074 113.874L265.915 110.426L274.338 111.579L274.694 111.63L283.117 112.782L285.968 117.077L283.117 120.565Z" fill="#F4F6F8"/>
<path d="M289.197 89.3326V100.889V101.389V112.946L286.355 116.455L283.504 112.171V100.655V100.155V88.6492L286.355 85.0894L289.197 89.3326Z" fill="#F4F6F8"/>
<path d="M265.518 86.4765V97.8496V98.3392L265.528 109.712L262.677 113.16L259.835 108.937L259.825 97.6048V97.1151V85.7931L262.667 82.2944L265.518 86.4765Z" fill="#F4F6F8"/>
<path d="M218.192 61.2619C218.192 63.0367 217.092 64.3423 215.738 64.1995C214.383 64.0567 213.283 62.5063 213.283 60.7417C213.283 58.9771 214.383 57.6613 215.738 57.8041C217.092 57.9469 218.192 59.4973 218.192 61.2619Z" fill="#F4F6F8"/>
<path d="M218.223 93.1165C218.223 94.8913 217.123 96.1765 215.768 96.0031C214.414 95.8297 213.314 94.2487 213.314 92.4841C213.314 90.7195 214.414 89.4343 215.768 89.5975C217.123 89.7607 218.223 91.3417 218.223 93.1165Z" fill="#F4F6F8"/>
<path d="M88.4706 65.5435L97.4118 77.5L103 85.6522V90L97.9706 89.4565L91.2647 79.6739L84 69.8913V65L88.4706 65.5435Z" fill="#FFC700"/>
</g>
<g clip-path="url(#clip1_2835_11046)">
<path d="M0 136.137L1.18405 166.804C1.18405 174.092 25.2943 180 56.5 180C87.7057 180 111.816 174.092 111.816 166.804L113 136.137H0Z" fill="#595F72"/>
<path d="M56.5 150C87.7041 150 113 143.425 113 136.137C113 128.849 87.7041 122.941 56.5 122.941C25.2959 122.941 0 128.849 0 136.137C0 143.425 25.2959 150 56.5 150Z" fill="#353C49"/>
<path d="M104.727 118.235C104.727 127.767 83.1354 135.494 56.5001 135.494C29.8649 135.494 8.27368 127.767 8.27368 118.235C8.27368 108.703 21.6535 96 56.5001 96C91.3468 96 104.727 108.706 104.727 118.235Z" fill="#FF3030"/>
<path opacity="0.5" d="M60.8928 120.543C60.582 120.555 60.5553 121.033 60.8632 121.078C66.1766 121.892 77.6856 122.986 86.3973 119.094C92.5721 116.336 90.4734 115.575 87.1107 115.47C83.5822 115.362 80.0685 116.008 76.7532 117.288C73.4378 118.568 67.7484 120.299 60.8928 120.543Z" fill="white"/>
<path d="M8.27368 118.665L8.86571 131.653C8.86571 136.693 29.0301 144.362 55.6654 144.362C82.3006 144.362 104.135 136.69 104.135 131.653L104.727 118.665C90.2693 137.042 18.2256 137.637 8.27368 118.665Z" fill="#E81212"/>
</g>
<defs>
<clipPath id="clip0_2835_11046">
<rect width="288" height="156" fill="white" transform="translate(55)"/>
</clipPath>
<clipPath id="clip1_2835_11046">
<rect width="113" height="84" fill="white" transform="translate(0 96)"/>
</clipPath>
</defs>
</svg>
