<svg width="30" height="30" viewBox="0 0 30 30" fill="none" xmlns="http://www.w3.org/2000/svg">
<g clip-path="url(#clip0_116_677)">
<path d="M10.1285 22.1346L27.5101 4.75297C27.806 4.46567 28.1514 4.32202 28.5463 4.32202C28.9408 4.32202 29.2818 4.46644 29.569 4.75536C29.8563 5.04458 30 5.38771 30 5.78485C30 6.18228 29.8563 6.52465 29.569 6.81194L11.134 25.247C10.8467 25.5343 10.5116 25.6779 10.1285 25.6779C9.74543 25.6779 9.41025 25.5343 9.12295 25.247L0.408267 16.5322C0.120969 16.2427 -0.0147037 15.899 0.00126053 15.5013C0.0172152 15.1032 0.169646 14.7605 0.458544 14.4732C0.747758 14.1859 1.09092 14.0423 1.48803 14.0423C1.88541 14.0423 2.22778 14.1859 2.51508 14.4732L10.1285 22.1346Z" fill="#1A1E27"/>
</g>
<defs>
<clipPath id="clip0_116_677">
<rect width="29.9964" height="30" fill="white"/>
</clipPath>
</defs>
</svg>
