<svg width="20" height="20" viewBox="0 0 20 20" fill="none" xmlns="http://www.w3.org/2000/svg">
<g clip-path="url(#clip0_2792_6448)">
<path d="M10 11.6092L1.95402 19.6552C1.72414 19.8851 1.45594 20 1.14943 20C0.842912 20 0.574713 19.8851 0.344828 19.6552C0.114943 19.4253 0 19.1571 0 18.8506C0 18.5441 0.114943 18.2759 0.344828 18.046L8.3908 10L0.344828 1.95402C0.114943 1.72414 0 1.45594 0 1.14943C0 0.842912 0.114943 0.574713 0.344828 0.344828C0.574713 0.114943 0.842912 0 1.14943 0C1.45594 0 1.72414 0.114943 1.95402 0.344828L10 8.3908L18.046 0.344828C18.2759 0.114943 18.5441 0 18.8506 0C19.1571 0 19.4253 0.114943 19.6552 0.344828C19.8851 0.574713 20 0.842912 20 1.14943C20 1.45594 19.8851 1.72414 19.6552 1.95402L11.6092 10L19.6552 18.046C19.8851 18.2759 20 18.5441 20 18.8506C20 19.1571 19.8851 19.4253 19.6552 19.6552C19.4253 19.8851 19.1571 20 18.8506 20C18.5441 20 18.2759 19.8851 18.046 19.6552L10 11.6092Z" fill="#C4CAD4"/>
</g>
<defs>
<clipPath id="clip0_2792_6448">
<rect width="20" height="20" fill="white"/>
</clipPath>
</defs>
</svg>
