<svg width="53" height="53" viewBox="0 0 53 53" fill="none" xmlns="http://www.w3.org/2000/svg">
<circle cx="26.5" cy="26.5" r="26.5" fill="#FFF1C1"/>
<g clip-path="url(#clip0_759_7980)">
<path d="M5.02541 30.3001C5.02541 28.0993 5.02541 25.8975 5.02541 23.6967C6.39073 23.6327 7.75606 23.5697 9.12039 23.5057C11.6536 23.3856 14.1858 23.2656 16.719 23.1445C16.4501 24.1179 16.1792 25.0872 16.1038 26.1036C15.9827 27.7322 16.2288 29.3078 16.719 30.8533C12.8205 30.6693 8.92293 30.4852 5.02441 30.3001H5.02541ZM10.4103 28.8016C11.4065 28.8046 12.2082 28.0173 12.2251 27.0199C12.241 26.0126 11.4204 25.1883 10.4053 25.1943C9.41509 25.1993 8.61336 26.0096 8.61435 27.0009C8.61633 27.9923 9.42005 28.7986 10.4103 28.8026V28.8016Z" fill="#605F72"/>
<path d="M34.3601 35.1676C32.8172 36.5171 31.0669 37.4435 29.0486 37.8256C28.3699 37.9536 27.6873 38.0347 26.9947 37.9847C26.9947 37.2604 26.9927 36.5361 26.9917 35.8119C27.4333 35.7629 27.8788 35.7789 28.3203 35.6978C31.7326 35.0776 34.113 33.1409 35.2353 29.8527C36.3505 26.5855 35.6907 23.5714 33.3748 21.0015C31.6781 19.1188 29.5061 18.2315 26.9907 18.1835C26.9907 17.4592 26.9927 16.7349 26.9937 16.0097C29.6182 15.9496 31.9083 16.845 33.9384 18.4816C34.0793 18.5956 34.2192 18.7117 34.3591 18.8267C34.5506 19.0298 34.7401 19.2358 34.9336 19.4369C35.9695 20.5093 36.677 21.7918 37.2723 23.1453C37.5482 24.0996 37.8101 25.054 37.8895 26.0533C38.0205 27.6999 37.7744 29.2905 37.2763 30.8521C36.5817 32.4807 35.6361 33.9372 34.3591 35.1666L34.3601 35.1676Z" fill="#FFC400"/>
<path d="M26.9951 16.0098C26.9951 16.734 26.9931 17.4583 26.9921 18.1836L26.998 18.2186C26.3838 18.1736 25.7806 18.2466 25.1832 18.3826C20.5852 19.428 17.7335 23.6095 18.3774 28.3613C18.947 32.5658 22.8495 35.922 26.999 35.776L26.9931 35.811C26.9931 36.5352 26.9951 37.2595 26.9961 37.9838C24.3607 38.0258 22.0587 37.1255 20.0226 35.4739C19.8946 35.3708 19.7676 35.2668 19.6396 35.1627C19.4709 34.9837 19.3052 34.8006 19.1315 34.6256C18.0589 33.5422 17.3316 32.2347 16.7214 30.8512C16.2312 29.3056 15.9851 27.731 16.1062 26.1015C16.1816 25.0851 16.4525 24.1147 16.7204 23.1424C17.41 21.5108 18.3506 20.0513 19.6376 18.8298C21.1805 17.4863 22.9269 16.558 24.9421 16.1748C25.6208 16.0458 26.3035 15.9698 26.9951 16.0088V16.0098Z" fill="#FFD024"/>
<path d="M37.2736 23.1462C36.6782 21.7917 35.9708 20.5102 34.9349 19.4379C34.7404 19.2368 34.5519 19.0317 34.3604 18.8276C35.9469 18.9727 37.5345 19.1157 39.1211 19.2618C41.0848 19.4439 43.0474 19.6249 45.0111 19.813C46.3357 19.94 47.6594 20.0771 48.984 20.2101C48.981 21.3726 48.9781 22.535 48.9751 23.6974C45.0746 23.5133 41.1751 23.3303 37.2746 23.1462H37.2736Z" fill="#FF5917"/>
<path d="M19.6364 18.832C18.3495 20.0535 17.4098 21.513 16.7192 23.1446C14.187 23.2646 11.6538 23.3857 9.12061 23.5057C7.75528 23.5708 6.38996 23.6338 5.02562 23.6968C5.01967 22.6354 5.02662 21.573 4.99883 20.5126C4.98891 20.1445 5.22804 20.1635 5.44534 20.1435C7.01606 19.9955 8.58877 19.8584 10.1595 19.7124C12.4833 19.4963 14.8072 19.2762 17.131 19.0591C17.9655 18.9811 18.7999 18.9081 19.6354 18.832H19.6364Z" fill="#FF5917"/>
<path d="M16.721 30.852C17.3312 32.2355 18.0585 33.543 19.1311 34.6264C19.3048 34.8015 19.4695 34.9845 19.6391 35.1636C14.7682 34.7064 9.89631 34.2493 5.02539 33.7931C5.02539 32.6287 5.02539 31.4643 5.02638 30.2988C8.9249 30.4829 12.8224 30.667 16.721 30.852Z" fill="#FF5917"/>
<path d="M37.2734 23.1465C41.1739 23.3306 45.0735 23.5136 48.974 23.6977C48.974 25.8985 48.974 28.0983 48.974 30.2991C45.0754 30.4842 41.1769 30.6692 37.2774 30.8543C37.7745 29.2927 38.0216 27.7011 37.8906 26.0555C37.8112 25.0562 37.5493 24.1018 37.2734 23.1475V23.1465ZM43.5722 28.8035C44.5704 28.8055 45.3751 28.0133 45.388 27.0149C45.4009 26.0255 44.5972 25.2032 43.6069 25.1922C42.5849 25.1812 41.7604 25.9925 41.7663 27.0049C41.7713 28.0002 42.577 28.8015 43.5722 28.8035Z" fill="#605F72"/>
<path d="M37.2775 30.8531C41.1761 30.668 45.0746 30.4829 48.9741 30.2979C48.9801 31.3432 48.9711 32.3896 48.9999 33.435C49.0088 33.7581 48.8659 33.8311 48.604 33.8551C47.4083 33.9622 46.2127 34.0732 45.018 34.1843C43.0534 34.3663 41.0887 34.5504 39.1241 34.7325C37.5365 34.8795 35.9489 35.0236 34.3604 35.1686C35.6374 33.9402 36.583 32.4826 37.2775 30.8541V30.8531Z" fill="#FF5917"/>
<path d="M10.4107 28.8012C9.42045 28.7982 8.61673 27.9919 8.61475 26.9996C8.61277 26.0082 9.41549 25.1989 10.4057 25.1929C11.4208 25.1879 12.2424 26.0112 12.2255 27.0186C12.2096 28.0159 11.4069 28.8042 10.4107 28.8002V28.8012Z" fill="#FFD900"/>
<path d="M26.9917 18.1836C29.507 18.2316 31.6791 19.1189 33.3758 21.0016C35.6907 23.5716 36.3505 26.5866 35.2362 29.8528C34.114 33.141 31.7336 35.0767 28.3213 35.698C27.8788 35.778 27.4342 35.763 26.9927 35.812L26.9986 35.777C26.9986 34.0564 26.9986 32.3367 26.9967 30.6161C28.2548 31.2563 29.514 31.8966 30.8247 32.5638C30.8118 32.4218 30.8108 32.3427 30.7979 32.2657C30.6025 31.1053 30.4149 29.9429 30.2016 28.7854C30.1381 28.4413 30.1927 28.1902 30.4576 27.9451C31.0152 27.428 31.5401 26.8768 32.0849 26.3456C32.447 25.9934 32.8469 25.6773 33.1833 25.2232C32.9412 25.1781 32.7497 25.1371 32.5582 25.1081C31.4846 24.9471 30.413 24.773 29.3364 24.6389C29.0109 24.5989 28.8531 24.4489 28.7192 24.1718C28.1566 23.0093 27.5761 21.8559 27.0026 20.6985L26.9996 18.2206L26.9937 18.1856L26.9917 18.1836Z" fill="#F04A08"/>
<path d="M26.9966 30.6149C26.9966 32.3355 26.9976 34.0551 26.9976 35.7757C22.8481 35.9218 18.9466 32.5656 18.376 28.3611C17.7321 23.6093 20.5838 19.4278 25.1818 18.3824C25.7792 18.2464 26.3834 18.1733 26.9966 18.2184C26.9966 19.0447 26.9986 19.87 26.9996 20.6963C26.9738 20.7363 26.948 20.7763 26.9212 20.8153C26.5194 21.6326 26.0282 22.4199 25.7365 23.2762C25.3594 24.3826 24.6549 24.7828 23.5476 24.8248C22.6466 24.8588 21.7526 25.0759 21.0293 25.1849C21.8231 26.0612 22.6258 26.9856 23.4732 27.8659C23.7728 28.177 23.8602 28.4591 23.7847 28.8792C23.5704 30.0697 23.3184 31.2541 23.2092 32.4625C23.2033 32.4836 23.1963 32.5046 23.1904 32.5256C23.2102 32.5176 23.2301 32.5106 23.2499 32.5026C24.5389 31.9394 25.7385 31.1971 26.9986 30.5749L26.9947 30.6149H26.9966Z" fill="#FF5917"/>
<path d="M43.5725 28.8033C42.5763 28.8013 41.7716 28 41.7666 27.0046C41.7617 25.9933 42.5852 25.182 43.6072 25.192C44.5985 25.203 45.4022 26.0243 45.3883 27.0146C45.3754 28.013 44.5707 28.8053 43.5725 28.8033Z" fill="#FFD900"/>
<path d="M26.9224 20.8163C26.9482 20.7763 26.974 20.7363 27.0008 20.6973C27.5743 21.8537 28.1547 23.0081 28.7173 24.1705C28.8513 24.4476 29.0091 24.5967 29.3345 24.6377C30.4111 24.7717 31.4837 24.9458 32.5563 25.1069C32.7488 25.1359 32.9393 25.1769 33.1814 25.2219C32.8451 25.6761 32.4452 25.9922 32.083 26.3443C31.5383 26.8745 31.0134 27.4267 30.4558 27.9439C30.1908 28.19 30.1363 28.4401 30.1998 28.7842C30.4131 29.9416 30.6006 31.104 30.7961 32.2645C30.809 32.3415 30.811 32.4205 30.8229 32.5626C29.5121 31.8953 28.254 31.2551 26.9948 30.6149L26.9988 30.5749C26.9988 27.5328 26.9988 24.4916 26.9958 21.4495C26.9958 21.2365 27.0385 21.0154 26.9214 20.8153L26.9224 20.8163Z" fill="#FFC400"/>
<path d="M26.9222 20.8164C27.0393 21.0165 26.9966 21.2376 26.9966 21.4506C26.9996 24.4927 26.9996 27.5338 26.9996 30.576C25.7395 31.1982 24.5408 31.9405 23.2509 32.5037C23.238 32.4897 23.2241 32.4766 23.2102 32.4626C23.3204 31.2552 23.5714 30.0698 23.7857 28.8803C23.8611 28.4602 23.7738 28.1781 23.4742 27.867C22.6268 26.9866 21.8231 26.0633 21.0303 25.186C21.7536 25.077 22.6476 24.8599 23.5486 24.8259C24.6559 24.7838 25.3604 24.3837 25.7375 23.2773C26.0292 22.421 26.5194 21.6347 26.9222 20.8164Z" fill="#FFD019"/>
<path d="M23.2519 32.5039C23.2321 32.5119 23.2122 32.5189 23.1924 32.5269C23.1983 32.5059 23.2053 32.4849 23.2112 32.4639C23.2251 32.4769 23.238 32.4909 23.2519 32.5039Z" fill="#FFD019"/>
</g>
<defs>
<clipPath id="clip0_759_7980">
<rect width="44" height="22" fill="white" transform="translate(5 16)"/>
</clipPath>
</defs>
</svg>
