<svg width="54" height="54" viewBox="0 0 54 54" fill="none" xmlns="http://www.w3.org/2000/svg">
<g clip-path="url(#clip0_1907_10441)">
<g clip-path="url(#clip1_1907_10441)">
<path d="M26.9998 30.6691C35.2398 30.6691 41.9196 23.9893 41.9196 15.7493C41.9196 7.50939 35.2398 0.82959 26.9998 0.82959C18.7599 0.82959 12.0801 7.50939 12.0801 15.7493C12.0801 23.9893 18.7599 30.6691 26.9998 30.6691Z" fill="#353C49"/>
<path d="M41.8581 46.7941L32.9038 23.941C30.8005 18.5659 23.1992 18.5659 21.0959 23.941L12.1416 46.7941H41.8704H41.8581Z" fill="#353C49"/>
<path d="M38.0329 17.3731C37.3564 17.3731 36.8029 16.8073 36.8152 16.1308C36.8521 10.9648 34.5643 7.96368 29.8042 6.95509C29.14 6.81979 28.7096 6.1679 28.8571 5.5037C28.9924 4.83951 29.6443 4.40901 30.3085 4.55661C36.2248 5.7989 39.3244 9.80866 39.2752 16.1554C39.2752 16.8319 38.7217 17.3731 38.0452 17.3731H38.0329Z" fill="white"/>
<path d="M52.5566 45.4946C39.8271 40.5177 30.3983 46.7325 26.9948 49.5655C23.5914 46.7197 14.1625 40.5177 1.44336 45.4946" stroke="#FF3030" stroke-width="6.14994" stroke-miterlimit="10"/>
</g>
</g>
<defs>
<clipPath id="clip0_1907_10441">
<rect width="54" height="54" fill="white"/>
</clipPath>
<clipPath id="clip1_1907_10441">
<rect width="63" height="52.5451" fill="white" transform="translate(-4.5 0.829834)"/>
</clipPath>
</defs>
</svg>
