<svg width="28" height="28" viewBox="0 0 28 28" fill="none" xmlns="http://www.w3.org/2000/svg">
<circle cx="14" cy="14" r="14" fill="#FF3030"/>
<path d="M6.96893 16.6395L6.02366 20.7193C5.99105 20.8685 5.99216 21.023 6.02693 21.1717C6.06169 21.3203 6.12922 21.4593 6.22458 21.5785C6.31995 21.6977 6.44074 21.7941 6.57812 21.8607C6.71551 21.9272 6.86603 21.9623 7.01869 21.9632C7.08979 21.9709 7.16151 21.9709 7.23262 21.9632L11.3371 21.0178L19.2178 13.1666L14.8197 8.77832L6.96893 16.6395Z" fill="white"/>
<path d="M21.6952 9.23726L18.7599 6.30177C18.5669 6.10975 18.3057 6.00195 18.0335 6.00195C17.7613 6.00195 17.5001 6.10975 17.3071 6.30177L15.6753 7.9337L20.0684 12.327L21.7002 10.6951C21.7957 10.5991 21.8713 10.4852 21.9228 10.3599C21.9742 10.2347 22.0005 10.1005 22 9.96513C21.9995 9.82973 21.9724 9.69574 21.9201 9.57085C21.8678 9.44595 21.7914 9.33259 21.6952 9.23726Z" fill="white"/>
</svg>
