<svg width="221" height="63" viewBox="0 0 221 63" fill="none" xmlns="http://www.w3.org/2000/svg">
<path d="M31.7248 10.6133V12.4453H27.76V25.1875H25.5998V0.90625H27.76V10.6133H31.7248ZM12.0647 3.28516V17.2305C15.6467 17.2168 19.2698 16.957 23.2756 16.1367L23.5491 17.9414C19.3381 18.8027 15.5373 19.0352 11.8733 19.0352H9.93188V3.28516H12.0647ZM40.8238 2.71094C44.6245 2.71094 47.3589 5.02148 47.3589 8.39844C47.3589 11.7754 44.6245 14.1133 40.8238 14.1133C36.9956 14.1133 34.2476 11.7754 34.2613 8.39844C34.2476 5.02148 36.9956 2.71094 40.8238 2.71094ZM40.8238 4.57031C38.2261 4.57031 36.3394 6.11523 36.3394 8.39844C36.3394 10.668 38.2261 12.2539 40.8238 12.2539C43.3804 12.2539 45.2534 10.668 45.2534 8.39844C45.2534 6.11523 43.3804 4.57031 40.8238 4.57031ZM52.8003 0.90625V25.2422H50.6402V0.90625H52.8003ZM33.0034 18.0781C37.4331 18.0781 43.6675 18.0645 49.0269 17.2305L49.1909 18.8164C43.6812 19.8691 37.6656 19.9102 33.3042 19.9102L33.0034 18.0781ZM75.6466 4.48828C75.6329 8.6582 80.3907 12.3496 84.588 13.1289L83.6036 14.9336C79.9532 14.0859 76.0977 11.502 74.5255 7.93359C72.9259 11.4883 69.0841 14.0996 65.42 14.9336L64.463 13.1289C68.6466 12.3223 73.377 8.64453 73.377 4.48828V2.60156H75.6466V4.48828ZM85.7364 20.1289V21.9336H63.5059V20.1289H85.7364ZM107.577 0.90625V25.2422H105.445V11.8711H100.277V10.0938H105.445V0.90625H107.577ZM99.8939 3.12109V4.92578H90.7064V9.95703H98.8002V11.707H90.7064V17.5859C95.2181 17.5996 98.0345 17.4902 101.398 16.875L101.617 18.625C98.0892 19.2539 95.0404 19.3906 90.4056 19.3906H88.5736V3.12109H99.8939ZM131.36 0.933594V25.2422H129.227V0.933594H131.36ZM124.469 3.23047V5.03516H115.063V17.3672C119.848 17.3809 122.924 17.2168 126.575 16.5469L126.794 18.3516C122.979 19.0625 119.753 19.2129 114.899 19.1992H112.93V3.23047H124.469ZM162.136 0.933594V15.3984H159.948V9.02734H155.054V7.22266H159.948V0.933594H162.136ZM154.07 16.1367C159.101 16.1504 162.218 17.832 162.218 20.6758C162.218 23.5332 159.101 25.1875 154.07 25.1875C149.011 25.1875 145.907 23.5332 145.921 20.6758C145.907 17.832 149.011 16.1504 154.07 16.1367ZM154.07 17.832C150.323 17.8457 148.04 18.8984 148.054 20.6758C148.04 22.4395 150.323 23.5059 154.07 23.4922C157.802 23.5059 160.085 22.4395 160.085 20.6758C160.085 18.8984 157.788 17.8457 154.07 17.832ZM150.433 5.33594C150.419 8.49414 152.866 11.543 156.421 12.7734L155.3 14.4688C152.566 13.4844 150.46 11.4609 149.421 8.94531C148.355 11.8027 146.099 14.0586 143.187 15.1523L142.093 13.4297C145.689 12.1309 148.273 8.86328 148.273 5.36328V4.48828H142.777V2.71094H155.847V4.48828H150.433V5.33594ZM188.133 20.293V22.0977H165.903V20.293H175.883V15.043H168.528V2.62891H170.661V7.00391H183.321V2.62891H185.426V15.043H178.043V20.293H188.133ZM170.661 13.293H183.321V8.78125H170.661V13.293ZM212.025 12.2266V13.8672H189.795V12.2266H212.025ZM209.236 15.8633V21.0312H194.635V23.3281H210.029V24.8867H192.529V19.5273H207.131V17.4219H192.474V15.8633H209.236ZM209.154 1.64453V6.67578H194.799V8.80859H209.619V10.3672H192.666V5.17188H207.049V3.20312H192.638V1.64453H209.154ZM19.7209 37.7422V45.4805H23.1936V48.0234H19.7209V56.1992H16.6584V37.7422H19.7209ZM14.9358 40.4766V42.9102H0.279533V40.4766H6.07641V37.7148H9.13891V40.4766H14.9358ZM7.60766 43.9766C11.1623 43.9629 13.6643 45.8633 13.678 48.6797C13.6643 51.4688 11.1623 53.3555 7.60766 53.3555C4.02563 53.3555 1.53735 51.4688 1.53735 48.6797C1.53735 45.8633 4.02563 43.9629 7.60766 43.9766ZM7.60766 46.3008C5.76196 46.3145 4.4768 47.1895 4.46313 48.6797C4.4768 50.1289 5.76196 51.0039 7.60766 51.0039C9.43969 51.0039 10.7248 50.1289 10.7248 48.6797C10.7248 47.1895 9.43969 46.3145 7.60766 46.3008ZM20.7327 59.4531V61.9414H3.88891V54.7773H6.97875V59.4531H20.7327ZM44.187 44.6602V47.0938H27.1245V38.4805H30.1597V44.6602H44.187ZM46.7027 49.5273V51.9883H37.2144V56.5547H34.1519V51.9883H24.1714V49.5273H46.7027ZM44.3511 59.4805V61.9414H26.9058V54.5859H29.9683V59.4805H44.3511ZM69.3914 37.7148V62.4062H66.4656V37.7148H69.3914ZM64.3055 38.1523V61.2578H61.4344V49.5H59.0281C58.7684 54.3398 56.7312 57.252 53.6687 57.2383C50.4148 57.252 48.3094 53.9023 48.3094 48.4062C48.3094 42.9512 50.4148 39.5605 53.6687 39.5742C56.6492 39.5605 58.6727 42.3633 59.0008 46.9844H61.4344V38.1523H64.3055ZM53.6687 42.4727C52.0828 42.4727 51.1258 44.5508 51.1258 48.4062C51.1258 52.2617 52.0828 54.3535 53.6687 54.3672C55.282 54.3535 56.2527 52.2617 56.2391 48.4062C56.2527 44.5508 55.282 42.4727 53.6687 42.4727ZM98.1712 37.7422V44.9336H101.507V47.4766H98.1712V54.4492H95.0814V37.7422H98.1712ZM78.347 51.4688C80.2337 51.4688 82.3529 51.4688 84.5541 51.4141V49.8555C81.806 49.5273 80.097 48.2285 80.097 46.3008C80.097 44.0449 82.4623 42.6367 86.0853 42.6367C89.6947 42.6367 92.0462 44.0449 92.0462 46.3008C92.0462 48.2285 90.3509 49.5137 87.6439 49.8555V51.3047C89.7494 51.209 91.8685 51.0449 93.8509 50.7852L94.0697 52.918C88.7923 53.834 83.0638 53.8613 78.7025 53.875L78.347 51.4688ZM98.1712 55.543V62.4062H95.0814V57.9492H81.4642V55.543H98.1712ZM93.1673 39.6836V41.9258H78.9759V39.6836H84.5541V37.5234H87.6439V39.6836H93.1673ZM86.0853 44.6875C84.1849 44.6875 83.0228 45.2617 83.0228 46.3008C83.0228 47.3398 84.1986 47.9414 86.0853 47.9414C87.972 47.9414 89.1205 47.3398 89.1205 46.3008C89.1205 45.2617 87.972 44.6875 86.0853 44.6875ZM123.102 37.7422V55.5977H120.012V37.7422H123.102ZM123.786 59.4531V61.9414H106.723V53.793H109.786V59.4531H123.786ZM109.622 39.3555C113.381 39.3555 116.28 41.9395 116.294 45.5625C116.28 49.1582 113.381 51.7559 109.622 51.7695C105.821 51.7559 102.923 49.1582 102.923 45.5625C102.923 41.9395 105.821 39.3555 109.622 39.3555ZM109.622 42.0078C107.53 42.0215 105.944 43.3887 105.93 45.5625C105.944 47.6953 107.53 49.0625 109.622 49.0625C111.7 49.0625 113.272 47.6953 113.286 45.5625C113.272 43.3887 111.7 42.0215 109.622 42.0078ZM138.463 41.625V44.0859H126.377V41.625H130.943V38.3984H134.006V41.625H138.463ZM132.447 45.3984C135.605 45.3848 137.875 47.7773 137.889 51.168C137.875 54.5723 135.605 56.9512 132.447 56.9375C129.33 56.9512 127.047 54.5723 127.06 51.168C127.047 47.7773 129.33 45.3848 132.447 45.3984ZM132.447 47.9414C130.889 47.9551 129.781 49.1992 129.768 51.168C129.781 53.1641 130.889 54.3945 132.447 54.3945C134.019 54.3945 135.154 53.1641 135.154 51.168C135.154 49.1992 134.019 47.9551 132.447 47.9414ZM147.705 37.7148V62.4062H144.779V50.375H142.373V61.3125H139.502V38.207H142.373V47.8867H144.779V37.7148H147.705ZM172.909 56.9375V59.4531H150.351V56.9375H160.058V52.125H152.839V39.3555H155.874V43.375H167.304V39.3555H170.366V52.125H163.12V56.9375H172.909ZM155.874 49.6641H167.304V45.8086H155.874V49.6641ZM181.981 44.1406C181.981 48.1465 183.348 52.3027 186.711 54.3945L185.016 56.8008C182.815 55.4609 181.366 53.1641 180.559 50.457C179.629 53.5605 177.989 55.9805 175.719 57.3477L173.86 55.0234C177.428 52.9043 179.014 48.502 179.028 44.3047V39.9297H181.981V44.1406ZM195.571 37.7148V62.4062H192.645V37.7148H195.571ZM190.457 38.1523V61.2578H187.559V48.7344H184.086V46.2188H187.559V38.1523H190.457ZM220.748 56.9102V59.4531H198.189V56.9102H203.357V50.6484C201.402 49.5273 200.213 47.7637 200.213 45.5898C200.213 41.625 204.109 39.0684 209.427 39.0547C214.773 39.0684 218.642 41.625 218.642 45.5898C218.642 47.7637 217.467 49.5137 215.525 50.6484V56.9102H220.748ZM209.427 41.4609C205.763 41.4746 203.234 43.0195 203.22 45.5898C203.234 48.1465 205.763 49.7051 209.427 49.7188C213.105 49.7051 215.635 48.1465 215.635 45.5898C215.635 43.0195 213.105 41.4746 209.427 41.4609ZM206.42 56.9102H212.463V51.7969C211.519 52.002 210.508 52.0977 209.427 52.0977C208.361 52.0977 207.349 52.002 206.42 51.7969V56.9102Z" fill="black"/>
</svg>
