<svg width="35" height="25" viewBox="0 0 35 25" fill="none" xmlns="http://www.w3.org/2000/svg">
<g clip-path="url(#clip0_1907_12093)">
<path d="M34.9927 12.0382C34.9927 13.9725 34.9707 15.914 35 17.8483C35.0147 18.6616 34.4505 19.1378 33.7325 19.1378C30.516 19.1378 27.5194 19.9804 24.7645 21.6582C23.8633 22.2077 22.9841 22.7866 21.995 23.1749C20.0167 23.9515 17.9726 24.2153 15.8551 23.9295C13.9941 23.6731 12.2943 22.999 10.7264 21.966C8.98263 20.8157 7.08499 20.0097 5.04815 19.5481C3.78794 19.2624 2.51308 19.1085 1.2309 19.1305C0.556835 19.1525 0 18.6396 0 17.8996C0.0219803 13.9798 0.0146535 10.06 0 6.14013C0 5.42943 0.527528 4.90923 1.21624 4.90923C4.68914 4.90923 7.89094 3.94943 10.7923 2.03714C12.3896 0.989409 14.126 0.322672 16.0163 0.0882155C17.1886 -0.05832 18.3536 -0.0290129 19.5185 0.16881C21.2989 0.469208 22.9035 1.1799 24.4055 2.16169C26.2518 3.36328 28.2667 4.17656 30.4354 4.58685C31.5491 4.79933 32.6701 4.90923 33.7984 4.91656C34.5457 4.91656 34.9853 5.36349 34.9853 6.11082C34.9853 8.08905 34.9853 10.06 34.9853 12.0382H34.9927ZM17.5037 20.2222C22.017 20.2222 25.695 16.5442 25.7023 12.0382C25.7023 7.51756 22.0316 3.83952 17.5037 3.8322C12.9977 3.8322 9.31233 7.50291 9.305 12.0162C9.305 16.5368 12.983 20.2222 17.5037 20.2222ZM30.0837 13.6647C30.9776 13.6647 31.7103 12.9247 31.7176 12.0309C31.7176 11.1297 30.9776 10.3897 30.0691 10.3897C29.1679 10.3897 28.4352 11.137 28.4425 12.0455C28.4425 12.9321 29.1899 13.6647 30.0837 13.6647ZM4.93092 13.6647C5.82479 13.6647 6.56479 12.9394 6.57212 12.0455C6.57212 11.137 5.84677 10.397 4.93825 10.3897C4.03705 10.3897 3.29705 11.1297 3.29705 12.0309C3.29705 12.9247 4.03705 13.6574 4.93092 13.6647Z" fill="#353C49"/>
<path d="M30.0838 13.6637C29.19 13.6637 28.4426 12.9311 28.4426 12.0445C28.4426 11.136 29.168 10.396 30.0692 10.3887C30.9777 10.3887 31.7177 11.1213 31.7177 12.0299C31.7177 12.9237 30.9777 13.6564 30.0838 13.6637Z" fill="#8E95A2"/>
<path d="M4.92367 13.6638C4.0298 13.6638 3.28979 12.9238 3.28979 12.0299C3.28979 11.1214 4.0298 10.3814 4.93099 10.3887C5.83219 10.3887 6.57219 11.1361 6.56486 12.0446C6.56486 12.9384 5.81753 13.6638 4.92367 13.6638Z" fill="#8E95A2"/>
<path d="M17.4889 18.0389C14.1699 18.0389 11.481 15.328 11.4883 12.0016C11.4956 8.69724 14.2065 6.00831 17.5182 6.01564C20.8373 6.02297 23.5262 8.72655 23.5189 12.0529C23.5115 15.3573 20.808 18.0462 17.4889 18.0389ZM15.4814 15.0642C15.5253 15.1375 15.5766 15.284 15.6646 15.3206C15.7745 15.3646 15.9576 15.3573 16.0529 15.2913C16.4485 15.0276 16.8149 14.7272 17.2032 14.4488C17.4669 14.2583 17.5622 14.2509 17.8186 14.4488C18.185 14.7198 18.544 14.9909 18.903 15.262C19.0422 15.3646 19.1814 15.4305 19.3499 15.3353C19.5184 15.2327 19.5331 15.0789 19.4965 14.9103C19.4012 14.4341 19.3133 13.9505 19.2107 13.4743C19.1594 13.2252 19.2254 13.0567 19.4378 12.9028C19.8628 12.6024 20.2804 12.2947 20.6761 11.965C20.764 11.8917 20.8446 11.7159 20.8226 11.606C20.8006 11.5034 20.6541 11.3788 20.5369 11.3495C20.0093 11.225 19.4818 11.1151 18.947 11.0198C18.6905 10.9759 18.544 10.8586 18.4487 10.6095C18.2582 10.104 18.0458 9.60576 17.8479 9.10021C17.782 8.9317 17.6867 8.79249 17.4816 8.79981C17.2838 8.79981 17.2032 8.9317 17.1372 9.10021C16.9394 9.61309 16.7269 10.1186 16.5291 10.6315C16.4412 10.8586 16.302 10.9759 16.0675 11.0198C15.54 11.1151 15.0198 11.225 14.4996 11.3276C14.3384 11.3569 14.1992 11.4228 14.1552 11.5986C14.1113 11.7891 14.2212 11.9064 14.3604 12.0089C14.7267 12.2874 15.0784 12.5804 15.4667 12.8295C15.7964 13.042 15.8404 13.2911 15.7525 13.6428C15.6353 14.0971 15.562 14.5587 15.4667 15.0715L15.4814 15.0642Z" fill="#353C49"/>
<path d="M15.4815 15.0637C15.584 14.5508 15.6573 14.0893 15.7672 13.635C15.8551 13.2833 15.8112 13.0342 15.4815 12.8217C15.0931 12.5726 14.7415 12.2795 14.3751 12.0011C14.2359 11.8985 14.126 11.7813 14.17 11.5908C14.2139 11.415 14.3458 11.349 14.5143 11.3197C15.0345 11.2172 15.5621 11.0999 16.0823 11.012C16.324 10.968 16.4633 10.8508 16.5438 10.6237C16.7417 10.1108 16.9541 9.60526 17.152 9.09239C17.2179 8.9312 17.2985 8.79932 17.4963 8.79199C17.7015 8.79199 17.7967 8.92387 17.8627 9.09239C18.0605 9.59794 18.273 10.0962 18.4635 10.6017C18.5514 10.8435 18.7052 10.968 18.9617 11.012C19.4965 11.1073 20.0241 11.2098 20.5516 11.3417C20.6688 11.371 20.8154 11.4956 20.8373 11.5981C20.8593 11.7007 20.7861 11.8766 20.6908 11.9572C20.2878 12.2869 19.8775 12.6019 19.4526 12.895C19.2401 13.0415 19.1668 13.2174 19.2254 13.4665C19.328 13.9427 19.4159 14.4263 19.5112 14.9025C19.5478 15.0784 19.5332 15.2322 19.3647 15.3275C19.1961 15.4227 19.0569 15.3568 18.9177 15.2542C18.5587 14.9831 18.1924 14.7047 17.8334 14.4409C17.5769 14.2504 17.4817 14.2504 17.2179 14.4409C16.8369 14.7267 16.4633 15.0198 16.0676 15.2835C15.9724 15.3495 15.7965 15.3568 15.6793 15.3128C15.5914 15.2762 15.5401 15.1297 15.4961 15.0564L15.4815 15.0637Z" fill="#FF3030"/>
</g>
<defs>
<clipPath id="clip0_1907_12093">
<rect width="35" height="24.0465" fill="white"/>
</clipPath>
</defs>
</svg>
