<svg width="393" height="407" viewBox="0 0 393 407" fill="none" xmlns="http://www.w3.org/2000/svg">
<g clip-path="url(#clip0_3736_15047)">
<path d="M114.753 387.623L409.688 342.487C417.946 341.224 423.615 333.505 422.352 325.247L377.216 30.3122C375.952 22.0543 368.233 16.3845 359.975 17.6482L65.0407 62.784C56.7828 64.0477 51.113 71.7666 52.3767 80.0245L97.5125 374.959C98.7763 383.217 106.495 388.887 114.753 387.623Z" fill="url(#paint0_linear_3736_15047)"/>
<path d="M114.273 370.202L403.209 325.984L402.941 324.233L114.005 368.451L114.273 370.202Z" fill="#E8E9ED"/>
<path d="M113.727 366.565L402.664 322.347L402.396 320.596L113.459 364.813L113.727 366.565Z" fill="white"/>
<path d="M112.239 356.878L401.175 312.661L400.907 310.909L111.971 355.127L112.239 356.878Z" fill="white"/>
<path d="M71.8198 82.8169L360.756 38.5991L360.488 36.8475L71.5517 81.0653L71.8198 82.8169Z" fill="#E8E9EC"/>
<path d="M72.3705 86.4331L361.307 42.2153L361.039 40.4637L72.1025 84.6815L72.3705 86.4331Z" fill="white"/>
<path d="M73.8592 96.1201L362.795 51.9023L362.527 50.1507L73.5911 94.3685L73.8592 96.1201Z" fill="white"/>
<path d="M70.0557 81.3123L114.273 370.249L116.025 369.98L71.8073 81.0443L70.0557 81.3123Z" fill="#E8E9EC"/>
<path d="M73.681 80.7517L117.899 369.688L119.65 369.42L75.4326 80.4837L73.681 80.7517Z" fill="white"/>
<path d="M83.3597 79.2649L127.578 368.201L129.329 367.933L85.1113 78.9969L83.3597 79.2649Z" fill="white"/>
<path d="M359.403 37.0306L403.621 325.967L405.372 325.699L361.155 36.7625L359.403 37.0306Z" fill="#E8E9EC"/>
<path d="M355.783 37.5711L400 326.507L401.752 326.239L357.534 37.303L355.783 37.5711Z" fill="white"/>
<path d="M346.094 39.0589L390.312 327.995L392.063 327.727L347.846 38.7908L346.094 39.0589Z" fill="white"/>
<path d="M106.987 391.202L98.9498 385.681L122.577 351.289C124.102 349.069 127.138 348.513 129.35 350.032C131.569 351.557 132.125 354.593 130.606 356.805L106.979 391.197L106.987 391.202Z" fill="#DCDCDC"/>
<path d="M133.715 367.565L111.424 352.251L127.747 328.49C128.835 326.907 131.01 326.504 132.593 327.591L149.14 338.959C150.723 340.047 151.126 342.222 150.039 343.805L133.715 367.565Z" fill="#DCDCDC"/>
<path d="M114.916 373.547L132.778 368.239C134.136 367.835 134.426 366.033 133.251 365.229L113.933 351.96C112.758 351.156 111.18 352.068 111.3 353.484L112.756 372.061C112.839 373.133 113.891 373.855 114.916 373.547Z" fill="white"/>
<path d="M104.57 393.032C107.108 392.14 108.441 389.359 107.549 386.821C106.656 384.284 103.875 382.951 101.338 383.843C98.8004 384.736 97.467 387.516 98.3597 390.054C99.2523 392.591 102.033 393.925 104.57 393.032Z" fill="white"/>
<path d="M424.927 335.742L418.886 343.396L386.135 317.541C384.022 315.872 383.668 312.806 385.33 310.7C386.999 308.587 390.065 308.233 392.171 309.895L424.921 335.75L424.927 335.742Z" fill="#DCDCDC"/>
<path d="M403.115 307.507L386.357 328.735L363.731 310.873C362.224 309.683 361.965 307.486 363.155 305.979L375.595 290.221C376.785 288.714 378.982 288.455 380.489 289.645L403.115 307.507Z" fill="#DCDCDC"/>
<path d="M407.845 326.644L403.741 308.474C403.433 307.092 401.654 306.69 400.774 307.797L386.246 326.193C385.369 327.309 386.176 328.946 387.597 328.929L406.229 328.703C407.305 328.691 408.087 327.692 407.854 326.641L407.845 326.644Z" fill="white"/>
<path d="M371.022 17.4399L378.675 23.4819L352.821 56.2324C351.152 58.3459 348.085 58.6996 345.98 57.0373C343.866 55.3689 343.513 52.3022 345.175 50.1966L371.03 17.4461L371.022 17.4399Z" fill="#DCDCDC"/>
<path d="M342.782 39.2617L364.009 56.0198L346.147 78.646C344.957 80.1534 342.76 80.4118 341.253 79.2218L325.496 66.7821C323.988 65.5921 323.73 63.3953 324.92 61.8879L342.782 39.2617Z" fill="#DCDCDC"/>
<path d="M361.922 34.5347L343.753 38.6387C342.371 38.9465 341.968 40.7252 343.075 41.6055L361.471 56.1328C362.588 57.0098 364.224 56.2032 364.207 54.7821L363.981 36.1507C363.97 35.0739 362.97 34.292 361.919 34.5254L361.922 34.5347Z" fill="white"/>
<path d="M376.453 25.0679C378.991 24.1753 380.324 21.3946 379.431 18.8571C378.539 16.3196 375.758 14.9862 373.221 15.8789C370.683 16.7715 369.35 19.5522 370.242 22.0896C371.135 24.6271 373.916 25.9605 376.453 25.0679Z" fill="white"/>
<path d="M88.2219 95.5912C86.708 97.818 83.6743 98.3891 81.4557 96.8808L46.9487 73.4218L52.4308 65.3579L86.9378 88.8169C89.1646 90.3307 89.7357 93.3644 88.2274 95.583L88.2219 95.5912Z" fill="#DCDCDC"/>
<path d="M110.677 98.723L99.3898 115.326C98.3101 116.914 96.1372 117.328 94.549 116.248L70.7093 100.041L85.9145 77.6752L109.754 93.8822C111.342 94.9619 111.757 97.1348 110.677 98.723Z" fill="#DCDCDC"/>
<path d="M66.2279 78.9161L84.7937 77.3697C86.21 77.2493 87.1314 78.8245 86.3274 79.9994L73.1532 99.378C72.3585 100.55 70.5505 100.273 70.1461 98.9142L64.7546 81.0819C64.4465 80.0569 65.1554 78.9995 66.2279 78.9161Z" fill="white"/>
<path d="M51.2904 73.981C53.8279 73.0883 55.1613 70.3077 54.2687 67.7702C53.376 65.2327 50.5954 63.8993 48.0579 64.7919C45.5204 65.6846 44.187 68.4652 45.0796 71.0027C45.9723 73.5402 48.7529 74.8736 51.2904 73.981Z" fill="white"/>
<path d="M219.549 289.981C218.355 286.854 215.754 284.233 215.214 280.907C214.242 274.984 216.577 270.196 219.693 278.366C222.863 281.711 220.892 272.886 221.081 271.455C221.866 263.96 217.34 254.764 227.112 252.145C229.179 250.861 226.822 245.384 227.653 242.824C228.079 235.591 231.048 236.425 235.431 233.372C234.581 229.138 232.853 225.18 232.265 220.854C231.159 215.293 231.447 208.622 234.08 203.876C235.547 204.766 236.937 206.093 238.495 207.119C239.389 207.602 238.552 208.505 239.095 209.185C240.393 210.397 240.298 215.079 242.467 214.264C242.789 214.465 242.611 214.675 242.446 214.89C241.217 216.498 240.988 218.205 241.553 219.99C243.951 227.164 246.488 227.783 253.314 226.693C254.933 227.865 248.49 278.489 256.175 272.952C255.229 275.572 254.553 278.245 252.885 280.573C250.452 284.515 249.167 279.489 248.496 277.374C248.245 276.602 247.989 276.021 246.938 276.495C240.879 279.886 236.952 275.254 231.808 273.16C226.812 271.549 228.045 275.292 226.933 278.632C224.128 283.249 228.552 303.133 219.549 289.95L219.549 289.981Z" fill="#B41D17"/>
<path d="M253.276 184.195C253.276 184.195 261.361 185.968 261.758 180.413C262.154 174.859 261.073 172.322 257.149 171.1C257.149 171.1 258.665 169.622 255.334 168.537C252.004 167.453 249.409 166.76 248.347 169.348C248.347 169.348 248.222 170.662 243.789 170.322C239.353 169.972 238.094 176.208 238.094 176.208L253.279 184.204L253.276 184.195Z" fill="#1B309B"/>
<path d="M240.59 173.997L236.696 181.601L234.072 191.265L225.575 192.586L219.183 184.708L217.012 181.998C215.656 177.815 216.957 173.548 220.612 169.23L221.942 167.881L226.6 164.416L240.587 173.988L240.59 173.997Z" fill="#1B309B"/>
<path d="M219.858 182.959C219.858 182.959 223.451 181.716 226.947 190.55C226.947 190.55 227.522 192.425 231.262 190.973C235.001 189.522 235.738 192.988 235.738 192.988C235.738 192.988 235.61 196.086 234.348 198.315C234.348 198.315 233.198 198.656 237.864 203.238C242.526 207.81 240.16 207.856 239.575 208.282L237.883 209.527C237.883 209.527 237.313 210.651 235.539 208.652C233.766 206.652 229.594 204.52 229.594 204.52C229.594 204.52 225.355 202.433 225.059 196.042C225.059 196.042 218.516 190.987 218.214 183.863C218.192 183.472 218.484 183.138 218.865 183.088L219.849 182.962L219.858 182.959Z" fill="white"/>
<path d="M223.529 156.849C212.902 156.652 215.896 140.582 212.992 133.25C210.238 132.225 211.728 138.637 209.658 139.345C203.274 134.979 208.557 123.508 211.212 117.778C214.785 115.587 215.065 124.377 215.714 126.699C217.594 129.239 218.742 135.099 221.319 136.04C227.611 134.236 228.696 125.27 236.498 126.597C237.825 126.76 238.442 126.155 238.352 124.707C238.499 110.834 251.427 132.522 250.412 137.422C249.921 141.992 249.715 147.7 252.957 151.429C261.089 156.617 264.777 167.22 262.024 176.426C261.374 177.83 260.556 174.55 260.037 174.239C255.836 169.158 247.636 171.445 243.09 171.438C242.164 169.97 241.329 168.521 239.564 167.768C239.613 167.341 239.028 166.991 239.412 166.53C241.186 165.549 237.764 162.503 236.264 162.475C232.465 161.817 228.829 160.462 225.036 161.104C225.773 159.47 225.57 156.834 223.526 156.871L223.529 156.849ZM247.664 159.052C249.984 161.71 247.845 155.452 248.549 154.26C248.996 152.34 246.219 152.739 244.761 152.591C241.566 154.576 247.469 156.382 247.664 159.052Z" fill="#B41D17"/>
<path d="M237.319 176.481C237.319 176.481 237.521 175.623 244.442 176.714C244.442 176.714 248.226 176.044 251.095 180.261C253.963 184.478 255.277 185.558 252.762 190.43C250.247 195.303 246.3 195.747 243.984 195.009C241.667 194.271 237.148 196.102 232.497 187.831C232.497 187.831 229.963 180.747 233.476 179.249L237.322 176.49L237.319 176.481Z" fill="#4FA5E8"/>
<path d="M244.864 180.658C244.864 180.658 246.174 177.311 248.341 182.426C248.341 182.426 254.28 187.378 249.694 187.228C245.108 187.078 245.095 188.741 242.634 191.59C240.173 194.439 238.335 192.168 237.708 187.908C237.083 183.657 235.441 180.3 244.877 180.664L244.864 180.658Z" fill="#1F1815"/>
<path d="M222.005 167.554C222.005 167.554 214.226 177.479 218.22 183.85C222.214 190.221 220.569 190.915 220.569 190.915L212.843 194.997C212.843 194.997 211.034 197.103 208.487 191.713C205.944 186.332 207.066 183.975 207.066 183.975L210.655 182.093C214.783 175.572 218.872 169.296 222.005 167.554Z" fill="#4FA5E8"/>
<path d="M210.649 182.106C210.649 182.106 206.021 185.15 208.491 191.722C208.491 191.722 202.862 186.849 201.271 183.61C201.271 183.61 200.582 180.368 203.019 180.046L210.649 182.106Z" fill="white"/>
<path d="M198.68 176.273C198.68 176.273 196.943 175.96 196.462 177.305C195.98 178.65 194.182 185.652 196.322 190.304C196.322 190.304 196.735 191.596 198.855 191.449C200.976 191.301 198.179 183.827 198.179 183.827L198.671 176.276L198.68 176.273Z" fill="white"/>
<path d="M203.025 180.034L200.235 176.786C200.235 176.786 197.735 174.811 197.19 178.539C196.799 181.248 196.659 185.086 196.619 186.999C196.599 187.898 196.795 188.784 197.212 189.582C198.037 191.181 199.568 193.087 201.01 189.19L201.274 183.588C201.274 183.588 201.131 180.616 203.022 180.024L203.025 180.034Z" fill="#1F1815"/>
<path d="M227.169 159.441C227.169 159.441 224.959 160.019 224.666 162.378C224.363 164.741 238.651 164.846 238.651 164.846L239.243 165.813L239.344 166.397C239.344 166.397 243.387 163.631 239.006 161.678C234.612 159.719 227.181 159.447 227.181 159.447L227.169 159.441Z" fill="white"/>
<path d="M225.486 165.217C225.486 165.217 224.336 163.617 224.666 162.378C224.843 161.718 225.453 161.157 226.891 161.008C231.026 160.592 242.843 162.532 239.244 165.813C235.644 169.094 225.486 165.217 225.486 165.217Z" fill="#1F1815"/>
<path d="M231.388 173.015L238.247 175.272C238.247 175.272 242.362 176.647 243.318 171.547C244.273 166.447 237.059 164.944 237.059 164.944L230.366 163.458C230.366 163.458 226.351 163.59 225.567 165.597C225.3 166.268 225.395 167.137 226.116 168.29C228.991 172.883 231.388 173.015 231.388 173.015Z" fill="white"/>
<path d="M258.014 215.532L252.304 219.734L240.252 218.349C240.252 218.349 237.764 217.272 238.61 212.22L236.413 209.048C236.413 209.048 238.432 205.598 241.375 205.403L244.23 208.984C244.23 208.984 254.402 206.875 258.014 215.532Z" fill="#1B309B"/>
<path d="M265.767 211.976C265.767 211.976 273.99 209.429 272.759 222.843C272.759 222.843 270.85 227.083 273.661 230.271C276.472 233.458 267.603 233.304 267.603 233.304L259.842 215.896C259.842 215.896 260.29 213.472 265.763 211.966L265.767 211.976Z" fill="#DD1300"/>
<path d="M252.936 218.189C252.936 218.189 249.97 211.488 245.405 214.353C240.837 217.209 240.573 218.487 240.727 219.461C240.881 220.436 241.224 226.601 247.674 230.198L250.71 234.325C251.334 235.176 253.877 231.993 253.877 231.993L252.936 218.189Z" fill="#DD1300"/>
<path d="M254.746 258.626C254.746 258.626 250.461 262.138 244.923 257.821C244.923 257.821 247.892 264.647 250.519 267.134C250.519 267.134 253.407 268.752 254.438 266.521L254.746 258.626Z" fill="white"/>
<path d="M256.736 271.799C256.736 271.799 256.514 273.556 255.084 273.608C253.654 273.66 246.444 273.3 242.637 269.875C242.637 269.875 241.525 269.101 242.306 267.116C243.087 265.131 249.377 270.033 249.377 270.033L256.73 271.812L256.736 271.799Z" fill="white"/>
<path d="M254.438 266.521L256.711 270.15C256.711 270.15 257.853 273.127 254.127 272.528C251.427 272.103 247.719 271.078 245.885 270.548C245.02 270.296 244.23 269.84 243.59 269.215C242.307 267.955 240.943 265.927 245.094 265.705L250.515 267.125C250.515 267.125 253.309 268.146 254.435 266.512L254.438 266.521Z" fill="#1F1815"/>
<path d="M274.327 248.989C274 246.837 258.021 257.852 255.131 249.55C252.663 242.443 248.043 247.269 248.043 247.269L244.038 255.037C244.038 255.037 241.952 256.862 247.363 259.356C252.773 261.849 255.109 260.703 255.109 260.703L256.947 257.097C261.588 257.343 271.589 254.601 274.308 248.995L274.327 248.989Z" fill="#FA5442"/>
<path d="M269.566 232.382L261.146 233.833L251.137 233.451L247.347 241.174L252.963 249.62L254.901 252.506C258.494 255.051 262.94 255.072 268.161 252.878L269.846 252.002L274.543 248.587L269.579 232.388L269.566 232.382Z" fill="#DF0D05"/>
<path d="M264.84 234.37L262.196 236.13C262.196 236.13 259.693 238.92 254.069 234.508C254.069 234.508 251.791 233.252 254.753 238.36C257.714 243.468 264.631 242.755 264.84 234.37Z" fill="white"/>
<path d="M280.487 249.466C280.487 249.466 279.279 251.402 276.937 250.977C274.594 250.553 278.748 236.887 278.748 236.887L277.999 236.038L277.475 235.771C277.475 235.771 281.319 232.74 281.883 237.505C282.438 242.274 280.487 249.466 280.487 249.466Z" fill="white"/>
<path d="M274.477 249.355C274.477 249.355 275.662 250.933 276.94 250.987C277.632 251.016 278.336 250.6 278.915 249.263C280.543 245.448 282.213 233.579 278.011 236.044C273.81 238.508 274.477 249.355 274.477 249.355Z" fill="#1F1815"/>
<path d="M268.875 241.305L268.652 234.079C268.652 234.079 268.502 229.745 273.664 230.28C278.827 230.815 278.218 238.154 278.218 238.154L277.74 244.997C277.74 244.997 276.475 248.8 274.33 248.998C273.618 249.06 272.807 248.726 271.905 247.71C268.315 243.653 268.865 241.308 268.865 241.308L268.875 241.305Z" fill="white"/>
<path d="M257.645 215.766C257.645 215.766 268.665 214.188 268.149 227.34C267.634 240.492 256.802 237.712 256.802 237.712C256.802 237.712 250.268 236.978 249.907 228.343C249.545 219.707 254.045 216.152 257.648 215.776L257.645 215.766Z" fill="#FA5442"/>
<path d="M255.294 230.351C255.426 230.399 255.561 230.425 255.705 230.448C256.11 230.494 256.513 230.416 256.908 230.497C257.8 230.676 258.341 231.557 258.746 232.38C258.921 232.727 259.105 233.103 259.431 233.314C259.953 233.634 260.645 233.422 261.178 233.119C262.822 232.184 263.948 230.371 264.061 228.485C264.087 228.024 264.067 227.548 264.257 227.135C264.56 226.504 265.294 226.204 265.774 225.689C266.414 225.002 266.54 223.898 266.075 223.085C265.486 222.065 264.222 221.754 263.08 221.463C262.14 220.608 261.779 219.045 260.549 218.712C259.76 218.496 258.842 219.018 258.626 219.808C258.381 220.692 258.929 221.653 258.696 222.543C258.576 223.005 258.259 223.389 257.949 223.761C257.415 224.39 256.803 225.067 255.974 225.127C255.474 225.167 254.992 224.959 254.49 224.904C253.574 224.807 252.614 225.27 252.126 226.061C252.053 226.181 251.983 226.311 251.992 226.455C252.004 226.608 252.113 227.157 252.196 227.275C252.527 227.767 252.667 228.106 252.998 228.598C253.55 229.422 254.384 230.063 255.297 230.361L255.294 230.351Z" fill="#1F1815"/>
<path d="M253.675 235.297C253.675 235.297 248.513 239.684 253.007 244.106C257.5 248.527 257.922 249.785 256.876 251.465C255.83 253.145 255.087 252.734 253.949 251.886C252.811 251.037 244.338 246.221 245.07 241.115C245.803 236.009 251.146 233.447 251.146 233.447L253.675 235.297Z" fill="#F8F9F9"/>
</g>
<defs>
<linearGradient id="paint0_linear_3736_15047" x1="406.202" y1="178.46" x2="-26.184" y2="240.365" gradientUnits="userSpaceOnUse">
<stop stop-color="#EE5454"/>
<stop offset="0.445" stop-color="#E74A4C"/>
<stop offset="1" stop-color="#CD0006"/>
</linearGradient>
<clipPath id="clip0_3736_15047">
<rect width="393" height="407" fill="white"/>
</clipPath>
</defs>
</svg>
