<svg width="29" height="28" viewBox="0 0 29 28" fill="none" xmlns="http://www.w3.org/2000/svg">
<circle cx="14.5" cy="14" r="14" fill="#353C49"/>
<path d="M7.46893 16.64L6.52366 20.7198C6.49105 20.869 6.49216 21.0235 6.52693 21.1721C6.56169 21.3208 6.62922 21.4598 6.72458 21.579C6.81995 21.6982 6.94074 21.7946 7.07812 21.8612C7.21551 21.9277 7.36603 21.9627 7.51869 21.9637C7.58979 21.9714 7.66151 21.9714 7.73262 21.9637L11.8371 21.0183L19.7178 13.1671L15.3197 8.77881L7.46893 16.64Z" fill="white"/>
<path d="M22.1952 9.23726L19.2599 6.30177C19.0669 6.10975 18.8057 6.00195 18.5335 6.00195C18.2613 6.00195 18.0001 6.10975 17.8071 6.30177L16.1753 7.9337L20.5684 12.327L22.2002 10.6951C22.2957 10.5991 22.3713 10.4852 22.4228 10.3599C22.4742 10.2347 22.5005 10.1005 22.5 9.96513C22.4995 9.82973 22.4724 9.69574 22.4201 9.57085C22.3678 9.44595 22.2914 9.33259 22.1952 9.23726Z" fill="white"/>
</svg>
