<svg width="53" height="53" viewBox="0 0 53 53" fill="none" xmlns="http://www.w3.org/2000/svg">
<circle cx="26.5" cy="26.5" r="26.5" fill="#FFE37F"/>
<g clip-path="url(#clip0_2363_9110)">
<path d="M13.449 24.1515C12.6923 24.3981 11.9298 24.5529 11.1386 24.3637C10.0608 24.1056 9.26393 23.515 9.05754 22.3682C8.85688 21.2559 9.29833 20.3958 10.2328 19.7708C10.2615 19.7536 10.2787 19.7249 10.3245 19.6848C10.1009 19.507 9.85443 19.3637 9.67097 19.1515C9.04607 18.4118 8.82249 17.5689 9.155 16.6458C9.50471 15.6767 10.2787 15.1779 11.2475 15.0001C12.6063 14.7478 13.7643 15.2868 14.8536 16.0208C14.9625 16.0953 15.0428 16.2157 15.2205 16.21C15.2205 16.0494 15.1059 15.9634 15.0371 15.8602C14.544 15.1549 14.1484 14.4038 14.0051 13.5437C13.7185 11.7891 14.3892 10.6366 16.0518 10.0059H16.8716C17.3475 10.1721 17.8233 10.3327 18.196 10.7054C18.3851 10.8946 18.5342 11.1068 18.7062 11.3533C19.0444 10.8086 19.4515 10.4187 20.0076 10.1951C20.1509 10.1377 20.3172 10.1377 20.4261 10.0116H21.3835C22.5301 10.3499 23.1951 11.124 23.4073 12.2822C23.5334 12.976 23.4302 13.6584 23.1951 14.3235C22.9543 15.0059 22.5473 15.5965 22.1575 16.1928C22.1403 16.2157 22.1231 16.2329 22.1059 16.2559C22.0829 16.2845 22.0141 16.3017 22.0543 16.3476C22.0829 16.382 22.1345 16.3591 22.1517 16.3075C22.1747 16.2903 22.2033 16.2673 22.2263 16.2501C22.8512 15.843 23.4588 15.4072 24.1812 15.1893C24.2099 15.2696 24.2729 15.3098 24.3417 15.3556C24.6341 15.5678 24.9208 15.7914 25.1444 16.0838C25.9068 17.093 25.6259 18.71 24.5711 19.4841C24.3131 19.6733 24.3245 19.7421 24.5711 19.9313C25.9699 21.015 25.924 23.1366 24.3991 24.0024C24.3188 24.0483 24.2041 24.0884 24.1984 24.2146C23.4302 23.9967 22.8053 23.5093 22.1173 23.1251C22.7193 23.968 23.2353 24.8338 23.4073 25.8545C23.5506 26.6974 23.4531 27.5116 22.983 28.2455C22.0715 29.6618 20.0936 29.7765 19.0272 28.4692C18.9183 28.3373 18.8266 28.1997 18.7119 28.0448C18.2819 28.7616 17.6857 29.226 16.8716 29.3407C15.4498 29.5471 14.2746 28.6068 14.0109 27.1332C13.8905 26.4623 14.0395 25.8258 14.1542 25.1779C14.4122 24.5471 14.7332 23.9508 15.1403 23.4004C15.1804 23.3487 15.2607 23.2971 15.2091 23.2283C15.1403 23.1481 15.0657 23.2169 15.0027 23.2627C14.5383 23.6297 13.9994 23.882 13.472 24.1458L13.449 24.1515ZM15.3638 23.0563C15.3638 23.0563 15.3753 23.0391 15.381 23.0276C15.381 23.0391 15.3696 23.0449 15.3638 23.0563C15.3581 23.0563 15.3466 23.0563 15.3409 23.0678C15.3409 23.0678 15.3409 23.0793 15.3352 23.085C15.3466 23.0735 15.3524 23.0678 15.3638 23.0563ZM16.0403 20.1893C16.5964 20.1893 17.1583 20.1893 17.7144 20.1893C18.0163 20.1893 18.1673 20.3346 18.1673 20.6251C18.1673 21.7662 18.1673 22.9015 18.1673 24.0426C18.1673 24.4153 18.3909 24.6446 18.7234 24.6332C19.01 24.6217 19.1935 24.3981 19.1935 24.0426C19.1935 22.8786 19.1992 21.7203 19.1935 20.5563C19.1935 20.2696 19.291 20.1836 19.5719 20.1836C20.7242 20.1951 21.8708 20.1836 23.0231 20.1836C23.155 20.1836 23.2926 20.2065 23.413 20.1033C23.5964 19.9543 23.6996 19.7765 23.6194 19.5357C23.5276 19.2662 23.327 19.1515 23.0403 19.1515C21.8765 19.1515 20.7185 19.1458 19.5547 19.1572C19.2738 19.1572 19.1878 19.0827 19.1878 18.796C19.205 17.6205 19.1878 16.4508 19.1992 15.2754C19.1992 14.9887 19.0846 14.8224 18.8151 14.7536C18.4711 14.6676 18.173 14.96 18.1673 15.3843C18.1673 16.5254 18.1616 17.6607 18.1673 18.8017C18.1673 19.0598 18.11 19.163 17.829 19.1515C17.1009 19.1343 16.3729 19.1458 15.6448 19.1458C15.2148 19.1458 14.7791 19.14 14.3491 19.1458C13.9822 19.1515 13.7815 19.3751 13.793 19.7249C13.8045 20.0517 13.9478 20.1721 14.3376 20.1721C14.9052 20.1721 15.4785 20.1721 16.0461 20.1721L16.0403 20.1893Z" fill="#9CD226"/>
<path d="M44.0002 38.0905C43.7709 38.6181 43.5244 39.1341 43.0256 39.4724C41.9937 40.172 40.9044 40.235 39.7635 39.7993C39.8323 39.6559 39.9871 39.61 40.1018 39.524C40.87 38.9908 41.2541 38.2568 41.1796 37.3222C41.1165 36.508 40.6694 35.9059 40.0387 35.43C39.8782 35.3096 39.9183 35.2465 40.0502 35.1605C40.3884 34.9541 40.6235 34.6559 40.8299 34.3233C41.3975 33.3944 41.2541 32.1903 40.5031 31.4048C40.2738 31.1639 39.947 31.0607 39.7578 30.7855C41.1624 30.2293 42.7504 30.5963 43.5473 31.6513C43.7537 31.9265 43.8454 32.2477 43.9888 32.5458V33.5034C43.7766 34.2603 43.3811 34.8795 42.6472 35.3038C43.3925 35.6995 43.748 36.336 43.9888 37.0584V38.0848L44.0002 38.0905Z" fill="#84BA27"/>
<path d="M39.7636 30.7915C39.9528 31.0667 40.2796 31.1699 40.5089 31.4108C41.2599 32.1963 41.4032 33.4004 40.8357 34.3293C40.6293 34.6619 40.3942 34.9601 40.056 35.1665C39.9184 35.2468 39.8782 35.3099 40.0445 35.436C40.6751 35.9119 41.1223 36.514 41.1854 37.3282C41.2599 38.2686 40.8758 38.9968 40.1076 39.53C39.9872 39.6103 39.8381 39.6619 39.7693 39.8053C39.0298 39.6046 38.4278 39.1287 37.7628 38.7732C38.1985 39.4268 38.6055 40.0748 38.8463 40.8144C39.1788 41.8293 39.1903 42.8328 38.6342 43.7789C37.7513 45.2869 35.6874 45.4303 34.5981 44.0599C34.5064 43.9452 34.4262 43.819 34.3402 43.7043C34.2714 43.7043 34.2484 43.7617 34.214 43.8076C33.5891 44.7193 32.7349 45.1493 31.6342 44.9486C30.499 44.7479 29.9085 43.9624 29.6506 42.9016C29.4212 41.967 29.6276 41.0782 30.0175 40.2181C30.2468 39.7193 30.5736 39.2777 30.866 38.819C30.8832 38.7961 30.9004 38.7789 30.9176 38.756C30.9577 38.7215 31.0322 38.6757 30.9806 38.6298C30.9462 38.5954 30.8946 38.6642 30.8717 38.7101C30.843 38.7273 30.8201 38.7502 30.7914 38.7674C30.092 39.2376 29.3926 39.6963 28.5613 39.9199C27.6096 40.1722 26.6923 40.1378 25.8266 39.6218C24.2902 38.7043 24.2042 36.5771 25.6547 35.522C25.7464 35.4532 25.8381 35.3959 25.9528 35.3213C25.7063 35.1206 25.4425 34.9658 25.2419 34.7307C23.9692 33.2399 24.7259 31.1069 26.6923 30.6539C27.7816 30.4016 28.7906 30.6711 29.7423 31.1986C30.1149 31.405 30.4704 31.6516 30.866 31.8982C30.8602 31.6975 30.7341 31.6057 30.6538 31.4968C29.9544 30.4819 29.4556 29.4039 29.576 28.1252C29.6506 27.3225 29.9716 26.6287 30.6137 26.1241C31.6399 25.3041 33.1821 25.5163 34.0306 26.5713C34.1223 26.686 34.2026 26.8064 34.2886 26.9211C34.3688 26.9498 34.3688 26.881 34.386 26.8523C35.0281 25.8947 36.0486 25.4475 37.0863 25.6768C38.0494 25.889 38.8348 26.8007 39.0126 27.8844C39.1158 28.4922 39.0527 29.0828 38.8807 29.6676C38.8635 29.7193 38.7775 29.7766 38.8692 29.8397C38.6915 30.2009 38.5482 30.5851 38.3246 30.9234C38.1354 31.2101 37.9577 31.514 37.7742 31.8064C37.7628 31.8179 37.757 31.8293 37.7456 31.8408C37.757 31.8293 37.7685 31.8236 37.7742 31.8121C38.3475 31.491 38.9151 31.1699 39.4884 30.8431C39.5859 30.8832 39.6661 30.7972 39.7579 30.7972L39.7636 30.7915ZM33.8127 37.9131C33.8127 38.5266 33.8127 39.1401 33.8127 39.7594C33.8127 40.0576 33.9847 40.1952 34.237 40.2468C34.558 40.3099 34.8389 40.0002 34.8389 39.5931C34.8389 38.4635 34.8504 37.3397 34.8332 36.2101C34.8332 35.9004 34.9249 35.8316 35.2173 35.8316C36.3467 35.8488 37.4704 35.8431 38.5998 35.8316C39.0068 35.8316 39.2189 35.631 39.2189 35.2754C39.2189 34.9142 39.0756 34.8053 38.6342 34.8053C37.4818 34.8053 36.3352 34.7995 35.1829 34.8053C34.9135 34.8053 34.8332 34.7307 34.8389 34.4612C34.8504 33.3202 34.8447 32.1849 34.8389 31.0438C34.8389 30.5965 34.6555 30.3672 34.3058 30.3615C33.9503 30.3557 33.8127 30.5335 33.8127 31.0151C33.8127 32.1332 33.8013 33.2456 33.8185 34.3638C33.8242 34.7078 33.7267 34.8167 33.377 34.811C32.2189 34.7881 31.0551 34.7995 29.8913 34.811C29.4786 34.811 29.255 35.1321 29.404 35.4933C29.513 35.7628 29.7366 35.8374 30.0117 35.8374C31.1526 35.8374 32.2877 35.8431 33.4286 35.8259C33.721 35.8259 33.8299 35.8832 33.8185 36.1986C33.7898 36.7663 33.8127 37.3397 33.8127 37.9073V37.9131Z" fill="#9CD226"/>
<path d="M24.1813 24.2087C24.1813 24.0825 24.3017 24.0424 24.3819 23.9965C25.9126 23.1249 25.9585 21.0091 24.5539 19.9254C24.3074 19.7362 24.2959 19.6674 24.5539 19.4781C25.6088 18.7041 25.8954 17.0871 25.1272 16.0779C24.9036 15.7855 24.6227 15.5619 24.3246 15.3497C24.2558 15.3038 24.1927 15.258 24.1641 15.1834C25.1215 14.8279 26.0732 14.8164 27.0019 15.2809C28.7505 16.1582 28.8881 18.469 27.2656 19.5642C27.2083 19.6043 27.151 19.6387 27.0936 19.6731C27.0936 19.7591 27.1739 19.7763 27.2255 19.8107C28.051 20.3784 28.4753 21.1754 28.3836 22.1674C28.2804 23.2683 27.5981 23.9506 26.5777 24.2947C25.775 24.5699 24.9724 24.5183 24.1813 24.2201V24.2087Z" fill="#84BA27"/>
<path d="M37.7798 31.8006C37.9632 31.5082 38.141 31.2043 38.3302 30.9176C38.5537 30.5793 38.6971 30.1951 38.8748 29.8339C39.2876 29.5128 39.5341 29.0598 39.8035 28.6297C40.9673 26.8121 41.598 24.8396 41.5292 22.6664C41.4948 21.5827 41.2712 20.5277 40.91 19.5013C40.8699 19.3809 40.824 19.2662 40.7839 19.1515C40.6578 18.7788 40.7609 18.5093 41.0705 18.3947C41.3686 18.2857 41.6209 18.4176 41.7585 18.7674C42.0681 19.5414 42.2974 20.3327 42.4293 21.1584C43.0083 24.8339 41.9018 27.999 39.5226 30.78C39.5112 30.7972 39.4997 30.8201 39.494 30.8373C38.9207 31.1584 38.3531 31.4795 37.7798 31.8064V31.8006Z" fill="#659F01"/>
<path d="M13.4492 24.1516C13.9766 23.8878 14.5155 23.6413 14.9799 23.2686C15.043 23.217 15.1175 23.1482 15.1863 23.2342C15.2379 23.2972 15.1576 23.3546 15.1175 23.4062C14.7104 23.9509 14.3837 24.5472 14.1314 25.1837C14.0167 25.1837 13.9766 25.2697 13.925 25.3385C12.3255 27.397 11.3968 29.6906 11.477 32.3339C11.5114 33.4349 11.7407 34.4956 12.1134 35.5335C12.1535 35.6482 12.1994 35.7686 12.2395 35.889C12.3484 36.233 12.2395 36.5025 11.9357 36.6115C11.649 36.7147 11.391 36.5943 11.2592 36.2674C10.8865 35.3443 10.6285 34.3924 10.5139 33.4062C10.1183 30.0404 11.1502 27.1046 13.2428 24.5014C13.3231 24.3982 13.4549 24.3236 13.4492 24.1631V24.1516Z" fill="#659F01"/>
<path d="M16.0401 20.1833C15.4726 20.1833 14.8993 20.1833 14.3317 20.1833C13.9419 20.1833 13.7985 20.0629 13.7871 19.7361C13.7756 19.3863 13.982 19.1684 14.3432 19.157C14.7732 19.1455 15.2089 19.157 15.6388 19.157C16.3669 19.157 17.095 19.1455 17.8231 19.1627C18.104 19.1684 18.1671 19.071 18.1614 18.8129C18.1499 17.6719 18.1556 16.5366 18.1614 15.3955C18.1614 14.9655 18.4652 14.6788 18.8092 14.7648C19.0786 14.8336 19.1933 14.9999 19.1933 15.2866C19.1876 16.462 19.1933 17.6317 19.1818 18.8072C19.1818 19.0939 19.2678 19.1742 19.5487 19.1684C20.7125 19.1512 21.8706 19.1684 23.0344 19.1627C23.3211 19.1627 23.5217 19.2774 23.6134 19.5469C23.6937 19.7877 23.5905 19.9597 23.4071 20.1145C23.2867 20.2178 23.1491 20.1891 23.0172 20.1948C21.8649 20.1948 20.7183 20.2006 19.5659 20.1948C19.285 20.1948 19.1876 20.2751 19.1876 20.5675C19.199 21.7315 19.1933 22.8898 19.1876 24.0538C19.1876 24.4093 19.0041 24.6329 18.7175 24.6444C18.3849 24.6558 18.1614 24.4265 18.1614 24.0538C18.1614 22.9127 18.1614 21.7774 18.1614 20.6363C18.1614 20.3458 18.0104 20.2006 17.7085 20.2006C17.1523 20.2006 16.5905 20.2006 16.0344 20.2006L16.0401 20.1833Z" fill="#659F01"/>
<path d="M22.1347 16.2957C22.1175 16.3474 22.0659 16.3703 22.0372 16.3359C21.9971 16.29 22.0659 16.2728 22.0888 16.2441C22.1003 16.2613 22.1175 16.2785 22.1347 16.29V16.2957Z" fill="white"/>
<path d="M22.0889 16.2442C22.0889 16.2442 22.1233 16.2041 22.1405 16.1812C22.1634 16.1984 22.1863 16.2156 22.2093 16.2328C22.1863 16.25 22.1577 16.2729 22.1347 16.2901C22.1175 16.2729 22.1003 16.2614 22.0889 16.2442Z" fill="white"/>
<path d="M15.3638 23.0568C15.3638 23.0568 15.3753 23.0394 15.3811 23.0278C15.3811 23.0394 15.3696 23.0452 15.3638 23.0568Z" fill="#659F01"/>
<path d="M15.3639 23.0562C15.3639 23.0562 15.3465 23.0735 15.335 23.0851C15.335 23.0793 15.335 23.0735 15.3407 23.0677C15.3465 23.0677 15.3581 23.0619 15.3639 23.0562Z" fill="#659F01"/>
<path d="M33.8124 37.9127C33.8124 37.345 33.7952 36.7716 33.8181 36.204C33.8353 35.8886 33.7207 35.8255 33.4283 35.8313C32.2874 35.8485 31.1523 35.8313 30.0114 35.8428C29.7362 35.8428 29.5184 35.7682 29.4037 35.4987C29.2547 35.1375 29.4783 34.8164 29.891 34.8164C31.0548 34.8164 32.2129 34.7992 33.3767 34.8164C33.7264 34.8221 33.8239 34.7074 33.8181 34.3691C33.8009 33.251 33.8124 32.1386 33.8124 31.0205C33.8124 30.5389 33.95 30.3611 34.3054 30.3668C34.6552 30.3726 34.8386 30.6019 34.8386 31.0492C34.8386 32.1902 34.8443 33.3255 34.8386 34.4666C34.8386 34.7361 34.9131 34.8164 35.1826 34.8106C36.3349 34.7992 37.4815 34.8049 38.6339 34.8106C39.081 34.8106 39.2186 34.9253 39.2186 35.2808C39.2186 35.6363 39.0122 35.837 38.5995 35.837C37.4701 35.837 36.3464 35.8485 35.217 35.837C34.9246 35.837 34.8272 35.9058 34.8329 36.2155C34.8501 37.345 34.8443 38.4689 34.8386 39.5985C34.8386 40.0056 34.5577 40.321 34.2367 40.2522C33.9844 40.2005 33.8067 40.0629 33.8124 39.7648C33.8181 39.1512 33.8124 38.5377 33.8124 37.9184V37.9127Z" fill="#659F01"/>
<path d="M30.8716 38.7043C30.8945 38.6584 30.9461 38.5896 30.9805 38.624C31.0321 38.6756 30.9576 38.7158 30.9174 38.7502C30.906 38.733 30.8888 38.7215 30.8716 38.7043Z" fill="white"/>
<path d="M37.7812 31.8062C37.7812 31.8062 37.7574 31.8241 37.7515 31.836C37.7634 31.8241 37.7693 31.8122 37.7812 31.8003V31.8062Z" fill="#659F01"/>
<path d="M30.9173 38.7441C30.9173 38.7441 30.8829 38.7843 30.8657 38.8072C30.8427 38.79 30.8198 38.7728 30.7969 38.7556C30.8255 38.7384 30.8485 38.7154 30.8771 38.6982C30.8943 38.7097 30.9058 38.7269 30.923 38.7441H30.9173Z" fill="white"/>
</g>
<defs>
<clipPath id="clip0_2363_9110">
<rect width="35" height="35" fill="white" transform="translate(9 10)"/>
</clipPath>
</defs>
</svg>
